<?xml version="1.0" encoding="UTF-8" standalone="no"?>
<!-- Created with Inkscape (http://www.inkscape.org/) -->

<svg
   width="48"
   height="48"
   viewBox="0 0 48 48"
   version="1.1"
   id="svg1"
   xml:space="preserve"
   inkscape:version="1.3.2 (091e20e, 2023-11-25, custom)"
   sodipodi:docname="angel-solid.svg"
   xmlns:inkscape="http://www.inkscape.org/namespaces/inkscape"
   xmlns:sodipodi="http://sodipodi.sourceforge.net/DTD/sodipodi-0.dtd"
   xmlns="http://www.w3.org/2000/svg"
   xmlns:svg="http://www.w3.org/2000/svg"><sodipodi:namedview
     id="namedview1"
     pagecolor="#505050"
     bordercolor="#eeeeee"
     borderopacity="1"
     inkscape:showpageshadow="0"
     inkscape:pageopacity="0"
     inkscape:pagecheckerboard="0"
     inkscape:deskcolor="#505050"
     inkscape:document-units="px"
     inkscape:zoom="4"
     inkscape:cx="-51"
     inkscape:cy="22.125"
     inkscape:window-width="2560"
     inkscape:window-height="1369"
     inkscape:window-x="-8"
     inkscape:window-y="-8"
     inkscape:window-maximized="1"
     inkscape:current-layer="g9" /><defs
     id="defs1" /><g
     inkscape:label="Layer 1"
     inkscape:groupmode="layer"
     id="layer1"><rect
       style="display:none;fill:none;stroke:#000000;stroke-width:8;stroke-dasharray:none;stroke-opacity:1"
       id="rect1"
       width="48"
       height="48"
       x="0"
       y="0"
       inkscape:label="border spacer"
       sodipodi:insensitive="true" /><g
       id="g9"
       inkscape:label="sprinting-person"><path
         id="path1"
         style="fill:#ffffff;stroke:none;stroke-width:1"
         d="m 3.5778388,16.820312 c -0.6111814,-0.04335 -0.4244263,0.419127 -0.4414063,1.314454 -0.043982,2.319207 0.2398002,4.164825 0.6992188,4.570312 1.4903105,1.315378 4.5569687,1.704669 8.5117197,1.076172 2.17091,-0.345007 2.118963,-0.324644 1.988281,-0.886719 -0.108789,-0.467903 0.233217,-0.309411 -3.626953,-1.667969 -1.3520525,-0.475846 -3.3329805,-1.172446 -4.4003915,-1.548828 -1.0674089,-0.376382 -2.0472735,-0.71362 -2.1777343,-0.75 -0.2346228,-0.06544 -0.2698519,-0.223535 -0.2324219,-1.017578 0.00678,-0.143533 0.3235894,-0.04228 4.78125,1.521485 2.4669027,0.865397 4.9093317,1.717498 5.4257817,1.894531 l 0.941406,0.322266 0.158203,0.740234 c 0.448839,2.084644 2.469279,5.109559 3.423829,5.130859 l 5.412109,2.890625 5.412109,-2.890625 c 0.95455,-0.0213 2.97499,-3.046215 3.423829,-5.130859 l 0.158203,-0.740234 0.941406,-0.322266 c 0.51645,-0.177033 2.958879,-1.029134 5.425781,-1.894531 4.457661,-1.563764 4.774473,-1.665018 4.78125,-1.521485 0.03743,0.794043 0.0022,0.952139 -0.232422,1.017578 -0.130461,0.03638 -1.110325,0.373618 -2.177734,0.75 -1.067411,0.376382 -3.048339,1.072982 -4.400391,1.548828 -3.86017,1.358558 -3.518164,1.200066 -3.626953,1.667969 -0.130682,0.562075 -0.182629,0.541712 1.988281,0.886719 3.95475,0.628497 7.021409,0.239206 8.511719,-1.076172 0.459419,-0.405487 0.743201,-2.251105 0.699219,-4.570312 -0.01698,-0.895327 0.169775,-1.357799 -0.441406,-1.314454 -0.611185,0.04334 -2.022121,0.592442 -5.234375,1.716797 -1.930491,0.675712 -4.988058,1.740759 -6.017578,2.097657 -0.945768,0.327857 -0.889339,0.262019 -1.123047,1.394531 -0.513774,2.489654 -1.812981,4.696871 -3.626953,4.746094 H 24.04073 19.579792 C 17.76582,26.726168 16.466613,24.518951 15.952839,22.029297 15.719131,20.896785 15.77556,20.962623 14.829792,20.634766 13.800272,20.277868 10.742705,19.212821 8.8122138,18.537109 5.599959,17.412754 4.1890232,16.863652 3.5778388,16.820312 Z m 0.3378906,7.199219 c -0.1295799,0.150076 1.1972799,3.294758 1.4785156,3.503907 0.4812295,0.357874 2.505114,0.45427 3.9765625,0.191406 1.7137905,-0.306159 5.6451565,-1.597684 6.0664065,-1.994141 0.026,-0.02448 -0.24909,-0.628436 -0.550781,-1.203125 l -0.109375,-0.210937 -0.80664,0.179687 C 6.824222,26.075096 3.9860093,23.938131 3.9157294,24.019531 Z m 40.2500006,0 c -0.07028,-0.0814 -2.908493,2.055565 -10.054688,0.466797 l -0.80664,-0.179687 -0.109375,0.210937 c -0.301691,0.574689 -0.576786,1.178646 -0.550781,1.203125 0.42125,0.396457 4.352616,1.687982 6.066406,1.994141 1.471448,0.262864 3.495333,0.166468 3.976562,-0.191406 0.281236,-0.209149 1.608096,-3.353831 1.478516,-3.503907 z m -28.152344,2.486328 c -0.03646,0.0035 -0.117049,0.06529 -0.185547,0.09766 -3.152258,1.489631 -6.6827988,2.77088 -9.6035158,2.283203 -0.1043239,-0.01742 1.192415,1.457568 1.7265624,1.933593 l 0.53125,0.478516 c 2.4875224,0.578454 6.0222504,-0.71291 8.3593754,-3.351562 0.358161,-0.355825 0.371216,-0.38391 0.208985,-0.494141 -0.09435,-0.06411 -0.353933,-0.31393 -0.576172,-0.554687 -0.243803,-0.264112 -0.441406,-0.274497 -0.441406,-0.373047 0,-0.01478 -0.0074,-0.02071 -0.01953,-0.01953 z m 16.054688,0 c -0.01215,-0.0012 -0.01953,0.0047 -0.01953,0.01953 0,0.09855 -0.197603,0.108935 -0.441406,0.373047 -0.222239,0.240757 -0.481822,0.490578 -0.576172,0.554687 -0.162231,0.110231 -0.149176,0.138316 0.208985,0.494141 2.337125,2.638652 5.871853,3.930016 8.359375,3.351562 l 0.53125,-0.478516 c 0.534147,-0.476025 1.830886,-1.951012 1.726562,-1.933593 -2.920717,0.487677 -6.451257,-0.793572 -9.603515,-2.283203 -0.0685,-0.03237 -0.149088,-0.09411 -0.185547,-0.09766 z m -14.205078,1.46875 c -3.089825,3.092177 -5.737411,4.839627 -8.8808604,4.279297 0.9670111,0.976292 1.9882584,1.874829 3.1796884,2.214844 2.184651,-0.159304 4.092623,-0.564687 6.832031,-5.486328 l -0.603516,-0.904297 c -0.227995,0.08833 -0.35768,0.0108 -0.527343,-0.103516 z m 12.355468,0 c -0.169663,0.114316 -0.299348,0.191844 -0.527343,0.103516 l -0.603516,0.904297 c 2.739408,4.921641 4.64738,5.327024 6.832031,5.486328 1.19143,-0.340015 2.212677,-1.238552 3.179688,-2.214844 -3.143449,0.56033 -5.791035,-1.18712 -8.88086,-4.279297 z" /><ellipse
         style="fill:#ffffff;stroke-width:1;stroke-linejoin:round;stroke-dashoffset:0.6"
         id="path2"
         cx="24.04073"
         cy="18.586452"
         rx="5.1388903"
         ry="5.1096478" /><ellipse
         style="fill:none;stroke:#ffffff;stroke-width:2;stroke-linejoin:round;stroke-dashoffset:0.6;stroke-dasharray:none"
         id="path3"
         cx="24.04073"
         cy="8.6944628"
         rx="6.6983814"
         ry="2.1492536" /></g></g></svg>
