<?xml version="1.0" encoding="UTF-8" standalone="no"?>
<!-- Created with Inkscape (http://www.inkscape.org/) -->

<svg
   width="48"
   height="48"
   viewBox="0 0 48 48"
   version="1.1"
   id="svg1"
   xml:space="preserve"
   inkscape:version="1.3.2 (091e20e, 2023-11-25, custom)"
   sodipodi:docname="arrows-switch-ttb-solid.svg"
   xmlns:inkscape="http://www.inkscape.org/namespaces/inkscape"
   xmlns:sodipodi="http://sodipodi.sourceforge.net/DTD/sodipodi-0.dtd"
   xmlns="http://www.w3.org/2000/svg"
   xmlns:svg="http://www.w3.org/2000/svg"><sodipodi:namedview
     id="namedview1"
     pagecolor="#505050"
     bordercolor="#eeeeee"
     borderopacity="1"
     inkscape:showpageshadow="0"
     inkscape:pageopacity="0"
     inkscape:pagecheckerboard="0"
     inkscape:deskcolor="#505050"
     inkscape:document-units="px"
     inkscape:zoom="11.313708"
     inkscape:cx="8.1317283"
     inkscape:cy="28.416855"
     inkscape:window-width="2560"
     inkscape:window-height="1369"
     inkscape:window-x="-8"
     inkscape:window-y="-8"
     inkscape:window-maximized="1"
     inkscape:current-layer="layer1" /><defs
     id="defs1"><inkscape:path-effect
       effect="powerclip"
       id="path-effect7"
       is_visible="true"
       lpeversion="1"
       inverse="true"
       flatten="false"
       hide_clip="false"
       message="Use fill-rule evenodd on &lt;b&gt;fill and stroke&lt;/b&gt; dialog if no flatten result after convert clip to paths." /><inkscape:path-effect
       effect="powerclip"
       id="path-effect5"
       is_visible="true"
       lpeversion="1"
       inverse="true"
       flatten="false"
       hide_clip="false"
       message="Use fill-rule evenodd on &lt;b&gt;fill and stroke&lt;/b&gt; dialog if no flatten result after convert clip to paths." /><inkscape:path-effect
       effect="powerclip"
       id="path-effect2"
       is_visible="true"
       lpeversion="1"
       inverse="true"
       flatten="false"
       hide_clip="false"
       message="Use fill-rule evenodd on &lt;b&gt;fill and stroke&lt;/b&gt; dialog if no flatten result after convert clip to paths." /><inkscape:path-effect
       effect="powerclip"
       id="path-effect19"
       is_visible="true"
       lpeversion="1"
       inverse="true"
       flatten="false"
       hide_clip="false"
       message="Use fill-rule evenodd on &lt;b&gt;fill and stroke&lt;/b&gt; dialog if no flatten result after convert clip to paths." /><clipPath
       clipPathUnits="userSpaceOnUse"
       id="clipPath19"><path
         style="color:#000000;display:block;fill:#808080;-inkscape-stroke:none"
         d="m 30.435363,5.7221535 c -1.093451,0.035117 -1.762593,0.376236 -2.165832,0.9419134 -0.403239,0.5656774 -0.840751,1.2707798 -0.923368,2.1210938 -0.04903,6.9253703 -0.01872,13.8561763 -0.01958,20.7832023 l 1.550321,-1.3125 C 29.600298,27.516918 30.435996,26.87624 31.457031,26.375 l 0.208985,-0.103516 0.113281,-0.201172 c 0.386293,-0.68153 1.013604,-1.232303 1.435815,-1.691406 l 0.197265,-0.216797 c -0.06112,-4.87868 0.07462,-9.761904 -0.10937,-14.6386715 C 33.253216,8.4996641 33.219928,7.9859693 33.07058,7.5410156 32.718437,6.491671 31.528814,5.6870365 30.435363,5.7221535 Z"
         id="path19"
         sodipodi:nodetypes="csccccccccccc" /></clipPath><clipPath
       clipPathUnits="userSpaceOnUse"
       id="clipPath5"><path
         style="color:#000000;display:block;fill:#808080;stroke-width:1.20527;stroke-linejoin:round;-inkscape-stroke:none"
         d="m 30.977339,7.8052638 c 0,4.7068902 -3.81569,8.5225792 -8.522579,8.5225792 -4.706891,0 -8.522579,-3.815689 -8.522579,-8.5225792 0,-11.1440561 17.045158,-11.144058 17.045158,0 z"
         id="path5"
         clip-path="none"
         sodipodi:nodetypes="ssss" /></clipPath></defs><g
     inkscape:label="Layer 1"
     inkscape:groupmode="layer"
     id="layer1"><rect
       style="display:none;fill:none;stroke:#000000;stroke-width:8;stroke-dasharray:none;stroke-opacity:1"
       id="rect1"
       width="48"
       height="48"
       x="0"
       y="0"
       inkscape:label="border spacer"
       sodipodi:insensitive="true" /><path
       id="path11"
       style="color:#000000;fill:#ffffff;stroke-width:0.914577;stroke-linejoin:round;-inkscape-stroke:none"
       d="M 14.644531 8.2402344 L 14.644531 11.683594 C 14.644531 14.440501 15.763012 16.560829 17.417969 18.191406 C 18.201268 18.963169 19.089458 19.624132 20.015625 20.224609 C 20.702452 19.83067 21.382499 19.465353 22.027344 19.113281 C 22.238055 18.998238 22.429337 18.886187 22.632812 18.773438 C 21.646855 18.164415 20.753342 17.52976 20.027344 16.814453 C 18.7268 15.533066 17.876953 14.006558 17.876953 11.683594 L 17.876953 8.2402344 L 14.644531 8.2402344 z M 30.650391 8.2402344 L 30.650391 11.683594 C 30.650391 13.868797 29.884953 15.257055 28.597656 16.525391 C 27.310361 17.793725 25.450257 18.846595 23.484375 19.919922 C 21.518493 20.993249 19.447578 22.08439 17.779297 23.664062 C 16.111015 25.243737 14.888672 27.424842 14.888672 30.222656 L 14.888672 31.220703 L 10.771484 31.220703 L 16.259766 40.716797 L 21.748047 31.220703 L 17.632812 31.220703 L 17.632812 30.222656 C 17.632812 28.167483 18.378798 26.875098 19.666016 25.65625 C 20.953231 24.437402 22.824045 23.406312 24.798828 22.328125 C 26.773612 21.249938 28.855234 20.124099 30.523438 18.480469 C 32.191641 16.836836 33.394531 14.578269 33.394531 11.683594 L 33.394531 8.2402344 L 30.650391 8.2402344 z M 28.279297 22.005859 C 27.58978 22.407983 26.904892 22.780407 26.255859 23.134766 C 26.049088 23.247659 25.860126 23.354634 25.660156 23.464844 C 26.651908 24.063855 27.548707 24.678998 28.273438 25.365234 C 29.570494 26.593401 30.40625 28.025235 30.40625 30.224609 L 30.40625 31.699219 L 25.556641 31.699219 L 32.021484 39.759766 L 38.488281 31.699219 L 33.638672 31.699219 L 33.638672 30.224609 C 33.638672 27.571002 32.504141 25.52543 30.845703 23.955078 C 30.06808 23.218757 29.192731 22.584721 28.279297 22.005859 z "
       inkscape:label="arrows-switch" /></g></svg>
