<?xml version="1.0" encoding="UTF-8" standalone="no"?>
<!-- Created with Inkscape (http://www.inkscape.org/) -->

<svg
   width="48"
   height="48"
   viewBox="0 0 48 48"
   version="1.1"
   id="svg1"
   xml:space="preserve"
   inkscape:version="1.3 (0e150ed6c4, 2023-07-21)"
   sodipodi:docname="attack-type-aoe-solid.svg"
   xmlns:inkscape="http://www.inkscape.org/namespaces/inkscape"
   xmlns:sodipodi="http://sodipodi.sourceforge.net/DTD/sodipodi-0.dtd"
   xmlns="http://www.w3.org/2000/svg"
   xmlns:svg="http://www.w3.org/2000/svg"><sodipodi:namedview
     id="namedview1"
     pagecolor="#505050"
     bordercolor="#eeeeee"
     borderopacity="1"
     inkscape:showpageshadow="0"
     inkscape:pageopacity="0"
     inkscape:pagecheckerboard="0"
     inkscape:deskcolor="#505050"
     inkscape:document-units="px"
     inkscape:zoom="8"
     inkscape:cx="8.4375"
     inkscape:cy="31.1875"
     inkscape:window-width="1920"
     inkscape:window-height="1017"
     inkscape:window-x="1912"
     inkscape:window-y="-8"
     inkscape:window-maximized="1"
     inkscape:current-layer="layer1" /><defs
     id="defs1" /><g
     inkscape:label="Layer 1"
     inkscape:groupmode="layer"
     id="layer1"><path
       id="path12"
       style="color:#000000;fill:#ffffff;stroke-width:1.32283465;stroke-linecap:round;stroke-linejoin:round;stroke-dasharray:1.75010805,3.50020523;stroke-dashoffset:0"
       d="m 25.273254,7.0257885 a 0.80604811,0.80604811 0 0 0 -0.84725,0.7615723 0.80604811,0.80604811 0 0 0 0.761573,0.8472486 c 0.515901,0.027234 1.03228,0.075292 1.546944,0.1404144 A 0.80604811,0.80604811 0 0 0 27.636508,8.0777099 0.80604811,0.80604811 0 0 0 26.936813,7.1757219 C 26.385291,7.1059254 25.830581,7.0552107 25.273254,7.0257885 Z m -3.334258,0.054736 c -0.553726,0.049057 -1.10776,0.1194389 -1.6588,0.2094324 a 0.80604811,0.80604811 0 0 0 -0.663996,0.923407 0.80604811,0.80604811 0 0 0 0.923406,0.6663758 c 0.509628,-0.083237 1.02542,-0.1469896 1.542184,-0.1927729 A 0.80604811,0.80604811 0 0 0 22.812424,7.8135381 0.80604811,0.80604811 0 0 0 21.938996,7.0805245 Z m 8.270198,0.754433 a 0.80604811,0.80604811 0 0 0 -0.992423,0.5616602 0.80604811,0.80604811 0 0 0 0.56166,0.9924238 c 0.49829,0.1379152 0.991423,0.2937415 1.477925,0.4688422 A 0.80604811,0.80604811 0 0 0 32.289238,9.3723816 0.80604811,0.80604811 0 0 0 31.803737,8.3418792 C 31.27908,8.1530459 30.746626,7.9837051 30.209194,7.8349575 Z M 17.033993,8.0586694 c -0.532085,0.1671937 -1.057892,0.3552863 -1.575503,0.561659 a 0.80604811,0.80604811 0 0 0 -0.449803,1.0471619 0.80604811,0.80604811 0 0 0 1.047162,0.4498037 C 16.536494,9.9256584 17.023943,9.7510585 17.517117,9.5960926 A 0.80604811,0.80604811 0 0 0 18.045456,8.5870105 0.80604811,0.80604811 0 0 0 17.033993,8.0586694 Z m 17.206775,1.5755018 a 0.80604811,0.80604811 0 0 0 -0.475983,0.3926858 0.80604811,0.80604811 0 0 0 0.333188,1.09 c 0.456821,0.242693 0.904766,0.502181 1.342272,0.778232 A 0.80604811,0.80604811 0 0 0 36.551664,11.64282 0.80604811,0.80604811 0 0 0 36.299393,10.531401 C 35.828021,10.233981 35.347026,9.9527996 34.854786,9.6912916 A 0.80604811,0.80604811 0 0 0 34.240768,9.6341675 Z M 13.069058,9.9935383 A 0.80604811,0.80604811 0 0 0 12.45742,10.07446 c -0.482648,0.278267 -0.955159,0.574805 -1.416049,0.887707 a 0.80604811,0.80604811 0 0 0 -0.214192,1.11856 0.80604811,0.80604811 0 0 0 1.11856,0.214191 c 0.428262,-0.290752 0.86769,-0.564925 1.316092,-0.823449 a 0.80604811,0.80604811 0 0 0 0.29511,-1.1019 0.80604811,0.80604811 0 0 0 -0.487883,-0.3760271 z m 25.331798,2.3227957 a 0.80604811,0.80604811 0 0 0 -0.549759,0.28321 0.80604811,0.80604811 0 0 0 0.09281,1.135219 c 0.394246,0.335274 0.776523,0.686159 1.144738,1.049542 a 0.80604811,0.80604811 0 0 0 1.139979,-0.0095 0.80604811,0.80604811 0 0 0 -0.0095,-1.139977 c -0.3967,-0.391492 -0.805992,-0.767141 -1.230416,-1.12808 A 0.80604811,0.80604811 0 0 0 38.40087,12.31635 Z M 9.0017853,12.818496 A 0.80604811,0.80604811 0 0 0 8.421087,13.027929 c -0.4116049,0.375123 -0.8090932,0.766474 -1.1923371,1.170917 a 0.80604811,0.80604811 0 0 0 0.030938,1.137598 0.80604811,0.80604811 0 0 0 1.1375977,-0.03094 c 0.3559626,-0.375653 0.7263341,-0.736452 1.1090406,-1.08524 a 0.80604811,0.80604811 0 0 0 0.05236,-1.139978 0.80604811,0.80604811 0 0 0 -0.5569009,-0.26179 z M 41.88981,15.829087 a 0.80604811,0.80604811 0 0 0 -0.597359,0.157074 0.80604811,0.80604811 0 0 0 -0.152314,1.130459 c 0.313403,0.411698 0.610663,0.834784 0.892468,1.268494 a 0.80604811,0.80604811 0 0 0 1.116179,0.237991 0.80604811,0.80604811 0 0 0 0.235611,-1.116179 C 43.080673,17.039485 42.760447,16.584257 42.422911,16.140855 A 0.80604811,0.80604811 0 0 0 41.88981,15.829087 Z M 5.634208,16.447865 a 0.80604811,0.80604811 0 0 0 -0.5235809,0.328429 c -0.32204,0.454599 -0.6261779,0.919715 -0.9138868,1.397009 a 0.80604811,0.80604811 0 0 0 0.27369,1.106659 0.80604811,0.80604811 0 0 0 1.1066598,-0.273689 c 0.267104,-0.443112 0.5504378,-0.877087 0.8496291,-1.299434 A 0.80604811,0.80604811 0 0 0 6.2339462,16.583521 0.80604811,0.80604811 0 0 0 5.634208,16.447865 Z m 38.911585,3.56035 a 0.80604811,0.80604811 0 0 0 -0.616397,0.02617 0.80604811,0.80604811 0 0 0 -0.392686,1.068581 c 0.217394,0.46921 0.418017,0.948406 0.599739,1.432708 a 0.80604811,0.80604811 0 0 0 1.037641,0.471223 0.80604811,0.80604811 0 0 0 0.471224,-1.037643 c -0.19582,-0.52187 -0.410568,-1.036289 -0.644957,-1.542184 A 0.80604811,0.80604811 0 0 0 44.545793,20.008209 Z M 3.1186394,20.71267 A 0.80604811,0.80604811 0 0 0 2.6807353,21.148194 C 2.464054,21.661902 2.268562,22.184243 2.0905168,22.711797 A 0.80604811,0.80604811 0 0 0 2.5950586,23.73278 0.80604811,0.80604811 0 0 0 3.6184213,23.225858 C 3.784038,22.73513 3.9671802,22.250644 4.1681813,21.774112 A 0.80604811,0.80604811 0 0 0 3.737417,20.717431 0.80604811,0.80604811 0 0 0 3.1186394,20.712678 Z m 42.5123946,3.84118 a 0.80604811,0.80604811 0 0 0 -0.616397,0.959105 c 0.110166,0.506735 0.203688,1.016369 0.276069,1.527905 a 0.80604811,0.80604811 0 0 0 0.911507,0.685416 0.80604811,0.80604811 0 0 0 0.685415,-0.911507 c -0.07819,-0.552597 -0.179346,-1.10108 -0.29749,-1.644521 A 0.80604811,0.80604811 0 0 0 45.631034,24.55385 Z M 2.1928531,25.294004 A 0.80604811,0.80604811 0 0 0 1.2551672,25.94134 c -0.1003299,0.548014 -0.1812115,1.1018 -0.2403712,1.65642 a 0.80604811,0.80604811 0 0 0 0.7163539,0.885327 0.80604811,0.80604811 0 0 0 0.8877077,-0.713973 c 0.054826,-0.513988 0.1281317,-1.028352 0.2213319,-1.537425 A 0.80604811,0.80604811 0 0 0 2.1928531,25.294004 Z" /><g
       id="g11"
       transform="matrix(1.2185157,0,0,1.2185157,-5.2443765,-8.5769249)"><ellipse
         style="display:inline;fill:none;stroke:#ffffff;stroke-width:2.17122298;stroke-linecap:round;stroke-linejoin:round;stroke-dasharray:none;stroke-dashoffset:0;stroke-opacity:1"
         id="ellipse5"
         cx="24"
         cy="31.739017"
         rx="17.688396"
         ry="5.1246753" /><ellipse
         style="display:inline;fill:none;stroke:#ffffff;stroke-width:1.08561149;stroke-linecap:round;stroke-linejoin:round;stroke-dasharray:none;stroke-dashoffset:0;stroke-opacity:1"
         id="ellipse6"
         cx="24"
         cy="31.739017"
         rx="6.7177844"
         ry="1.9462739" /><path
         style="fill:none;fill-opacity:1;stroke:#ffffff;stroke-width:1.08561149;stroke-linecap:round;stroke-linejoin:round;stroke-dasharray:none;stroke-dashoffset:0;stroke-opacity:1"
         d="M 5.9155666,23.202829 22.704315,31.096297"
         id="path7" /><path
         style="fill:none;fill-opacity:1;stroke:#ffffff;stroke-width:1.08561149;stroke-linecap:round;stroke-linejoin:round;stroke-dasharray:none;stroke-dashoffset:0;stroke-opacity:1"
         d="m 25.295684,32.322896 16.788749,7.893469"
         id="path9" /><path
         style="fill:none;fill-opacity:1;stroke:#ffffff;stroke-width:1.08561149;stroke-linecap:round;stroke-linejoin:round;stroke-dasharray:none;stroke-dashoffset:0;stroke-opacity:1"
         d="M 5.9155667,40.216365 22.704315,32.322897"
         id="path10" /><path
         style="fill:none;fill-opacity:1;stroke:#ffffff;stroke-width:1.08561149;stroke-linecap:round;stroke-linejoin:round;stroke-dasharray:none;stroke-dashoffset:0;stroke-opacity:1"
         d="M 25.295684,31.00791 42.084433,23.114441"
         id="path11" /></g><path
       id="circle12"
       style="color:#000000;fill:#ffffff;stroke-width:1.32283465;stroke-linecap:round;stroke-linejoin:round;stroke-dasharray:1.74988002,3.49977091;stroke-dashoffset:0"
       d="m 25.280393,6.9686693 a 0.80594738,0.80594738 0 0 0 -0.992423,0.5616602 0.80594738,0.80594738 0 0 0 0.56404,0.9924238 c 0.419042,0.1155153 0.828358,0.3138957 1.211375,0.573559 A 0.80594738,0.80594738 0 0 0 27.184324,8.8821204 0.80594738,0.80594738 0 0 0 26.967753,7.7635607 C 26.462242,7.4208568 25.898267,7.1390032 25.280393,6.9686693 Z M 22.179366,7.378015 a 0.80594738,0.80594738 0 0 0 -0.614017,0.064252 c -0.544704,0.2957313 -1.028763,0.6657641 -1.461268,1.0662012 a 0.80594738,0.80594738 0 0 0 -0.04284,1.137599 0.80594738,0.80594738 0 0 0 1.139979,0.045219 c 0.355313,-0.3289712 0.732594,-0.6156685 1.132838,-0.83297 a 0.80594738,0.80594738 0 0 0 0.32367,-1.0923811 0.80594738,0.80594738 0 0 0 -0.478364,-0.3879254 z m 6.720876,2.5512673 a 0.80594738,0.80594738 0 0 0 -0.602118,0.1332747 0.80594738,0.80594738 0 0 0 -0.199913,1.12094 l 0.183254,0.26417 0.207052,0.314148 0.207053,0.328429 0.202292,0.342708 0.0238,0.04284 a 0.80594738,0.80594738 0 0 0 1.09714,0.309388 0.80594738,0.80594738 0 0 0 0.309389,-1.09714 l -0.02856,-0.04998 a 0.80602797,0.80602797 0 0 0 -0.0095,-0.01666 l -0.211823,-0.359368 a 0.80602797,0.80602797 0 0 0 -0.01194,-0.01666 l -0.214194,-0.345088 a 0.80602797,0.80602797 0 0 0 -0.01194,-0.01666 L 29.62127,10.550445 a 0.80602797,0.80602797 0 0 0 -0.01194,-0.01666 L 29.418936,10.260097 A 0.80594738,0.80594738 0 0 0 28.900242,9.9292823 Z M 18.476221,10.83365 a 0.80594738,0.80594738 0 0 0 -0.502161,0.359366 l -0.03331,0.05236 a 0.80602797,0.80602797 0 0 0 -0.0095,0.01666 L 17.717049,11.6214 a 0.80602797,0.80602797 0 0 0 -0.0072,0.01666 l -0.209432,0.371266 a 0.80602797,0.80602797 0 0 0 -0.0095,0.01666 l -0.204672,0.385546 a 0.80602797,0.80602797 0 0 0 -0.0072,0.01428 l -0.121376,0.240371 a 0.80594738,0.80594738 0 0 0 0.356986,1.082861 0.80594738,0.80594738 0 0 0 1.082861,-0.356987 l 0.116612,-0.230852 0.197533,-0.371267 0.199912,-0.356986 0.202294,-0.342708 0.02617,-0.04522 a 0.80594738,0.80594738 0 0 0 -0.25703,-1.109039 0.80594738,0.80594738 0 0 0 -0.606878,-0.102331 z m 12.237516,3.405655 a 0.80594738,0.80594738 0 0 0 -0.452184,1.047162 l 0.147555,0.371267 0.173733,0.461703 0.171354,0.471223 0.05711,0.171354 a 0.80594738,0.80594738 0 0 0 1.025743,0.499782 0.80594738,0.80594738 0 0 0 0.499781,-1.023364 l -0.06188,-0.178493 a 0.80602797,0.80602797 0 0 0 -0.0024,-0.0095 l -0.173734,-0.483123 a 0.80602797,0.80602797 0 0 0 -0.0048,-0.01194 l -0.178493,-0.471223 a 0.80602797,0.80602797 0 0 0 -0.0048,-0.01428 L 31.760852,14.69146 A 0.80594738,0.80594738 0 0 0 30.71369,14.239276 Z M 16.886438,15.23411 a 0.80594738,0.80594738 0 0 0 -1.032882,0.485502 l -0.116612,0.330808 a 0.80602797,0.80602797 0 0 0 -0.0048,0.0095 l -0.168985,0.495036 a 0.80602797,0.80602797 0 0 0 -0.0048,0.01194 l -0.164222,0.504499 a 0.80602797,0.80602797 0 0 0 -0.0048,0.0095 l -0.06188,0.197532 a 0.80594738,0.80594738 0 0 0 0.530721,1.011463 0.80594738,0.80594738 0 0 0 1.009083,-0.530721 l 0.0595,-0.192772 0.161835,-0.492643 0.166594,-0.483122 0.116612,-0.326048 a 0.80594738,0.80594738 0 0 0 -0.485503,-1.030502 z m 15.414701,3.572249 a 0.80594738,0.80594738 0 0 0 -0.580699,0.980525 l 0.104719,0.411724 0.135655,0.556901 0.128516,0.566419 0.0024,0.0024 a 0.80594738,0.80594738 0 0 0 0.959105,0.616398 0.80594738,0.80594738 0 0 0 0.614018,-0.959106 v -0.0096 a 0.80602797,0.80602797 0 0 0 -0.0024,-0.0072 l -0.133276,-0.57594 a 0.80602797,0.80602797 0 0 0 -0.0024,-0.0095 l -0.138035,-0.56642 a 0.80602797,0.80602797 0 0 0 -0.0024,-0.0095 l -0.104719,-0.416485 a 0.80594738,0.80594738 0 0 0 -0.98041,-0.580679 z m -16.871207,1.037643 a 0.80594738,0.80594738 0 0 0 -0.966245,0.604497 l -0.119,0.516443 a 0.80602797,0.80602797 0 0 0 0,0.0072 l -0.128516,0.585459 a 0.80602797,0.80602797 0 0 0 -0.0024,0.0095 l -0.09758,0.473603 a 0.80594738,0.80594738 0 0 0 0.625918,0.951966 0.80594738,0.80594738 0 0 0 0.954345,-0.625918 l 0.0952,-0.471223 0.126136,-0.573559 0.116612,-0.51168 A 0.80594738,0.80594738 0 0 0 15.42987,19.844037 Z M 33.3602,23.523348 a 0.80594738,0.80594738 0 0 0 -0.666375,0.923406 l 0.07378,0.459324 0.09281,0.625918 0.06902,0.492641 a 0.80594738,0.80594738 0 0 0 0.911507,0.685415 0.80594738,0.80594738 0 0 0 0.685415,-0.909126 l -0.06902,-0.495022 a 0.80602797,0.80602797 0 0 0 -0.0024,-0.0095 l -0.0952,-0.635436 a 0.80602797,0.80602797 0 0 0 0,-0.0024 0.80602797,0.80602797 0 0 0 0,-0.0024 0.80602797,0.80602797 0 0 0 0,-0.0024 l -0.07616,-0.464083 A 0.80594738,0.80594738 0 0 0 33.3602,23.523348 Z M 14.475587,24.58241 a 0.80594738,0.80594738 0 0 0 -0.918646,0.678275 l -0.0048,0.0357 a 0.80602797,0.80602797 0 0 0 -0.0024,0.0095 l -0.08806,0.642575 a 0.80602797,0.80602797 0 0 0 -0.0024,0.0072 l -0.0833,0.649716 a 0.80602797,0.80602797 0 0 0 -0.0024,0.0095 l -0.03094,0.26655 a 0.80594738,0.80594738 0 0 0 0.704455,0.897229 0.80594738,0.80594738 0 0 0 0.894847,-0.704456 l 0.03094,-0.264169 0.08567,-0.642577 0.08806,-0.635436 0.0048,-0.03332 a 0.80594738,0.80594738 0 0 0 -0.675894,-0.916266 z m 19.541469,3.729325 a 0.80594738,0.80594738 0 0 0 -0.730633,0.875808 l 0.0238,0.25941 0.05474,0.675896 0.04522,0.656855 a 0.80594738,0.80594738 0 0 0 0.86153,0.747293 0.80594738,0.80594738 0 0 0 0.747293,-0.861529 l -0.0476,-0.659236 a 0.80602797,0.80602797 0 0 0 0,-0.0024 0.80602797,0.80602797 0 0 0 0,-0.0024 0.80602797,0.80602797 0 0 0 0,-0.0024 l -0.05474,-0.683036 a 0.80602797,0.80602797 0 0 0 -0.0024,-0.0095 L 34.892808,29.04221 A 0.80594738,0.80594738 0 0 0 34.017,28.311577 Z m -20.129308,1.07096 a 0.80594738,0.80594738 0 0 0 -0.859149,0.747293 l -0.04045,0.56642 a 0.80602797,0.80602797 0 0 0 -0.0024,0.0072 l -0.04046,0.694935 a 0.80602797,0.80602797 0 0 0 -0.0024,0.0095 l -0.01666,0.345087 a 0.80594738,0.80594738 0 0 0 0.763952,0.84725 0.80594738,0.80594738 0 0 0 0.84487,-0.763952 l 0.01905,-0.342708 0.04045,-0.687796 0.04045,-0.564039 a 0.80594738,0.80594738 0 0 0 -0.747293,-0.859148 z m 20.450596,3.755504 a 0.80594738,0.80594738 0 0 0 -0.78775,0.823449 l 0.0095,0.337948 0.0072,0.55452 0.56166,-0.02142 1.047162,-0.24989 -0.0048,-0.309389 a 0.80602797,0.80602797 0 0 0 0,-0.0024 0.80602797,0.80602797 0 0 0 0,-0.0024 0.80602797,0.80602797 0 0 0 0,-0.0024 l -0.0095,-0.342707 a 0.80594738,0.80594738 0 0 0 -0.82345,-0.785372 z m -20.702866,1.07334 a 0.80594738,0.80594738 0 0 0 -0.506922,0.207053 l 0.514061,0.109476 0.661616,0.05711 a 0.80594738,0.80594738 0 0 0 -0.668755,-0.373647 z" /><path
       style="fill:none;fill-opacity:1;stroke:#ffffff;stroke-width:0.944882;stroke-linecap:round;stroke-linejoin:round;stroke-dasharray:1.24993, 2.49986;stroke-dashoffset:0;stroke-opacity:1"
       d="M 19.359612,21.831922 C 19.829906,15.927065 19.71561,12.311804 24,8.2643105"
       id="path15"
       sodipodi:nodetypes="cc" /><path
       style="fill:none;fill-opacity:1;stroke:#ffffff;stroke-width:0.944882;stroke-linecap:round;stroke-linejoin:round;stroke-dasharray:1.24993, 2.49986;stroke-dashoffset:0;stroke-opacity:1"
       d="M 28.640388,21.831922 C 28.170094,15.927065 28.28439,12.311804 24,8.2643105"
       id="path16"
       sodipodi:nodetypes="cc" /></g></svg>
