<?xml version="1.0" encoding="UTF-8" standalone="no"?>
<!-- Created with Inkscape (http://www.inkscape.org/) -->

<svg
   width="48"
   height="48"
   viewBox="0 0 48 48"
   version="1.1"
   id="svg1"
   xml:space="preserve"
   inkscape:version="1.3 (0e150ed6c4, 2023-07-21)"
   sodipodi:docname="attack-type-single-solid.svg"
   xmlns:inkscape="http://www.inkscape.org/namespaces/inkscape"
   xmlns:sodipodi="http://sodipodi.sourceforge.net/DTD/sodipodi-0.dtd"
   xmlns="http://www.w3.org/2000/svg"
   xmlns:svg="http://www.w3.org/2000/svg"><sodipodi:namedview
     id="namedview1"
     pagecolor="#505050"
     bordercolor="#eeeeee"
     borderopacity="1"
     inkscape:showpageshadow="0"
     inkscape:pageopacity="0"
     inkscape:pagecheckerboard="0"
     inkscape:deskcolor="#505050"
     inkscape:document-units="px"
     inkscape:zoom="16.000001"
     inkscape:cx="23.843749"
     inkscape:cy="26.406249"
     inkscape:window-width="1920"
     inkscape:window-height="1017"
     inkscape:window-x="1912"
     inkscape:window-y="-8"
     inkscape:window-maximized="1"
     inkscape:current-layer="layer1" /><defs
     id="defs1" /><g
     inkscape:label="Layer 1"
     inkscape:groupmode="layer"
     id="layer1"><g
       id="g2"
       inkscape:label="person"
       transform="matrix(0.74671856,0,0,0.74671856,6.1771017,13.040142)"
       style="display:inline"><path
         id="path2"
         style="fill:#ffffff;stroke-width:3;stroke-linecap:round;stroke-linejoin:round"
         d="m 29.039848,20.701172 c -1.464682,1.111652 -3.666681,2.091947 -5.50543,2.099609 -1.832058,-0.0077 -4.043545,-1.014879 -5.505429,-2.11914 -4.414651,2.585974 -7.816277,8.622855 -7.786679,18.213801 0.0065,0.214461 26.521717,0 26.521717,0 0.01133,-8.902838 -3.313419,-15.599779 -7.724179,-18.19427 z"
         sodipodi:nodetypes="cccccc" /><circle
         style="fill:#ffffff;stroke-width:3;stroke-linecap:round;stroke-linejoin:round"
         id="path1"
         cx="23.503046"
         cy="14.323995"
         r="7.2496953" /></g><path
       style="color:#000000;fill:#ffffff;stroke-linecap:round;stroke-linejoin:round;-inkscape-stroke:none"
       d="m 2.7646485,1.2510948 a 1.511811,1.511811 0 0 0 -1.0703125,0.4433593 1.511811,1.511811 0 0 0 0,2.1386719 l 8.607422,8.605469 C 7.2577125,15.75257 5.3955077,20.167929 5.3955079,25.01086 c 0,4.328189 1.4896491,8.314017 3.9785156,11.478516 L 1.694336,44.16711 a 1.511811,1.511811 0 0 0 0,2.138672 1.511811,1.511811 0 0 0 2.1386719,0 l 7.5957031,-7.595703 c 0.374995,0.344451 0.765746,0.671175 1.167969,0.984375 0.34621,-4.235685 1.652902,-7.513372 3.541015,-9.794922 a 1.511811,1.511811 0 0 0 -0.505859,0.332031 l -4.117187,4.117188 C 9.569178,31.748609 8.4189454,28.517671 8.4189454,25.01086 c -2e-7,-4.024293 1.5149896,-7.686146 4.0078126,-10.447265 l 3.205078,3.205078 a 1.511811,1.511811 0 0 0 2.138672,0 1.511811,1.511811 0 0 0 0,-2.136719 l -3.107422,-3.107422 c 2.600142,-1.945469 5.831079,-3.0957028 9.337891,-3.0957029 3.506809,-2e-7 6.737748,1.1502339 9.33789,3.0957029 l -3.107422,3.107422 a 1.511811,1.511811 0 0 0 0,2.136719 1.511811,1.511811 0 0 0 2.138672,0 l 3.205078,-3.205078 c 2.492824,2.761119 4.007813,6.422972 4.007813,10.447265 0,3.506812 -1.150234,6.737749 -3.095703,9.337891 l -4.117188,-4.117188 a 1.511811,1.511811 0 0 0 -1.070312,-0.443359 1.511811,1.511811 0 0 0 -0.08594,0.01758 c 1.42076,1.71737 2.502542,3.98399 3.126953,6.673828 l 0.105469,0.105469 c -0.02263,0.02043 -0.04756,0.0383 -0.07031,0.05859 0.242892,1.084741 0.412064,2.235899 0.5,3.445312 0.591529,-0.428053 1.160634,-0.885984 1.697265,-1.378906 l 7.595703,7.595703 a 1.511811,1.511811 0 0 0 2.136719,0 1.511811,1.511811 0 0 0 0,-2.138672 L 38.62793,36.489374 c 2.488866,-3.164499 3.978515,-7.150327 3.978515,-11.478516 10e-7,-4.842931 -1.862205,-9.258289 -4.90625,-12.572265 l 8.605469,-8.605469 a 1.511811,1.511811 0 0 0 0,-2.1386719 A 1.511811,1.511811 0 0 0 45.000977,1.270626 1.511811,1.511811 0 0 0 44.168945,1.6944541 L 35.479492,10.383907 C 32.314993,7.895041 28.329164,6.4053914 24.000977,6.4053916 c -4.328189,1e-7 -8.314017,1.4896495 -11.478516,3.9785154 L 3.8330079,1.6944541 A 1.511811,1.511811 0 0 0 2.7646485,1.2510948 Z"
       id="path3"
       inkscape:label="crosshair" /></g></svg>
