<?xml version="1.0" encoding="UTF-8" standalone="no"?>
<!-- Created with Inkscape (http://www.inkscape.org/) -->

<svg
   width="48"
   height="48"
   viewBox="0 0 48 48"
   version="1.1"
   id="svg1"
   xml:space="preserve"
   inkscape:version="1.3 (0e150ed6c4, 2023-07-21)"
   sodipodi:docname="attack-type-multi-solid.svg"
   xmlns:inkscape="http://www.inkscape.org/namespaces/inkscape"
   xmlns:sodipodi="http://sodipodi.sourceforge.net/DTD/sodipodi-0.dtd"
   xmlns="http://www.w3.org/2000/svg"
   xmlns:svg="http://www.w3.org/2000/svg"><sodipodi:namedview
     id="namedview1"
     pagecolor="#505050"
     bordercolor="#eeeeee"
     borderopacity="1"
     inkscape:showpageshadow="0"
     inkscape:pageopacity="0"
     inkscape:pagecheckerboard="0"
     inkscape:deskcolor="#505050"
     inkscape:document-units="px"
     inkscape:zoom="11.313709"
     inkscape:cx="14.186329"
     inkscape:cy="28.505241"
     inkscape:window-width="1920"
     inkscape:window-height="1017"
     inkscape:window-x="1912"
     inkscape:window-y="-8"
     inkscape:window-maximized="1"
     inkscape:current-layer="svg1" /><defs
     id="defs1" /><path
     id="path14"
     style="color:#000000;fill:#ffffff;stroke-linecap:round;stroke-linejoin:round;-inkscape-stroke:none"
     inkscape:label="crosshair"
     d="m 2.7646482,1.2510942 a 1.5118099,1.5118099 0 0 0 -1.0703125,0.4433594 1.5118099,1.5118099 0 0 0 0,2.1386718 l 8.6074213,8.6054686 c -3.0440445,3.313977 -4.9062495,7.729334 -4.9062495,12.572266 0,2.15608 0.3701356,4.227342 1.0488282,6.154296 C 7.1497649,30.312253 7.9341394,29.595092 8.7822263,29.022578 7.9090531,27.886765 7.3001937,26.53387 7.2998044,24.999141 7.2996156,23.239529 7.9877398,21.635881 9.1025388,20.432735 9.7770702,18.228236 10.923735,16.232481 12.42871,14.565547 l 3.203125,3.203125 a 1.5118099,1.5118099 0 0 0 2.138672,0 1.5118099,1.5118099 0 0 0 0,-2.136719 l -3.105469,-3.105468 c 2.599937,-1.944924 5.829669,-3.0976563 9.335938,-3.0976564 3.506261,-3e-7 6.736004,1.1527394 9.335938,3.0976564 l -3.105469,3.105468 a 1.5118099,1.5118099 0 0 0 0,2.136719 1.5118099,1.5118099 0 0 0 2.138672,0 l 3.203125,-3.203125 c 1.553481,1.720396 2.728051,3.789292 3.392578,6.078125 1.002347,1.1768 1.611506,2.697798 1.611328,4.355469 -3.88e-4,1.530656 -0.607572,2.879373 -1.476563,4.013672 0.884295,0.599392 1.690897,1.365947 2.408203,2.27539 0.707049,-1.962292 1.097657,-4.07455 1.097657,-6.277343 10e-7,-4.842985 -1.862146,-9.258277 -4.90625,-12.572266 l 8.605469,-8.6054686 a 1.5118099,1.5118099 0 0 0 0,-2.1386718 1.5118099,1.5118099 0 0 0 -1.06836,-0.4433594 1.5118099,1.5118099 0 0 0 -1.068359,0.4433594 L 35.477538,10.38586 C 32.313233,7.8975643 28.328614,6.4053908 24.000976,6.4053911 c -4.328189,0 -8.312064,1.491602 -11.476562,3.9804689 L 3.8330075,1.6944536 A 1.5118099,1.5118099 0 0 0 2.7646482,1.2510942 Z M 45.055664,42.91711 c 0.0021,0.144547 0.01,0.285672 0.0098,0.43164 a 1.3229669,1.3229669 0 0 1 -1.3125,1.320313 c 0,0 -1.053411,0.0067 -1.212891,0.0078 l 1.628907,1.628907 a 1.5118099,1.5118099 0 0 0 2.136719,0 1.5118099,1.5118099 0 0 0 0,-2.138672 z M 2.8173825,43.044063 1.6943357,44.16711 a 1.5118099,1.5118099 0 0 0 0,2.138672 1.5118099,1.5118099 0 0 0 2.1386718,0 l 1.5878907,-1.587891 c -0.1722919,-0.0025 -0.4350608,-0.0027 -0.5761719,-0.0059 -0.2437174,-0.0054 -0.4356178,-0.01073 -0.5917969,-0.01953 -0.078089,-0.0044 -0.1429851,-0.0081 -0.234375,-0.01953 -0.045695,-0.0057 -0.088616,-0.0087 -0.2050781,-0.03906 -0.058231,-0.01518 -0.130688,-0.0283 -0.2949219,-0.115234 -0.041058,-0.02173 -0.1460862,-0.08761 -0.1464843,-0.08789 C 3.3716717,44.430501 3.1750734,44.25919 3.1748044,44.258906 3.1745354,44.258625 2.9444748,43.927161 2.9443357,43.926875 2.9441965,43.92659 2.811532,43.3881 2.8115232,43.387813 a 1.3229669,1.3229669 0 0 1 0,-0.03711 c -3.219e-4,-0.104291 0.00512,-0.203334 0.00586,-0.30664 z" /><g
     inkscape:label="Layer 1"
     inkscape:groupmode="layer"
     id="layer1"><g
       id="g7"
       inkscape:label="people"
       style="display:inline"><path
         id="path2"
         style="fill:#ffffff;stroke-width:2.24016;stroke-linecap:round;stroke-linejoin:round"
         d="M 24,22.708984 A 5.413482,5.413482 0 0 0 18.585938,28.123047 5.413482,5.413482 0 0 0 24,33.535156 5.413482,5.413482 0 0 0 29.414063,28.123047 5.413482,5.413482 0 0 0 24,22.708984 Z M 19.912109,32.86914 c -3.296498,1.930994 -5.836554,6.439833 -5.814453,13.601563 0.0049,0.160142 19.804688,0 19.804688,0 0.0085,-6.647908 -2.473986,-11.648585 -5.767578,-13.585937 -1.093705,0.83009 -2.738302,1.560685 -4.111329,1.566406 -1.36803,-0.0057 -3.019713,-0.75746 -4.111328,-1.582032 z"
         inkscape:label="person" /><path
         id="path1"
         style="fill:#ffffff;stroke-width:2.24016;stroke-linecap:round;stroke-linejoin:round"
         inkscape:label="person"
         d="m 33.839844,19.583984 a 5.413482,5.413482 0 0 0 -5.123047,3.742188 c 1.244541,1.224051 2.019732,2.923986 2.019531,4.796875 -1.04e-4,0.410947 -0.048,0.807317 -0.128906,1.191406 a 5.413482,5.413482 0 0 0 3.232422,1.095703 5.413482,5.413482 0 0 0 5.414062,-5.412109 5.413482,5.413482 0 0 0 -5.414062,-5.414063 z m 4.134765,10.175782 c -1.093704,0.830089 -2.738302,1.560685 -4.111328,1.566406 -1.132487,-0.0047 -2.455433,-0.522647 -3.498047,-1.167969 -0.262108,0.715975 -0.645365,1.377938 -1.105468,1.978516 3.04131,2.061461 5.184076,6.070964 5.787109,11.261719 4.283436,-0.02108 8.695313,-0.05273 8.695313,-0.05273 0.0085,-6.647901 -2.47399,-11.648587 -5.767579,-13.585937 z" /><path
         id="path3"
         style="fill:#ffffff;stroke-width:2.24016;stroke-linecap:round;stroke-linejoin:round"
         inkscape:label="person"
         d="m 14.035156,19.583984 a 5.413482,5.413482 0 0 0 -5.4140622,5.414063 5.413482,5.413482 0 0 0 5.4140622,5.412109 5.413482,5.413482 0 0 0 3.335938,-1.18164 c -0.06933,-0.35681 -0.107326,-0.725879 -0.107422,-1.105469 -1.97e-4,-1.833812 0.744119,-3.500891 1.943359,-4.71875 A 5.413482,5.413482 0 0 0 14.035156,19.583984 Z M 9.9472656,29.744141 c -3.2964947,1.930992 -5.8365541,6.439839 -5.8144531,13.601562 0.00225,0.07361 4.283475,0.07757 8.8046875,0.0625 0.592199,-5.451609 2.814285,-9.240369 5.808594,-11.261719 -0.469368,-0.610548 -0.85793,-1.2851 -1.121094,-2.015625 -1.052279,0.663705 -2.404923,1.190473 -3.566406,1.195313 -1.368029,-0.0057 -3.019714,-0.75746 -4.1113284,-1.582031 z" /></g></g></svg>
