<?xml version="1.0" encoding="UTF-8" standalone="no"?>
<!-- Created with Inkscape (http://www.inkscape.org/) -->

<svg
   width="48"
   height="48"
   viewBox="0 0 48 48"
   version="1.1"
   id="svg1"
   xml:space="preserve"
   inkscape:version="1.3.2 (091e20e, 2023-11-25, custom)"
   sodipodi:docname="berserk-solid.svg"
   xmlns:inkscape="http://www.inkscape.org/namespaces/inkscape"
   xmlns:sodipodi="http://sodipodi.sourceforge.net/DTD/sodipodi-0.dtd"
   xmlns="http://www.w3.org/2000/svg"
   xmlns:svg="http://www.w3.org/2000/svg"><sodipodi:namedview
     id="namedview1"
     pagecolor="#505050"
     bordercolor="#eeeeee"
     borderopacity="1"
     inkscape:showpageshadow="0"
     inkscape:pageopacity="0"
     inkscape:pagecheckerboard="0"
     inkscape:deskcolor="#505050"
     inkscape:document-units="px"
     inkscape:zoom="11.313709"
     inkscape:cx="14.142136"
     inkscape:cy="28.858795"
     inkscape:window-width="2560"
     inkscape:window-height="1369"
     inkscape:window-x="-8"
     inkscape:window-y="-8"
     inkscape:window-maximized="1"
     inkscape:current-layer="layer1" /><defs
     id="defs1"><inkscape:perspective
       sodipodi:type="inkscape:persp3d"
       inkscape:vp_x="-1.125 : 8.375 : 1"
       inkscape:vp_y="0 : 1000 : 0"
       inkscape:vp_z="46.875 : 8.375 : 1"
       inkscape:persp3d-origin="22.875 : 0.375 : 1"
       id="perspective18" /></defs><g
     inkscape:label="Layer 1"
     inkscape:groupmode="layer"
     id="layer1"><rect
       style="display:none;fill:none;stroke:#000000;stroke-width:8;stroke-dasharray:none;stroke-opacity:1"
       id="rect1"
       width="48"
       height="48"
       x="0"
       y="0"
       inkscape:label="border spacer"
       sodipodi:insensitive="true" /><path
       style="display:inline;fill:#ffffff;fill-opacity:1;stroke:none;stroke-width:2;stroke-linecap:round;stroke-dashoffset:7.2"
       d="M 0.33872746,23.084973 C 3.3794193,24.095805 6.3119383,25.359041 10.008614,24.839244 29.952278,11.927824 34.161883,0.37812769 47.661269,11.618028 28.489113,8.8365754 21.917295,25.773249 10.051401,27.492045 6.12925,27.092698 2.677756,25.495314 0.33872746,23.084973 Z"
       id="path8"
       sodipodi:nodetypes="ccccc" /><path
       style="fill:none;stroke:#ffffff;stroke-width:1;stroke-linecap:butt;stroke-linejoin:round;stroke-dasharray:none;stroke-dashoffset:0.6"
       d="m 1.9432025,18.059697 c 1.511811,3.223295 5.334126,4.136085 8.3862735,2.738372"
       id="path7"
       sodipodi:nodetypes="cc" /><path
       id="circle10"
       style="color:#000000;fill:#ffffff;stroke-width:1;stroke-linejoin:round;stroke-dashoffset:0.6;-inkscape-stroke:none"
       d="m 36.288712,12.389219 c -0.717466,0.220162 -1.418019,0.462982 -2.095161,0.737468 3.328697,2.658159 5.461036,6.748659 5.461036,11.349427 0,8.031053 -6.487594,14.522427 -14.518642,14.522427 -7.052177,-2e-6 -12.913841,-5.005332 -14.238785,-11.663324 -0.279432,0.05845 -0.561838,0.113714 -0.847142,0.155065 -0.3793205,-0.03861 -0.7495029,-0.09058 -1.1194369,-0.151279 1.3589389,7.716088 8.1047199,13.595864 16.2053639,13.595866 9.077515,0 16.454965,-7.381233 16.454965,-16.458749 0,-4.775481 -2.045272,-9.079038 -5.302198,-12.086896 z"
       sodipodi:nodetypes="ccsscccssc" /><path
       style="color:#000000;fill:#ffffff;stroke-width:1;stroke-linejoin:round;stroke-dashoffset:0.6;-inkscape-stroke:none"
       d="m 38.619501,16.913505 -1.983094,3.229848 -2.905568,-0.01407 2.908443,0.790768 c 0.215755,0.02464 0.429462,-0.0679 0.584278,-0.253048 l 2.42922,-2.470709 z"
       id="path24"
       sodipodi:nodetypes="ccccccc" /><path
       style="color:#000000;fill:#ffffff;stroke-width:1;stroke-linejoin:round;stroke-dashoffset:0.6;-inkscape-stroke:none"
       d="m 35.56928,27.425446 c 0,0 1.848459,0.400566 2.632996,0.894156 0.688624,0.433248 1.70785,1.743681 1.70785,1.743681 l 0.609464,-1.507788 c 0,0 -1.232831,-0.848263 -1.941918,-1.037437 -0.969368,-0.258617 -3.008392,-0.0926 -3.008392,-0.0926 z"
       id="path25"
       sodipodi:nodetypes="caccac" /><path
       style="color:#000000;fill:#ffffff;stroke-width:1;stroke-linejoin:round;stroke-dashoffset:0.6;-inkscape-stroke:none"
       d="m 32.60083,31.682146 0.328325,1.582022 c 0.144737,0.3333 0.293091,0.433549 0.623752,0.282878 l 1.139491,-0.575604 0.504481,2.980352 1.256151,-0.340049 -1.113815,-2.984172 c -0.104686,-0.388061 -0.533054,-0.588937 -0.898339,-0.421255 l -1.112027,0.742641 z"
       id="path26"
       sodipodi:nodetypes="cccccccccc" /><circle
       style="display:none;fill:#ffffff;stroke:none;stroke-width:1;stroke-linecap:butt;stroke-linejoin:round;stroke-dasharray:none;stroke-dashoffset:0.6"
       id="path27"
       cx="25.024113"
       cy="25.361818"
       r="3.6662533" /><path
       id="path1"
       style="display:inline;fill:#fcfcfc;fill-opacity:1;stroke:none;stroke-width:3.22219;stroke-linecap:round;stroke-linejoin:round"
       d="m 26.538647,20.25512 c -3.237652,-1.67e-4 -5.084948,1.728901 -5.909854,4.464095 l 0.188419,4.286547 c 1.14526,0.867497 2.327433,2.013358 2.793683,3.11617 0.466251,1.102812 0.751209,1.790872 1.547214,1.681282 h 2.764697 c 0.796005,0.109584 1.068916,-0.588596 1.547215,-1.681282 0.478298,-1.092685 1.667319,-2.227341 2.79006,-3.11617 l 0.192044,-4.286547 C 31.627379,21.984556 29.776296,20.255288 26.538647,20.25512 Z m -2.728461,6.091026 c 0.989188,-1.38e-4 1.790911,0.644166 1.789984,1.438513 9.26e-4,0.794346 -0.800798,1.438647 -1.789984,1.43851 -0.989187,1.38e-4 -1.790912,-0.644164 -1.789988,-1.43851 -9.26e-4,-0.794349 0.800801,-1.438651 1.789988,-1.438513 z m 5.467792,0 c 0.989186,-1.38e-4 1.790913,0.644164 1.789986,1.438513 9.26e-4,0.794346 -0.800801,1.438648 -1.789986,1.43851 -0.989187,1.37e-4 -1.790913,-0.644164 -1.789986,-1.43851 -9.28e-4,-0.794349 0.800798,-1.438651 1.789986,-1.438513 z m -2.746579,2.967609 c 0.468776,0.299908 0.67059,0.811216 0.757302,1.416772 -0.05133,0.49666 -0.30804,0.721229 -0.742809,0.706574 -0.455966,0.03964 -0.669694,-0.242998 -0.742807,-0.713822 0.06197,-0.662734 0.283117,-1.155574 0.728314,-1.409524 z"
       sodipodi:nodetypes="scczcczccsccccccccccccccc" /></g></svg>
