<?xml version="1.0" encoding="UTF-8" standalone="no"?>
<!-- Created with Inkscape (http://www.inkscape.org/) -->

<svg
   width="64"
   height="64"
   viewBox="0 0 16.933333 16.933333"
   version="1.1"
   id="svg1"
   xml:space="preserve"
   inkscape:version="1.3.2 (091e20e, 2023-11-25, custom)"
   sodipodi:docname="brain-limit-solid.svg"
   xmlns:inkscape="http://www.inkscape.org/namespaces/inkscape"
   xmlns:sodipodi="http://sodipodi.sourceforge.net/DTD/sodipodi-0.dtd"
   xmlns="http://www.w3.org/2000/svg"
   xmlns:svg="http://www.w3.org/2000/svg"><sodipodi:namedview
     id="namedview1"
     pagecolor="#505050"
     bordercolor="#eeeeee"
     borderopacity="1"
     inkscape:showpageshadow="0"
     inkscape:pageopacity="0"
     inkscape:pagecheckerboard="0"
     inkscape:deskcolor="#505050"
     inkscape:document-units="mm"
     inkscape:zoom="15.999999"
     inkscape:cx="27.187501"
     inkscape:cy="32.906251"
     inkscape:window-width="2560"
     inkscape:window-height="1369"
     inkscape:window-x="-8"
     inkscape:window-y="-8"
     inkscape:window-maximized="1"
     inkscape:current-layer="layer1" /><defs
     id="defs1" /><g
     inkscape:label="Layer 1"
     inkscape:groupmode="layer"
     id="layer1"><rect
       style="display:none;fill:none;stroke:#000000;stroke-width:2.11667;stroke-dasharray:none;stroke-opacity:1"
       id="rect1"
       width="12.7"
       height="12.7"
       x="2.1166668"
       y="2.1166668"
       inkscape:label="border spacer"
       sodipodi:insensitive="true" /><path
       id="path1"
       style="fill:#ffffff;stroke-width:0.229457;stroke-linecap:round;stroke-linejoin:round"
       inkscape:label="symbol"
       d="m 7.9165458,6.3913587 c -0.083024,-0.00123 -0.159477,7.689e-4 -0.2283236,0.00575 -0.307295,0.00821 -0.5903396,0.040671 -0.8490859,0.093677 -0.016897,0.030262 -0.024681,0.061827 -0.026594,0.094156 C 6.5623267,7.1681869 6.7598555,7.2760499 6.9083759,7.4359451 7.1298273,7.5813346 7.359126,7.5996229 7.6060447,7.3324445 7.6914803,7.2184623 7.9366946,7.3295085 7.8226286,7.5011117 7.5005742,7.8486096 7.1460558,7.9320859 6.7473756,7.6563624 6.6201684,7.557448 6.2817856,7.292351 6.4579581,6.722943 6.4803217,6.6578536 6.4842657,6.6145219 6.4780834,6.5832654 6.0900481,6.7031315 5.7688084,6.8753942 5.5151951,7.0859128 c -0.00636,0.085118 0.049649,0.1569744 0.065646,0.1691463 l 0.3414073,0.2597092 c 0.1051201,0.09725 0.00585,0.2785193 -0.1621984,0.232636 L 5.4267883,7.482664 C 5.3215204,7.3990205 5.2434911,7.399992 5.1874438,7.4258825 4.9019407,7.8012915 4.7758753,8.2493756 4.8136927,8.7186781 4.9451322,9.1659747 5.2852459,9.521444 5.7071017,9.7948897 5.7216323,9.7678038 5.7249938,9.7306552 5.7133308,9.6796498 5.6576375,9.5128317 5.5750523,9.3928954 5.4909968,9.275711 5.3416479,8.8838413 5.2866961,8.5062915 5.6103097,8.1860828 5.9700018,7.8894612 6.4586159,7.9208577 7.0712932,8.2675418 7.3659036,8.3782207 7.9196274,8.3208169 8.4754953,8.2620277 8.8332917,8.2747785 9.131487,8.4305926 9.4594671,8.4299762 9.9175387,8.3483246 10.274322,8.1817801 10.508366,7.912235 c 0.03191,-0.025152 0.06546,-0.036103 0.09679,-0.036417 0.09398,-9.425e-4 0.168988,0.094981 0.128177,0.1990944 -0.26379,0.3313811 -0.692955,0.5415657 -1.2820127,0.634418 C 9.1634337,8.6949518 8.8253215,8.6246426 8.4728599,8.5385109 7.9504498,8.572241 7.4138773,8.7036432 6.9249073,8.503292 6.5031364,8.262499 6.1118421,8.1716387 5.7837685,8.392125 5.5826186,8.7318734 5.6672087,8.9249656 5.7241121,9.1322002 c 0.1427084,0.2062665 0.2773432,0.418643 0.3064281,0.7101271 0.00377,0.064528 0.018404,0.1152328 0.039052,0.1583657 0.1517354,0.07605 0.3084718,0.143097 0.465991,0.201969 0.012003,-0.02012 0.020581,-0.04591 0.023479,-0.08122 -0.00319,-0.5518355 0.1319203,-0.9485619 0.4825223,-1.1032851 0.01777,-0.00459 0.034916,-0.00636 0.051272,-0.00599 0.1581037,0.00356 0.2389687,0.2194601 0.027313,0.2771988 -0.2820194,0.2241249 -0.2818136,0.5378051 -0.2738444,0.8538783 -0.010081,0.0777 0.00885,0.132459 0.040968,0.176812 0.2128332,0.0635 0.4196992,0.112216 0.609981,0.146146 -0.013545,-0.02852 -0.052453,-0.05988 -0.078823,-0.08985 C 7.0191406,9.9669353 7.425175,9.4810724 8.5521626,9.6772558 L 9.1096743,9.8938376 C 9.4786681,9.5652602 9.896652,9.3886456 10.369887,9.3837633 c 0.0676,-6.976e-4 0.136403,0.00226 0.206281,0.00863 l 1.114066,0.1571671 c 0.220102,0.051027 0.115731,0.3023415 -0.03522,0.2709695 L 10.603242,9.6688685 c -0.595176,-0.046512 -0.9147709,0.1429558 -1.2115775,0.3521885 0.5145683,0.253106 1.0196035,0.392034 1.5124945,0.385011 0.158178,0.02406 0.186071,0.260475 -0.0081,0.27648 C 10.243923,10.730759 9.6673776,10.44618 9.0852367,10.18661 8.4506828,9.8972429 7.8678075,9.8098597 7.5447113,10.054119 c 0.076039,0.186848 0.302115,0.322805 0.5522412,0.474138 0.00658,7e-6 0.01467,7.78e-4 0.021083,7.19e-4 0.059121,0.68837 0.4699309,1.208464 0.9830134,1.679722 0.1120038,0.102874 0.093627,0.893303 0.3895636,1.49189 0.030952,-0.0042 0.1876005,0.07034 0.1851985,-0.06637 -0.017683,-1.005889 0.032981,-1.165486 0.1130838,-1.183785 0.5646952,-0.128993 1.0004212,-0.373787 1.3347232,-0.668679 -0.0096,-0.03296 -0.03036,-0.06597 -0.07859,-0.09895 -0.228922,-0.194976 -0.488107,-0.342703 -0.832072,-0.357933 l -0.08673,0.341647 c -0.08222,0.13734 -0.2646398,0.08762 -0.2709683,-0.05966 l 0.04049,-0.192385 C 9.6982369,11.54407 9.26164,11.76216 9.2371328,11.305946 l -0.2276046,0.07331 c -0.1520196,0.03095 -0.2342235,-0.161303 -0.1003858,-0.254917 0.0905,-0.03797 0.1809919,-0.07605 0.2764799,-0.08409 0.015834,-0.0013 0.031611,-0.002 0.047198,-0.0024 0.109123,-0.0028 0.2095665,0.02115 0.2645008,0.186875 l 0.016292,0.07307 0.070437,-0.02971 c 0.1253832,-0.04106 0.7608459,-0.588981 1.6833179,0.238387 0.02782,0.02552 0.06138,0.03402 0.09679,0.03689 0.212415,-0.237694 0.368987,-0.493724 0.484919,-0.741752 0.03011,-0.139191 -0.100148,-0.217738 -0.126021,-0.224251 l -0.281751,-0.07091 c -0.133527,-0.05175 -0.107971,-0.256834 0.06517,-0.276001 l 0.276001,0.07859 c 0.157399,0.04482 0.231775,-0.0079 0.268095,-0.06709 0.07952,-0.3139365 0.08997,-0.5660723 0.06061,-0.6696371 -0.02848,-0.2864233 -0.09354,-0.548102 -0.184959,-0.7891899 -0.03573,-0.00794 -0.0854,-0.00176 -0.170104,0.039292 -0.359327,0.123342 -0.68778,0.1572993 -0.982055,0.092719 -0.175969,-0.038419 -0.127618,-0.275781 0.03258,-0.2683342 0.29347,0.031689 0.590242,0.04461 0.919284,-0.1229066 0.04219,-0.019098 0.05569,-0.029644 0.06444,-0.047917 -0.306979,-0.5927491 -0.793956,-1.0341175 -1.336402,-1.3545925 -0.0471,3.55e-5 -0.09742,0.0047 -0.154292,0.018448 C 9.6970959,7.3542244 9.4712005,7.6404158 9.5121755,7.9774051 9.4696085,8.1468909 9.2614874,8.1607602 9.2304247,7.9841134 9.2508036,7.7428912 9.1510304,7.4141876 9.9391143,6.9812146 9.9797709,6.9584282 10.008063,6.9298508 10.02249,6.8947247 9.5294622,6.6674415 9.0211236,6.5294745 8.577079,6.4565255 8.4352348,6.4833887 8.3544225,6.6041158 8.3437241,6.6275885 l -0.00456,0.01006 C 8.6401167,7.019818 8.6082502,7.3324991 8.464714,7.6218623 8.3664023,7.7762446 8.1243034,7.656855 8.2155467,7.5049453 8.3178963,7.3345448 8.3207144,7.1006605 8.2018904,6.938329 L 8.1657134,7.017871 C 8.0940887,7.1418775 7.8955039,7.0850458 7.903129,6.9110164 L 8.0205252,6.661849 c 0.07679,-0.1628936 0.061665,-0.2325418 0.036177,-0.2633029 -0.046929,-0.00246 -0.096635,-0.00655 -0.1401566,-0.00719 z M 8.4187139,8.8648244 C 8.6887903,8.8599417 8.9781854,8.9512272 9.2908,9.1590336 9.4230171,9.2718519 9.3180768,9.549587 9.0780493,9.3449509 8.7293061,9.1544298 8.3664533,9.0591336 7.9567959,9.279784 7.8131632,9.3917153 7.641875,9.24305 7.7459619,9.0881167 7.9571696,8.9483337 8.1804112,8.8691328 8.4187139,8.8648244 Z" /><path
       id="path6"
       style="color:#000000;fill:#ffffff;stroke-width:0.264583;stroke-linecap:round;stroke-linejoin:round;-inkscape-stroke:none"
       d="m 13.045457,3.3633467 a 0.39691468,0.39691468 0 0 0 -0.202572,0.080099 l -1.802474,1.3807942 a 0.39691468,0.39691468 0 0 0 0,0.6304526 l 1.802474,1.3807943 A 0.39691468,0.39691468 0 0 0 13.481089,6.5202601 V 3.7586714 A 0.39691468,0.39691468 0 0 0 13.259914,3.4026208 0.39691468,0.39691468 0 0 0 13.045457,3.3633467 Z m -9.17205,1.354956 A 0.42094941,0.42094941 0 0 0 3.452244,5.1394659 0.42094941,0.42094941 0 0 0 3.873407,5.5606288 H 4.715216 A 0.42094941,0.42094941 0 0 0 5.1363793,5.1394659 0.42094941,0.42094941 0 0 0 4.715216,4.7183027 Z m 2.5254274,0 A 0.42094941,0.42094941 0 0 0 5.9781882,5.1394659 0.42094941,0.42094941 0 0 0 6.3988344,5.5606288 H 7.2411603 A 0.42094941,0.42094941 0 0 0 7.6618063,5.1394659 0.42094941,0.42094941 0 0 0 7.2411603,4.7183027 Z m 2.525944,0 a 0.42094941,0.42094941 0 0 0 -0.421163,0.4211632 0.42094941,0.42094941 0 0 0 0.421163,0.4211629 H 9.7665875 A 0.42094941,0.42094941 0 0 0 10.18775,5.1394659 0.42094941,0.42094941 0 0 0 9.7665875,4.7183027 Z"
       inkscape:label="limit" /></g></svg>
