<?xml version="1.0" encoding="UTF-8" standalone="no"?>
<!-- Created with Inkscape (http://www.inkscape.org/) -->

<svg
   width="64mm"
   height="64mm"
   viewBox="0 0 64 64"
   version="1.1"
   id="svg1"
   inkscape:version="1.3 (0e150ed6c4, 2023-07-21)"
   sodipodi:docname="brain-line.svg"
   xml:space="preserve"
   xmlns:inkscape="http://www.inkscape.org/namespaces/inkscape"
   xmlns:sodipodi="http://sodipodi.sourceforge.net/DTD/sodipodi-0.dtd"
   xmlns="http://www.w3.org/2000/svg"
   xmlns:svg="http://www.w3.org/2000/svg"><sodipodi:namedview
     id="namedview1"
     pagecolor="#505050"
     bordercolor="#ffffff"
     borderopacity="1"
     inkscape:showpageshadow="0"
     inkscape:pageopacity="0"
     inkscape:pagecheckerboard="1"
     inkscape:deskcolor="#d1d1d1"
     inkscape:document-units="mm"
     inkscape:zoom="5.7399056"
     inkscape:cx="113.24228"
     inkscape:cy="117.68486"
     inkscape:window-width="2560"
     inkscape:window-height="1377"
     inkscape:window-x="-8"
     inkscape:window-y="-8"
     inkscape:window-maximized="1"
     inkscape:current-layer="layer1"
     showguides="false" /><defs
     id="defs1" /><g
     inkscape:label="Layer 1"
     inkscape:groupmode="layer"
     id="layer1"><path
       style="display:inline;fill:none;stroke:#000000;stroke-width:1.85208;stroke-linecap:round;stroke-linejoin:miter;stroke-dasharray:none;stroke-opacity:1"
       d="M 42.764908,10.677998 C 68.482089,22.053476 67.370102,50.02798 43.353377,56.179208 37.614966,56.882388 31.422329,48.579744 29.04631,42.855162 23.119363,43.880734 3.3275707,32.673796 2.2927756,28.088303 2.9092105,8.8685162 23.636575,3.8534042 42.764908,10.677998 Z"
       id="path17"
       sodipodi:nodetypes="ccccc" /><g
       id="g36"
       style="display:inline"><path
         style="fill:none;stroke:#000000;stroke-width:1.47987;stroke-linecap:round;stroke-linejoin:miter;stroke-dasharray:none;stroke-opacity:1"
         d="M 2.9764268,29.455603 C 7.111074,27.070562 11.423068,29.552757 14.188301,27.76927"
         id="path18"
         sodipodi:nodetypes="cc" /><path
         style="fill:none;stroke:#000000;stroke-width:1.85208;stroke-linecap:round;stroke-linejoin:miter;stroke-dasharray:none;stroke-opacity:1"
         d="m 6.5180606,16.085987 2.8846845,2.79582"
         id="path19"
         sodipodi:nodetypes="cc" /><path
         style="fill:none;stroke:#000000;stroke-width:1.85208;stroke-linecap:round;stroke-linejoin:miter;stroke-dasharray:none;stroke-opacity:1"
         d="m 11.362544,11.807304 c 0.964869,4.684621 3.745072,5.837908 8.112657,4.567782"
         id="path20"
         sodipodi:nodetypes="cc" /><path
         style="fill:none;stroke:#000000;stroke-width:1.85208;stroke-linecap:round;stroke-linejoin:miter;stroke-dasharray:none;stroke-opacity:1"
         d="m 28.024745,7.9866783 c 0.797842,3.1059287 -3.735091,4.0868287 -5.305033,6.5504507 -0.993411,2.355328 0.47627,4.96387 -0.477684,7.170435"
         id="path21"
         sodipodi:nodetypes="ccc" /><path
         style="fill:none;stroke:#000000;stroke-width:1.85208;stroke-linecap:round;stroke-linejoin:miter;stroke-dasharray:none;stroke-opacity:1"
         d="M 18.77496,8.9281509 C 18.403952,10.61449 17.970954,11.817413 19.338461,13.503752"
         id="path22"
         sodipodi:nodetypes="cc" /><path
         style="fill:none;stroke:#000000;stroke-width:1.85208;stroke-linecap:round;stroke-linejoin:miter;stroke-dasharray:none;stroke-opacity:1"
         d="m 9.2204375,25.262549 c -1.724487,-2.510024 -0.5695331,-3.794754 3.4182535,-3.874024 1.747903,-1.53068 3.335773,-3.578384 6.608626,-0.18231"
         id="path23"
         sodipodi:nodetypes="ccc" /><path
         style="fill:none;stroke:#000000;stroke-width:1.85208;stroke-linecap:round;stroke-linejoin:miter;stroke-dasharray:none;stroke-opacity:1"
         d="m 18.47251,39.892674 c 0.498036,-5.932867 5.384071,-0.241123 2.050954,-8.659574"
         id="path24"
         sodipodi:nodetypes="cc" /><path
         style="fill:none;stroke:#000000;stroke-width:1.85208;stroke-linecap:round;stroke-linejoin:miter;stroke-dasharray:none;stroke-opacity:1"
         d="m 29.000733,42.809586 c -4.00621,-0.937342 -3.629265,-4.822647 -1.373388,-6.759094 5.176871,-2.257373 4.505926,2.055061 12.317789,-2.52344 2.370221,-1.249556 9.110527,0.945383 10.963084,3.233539 2.638272,3.399738 4.076889,2.319668 6.152853,2.278832"
         id="path25"
         sodipodi:nodetypes="ccccc" /><path
         style="fill:none;stroke:#000000;stroke-width:1.85208;stroke-linecap:round;stroke-linejoin:miter;stroke-dasharray:none;stroke-opacity:1"
         d="m 58.716753,45.544191 c -5.907392,-0.127133 -8.55742,-5.894869 -16.635499,-7.930352 -3.156151,-0.244087 -6.622534,2.104668 -9.798996,4.010752"
         id="path26"
         sodipodi:nodetypes="ccc" /><path
         style="fill:none;stroke:#000000;stroke-width:1.85208;stroke-linecap:round;stroke-linejoin:miter;stroke-dasharray:none;stroke-opacity:1"
         d="m 34.783457,51.450661 c 2.376489,0.732835 5.510361,-2.232089 9.583259,-6.503658 4.352947,-0.582571 6.309157,0.343982 7.740306,4.315976"
         id="path27"
         sodipodi:nodetypes="ccc" /><path
         style="fill:none;stroke:#000000;stroke-width:1.85208;stroke-linecap:round;stroke-linejoin:miter;stroke-dasharray:none;stroke-opacity:1"
         d="M 46.090658,55.203211 C 44.114041,53.190244 44.377906,51.03451 46.322053,48.387956"
         id="path28"
         sodipodi:nodetypes="cc" /><path
         style="fill:none;stroke:#000000;stroke-width:1.85208;stroke-linecap:round;stroke-linejoin:miter;stroke-dasharray:none;stroke-opacity:1"
         d="m 60.585405,28.908689 c -0.923549,0.252477 -2.271765,1.15009 -2.253984,3.486949 0.0022,0.283396 -0.08955,1.112093 -0.750448,1.416453 -2.230275,1.112551 -2.144727,-0.101125 -3.687527,-0.562562"
         id="path29"
         sodipodi:nodetypes="cscc" /><path
         style="fill:none;stroke:#000000;stroke-width:1.85208;stroke-linecap:round;stroke-linejoin:miter;stroke-dasharray:none;stroke-opacity:1"
         d="m 57.69195,22.820284 c -1.578143,1.959759 -3.883006,1.244758 -5.199192,1.948782 -0.226021,0.120897 -2.09865,1.22862 -1.988581,2.176186 1.811805,5.266023 -3.718651,2.747318 -5.117155,3.348666"
         id="path30"
         sodipodi:nodetypes="cscc" /><path
         style="fill:none;stroke:#000000;stroke-width:1.85208;stroke-linecap:round;stroke-linejoin:miter;stroke-dasharray:none;stroke-opacity:1"
         d="m 53.110823,17.332197 c -5.666971,3.734968 -2.890163,6.035146 -7.930349,9.89015 -1.574223,1.307324 -5.54101,-0.337169 -6.917046,1.352973 -2.067211,2.539089 -4.796824,3.604328 -6.562611,2.78764 -2.819605,-1.915909 -5.059069,-1.124493 -7.109964,0.546914"
         id="path31"
         sodipodi:nodetypes="ccscc" /><path
         style="fill:none;stroke:#000000;stroke-width:1.85208;stroke-linecap:round;stroke-linejoin:miter;stroke-dasharray:none;stroke-opacity:1"
         d="m 16.011368,32.554826 c 0.350822,-1.533345 2.785003,-7.81905 6.426316,-8.249391 2.306115,0.02942 3.709832,0.901462 5.818938,1.517248 0.602159,0.175794 2.074233,0.287854 2.837959,-0.343311 4.034546,-4.210262 8.635641,-0.5027 10.357368,-2.492419 1.597222,-1.601918 2.669229,-4.455188 3.181602,-7.113211 0.304178,-1.190334 1.591836,-2.166202 4.831132,-1.504031"
         id="path32"
         sodipodi:nodetypes="ccscccc" /><path
         style="fill:none;stroke:#000000;stroke-width:1.85208;stroke-linecap:round;stroke-linejoin:miter;stroke-dasharray:none;stroke-opacity:1"
         d="m 43.722019,11.133765 c -7.355651,2.124261 -9.245493,5.697505 -10.528223,9.662264 l -3.828448,0.18231"
         id="path33"
         sodipodi:nodetypes="ccc" /><path
         style="fill:none;stroke:#000000;stroke-width:1.85208;stroke-linecap:round;stroke-linejoin:miter;stroke-dasharray:none;stroke-opacity:1"
         d="m 35.79167,8.718199 c -0.213801,5.72961 -8.304252,6.002488 -9.162037,10.304131"
         id="path34"
         sodipodi:nodetypes="cc" /><path
         style="fill:none;stroke:#000000;stroke-width:1.85208;stroke-linecap:round;stroke-linejoin:miter;stroke-dasharray:none;stroke-opacity:1"
         d="m 43.971372,17.967998 c -2.858164,-2.37386 -4.265584,-0.866034 -5.865426,0.451184"
         id="path35"
         sodipodi:nodetypes="cc" /><path
         style="fill:none;stroke:#000000;stroke-width:1.85208;stroke-linecap:round;stroke-linejoin:miter;stroke-dasharray:none;stroke-opacity:1"
         d="m 31.048096,46.553887 c 3.212843,-2.169946 5.381019,-2.636618 8.148059,-2.686347"
         id="path36"
         sodipodi:nodetypes="cc" /></g></g></svg>
