<?xml version="1.0" encoding="UTF-8" standalone="no"?>
<!-- Created with Inkscape (http://www.inkscape.org/) -->

<svg
   width="64"
   height="64"
   viewBox="0 0 16.933333 16.933333"
   version="1.1"
   id="svg1"
   xml:space="preserve"
   inkscape:version="1.3.2 (091e20e, 2023-11-25, custom)"
   sodipodi:docname="brain-solid.svg"
   xmlns:inkscape="http://www.inkscape.org/namespaces/inkscape"
   xmlns:sodipodi="http://sodipodi.sourceforge.net/DTD/sodipodi-0.dtd"
   xmlns="http://www.w3.org/2000/svg"
   xmlns:svg="http://www.w3.org/2000/svg"><sodipodi:namedview
     id="namedview1"
     pagecolor="#505050"
     bordercolor="#eeeeee"
     borderopacity="1"
     inkscape:showpageshadow="0"
     inkscape:pageopacity="0"
     inkscape:pagecheckerboard="0"
     inkscape:deskcolor="#505050"
     inkscape:document-units="mm"
     inkscape:zoom="11.313708"
     inkscape:cx="23.864855"
     inkscape:cy="32.482719"
     inkscape:window-width="2560"
     inkscape:window-height="1369"
     inkscape:window-x="-8"
     inkscape:window-y="-8"
     inkscape:window-maximized="1"
     inkscape:current-layer="layer1" /><defs
     id="defs1" /><g
     inkscape:label="Layer 1"
     inkscape:groupmode="layer"
     id="layer1"><path
       id="path1"
       style="fill:#ffffff;stroke-width:0.405561;stroke-linecap:round;stroke-linejoin:round"
       inkscape:label="symbol"
       d="M 7.4861473,1.9927875 C 7.339404,1.9906148 7.2042746,1.9941466 7.0825895,2.0029505 6.5394513,2.0174636 6.039175,2.0748358 5.5818457,2.1685235 5.5519805,2.2220121 5.5382234,2.2778021 5.5348416,2.3349435 5.0925899,3.3658173 5.441719,3.5564631 5.7042258,3.8390748 6.0956372,4.0960483 6.5009183,4.1283725 6.9373425,3.65614 7.0883496,3.4546788 7.5217602,3.6509595 7.3201507,3.9542561 6.7509251,4.5684518 6.1243202,4.7159948 5.4196604,4.2286584 5.194824,4.0538291 4.5967387,3.5852748 4.9081202,2.5788566 4.9476481,2.4638127 4.9546184,2.3872243 4.9436908,2.3319793 4.2578455,2.5438402 3.6900602,2.8483115 3.2418034,3.2203993 3.2305749,3.3708428 3.3295567,3.4978486 3.3578316,3.5193623 L 3.9612627,3.9783934 C 4.1470598,4.1502815 3.9715966,4.4706712 3.67458,4.3895735 L 3.0855465,3.9216497 C 2.8994875,3.7738114 2.761572,3.7755284 2.6625095,3.8212895 2.157888,4.4848179 1.9350697,5.2767983 2.0019112,6.106282 2.2342281,6.8968707 2.8353729,7.5251559 3.5809952,8.0084663 3.6066779,7.9605923 3.6126193,7.894933 3.5920051,7.8047817 3.4935683,7.509934 3.3476004,7.2979488 3.1990339,7.0908275 2.9350623,6.3982049 2.8379362,5.7308925 3.4099172,5.1649295 4.0456664,4.6406563 4.9092829,4.6961492 5.9921789,5.308906 c 0.5207184,0.195623 1.499415,0.094163 2.4819015,-0.00974 0.6323985,0.022537 1.1594532,0.2979353 1.7391516,0.2968457 0.809633,-0.1443178 1.440241,-0.4386821 1.85391,-0.915098 0.0564,-0.044457 0.115709,-0.063811 0.171078,-0.064365 0.166104,-0.00166 0.298682,0.1678779 0.226551,0.3518955 -0.466246,0.585711 -1.224786,0.9572085 -2.265936,1.1213232 C 9.6899988,6.0643461 9.0923917,5.940076 8.4694224,5.7878399 7.546072,5.8474572 6.5976899,6.0797081 5.7334446,5.7255911 4.9879721,5.2999937 4.2963665,5.1393998 3.7165025,5.5291055 3.3609738,6.1296045 3.5104852,6.4708914 3.6110609,6.8371748 c 0.2522344,0.3645721 0.490199,0.7399438 0.5416059,1.2551366 0.00667,0.1140508 0.032529,0.203672 0.069024,0.2799073 0.2681895,0.1344217 0.5452184,0.2529225 0.8236306,0.3569772 0.021214,-0.035564 0.036376,-0.081152 0.041499,-0.1435531 -0.00564,-0.9753584 0.2331662,-1.676565 0.8528487,-1.9500353 0.031409,-0.00811 0.061712,-0.011238 0.09062,-0.010586 0.2794453,0.00629 0.4223729,0.3878917 0.048274,0.4899437 C 5.5801006,7.5111013 5.5804642,8.0655255 5.5945496,8.6241777 5.5767344,8.7615185 5.610188,8.8582989 5.6669612,8.9366915 6.0431402,9.0489114 6.4087718,9.1350312 6.7450915,9.1950024 6.7211513,9.1445929 6.6523818,9.089177 6.605773,9.0362047 5.8999995,8.3125504 6.6176524,7.4537968 8.6095878,7.8005472 L 9.5949802,8.1833554 C 10.24717,7.6026007 10.985949,7.2904376 11.822382,7.2818082 c 0.119491,-0.00123 0.24109,0.004 0.364599,0.015244 l 1.969091,0.27779 c 0.389025,0.09019 0.204552,0.5343831 -0.06225,0.4789338 l -1.85899,-0.2680499 c -1.051961,-0.08221 -1.616839,0.2526717 -2.141439,0.6224868 0.909489,0.44736 1.80213,0.6929113 2.673306,0.6805009 0.279575,0.04252 0.328878,0.4603836 -0.0144,0.4886733 C 11.599742,9.6625968 10.58071,9.1596097 9.5517872,8.700824 8.4302246,8.1893736 7.4000032,8.0349255 6.8289367,8.4666505 6.9633341,8.7968995 7.3629193,9.037201 7.805013,9.3046786 c 0.011621,1.32e-5 0.025929,0.00138 0.037264,0.00127 0.1044946,1.2166834 0.8305943,2.1359384 1.7374582,2.9688804 0.1979647,0.181828 0.1654836,1.578895 0.6885468,2.636889 0.05471,-0.0074 0.331581,0.12432 0.327335,-0.1173 -0.03125,-1.777891 0.05829,-2.059975 0.199874,-2.092318 0.998088,-0.227991 1.768225,-0.660663 2.359098,-1.181877 -0.01699,-0.05826 -0.05366,-0.116601 -0.138895,-0.17489 -0.40462,-0.344626 -0.862727,-0.60573 -1.470678,-0.63265 l -0.153293,0.603856 c -0.145326,0.242747 -0.467749,0.154854 -0.478934,-0.105443 l 0.07157,-0.340038 C 10.635254,11.10011 9.8635774,11.485579 9.8202616,10.67923 l -0.4022871,0.129579 c -0.2686919,0.0547 -0.4139856,-0.2851 -0.1774299,-0.450562 0.1599579,-0.0671 0.3198999,-0.134425 0.4886732,-0.148634 0.027986,-0.0021 0.055872,-0.0035 0.083422,-0.0042 0.1928732,-0.0051 0.3704052,0.03739 0.4675002,0.330299 l 0.0288,0.129156 0.124496,-0.05251 c 0.221613,-0.07259 1.34478,-1.0410139 2.975234,0.421344 0.04918,0.0451 0.108494,0.06013 0.171077,0.06521 0.37544,-0.42012 0.652178,-0.872647 0.857085,-1.311034 0.05321,-0.2460164 -0.177003,-0.3848475 -0.222741,-0.3963588 L 13.716097,9.2661437 C 13.48009,9.174676 13.525259,8.812194 13.831278,8.7783173 l 0.487827,0.138895 c 0.278199,0.07921 0.409657,-0.01399 0.473852,-0.1185689 0.140553,-0.5548775 0.159031,-1.0005228 0.107135,-1.1835719 -0.05032,-0.5062478 -0.165328,-0.9687604 -0.326911,-1.3948787 -0.06314,-0.014038 -0.150944,-0.00311 -0.300657,0.069448 -0.635103,0.218005 -1.215637,0.2780238 -1.735764,0.1638792 -0.311021,-0.067905 -0.225564,-0.4874377 0.05759,-0.4742758 0.518701,0.056011 1.043241,0.078848 1.624817,-0.2172351 0.07458,-0.033757 0.09842,-0.052394 0.113911,-0.084692 C 13.790502,4.629616 12.92978,3.8495053 11.971016,3.2830717 c -0.08326,6.27e-5 -0.172193,0.00831 -0.272709,0.032606 -1.06507,0.3789572 -1.464336,0.8847955 -1.391913,1.4804177 C 10.231157,5.0956585 9.863307,5.1201723 9.8084041,4.8079523 9.8444237,4.3815965 9.6680762,3.8006189 11.061,3.035347 11.13286,2.9950726 11.182865,2.9445624 11.208364,2.8824778 10.336948,2.4807588 9.4384685,2.2369047 8.6536276,2.1079687 8.4029207,2.1554489 8.2600863,2.3688318 8.2411772,2.4103194 l -0.00805,0.017785 C 8.7650457,3.1035778 8.7087222,3.6562359 8.4550247,4.1676802 8.2812605,4.4405481 7.8533551,4.229529 8.0146258,3.9610315 8.1955269,3.6598517 8.2005079,3.2464654 7.9904887,2.9595476 L 7.926546,3.1001365 C 7.7999511,3.3193158 7.448956,3.2188668 7.4624334,2.9112731 L 7.6699291,2.4708743 C 7.8056536,2.1829628 7.7789219,2.0598608 7.7338716,2.0054913 7.6509261,2.0011308 7.5630699,1.9939264 7.4861473,1.9927875 Z m 0.887573,4.3718054 C 8.8510753,6.3559627 9.362576,6.5173073 9.9151164,6.8846023 10.148807,7.0840066 9.9633279,7.5748984 9.5390834,7.2132076 8.9226863,6.876465 8.2813506,6.7080309 7.5572887,7.0980264 7.3034205,7.295863 7.0006717,7.0330996 7.1846434,6.759258 7.5579492,6.5121941 7.9525247,6.3722077 8.3737203,6.3645929 Z" /></g></svg>
