<?xml version="1.0" encoding="UTF-8" standalone="no"?>
<!-- Created with Inkscape (http://www.inkscape.org/) -->

<svg
   width="64"
   height="64"
   viewBox="0 0 16.933333 16.933333"
   version="1.1"
   id="svg1"
   xml:space="preserve"
   inkscape:version="1.3 (0e150ed6c4, 2023-07-21)"
   sodipodi:docname="brain-solid.svg"
   xmlns:inkscape="http://www.inkscape.org/namespaces/inkscape"
   xmlns:sodipodi="http://sodipodi.sourceforge.net/DTD/sodipodi-0.dtd"
   xmlns="http://www.w3.org/2000/svg"
   xmlns:svg="http://www.w3.org/2000/svg"><sodipodi:namedview
     id="namedview1"
     pagecolor="#505050"
     bordercolor="#eeeeee"
     borderopacity="1"
     inkscape:showpageshadow="0"
     inkscape:pageopacity="0"
     inkscape:pagecheckerboard="0"
     inkscape:deskcolor="#505050"
     inkscape:document-units="mm"
     inkscape:zoom="11.313708"
     inkscape:cx="23.953243"
     inkscape:cy="32.482719"
     inkscape:window-width="1920"
     inkscape:window-height="1017"
     inkscape:window-x="1912"
     inkscape:window-y="-8"
     inkscape:window-maximized="1"
     inkscape:current-layer="layer1" /><defs
     id="defs1" /><g
     inkscape:label="Layer 1"
     inkscape:groupmode="layer"
     id="layer1"><path
       id="path1"
       style="fill:#ffffff;stroke-width:0.494921;stroke-linecap:round;stroke-linejoin:round"
       inkscape:label="symbol"
       d="M 7.2719076 0.5663737 C 7.0928314 0.56372234 6.927928 0.56803221 6.7794312 0.57877604 C 6.1166197 0.59648691 5.5061141 0.6665004 4.9480184 0.78083089 C 4.9115728 0.846105 4.8947844 0.91418751 4.8906576 0.98391927 C 4.3509615 2.2419325 4.7770167 2.4745846 5.0973633 2.8194661 C 5.575017 3.1330602 6.0695965 3.1725066 6.602181 2.596224 C 6.7864604 2.3503734 7.3153674 2.589902 7.0693359 2.960026 C 6.374689 3.7095516 5.61002 3.8896037 4.7500977 3.2948893 C 4.4757216 3.0815386 3.745856 2.5097446 4.1258464 1.2815755 C 4.1740837 1.1411831 4.1825898 1.0477195 4.1692546 0.98030192 C 3.3322922 1.2388437 2.639403 1.6104011 2.0923787 2.0644735 C 2.0786762 2.2480653 2.1994673 2.4030552 2.2339722 2.4293091 L 2.9703613 2.9894816 C 3.1970964 3.199243 2.9829722 3.5902263 2.6205119 3.4912598 L 1.9016927 2.9202352 C 1.674638 2.7398227 1.5063347 2.741918 1.3854451 2.797762 C 0.76963701 3.60749 0.49772352 4.5739729 0.57929281 5.5862223 C 0.86279756 6.5510067 1.5963967 7.3177263 2.506307 7.9075277 C 2.5376486 7.8491054 2.544899 7.7689788 2.5197428 7.658964 C 2.3996167 7.2991504 2.2214868 7.0404571 2.0401855 6.7876994 C 1.7180513 5.9424666 1.5995247 5.1281208 2.2975342 4.4374552 C 3.0733623 3.7976654 4.1272653 3.8653854 5.448763 4.6131551 C 6.0842149 4.851881 7.2785543 4.7280653 8.4775187 4.6012695 C 9.2492578 4.6287714 9.8924421 4.9648509 10.59987 4.9635213 C 11.587895 4.787405 12.357448 4.4281815 12.862264 3.8467936 C 12.931092 3.7925417 13.003467 3.7689231 13.071037 3.7682454 C 13.27374 3.7662125 13.43553 3.9731131 13.347506 4.1976766 C 12.778528 4.9124412 11.852853 5.3657932 10.5823 5.5660685 C 9.9613486 5.5350464 9.2320667 5.383395 8.4718343 5.1976156 C 7.345036 5.2703689 6.1876904 5.5537932 5.13302 5.1216512 C 4.2232926 4.6022791 3.3793009 4.4063004 2.6716715 4.8818726 C 2.2378067 5.6146836 2.420261 6.0311686 2.5429972 6.4781576 C 2.8508081 6.9230584 3.141205 7.3811383 3.2039388 8.009847 C 3.2120739 8.1490273 3.2436345 8.2583954 3.2881714 8.3514282 C 3.6154529 8.5154679 3.9535214 8.6600788 4.293278 8.7870605 C 4.3191663 8.743661 4.3376687 8.688028 4.3439209 8.6118774 C 4.3370432 7.4216117 4.6284628 6.5659036 5.3846842 6.2321777 C 5.4230143 6.2222855 5.4599941 6.2184644 5.4952718 6.2192586 C 5.8362891 6.2269357 6.010709 6.6926171 5.5541829 6.8171549 C 4.9458887 7.300575 4.9463325 7.9771592 4.9635213 8.658903 C 4.9417809 8.826505 4.9826055 8.9446097 5.051888 9.0402751 C 5.5109529 9.1772211 5.9571468 9.2823163 6.36757 9.3555013 C 6.3383549 9.2939847 6.254433 9.2263587 6.1975545 9.1617147 C 5.3362732 8.2786127 6.2120514 7.2306441 8.6428833 7.6537964 L 9.8453939 8.1209513 C 10.641285 7.412235 11.542844 7.0312909 12.563574 7.0207601 C 12.709393 7.0192556 12.857785 7.0256396 13.008508 7.0393636 L 15.411462 7.378361 C 15.886203 7.4884227 15.661084 8.0304884 15.335498 7.9628215 L 13.066903 7.6357096 C 11.783155 7.535386 11.093814 7.9440542 10.453625 8.3953532 C 11.563509 8.941283 12.652831 9.2409383 13.715959 9.2257935 C 14.057135 9.2776818 14.1173 9.7876165 13.698389 9.8221395 C 12.291879 9.926124 11.048317 9.3123104 9.7926839 8.7524373 C 8.4239999 8.1282956 7.1667828 7.9398168 6.4698893 8.4666667 C 6.6338994 8.8696818 7.121528 9.1629305 7.6610311 9.4893433 C 7.6752133 9.4893593 7.6926734 9.4910223 7.7065063 9.4908936 C 7.8340248 10.975657 8.720111 12.097458 9.8267904 13.113928 C 10.068374 13.33582 10.028736 15.040712 10.667049 16.33182 C 10.733809 16.32282 11.071689 16.483533 11.066508 16.188676 C 11.028368 14.01905 11.137647 13.674812 11.310421 13.635343 C 12.528424 13.357117 13.468251 12.829112 14.189315 12.193054 C 14.168571 12.121961 14.123837 12.050762 14.019816 11.979631 C 13.526044 11.559071 12.967 11.240435 12.225094 11.207585 L 12.038025 11.944491 C 11.860678 12.240724 11.467214 12.133465 11.453564 11.815816 L 11.540898 11.400854 C 11.114878 11.680375 10.173172 12.150778 10.120312 11.16676 L 9.6293864 11.32489 C 9.3014917 11.391637 9.1241844 10.976972 9.4128621 10.775053 C 9.6080646 10.693159 9.8032477 10.611009 10.009208 10.593669 C 10.043361 10.591069 10.077391 10.589388 10.111011 10.588501 C 10.346381 10.58229 10.56303 10.634117 10.681519 10.991577 L 10.716659 11.14919 L 10.868587 11.085111 C 11.139029 10.996537 12.509671 9.8147233 14.499373 11.599292 C 14.55938 11.654329 14.631773 11.67267 14.708146 11.678874 C 15.166308 11.166186 15.504023 10.613951 15.754077 10.078971 C 15.81901 9.7787482 15.538074 9.6093274 15.482259 9.5952799 L 14.874544 9.4423177 C 14.586536 9.3306968 14.641658 8.8883462 15.015104 8.8470052 L 15.610417 9.0165039 C 15.949913 9.1131661 16.110337 8.999431 16.188676 8.8718099 C 16.360198 8.1946725 16.382748 7.6508351 16.319417 7.4274536 C 16.258009 6.8096607 16.117661 6.2452397 15.920475 5.7252319 C 15.843425 5.7081007 15.736272 5.7214412 15.553573 5.8099813 C 14.778532 6.0760208 14.070086 6.149264 13.435356 6.0099691 C 13.055805 5.9271019 13.160092 5.415131 13.505636 5.431193 C 14.138626 5.4995449 14.778742 5.5274141 15.48846 5.1660929 C 15.579464 5.1248986 15.608565 5.1021548 15.62747 5.0627401 C 14.965345 3.7841921 13.914974 2.8321943 12.744958 2.1409546 C 12.643355 2.141031 12.534826 2.1510971 12.412162 2.1807454 C 11.112417 2.6432008 10.625178 3.2604938 10.713558 3.9873535 C 10.621744 4.3529213 10.172843 4.3828364 10.105843 4.0018229 C 10.149799 3.4815252 9.9345956 2.7725369 11.634432 1.8386475 C 11.722125 1.7894991 11.783148 1.7278596 11.814266 1.6520955 C 10.750844 1.1618631 9.6543969 0.86427889 8.6966268 0.70693359 C 8.3906798 0.76487554 8.2163738 1.0252745 8.1932983 1.0759033 L 8.1834798 1.0976074 C 8.8325943 1.921912 8.7638607 2.596341 8.4542643 3.2204753 C 8.2422135 3.5534659 7.7200248 3.2959516 7.9168294 2.9682943 C 8.1375896 2.6007534 8.1436681 2.096283 7.8873739 1.7461466 L 7.8093424 1.9177124 C 7.6548539 2.1851851 7.2265218 2.0626034 7.2429687 1.6872355 L 7.4961833 1.1498006 C 7.6618129 0.79845169 7.6291913 0.64822576 7.5742147 0.58187663 C 7.4729932 0.57655548 7.3657791 0.56776354 7.2719076 0.5663737 z M 8.3550456 5.9014486 C 8.9375794 5.8909168 9.5617825 6.0878116 10.236068 6.5360352 C 10.52125 6.7793756 10.294902 7.3784288 9.777181 6.9370443 C 9.0249689 6.526105 8.2423234 6.3205586 7.358724 6.7964844 C 7.0489194 7.0379118 6.6794638 6.7172519 6.9039714 6.3830729 C 7.3595301 6.0815717 7.8410451 5.9107413 8.3550456 5.9014486 z " /></g></svg>
