<?xml version="1.0" encoding="UTF-8" standalone="no"?>
<!-- Created with Inkscape (http://www.inkscape.org/) -->

<svg
   width="10"
   height="10"
   viewBox="0 0 2.6458333 2.6458332"
   version="1.1"
   id="svg1"
   xml:space="preserve"
   sodipodi:docname="can-read-light.svg"
   inkscape:version="1.3.2 (091e20e, 2023-11-25, custom)"
   xmlns:inkscape="http://www.inkscape.org/namespaces/inkscape"
   xmlns:sodipodi="http://sodipodi.sourceforge.net/DTD/sodipodi-0.dtd"
   xmlns="http://www.w3.org/2000/svg"
   xmlns:svg="http://www.w3.org/2000/svg"><sodipodi:namedview
     id="namedview1"
     pagecolor="#ffffff"
     bordercolor="#000000"
     borderopacity="0.25"
     inkscape:showpageshadow="2"
     inkscape:pageopacity="0.0"
     inkscape:pagecheckerboard="true"
     inkscape:deskcolor="#d1d1d1"
     inkscape:zoom="22.085891"
     inkscape:cx="7.5161106"
     inkscape:cy="13.83236"
     inkscape:window-width="2560"
     inkscape:window-height="1369"
     inkscape:window-x="-8"
     inkscape:window-y="-8"
     inkscape:window-maximized="1"
     inkscape:current-layer="svg1" /><defs
     id="defs1" /><g
     id="g1"
     transform="matrix(0.41666667,0,0,0.39997157,0,0.05302369)"
     style="stroke-width:2.44958"><path
       id="path243-4"
       style="color:#000000;fill:#cfcaba;fill-opacity:1;stroke-width:2.44958;stroke-linecap:round;stroke-linejoin:round;-inkscape-stroke:none"
       d="M 2.4933878,0.52968342 C 2.0666023,0.51969323 1.4876735,0.64312234 0.83767495,0.82888995 V 1.1389485 H 0.27285156 C 0.12236474,1.1391998 2.5453771e-4,1.2595989 0,1.4081827 V 5.5510822 C -4.8155783e-5,5.7217346 0.15827844,5.8492875 0.32762857,5.8151488 0.84722946,5.7088205 1.4280976,5.4728009 1.9213297,5.3836506 c 0.2466196,-0.044558 0.336323,-0.08226 0.6299357,-0.00775 0.2936127,0.074526 0.3351669,0.4132001 0.6164998,0.4190959 0.2813329,0.00611 0.3316734,-0.3432316 0.6304525,-0.4190959 0.2987791,-0.075864 0.3838329,-0.036803 0.6304524,0.00775 0.4932321,0.08915 1.0725431,0.3251699 1.5921509,0.4314982 0.1697147,0.035117 0.3291857,-0.092851 0.3291788,-0.2640666 V 1.4081827 C 6.3497453,1.2590487 6.2271588,1.1384255 6.0761148,1.1389485 H 5.5112914 V 0.82888995 c -1.1555531,-0.33025353 -2.0869829,-0.46406391 -2.3368082,0 C 3.0651876,0.62586199 2.825332,0.53745356 2.4933878,0.52968342 Z M 0.54518635,1.677417 h 0.2924886 v 3.1372761 c 0.90376015,-0.2359546 1.89706335,-0.6414884 2.33680825,0 0.4397379,-0.6414884 1.4330548,-0.2359546 2.3368082,0 V 1.677417 h 0.291455 V 5.1981322 C 5.4119554,5.0878982 4.9874173,4.9377317 4.5268554,4.8544839 4.2371778,4.8021145 3.943647,4.7817295 3.6612751,4.8534504 3.4864834,4.8978049 3.3180485,4.9832915 3.1739664,5.1102823 3.0299599,4.9834749 2.8618147,4.8977981 2.6871744,4.8534504 2.4048026,4.7817431 2.1117955,4.8021825 1.822111,4.8544839 1.3611981,4.9377997 0.93616315,5.087905 0.54518635,5.1981322 Z" /><path
       id="path245-0"
       style="color:#000000;fill:#18171f;fill-opacity:1;stroke-width:2.44958;-inkscape-stroke:none"
       d="m 3.8364582,1.3182658 c -0.094297,0.00132 -0.1806186,0.00947 -0.2604492,0.024805 v 0.3643189 c 0.081789,-0.01997 0.1824235,-0.030427 0.3002401,-0.029972 0.302666,0.00157 0.7188489,0.077997 1.2340332,0.2263427 V 1.5358235 C 4.6113334,1.3947586 4.2001809,1.318945 3.8772826,1.3182658 c -0.013785,-7.65e-5 -0.027353,-1.893e-4 -0.040824,0 z M 2.0060791,1.3601237 C 1.7788525,1.3963951 1.5230922,1.4559318 1.2386841,1.5363403 V 1.9037597 C 1.5260641,1.8210079 1.7827669,1.7609709 2.0060791,1.723409 Z M 2.4716837,2.2484415 C 2.1487579,2.2491207 1.7376331,2.3254511 1.2386841,2.4665161 V 2.8344522 C 1.7538753,2.6860993 2.1705543,2.6091617 2.473234,2.6075927 2.5910506,2.6071308 2.6917055,2.6181118 2.7734741,2.6380818 V 2.2732462 C 2.6822601,2.2557218 2.5819398,2.2478301 2.4716837,2.2484415 Z m 1.4055989,0 c -0.1102767,-6.12e-4 -0.2100387,0.00728 -0.3012736,0.024805 v 0.3648356 c 0.081789,-0.01997 0.1824235,-0.030951 0.3002401,-0.030489 0.302666,0.00157 0.7188489,0.078507 1.2340332,0.2268595 V 2.4665161 C 4.6113334,2.3254511 4.2001809,2.2491207 3.8772826,2.2484415 Z m 0,0.9301758 V 3.179134 C 3.7670059,3.1785227 3.6667269,3.186414 3.5754923,3.203939 v 0.3643189 c 0.081789,-0.01997 0.1829402,-0.030448 0.3007568,-0.029972 0.1502804,6.792e-4 0.3287763,0.020002 0.5333008,0.057361 V 3.2323608 C 4.211609,3.1977195 4.0338303,3.178889 3.8772826,3.1786173 Z M 2.4716837,3.179134 C 2.1487579,3.1798132 1.7376331,3.2556271 1.2386841,3.3966918 V 3.764628 C 1.7538753,3.6162751 2.1705543,3.5398543 2.473234,3.5382852 2.5910506,3.5378234 2.6917055,3.5482886 2.7734741,3.5682576 V 3.2039387 C 2.6822601,3.1864143 2.5819398,3.1785227 2.4716837,3.179134 Z" /></g></svg>
