<?xml version="1.0" encoding="UTF-8" standalone="no"?>
<!-- Created with Inkscape (http://www.inkscape.org/) -->

<svg
   width="48"
   height="48"
   viewBox="0 0 48 48"
   version="1.1"
   id="svg1"
   xml:space="preserve"
   inkscape:version="1.3.2 (091e20e, 2023-11-25, custom)"
   sodipodi:docname="chain-links-solid.svg"
   xmlns:inkscape="http://www.inkscape.org/namespaces/inkscape"
   xmlns:sodipodi="http://sodipodi.sourceforge.net/DTD/sodipodi-0.dtd"
   xmlns="http://www.w3.org/2000/svg"
   xmlns:svg="http://www.w3.org/2000/svg"><sodipodi:namedview
     id="namedview1"
     pagecolor="#505050"
     bordercolor="#eeeeee"
     borderopacity="1"
     inkscape:showpageshadow="0"
     inkscape:pageopacity="0"
     inkscape:pagecheckerboard="0"
     inkscape:deskcolor="#505050"
     inkscape:document-units="px"
     inkscape:zoom="12.094472"
     inkscape:cx="13.890644"
     inkscape:cy="25.507521"
     inkscape:window-width="2560"
     inkscape:window-height="1369"
     inkscape:window-x="-8"
     inkscape:window-y="-8"
     inkscape:window-maximized="1"
     inkscape:current-layer="layer1" /><defs
     id="defs1" /><g
     inkscape:label="Layer 1"
     inkscape:groupmode="layer"
     id="layer1"><path
       id="rect5"
       style="color:#000000;fill:#ffffff;stroke-width:1;stroke-linecap:round;stroke-linejoin:round;-inkscape-stroke:none"
       d="m 32.283892,20.442913 c -3.254512,-3.254512 -8.586469,-3.255654 -11.840981,-0.0012 -0.746547,0.746547 -1.319978,1.603563 -1.724027,2.518677 l 0.798077,0.798076 c 0.862536,0.862538 1.993605,1.11749 3.017617,0.770675 0.205044,-0.417108 0.478937,-0.812326 0.831186,-1.164574 1.685812,-1.685811 4.309463,-1.68467 5.995275,0.0012 l 8.603006,8.603006 c 1.685808,1.685808 1.685815,4.308325 -2e-6,5.994131 -1.685811,1.685811 -4.309464,1.686952 -5.995272,0.0012 L 24.732427,30.72776 c -1.729174,0.581607 -3.595126,0.662504 -5.36161,0.239765 0.306118,0.466194 0.66326,0.907592 1.072094,1.316425 l 8.603006,8.603007 c 3.254516,3.254515 8.586474,3.253374 11.840979,-0.0012 3.254513,-3.254513 3.254517,-8.585322 2e-6,-11.839837 z"
       inkscape:label="chain-link-1" /><path
       id="path11"
       style="color:#000000;fill:#ffffff;stroke-width:1;stroke-linecap:round;stroke-linejoin:round;-inkscape-stroke:none"
       d="m 15.716106,27.557087 c 3.254515,3.254516 8.586471,3.255657 11.840983,0.0012 0.746547,-0.746548 1.319977,-1.603564 1.724025,-2.518679 l -0.798073,-0.798073 c -0.86254,-0.86254 -1.993607,-1.117491 -3.017621,-0.770678 -0.205041,0.417111 -0.478935,0.812327 -0.831184,1.164577 -1.685812,1.68581 -4.309463,1.68467 -5.995277,-0.0012 L 10.035955,16.03123 c -1.6858081,-1.685809 -1.6858151,-4.308326 2e-6,-5.994131 1.685811,-1.6858111 4.309464,-1.6869515 5.995272,-0.0011 l 7.236343,7.236341 c 1.729175,-0.581604 3.595128,-0.662501 5.361609,-0.239765 -0.306117,-0.466193 -0.663257,-0.907588 -1.072094,-1.316426 L 18.954083,7.1131024 C 15.699567,3.8585871 10.367609,3.8597288 7.1131036,7.1142458 3.8585913,10.368758 3.858586,15.699569 7.1131013,18.954084 Z"
       inkscape:label="chain-link-2" /></g></svg>
