<?xml version="1.0" encoding="UTF-8" standalone="no"?>
<!-- Created with Inkscape (http://www.inkscape.org/) -->

<svg
   width="48"
   height="48"
   viewBox="0 0 48 48"
   version="1.1"
   id="svg1"
   xml:space="preserve"
   inkscape:version="1.3.2 (091e20e, 2023-11-25, custom)"
   sodipodi:docname="shrug-off-solid.svg"
   xmlns:inkscape="http://www.inkscape.org/namespaces/inkscape"
   xmlns:sodipodi="http://sodipodi.sourceforge.net/DTD/sodipodi-0.dtd"
   xmlns="http://www.w3.org/2000/svg"
   xmlns:svg="http://www.w3.org/2000/svg"><sodipodi:namedview
     id="namedview1"
     pagecolor="#505050"
     bordercolor="#eeeeee"
     borderopacity="1"
     inkscape:showpageshadow="0"
     inkscape:pageopacity="0"
     inkscape:pagecheckerboard="0"
     inkscape:deskcolor="#505050"
     inkscape:document-units="px"
     inkscape:zoom="22.627418"
     inkscape:cx="19.86528"
     inkscape:cy="25.168581"
     inkscape:window-width="2560"
     inkscape:window-height="1369"
     inkscape:window-x="-8"
     inkscape:window-y="-8"
     inkscape:window-maximized="1"
     inkscape:current-layer="layer1"
     showguides="false" /><defs
     id="defs1" /><g
     inkscape:label="Layer 1"
     inkscape:groupmode="layer"
     id="layer1"
     style="display:inline"><rect
       style="display:none;fill:none;stroke:#000000;stroke-width:4.18542;stroke-linecap:butt;stroke-linejoin:miter;stroke-dasharray:none;stroke-opacity:1;paint-order:normal"
       id="rect1"
       width="43.814579"
       height="43.814579"
       x="2.09271"
       y="2.09271"
       ry="0"
       inkscape:label="frame"
       sodipodi:insensitive="true" /><g
       id="g7"
       transform="matrix(0.67556014,-0.67556014,0.67556014,0.67556014,-9.5688758,22.858013)"><path
         id="path1"
         style="fill:#ffffff;stroke-width:1.79034;stroke-linecap:round;stroke-dashoffset:7.2"
         d="m 15.025502,9.1333941 c 0.210597,4.1797019 6.571007,15.8021529 8.974499,15.8021529 2.403492,0 8.763902,-11.622451 8.974499,-15.8021534 C 33.333706,2.0042625 27.106882,0.36005753 24,3.3808598 20.893101,0.36004176 14.666297,2.0042885 15.025502,9.1333941 Z"
         sodipodi:nodetypes="czccc" /><path
         id="path5"
         style="fill:#ffffff;stroke-width:1.79034;stroke-linecap:round;stroke-dashoffset:7.2"
         d="m 15.025502,42.247466 c 0.210597,-4.179702 6.571007,-15.802153 8.974499,-15.802153 2.403492,0 8.763902,11.622451 8.974499,15.802154 C 33.333706,49.376598 27.106882,51.020803 24,48 c -3.106899,3.020818 -9.333703,1.376572 -8.974498,-5.752534 z"
         sodipodi:nodetypes="czccc" /><path
         id="path6"
         style="fill:#ffffff;stroke-width:1.79034;stroke-linecap:round;stroke-dashoffset:7.2"
         d="m 40.557037,16.715931 c -4.179702,0.210597 -15.802153,6.571007 -15.802153,8.974499 0,2.403492 11.622451,8.763902 15.802153,8.974499 7.129131,0.359206 8.773336,-5.867618 5.752534,-8.9745 3.020818,-3.106899 1.376571,-9.333703 -5.752534,-8.974498 z"
         sodipodi:nodetypes="czccc" /><path
         id="path7"
         style="fill:#ffffff;stroke-width:1.79034;stroke-linecap:round;stroke-dashoffset:7.2"
         d="m 7.442965,16.715931 c 4.179702,0.210597 15.802153,6.571007 15.802153,8.974499 0,2.403492 -11.622451,8.763902 -15.802154,8.974499 -7.12913101,0.359206 -8.773336,-5.867618 -5.752533,-8.9745 -3.020818,-3.106899 -1.37657201,-9.333703 5.752534,-8.974498 z"
         sodipodi:nodetypes="czccc" /></g></g></svg>
