<?xml version="1.0" encoding="UTF-8" standalone="no"?>
<!-- Created with Inkscape (http://www.inkscape.org/) -->

<svg
   width="48"
   height="48"
   viewBox="0 0 48 48"
   version="1.1"
   id="svg1"
   xml:space="preserve"
   inkscape:version="1.3.2 (091e20e, 2023-11-25, custom)"
   sodipodi:docname="clover-line.svg"
   xmlns:inkscape="http://www.inkscape.org/namespaces/inkscape"
   xmlns:sodipodi="http://sodipodi.sourceforge.net/DTD/sodipodi-0.dtd"
   xmlns="http://www.w3.org/2000/svg"
   xmlns:svg="http://www.w3.org/2000/svg"><sodipodi:namedview
     id="namedview1"
     pagecolor="#505050"
     bordercolor="#eeeeee"
     borderopacity="1"
     inkscape:showpageshadow="0"
     inkscape:pageopacity="0"
     inkscape:pagecheckerboard="0"
     inkscape:deskcolor="#505050"
     inkscape:document-units="px"
     inkscape:zoom="16.000001"
     inkscape:cx="17.531249"
     inkscape:cy="29.531249"
     inkscape:window-width="2560"
     inkscape:window-height="1369"
     inkscape:window-x="-8"
     inkscape:window-y="-8"
     inkscape:window-maximized="1"
     inkscape:current-layer="layer1"
     showguides="false" /><defs
     id="defs1" /><g
     inkscape:label="Layer 1"
     inkscape:groupmode="layer"
     id="layer1"
     style="display:inline"><rect
       style="display:none;fill:none;stroke:#000000;stroke-width:4.18542;stroke-linecap:butt;stroke-linejoin:miter;stroke-dasharray:none;stroke-opacity:1;paint-order:normal"
       id="rect1"
       width="43.814579"
       height="43.814579"
       x="2.09271"
       y="2.09271"
       ry="0"
       inkscape:label="frame"
       sodipodi:insensitive="true" /><path
       id="path1"
       style="fill:none;stroke:#ffffff;stroke-width:1.63252;stroke-linecap:round;stroke-dasharray:1.63252, 3.26505;stroke-dashoffset:3.02017;stroke-opacity:1"
       d="M 7.5345587,19.109624 C 10.366093,21.669508 21.964183,25.063274 23.514321,23.513136 25.064459,21.962998 21.670693,10.364907 19.110809,7.533373 14.744529,2.7037517 9.6680894,5.6593231 9.6125721,9.6113881 5.660486,9.6669062 2.7049545,14.74336 7.5345587,19.109624 Z"
       sodipodi:nodetypes="czccc" /><path
       id="path5"
       style="fill:none;stroke:#ffffff;stroke-width:1.63252;stroke-linecap:round;stroke-dasharray:1.63252, 3.26505;stroke-dashoffset:3.02017;stroke-opacity:1"
       d="m 28.89156,40.466626 c -2.559884,-2.831534 -5.95365,-14.429625 -4.403511,-15.979763 1.550138,-1.550138 13.148228,1.843628 15.979763,4.403513 4.829621,4.366279 1.874049,9.442719 -2.078016,9.498236 -0.05552,3.952086 -5.131971,6.907618 -9.498236,2.078014 z"
       sodipodi:nodetypes="czccc" /><path
       id="path6"
       style="fill:none;stroke:#ffffff;stroke-width:1.63252;stroke-linecap:round;stroke-dasharray:1.63252, 3.26505;stroke-dashoffset:3.02017;stroke-opacity:1"
       d="M 28.89156,7.5333733 C 26.331676,10.364907 22.93791,21.962998 24.488049,23.513136 26.038187,25.063274 37.636277,21.669508 40.467811,19.109624 45.297432,14.743344 42.341861,9.6669045 38.389796,9.6113869 38.334278,5.6593008 33.257824,2.7037694 28.89156,7.5333733 Z"
       sodipodi:nodetypes="czccc" /><path
       id="path7"
       style="fill:none;stroke:#ffffff;stroke-width:1.63252;stroke-linecap:round;stroke-dasharray:1.63252, 3.26505;stroke-dashoffset:3.02017;stroke-opacity:1"
       d="m 7.5345587,28.890375 c 2.8315343,-2.559884 14.4296243,-5.95365 15.9797623,-4.403512 1.550138,1.550138 -1.843628,13.148229 -4.403513,15.979763 -4.366279,4.829621 -9.4427189,1.87405 -9.4982358,-2.078015 -3.952086,-0.05552 -6.9076181,-5.131972 -2.0780135,-9.498236 z"
       sodipodi:nodetypes="czccc" /></g></svg>
