<?xml version="1.0" encoding="UTF-8" standalone="no"?>
<!-- Created with Inkscape (http://www.inkscape.org/) -->

<svg
   width="48"
   height="48"
   viewBox="0 0 12.7 12.7"
   version="1.1"
   id="svg1"
   inkscape:version="1.3 (0e150ed6c4, 2023-07-21)"
   sodipodi:docname="damage-type-slash-alt-solid.svg"
   xml:space="preserve"
   xmlns:inkscape="http://www.inkscape.org/namespaces/inkscape"
   xmlns:sodipodi="http://sodipodi.sourceforge.net/DTD/sodipodi-0.dtd"
   xmlns="http://www.w3.org/2000/svg"
   xmlns:svg="http://www.w3.org/2000/svg"><sodipodi:namedview
     id="namedview1"
     pagecolor="#505050"
     bordercolor="#ffffff"
     borderopacity="1"
     inkscape:showpageshadow="0"
     inkscape:pageopacity="0"
     inkscape:pagecheckerboard="1"
     inkscape:deskcolor="#d1d1d1"
     inkscape:document-units="mm"
     inkscape:zoom="16.234905"
     inkscape:cx="21.25051"
     inkscape:cy="26.208962"
     inkscape:window-width="1920"
     inkscape:window-height="1017"
     inkscape:window-x="1912"
     inkscape:window-y="-8"
     inkscape:window-maximized="1"
     inkscape:current-layer="layer1" /><defs
     id="defs1"><inkscape:path-effect
       effect="powerstroke"
       id="path-effect1"
       is_visible="true"
       lpeversion="1.3"
       scale_width="4"
       interpolator_type="CentripetalCatmullRom"
       interpolator_beta="0.2"
       start_linecap_type="zerowidth"
       end_linecap_type="zerowidth"
       offset_points="0.20735403,0.066789762 | 0.75404668,0.18427361 | 0.91023997,0.065628652"
       linejoin_type="round"
       miter_limit="4"
       not_jump="false"
       sort_points="true"
       message="&lt;b&gt;Ctrl + click&lt;/b&gt; on existing node and move it" /></defs><g
     inkscape:label="Layer 1"
     inkscape:groupmode="layer"
     id="layer1"><path
       style="fill:#ffffff;fill-rule:nonzero;stroke:none;stroke-width:0.3;stroke-linecap:round;stroke-linejoin:round;stroke-opacity:1;fill-opacity:1"
       d="m 1.531936,2.053446 c 0.4920699,0.019497 1.300373,0.1181359 2.2896309,0.5243802 0.462865,0.1900781 0.9190255,0.428123 1.3643769,0.7095853 0.2061009,0.1302559 0.4239995,0.2813721 0.6489173,0.4550883 0.5499781,0.4247776 1.1049585,0.9565953 1.6012419,1.5799996 0.4434441,0.5570304 0.8026208,1.1408395 1.0543584,1.7085792 0.260448,0.5873843 0.378516,1.0944943 0.4022424,1.5030307 0.013058,0.2248328 -0.00284,0.4087857 -0.030306,0.5589506 -0.032055,0.1752641 -0.082075,0.3153818 -0.1272168,0.4264628 -0.00352,0.00865 -0.00704,0.017212 -0.010558,0.025673 -0.05621,0.1351489 -0.1213865,0.2701095 -0.2098694,0.4039342 -0.117567,0.1778124 -0.2788576,0.3569544 -0.4962497,0.5113724 -0.134189,0.09532 -0.2899793,0.181196 -0.4691064,0.24912 -0.1366785,0.05183 -0.288354,0.09919 -0.4559197,0.140479 -0.5088939,0.12538 -1.0120086,0.156737 -1.3242724,0.1668 0.2993808,0.06369 0.8081483,0.160293 1.3546541,0.195857 0.1829783,0.01191 0.3557182,0.01614 0.5193179,0.01345 0.2117485,-0.0035 0.4228546,-0.01013 0.6250287,-0.02951 0.3232425,-0.031 0.6708422,-0.09854 1.0025163,-0.268704 0.2533638,-0.129986 0.507057,-0.325631 0.7099532,-0.611064 0.012384,-0.01742 0.024631,-0.03526 0.036722,-0.0535 0.163029,-0.246044 0.289585,-0.555045 0.347167,-0.9214976 0.04797,-0.3053045 0.04567,-0.6347254 -0.0097,-0.9824833 C 10.255979,7.7382963 9.9921858,7.0859913 9.5927861,6.4404283 9.2040231,5.8120579 8.7010741,5.213011 8.1350565,4.6768226 7.498848,4.0741425 6.8267429,3.5910967 6.1880016,3.2169908 5.9264022,3.063774 5.6773814,2.9328 5.4449143,2.8200465 4.9429571,2.5765821 4.4335073,2.3885028 3.9283475,2.2566877 2.8516596,1.9757398 2.0152485,2.0075533 1.531936,2.053446 Z"
       id="path1"
       sodipodi:nodetypes="cc"
       inkscape:path-effect="#path-effect1"
       inkscape:original-d="m 1.531936,2.053446 c 6.3849855,-0.1758506 12.228425,9.674185 4.2372695,8.963455"
       transform="matrix(1.2127956,0,0,1.2127956,-0.88465063,-1.6849068)" /></g></svg>
