<?xml version="1.0" encoding="UTF-8" standalone="no"?>
<!-- Created with Inkscape (http://www.inkscape.org/) -->

<svg
   width="48"
   height="48"
   viewBox="0 0 12.7 12.7"
   version="1.1"
   id="svg1"
   xml:space="preserve"
   inkscape:version="1.3.2 (091e20e, 2023-11-25, custom)"
   sodipodi:docname="damage-type-burning-solid.svg"
   xmlns:inkscape="http://www.inkscape.org/namespaces/inkscape"
   xmlns:sodipodi="http://sodipodi.sourceforge.net/DTD/sodipodi-0.dtd"
   xmlns="http://www.w3.org/2000/svg"
   xmlns:svg="http://www.w3.org/2000/svg"><sodipodi:namedview
     id="namedview1"
     pagecolor="#505050"
     bordercolor="#eeeeee"
     borderopacity="1"
     inkscape:showpageshadow="0"
     inkscape:pageopacity="0"
     inkscape:pagecheckerboard="0"
     inkscape:deskcolor="#505050"
     inkscape:document-units="mm"
     inkscape:zoom="11.702245"
     inkscape:cx="19.825256"
     inkscape:cy="32.344221"
     inkscape:window-width="2560"
     inkscape:window-height="1369"
     inkscape:window-x="-8"
     inkscape:window-y="-8"
     inkscape:window-maximized="1"
     inkscape:current-layer="layer1" /><defs
     id="defs1" /><g
     inkscape:label="Layer 1"
     inkscape:groupmode="layer"
     id="layer1"><path
       id="path1"
       style="fill:#ffffff;stroke-width:0.418671;stroke-linecap:round;stroke-linejoin:round"
       d="M 5.4126525,0.28774782 C 5.9652242,2.9803149 2.4082251,5.0248019 2.5250414,7.1901766 2.412349,6.6197765 2.390733,6.2160846 2.4312883,5.4441961 1.0270755,6.7396459 0.99524673,8.9923695 1.8103511,10.470831 2.3987464,11.53808 3.3055357,12.073127 4.6633445,12.346986 3.4894735,11.703988 2.7170958,10.292497 4.5580528,7.4620621 4.7161152,7.7127115 4.6935991,8.2768726 5.1407667,8.6895137 4.9231678,7.3659474 5.4249285,6.3713134 6.8838629,5.8141622 6.5691459,7.3477128 8.5954119,8.5120347 8.528878,9.7453238 8.59306,9.4204527 8.605343,9.1904416 8.582246,8.7508142 9.3820151,9.4886361 9.399867,10.771848 8.935625,11.613904 8.7840153,11.888898 8.5941556,12.173261 8.3615639,12.346986 10.870672,11.526696 13.207439,8.8874197 9.4959825,3.1811284 9.2184606,3.6212118 9.2584732,4.6122351 8.4733471,5.33674 8.8554007,3.0128578 7.9742108,1.265979 5.4126525,0.28774782 Z"
       sodipodi:nodetypes="cccsccccccscccc" /></g></svg>
