<?xml version="1.0" encoding="UTF-8" standalone="no"?>
<!-- Created with Inkscape (http://www.inkscape.org/) -->

<svg
   width="48"
   height="48"
   viewBox="0 0 12.7 12.7"
   version="1.1"
   id="svg1"
   sodipodi:docname="damage-type-bludgeon-solid.svg"
   inkscape:version="1.3 (0e150ed6c4, 2023-07-21)"
   xmlns:inkscape="http://www.inkscape.org/namespaces/inkscape"
   xmlns:sodipodi="http://sodipodi.sourceforge.net/DTD/sodipodi-0.dtd"
   xmlns="http://www.w3.org/2000/svg"
   xmlns:svg="http://www.w3.org/2000/svg">
  <sodipodi:namedview
     id="namedview1"
     pagecolor="#505050"
     bordercolor="#eeeeee"
     borderopacity="1"
     inkscape:showpageshadow="0"
     inkscape:pageopacity="0"
     inkscape:pagecheckerboard="0"
     inkscape:deskcolor="#505050"
     inkscape:document-units="mm"
     inkscape:zoom="16"
     inkscape:cx="18.9375"
     inkscape:cy="24.21875"
     inkscape:window-width="1920"
     inkscape:window-height="1017"
     inkscape:window-x="1912"
     inkscape:window-y="-8"
     inkscape:window-maximized="1"
     inkscape:current-layer="layer1" />
  <defs
     id="defs1">
    <inkscape:path-effect
       effect="bend_path"
       id="path-effect27"
       is_visible="true"
       lpeversion="1"
       bendpath="m 2.361613,5.3084615 c 3.433541,2.3163586 6.9749828,3.0007171 10.760066,0"
       prop_scale="1"
       scale_y_rel="false"
       vertical="false"
       hide_knot="false"
       bendpath-nodetypes="cc" />
    <inkscape:path-effect
       effect="bend_path"
       id="path-effect17"
       is_visible="true"
       lpeversion="1"
       bendpath="m 2.361613,5.3084615 c 3.433541,2.3163586 6.9749828,3.0007171 10.760066,0"
       prop_scale="1"
       scale_y_rel="false"
       vertical="false"
       hide_knot="false"
       bendpath-nodetypes="cc" />
  </defs>
  <g
     inkscape:label="Layer 1"
     inkscape:groupmode="layer"
     id="layer1">
    <g
       id="g32"
       transform="translate(-0.01178013,0.23610258)">
      <path
         id="path29"
         style="color:#000000;display:inline;fill:#ffffff;stroke-linecap:round;stroke-linejoin:round;-inkscape-stroke:none"
         d="m 0.56792399,5.0172648 a 0.17499951,0.17499951 0 0 0 -0.0304891,0.00155 0.17499951,0.17499951 0 0 0 -0.13694255,0.1080037 0.17499951,0.17499951 0 0 0 0.0976685,0.2284099 L 1.1394653,5.6125773 c 0.00715,-0.028225 0.013862,-0.0566 0.022221,-0.084749 0.025496,-0.085863 0.056132,-0.1682541 0.090951,-0.2475301 L 0.62683512,5.0291504 A 0.17499951,0.17499951 0 0 0 0.56792399,5.0172648 Z M 6.7406738,7.4817139 c -0.2384809,0.039059 -0.4768247,0.069402 -0.714685,0.09095 l 5.6012082,2.247408 A 0.17499951,0.17499951 0 0 0 11.85354,9.722404 0.17499951,0.17499951 0 0 0 11.755872,9.4939941 Z"
         inkscape:label="impactline" />
      <path
         id="path2"
         style="color:#000000;display:inline;fill:#ffffff;fill-opacity:1;stroke-width:0.934758;stroke-linecap:round;stroke-linejoin:round;-inkscape-stroke:none"
         d="M 9.2234144,5.6325439 C 8.9920273,5.6915815 8.8389765,5.9202905 8.7415457,6.2014025 8.3810426,6.2541373 8.0195008,6.2711974 7.6603169,6.2470477 6.2057924,6.201721 4.7583629,5.5599994 3.3950087,4.7153903 l -2.76e-4,4.396e-4 C 3.2256221,4.6160825 3.0083391,4.6505057 2.8138897,4.7504473 2.6169475,4.8516702 2.4248457,5.023633 2.2717131,5.2477331 2.1181913,5.4724028 2.0291051,5.7127784 2.0180223,5.9395101 c -0.01089,0.2227931 0.060289,0.4479778 0.2486837,0.572777 l -2.76e-4,4.395e-4 c 1.5436849,0.9807714 3.3336412,1.7269257 5.2928884,1.8449553 0.5027789,0.017097 0.9988797,-0.01256 1.4849058,-0.083436 0.2209436,0.2346228 0.5549856,0.3806457 0.9022848,0.2973071 0.3473,-0.083339 0.572222,-0.3635128 0.658958,-0.6729339 0.896278,-0.3017229 1.74009,-0.7369627 2.506277,-1.2647172 L 13.11116,6.6330474 C 13.287128,6.4961211 13.349858,6.2697212 13.329854,6.0529706 13.308801,5.8248751 13.203814,5.5912525 13.036401,5.3757145 12.869722,5.1611222 12.668435,4.999162 12.468775,4.9073022 12.277694,4.8193889 12.070171,4.7917404 11.913663,4.8823668 l -5.85e-4,-8.542e-4 C 11.284195,5.3080118 10.612023,5.6630652 9.9217209,5.9056704 9.7023523,5.7012649 9.4548019,5.5735062 9.2234144,5.6325439 Z M 3.2160238,5.0172524 c 0.05529,0.034373 0.093431,0.1167791 0.088333,0.2613429 C 3.2992888,5.4222933 3.245715,5.6164796 3.1356279,5.8010462 3.0247867,5.9868772 2.8803553,6.1229815 2.7492846,6.1918569 2.6188997,6.2603707 2.5223848,6.2569878 2.4623639,6.2190492 2.402314,6.1810924 2.3591202,6.096159 2.3643069,5.9490548 2.3695152,5.801331 2.4293656,5.6125767 2.5475484,5.4325154 2.6650775,5.2534504 2.8153968,5.1207405 2.942749,5.0533614 3.070739,4.9856455 3.1607446,4.9828861 3.2160238,5.0172524 Z m 0.4176997,0.2511514 c 1.2719319,0.7381802 2.6272101,1.2760212 4.0098962,1.3275774 0.6964093,0.0418 1.3956763,-0.055736 2.0773701,-0.2593098 0.125518,0.1466567 0.2592552,0.3708258 0.3413092,0.6319043 0.08294,0.2638977 0.09734,0.5161667 0.05592,0.7160127 C 9.3016222,7.9214468 8.4474345,8.0399247 7.5761145,8.0066839 5.8905011,7.911461 4.3198693,7.3130263 2.9201219,6.4971429 3.1168655,6.3875446 3.2908506,6.2035063 3.4238238,5.9685719 3.5566368,5.7339203 3.6270193,5.4871373 3.6337235,5.2684038 Z M 10.170815,6.186281 c 0.670829,-0.2481099 1.319699,-0.5942784 1.92637,-1.0055176 l 5.83e-4,8.552e-4 c 0.05358,-0.029997 0.140127,-0.02794 0.262919,0.031356 0.128819,0.062203 0.28428,0.1893541 0.410367,0.3623977 0.127166,0.1745237 0.19736,0.3588561 0.208032,0.5073962 0.01003,0.1395952 -0.02839,0.2261452 -0.08331,0.2698522 l 5.83e-4,8.553e-4 C 12.204177,6.8273717 11.449965,7.2240479 10.653956,7.5105372 10.651814,7.285051 10.602294,7.0494027 10.51258,6.8125469 10.422944,6.5758964 10.303155,6.3637111 10.170805,6.1862772 c 3e-6,1.2e-6 7e-6,2.5e-6 10e-6,3.8e-6 z"
         inkscape:path-effect="#path-effect17"
         inkscape:original-d="m 9.5464297,3.7847819 c -0.2763755,0 -0.5056856,0.2008081 -0.6551765,0.4671549 H 2.9761514 v 5.168e-4 C 2.78251,4.2567236 2.6236437,4.4030838 2.5219077,4.593518 2.4186571,4.7867874 2.361613,5.0364624 2.361613,5.3087199 c 0,0.2722574 0.057044,0.5214157 0.1602947,0.714685 0.101736,0.1904343 0.2606023,0.336793 0.4542437,0.3410645 v 5.167e-4 h 5.9151018 c 0.1494909,0.2663469 0.378801,0.467155 0.6551765,0.467155 0.276376,0 0.5056853,-0.2008081 0.6551763,-0.467155 h 2.324499 v -0.00103 c 0.185361,-0.012884 0.338614,-0.156225 0.437086,-0.3405477 0.10325,-0.1932691 0.158488,-0.4424279 0.158488,-0.714685 0,-0.2722573 -0.05524,-0.5219326 -0.158488,-0.7152019 -0.09847,-0.1843261 -0.251725,-0.3276673 -0.437086,-0.3405511 v -0.00103 H 10.201606 C 10.052115,3.98559 9.8228057,3.7847819 9.5464297,3.7847819 Z M 2.9847305,4.6012695 c 0.062422,0 0.1356004,0.050027 0.202739,0.1756999 0.067139,0.1256732 0.1164959,0.3173182 0.1164959,0.5317505 0,0.2144324 -0.049358,0.4055606 -0.1164959,0.5312337 -0.067139,0.1256732 -0.1403168,0.1736328 -0.202739,0.1736328 -0.062422,0 -0.1342458,-0.04796 -0.2013843,-0.1736328 C 2.7162073,5.7142805 2.6673018,5.5231523 2.6673018,5.3087199 c 0,-0.2144323 0.048906,-0.4060773 0.1160444,-0.5317505 0.067139,-0.1256731 0.1389623,-0.1756999 0.2013843,-0.1756999 z m 0.4682413,0 h 6.4144985 c 0.081421,0.179701 0.1381697,0.4303613 0.1381697,0.7074504 0,0.276011 -0.056354,0.5253993 -0.1372662,0.7048665 H 3.4538749 C 3.5539117,5.8217011 3.6092027,5.5764686 3.6092028,5.3087199 c 0,-0.2686659 -0.055544,-0.5152771 -0.156231,-0.7074504 z m 6.8944802,0 h 2.161946 v 0.00103 c 0.06012,0.00521 0.129307,0.055806 0.192805,0.1746664 0.06714,0.1256731 0.114238,0.3173184 0.114238,0.5317505 0,0.2144322 -0.0471,0.4055607 -0.114238,0.5312337 -0.0635,0.1188606 -0.132678,0.1675799 -0.192805,0.1725993 v 0.00103 h -2.161494 c 0.06388,-0.2127351 0.09798,-0.4517253 0.09798,-0.7048665 0,-0.2539398 -0.03416,-0.4940591 -0.09844,-0.7074504 z"
         transform="rotate(-17.80724,3.0942469,7.9086827)"
         inkscape:label="baton" />
      <path
         style="fill:#ffffff;fill-opacity:1;stroke:#ffffff;stroke-width:0.309906;stroke-linecap:round;stroke-linejoin:round;stroke-dasharray:none;stroke-opacity:1"
         d="M 6.8424513,9.1561697 6.153269,9.6876238 5.3808881,7.9734228 Z"
         id="path22"
         sodipodi:nodetypes="cccc" />
      <path
         style="fill:#ffffff;fill-opacity:1;stroke:#ffffff;stroke-width:0.309906;stroke-linecap:round;stroke-linejoin:round;stroke-dasharray:none;stroke-opacity:1"
         d="M 4.3164752,9.8960346 3.4845332,9.6405191 4.4375265,8.0197603 Z"
         id="path23"
         sodipodi:nodetypes="cccc" />
      <path
         style="fill:#ffffff;fill-opacity:1;stroke:#ffffff;stroke-width:0.309906;stroke-linecap:round;stroke-linejoin:round;stroke-dasharray:none;stroke-opacity:1"
         d="M 2.123825,8.6065488 1.8355341,7.7853889 3.7055345,7.5900585 Z"
         id="path24"
         sodipodi:nodetypes="cccc" />
      <path
         style="fill:none;fill-opacity:1;stroke:#ffffff;stroke-width:0.3;stroke-linecap:round;stroke-linejoin:round;stroke-dasharray:none;stroke-opacity:1"
         d="M 1.6429559,5.6826091 2.6847527,2.4083904"
         id="path30" />
      <path
         style="fill:none;fill-opacity:1;stroke:#ffffff;stroke-width:0.3;stroke-linecap:round;stroke-linejoin:round;stroke-dasharray:none;stroke-opacity:1"
         d="M 2.6368645,5.0745709 3.2226327,3.4490711"
         id="path31"
         sodipodi:nodetypes="cc" />
      <path
         style="fill:none;fill-opacity:1;stroke:#ffffff;stroke-width:0.3;stroke-linecap:round;stroke-linejoin:round;stroke-dasharray:none;stroke-opacity:1"
         d="M 3.607387,5.2148874 3.86575,4.3377423"
         id="path32"
         sodipodi:nodetypes="cc" />
    </g>
  </g>
</svg>
