<?xml version="1.0" encoding="UTF-8" standalone="no"?>
<!-- Created with Inkscape (http://www.inkscape.org/) -->

<svg
   width="48"
   height="48"
   viewBox="0 0 48 48"
   version="1.1"
   id="svg1"
   xml:space="preserve"
   inkscape:version="1.3 (0e150ed6c4, 2023-07-21)"
   sodipodi:docname="damage-type-poisoning-solid.svg"
   xmlns:inkscape="http://www.inkscape.org/namespaces/inkscape"
   xmlns:sodipodi="http://sodipodi.sourceforge.net/DTD/sodipodi-0.dtd"
   xmlns="http://www.w3.org/2000/svg"
   xmlns:svg="http://www.w3.org/2000/svg"><sodipodi:namedview
     id="namedview1"
     pagecolor="#505050"
     bordercolor="#eeeeee"
     borderopacity="1"
     inkscape:showpageshadow="0"
     inkscape:pageopacity="0"
     inkscape:pagecheckerboard="0"
     inkscape:deskcolor="#505050"
     inkscape:document-units="px"
     inkscape:zoom="12.094472"
     inkscape:cx="16.86721"
     inkscape:cy="24.349967"
     inkscape:window-width="1920"
     inkscape:window-height="1017"
     inkscape:window-x="1912"
     inkscape:window-y="-8"
     inkscape:window-maximized="1"
     inkscape:current-layer="layer1" /><defs
     id="defs1" /><g
     inkscape:label="Layer 1"
     inkscape:groupmode="layer"
     id="layer1"><path
       id="path13"
       style="fill:none;fill-opacity:1;stroke:#ffffff;stroke-width:1;stroke-linecap:round;stroke-linejoin:round;stroke-dasharray:none;stroke-opacity:1"
       d="M 19.896818,8.7807179 7.3206466,16.042437 15.361662,46.052202 h 5.816406 6.111328 5.814453 L 41.144865,16.042437 28.568693,8.7807179 h -1.279297 -6.111328 z" /><path
       id="path1"
       style="display:inline;fill:#fcfcfc;fill-opacity:1;stroke:none;stroke-width:3.22219;stroke-linecap:round;stroke-linejoin:round"
       d="m 24.231183,12.996515 c -2.811628,-1.45e-4 -4.415849,1.501406 -5.132212,3.876692 l 0.163627,3.722505 c 0.994562,0.753348 2.02118,1.748433 2.426079,2.706132 0.404899,0.957699 0.652362,1.555221 1.343625,1.460052 h 2.400907 c 0.691264,0.09517 0.928264,-0.511146 1.343626,-1.460052 0.415362,-0.948906 1.447926,-1.934259 2.422932,-2.706132 l 0.166774,-3.722505 C 28.650318,14.498385 27.04281,12.996661 24.231183,12.996515 Z m -2.369439,5.289544 c 0.859026,-1.19e-4 1.555256,0.559404 1.554451,1.249227 8.04e-4,0.689823 -0.695426,1.249344 -1.554451,1.249225 -0.859025,1.2e-4 -1.555257,-0.559402 -1.554453,-1.249225 -8.05e-4,-0.689824 0.695427,-1.249347 1.554453,-1.249227 z m 4.748317,0 c 0.859026,-1.2e-4 1.555258,0.559403 1.554453,1.249227 8.04e-4,0.689823 -0.695428,1.249345 -1.554453,1.249225 -0.859025,1.19e-4 -1.555256,-0.559402 -1.554452,-1.249225 -8.05e-4,-0.689824 0.695426,-1.249346 1.554452,-1.249227 z m -2.385171,2.577119 c 0.407091,0.260444 0.58235,0.704472 0.657653,1.230346 -0.04458,0.431309 -0.267508,0.626328 -0.645067,0.613601 -0.39597,0.03443 -0.581574,-0.211023 -0.645066,-0.619894 0.05381,-0.575529 0.245863,-1.003519 0.63248,-1.224053 z"
       sodipodi:nodetypes="scczcczccsccccccccccccccc" /><g
       id="g12"
       transform="matrix(1.6110927,0,0,1.6110927,57.049744,-20.732593)"><path
         id="path6"
         style="color:#000000;fill:#fcfcfc;stroke-linecap:round;stroke-linejoin:round;-inkscape-stroke:none"
         d="m -26.787911,32.566601 c -0.02007,0.01297 -0.03856,0.02736 -0.05699,0.04192 -0.0016,0.0012 -0.0035,0.0017 -0.0051,0.0029 a 0.76004875,0.76004875 0 0 0 -0.01327,0.01217 c -0.0053,0.0044 -0.01149,0.0095 -0.01665,0.01413 -0.02106,0.01874 -0.04,0.03802 -0.05861,0.05864 -0.02596,0.02878 -0.05056,0.05895 -0.07155,0.09092 a 0.76004875,0.76004875 0 0 0 -0.0055,0.01 c -0.0023,0.0036 -0.005,0.0073 -0.0072,0.01093 -0.01719,0.02808 -0.03132,0.05679 -0.04467,0.08668 -0.0016,0.0035 -0.004,0.0064 -0.0055,0.01 -0.01439,0.03357 -0.02547,0.06838 -0.03491,0.1036 -0.0094,0.03522 -0.01724,0.0709 -0.02157,0.107174 -4.32e-4,0.0033 -7.35e-4,0.0064 -0.0012,0.0097 a 0.76004875,0.76004875 0 0 0 9.76e-4,0.0017 c -0.0034,0.03256 -0.0055,0.06449 -0.0047,0.09741 1.68e-4,0.0043 6.06e-4,0.0088 7.84e-4,0.01308 a 0.76004875,0.76004875 0 0 0 -1.91e-4,0.01139 c 0.0022,0.03756 0.0077,0.07552 0.01552,0.112823 0.01612,0.07646 0.04486,0.151864 0.08603,0.223221 0.0082,0.01413 0.01697,0.02781 0.02611,0.04131 a 0.76004875,0.76004875 0 0 0 0.02682,0.03864 l 9.77e-4,0.0017 c 0.01983,0.02575 0.04087,0.04846 0.06379,0.07142 0.02295,0.02295 0.04822,0.04568 0.07394,0.06557 0.02572,0.01988 0.05293,0.03811 0.08116,0.05463 1.88e-4,0.03255 0.0014,0.06385 0.0058,0.09591 0.0043,0.03206 0.01049,0.06394 0.01883,0.09512 0.0083,0.0312 0.01867,0.06272 0.03094,0.09265 0.0061,0.01498 0.01389,0.02968 0.02103,0.04424 a 0.76004875,0.76004875 0 0 0 0.02272,0.04326 c 0.01833,0.03191 0.03844,0.06096 0.06048,0.08912 0.0016,0.002 0.0023,0.0048 0.0039,0.0068 a 0.76004875,0.76004875 0 0 0 0.0151,0.01834 c 0.0031,0.0036 0.0071,0.0063 0.01022,0.0099 0.01869,0.02116 0.039,0.04162 0.05962,0.0603 0.03017,0.02732 0.06089,0.0521 0.09457,0.07395 0.03286,0.02132 0.06844,0.03911 0.103931,0.05501 a 0.76004875,0.76004875 0 0 0 0.002,0.0034 c 0.0025,0.0011 0.0054,0.0011 0.008,0.0021 0.0336,0.01446 0.06666,0.02639 0.101908,0.03588 0.03525,0.0095 0.07254,0.01622 0.108865,0.02059 0.0037,4.92e-4 0.0076,-2.5e-4 0.01139,1.91e-4 0.03897,0.0041 0.07809,0.0063 0.117514,0.0043 0.0059,-2.61e-4 0.01162,-5.71e-4 0.01744,-10e-4 0.02455,-0.0018 0.04939,-0.0046 0.07385,-0.0088 0.0041,-7.37e-4 0.008,-0.0017 0.0121,-0.0025 a 0.76004875,0.76004875 0 0 0 0.01477,-0.0018 c 0.0033,-7.34e-4 0.0061,-0.0025 0.0094,-0.0032 a 0.76004875,0.76004875 0 0 0 0.0077,-0.0022 c 0.0319,-0.0076 0.06338,-0.01567 0.0946,-0.02755 0.0018,-6.8e-4 0.0032,-0.0022 0.0051,-0.0029 a 0.76004875,0.76004875 0 0 0 0.0017,-9.76e-4 c 0.03502,-0.01375 0.07111,-0.02978 0.104678,-0.04916 a 0.76004875,0.76004875 0 0 0 0.03285,-0.02122 c 0.0011,-7.04e-4 0.0023,-0.0012 0.0034,-0.002 a 0.76004875,0.76004875 0 0 0 0.0034,-0.002 c 0.01099,-0.0072 0.02136,-0.01523 0.03188,-0.02291 a 0.76004875,0.76004875 0 0 0 0.05263,-0.04166 c 0.0045,-0.004 0.0089,-0.0081 0.01327,-0.01217 a 0.76004875,0.76004875 0 0 0 0.01496,-0.01315 c 0.0052,-0.0051 0.01072,-0.01065 0.01568,-0.01582 a 0.76004875,0.76004875 0 0 0 0.0106,-0.01289 c 0.0085,-0.0092 0.01658,-0.01823 0.02459,-0.02773 a 0.76004875,0.76004875 0 0 0 0.02361,-0.02942 c 0.0075,-0.0099 0.014,-0.01994 0.02094,-0.03013 a 0.76004875,0.76004875 0 0 0 0.02094,-0.03013 c 0.0013,-0.002 0.0019,-0.0043 0.0031,-0.0063 a 0.76004875,0.76004875 0 0 0 0.0031,-0.0063 c 0.006,-0.0103 0.01273,-0.02031 0.01827,-0.03085 a 0.76004875,0.76004875 0 0 0 0.01008,-0.02161 c 0.0027,-0.0056 0.0061,-0.01063 0.0087,-0.01627 a 0.76004875,0.76004875 0 0 0 0.02061,-0.05024 c 0.0036,-0.0097 0.0073,-0.01882 0.01053,-0.02863 a 0.76004875,0.76004875 0 0 0 0.0014,-0.0053 c 0.0037,-0.0116 0.0078,-0.02389 0.01099,-0.03566 a 0.76004875,0.76004875 0 0 0 0.0083,-0.03637 c 4.26e-4,-0.0019 0.0011,-0.0035 0.0014,-0.0053 a 0.76004875,0.76004875 0 0 0 0.0052,-0.03006 c 7.02e-4,-0.004 0.0013,-0.0083 0.0019,-0.01236 a 0.76004875,0.76004875 0 0 0 0.006,-0.05987 l 7.15e-4,-0.0027 a 0.76004875,0.76004875 0 0 0 3.84e-4,-0.02277 c 0.0015,-0.04075 4.56e-4,-0.08047 -0.0047,-0.121351 -2.68e-4,-0.002 -9.81e-4,-0.004 -0.0012,-0.0061 a 0.76004875,0.76004875 0 0 0 -0.0045,-0.03123 c -6.11e-4,-0.0035 -8.4e-4,-0.0069 -0.0015,-0.01041 a 0.76004875,0.76004875 0 0 0 -0.0059,-0.0259 c -0.0012,-0.0052 -0.0015,-0.01125 -0.0027,-0.01646 a 0.76004875,0.76004875 0 0 0 -0.0057,-0.02154 c -0.0018,-0.0063 -0.0045,-0.01252 -0.0064,-0.01887 a 0.76004875,0.76004875 0 0 0 -0.01543,-0.03845 l 10.339869,-5.969726 c 0.02323,0.02808 0.0483,0.0547 0.07472,0.07864 0.02848,0.0258 0.05832,0.04894 0.08995,0.06985 a 0.76004875,0.76004875 0 0 0 0.0046,0.0041 c 0.0053,0.0034 0.0109,0.0054 0.01627,0.0086 a 0.76004875,0.76004875 0 0 0 9.76e-4,0.0017 c 0.02765,0.01691 0.05728,0.03149 0.08669,0.04467 a 0.76004875,0.76004875 0 0 0 9.77e-4,0.0017 c 0.003,0.0014 0.0059,0.0026 0.009,0.0038 0.0336,0.01447 0.06834,0.02542 0.103599,0.03491 0.03526,0.0095 0.07085,0.0172 0.107174,0.02157 0.0037,4.92e-4 0.0076,-2.51e-4 0.01139,1.91e-4 0.03897,0.0041 0.07809,0.0063 0.117514,0.0043 0.0059,-2.62e-4 0.01162,-5.71e-4 0.01744,-10e-4 0.0313,-0.0023 0.06258,-0.0072 0.09369,-0.0135 a 0.76004875,0.76004875 0 0 0 0.01646,-0.0027 c 0.01216,-0.0028 0.0249,-0.0068 0.03702,-0.0101 0.02115,-0.0059 0.04185,-0.01259 0.06265,-0.02039 a 0.76004875,0.76004875 0 0 0 0.0061,-0.0012 c 0.0011,-4.31e-4 0.0022,-0.0015 0.0034,-0.002 a 0.76004875,0.76004875 0 0 0 0.0034,-0.002 c 0.03435,-0.0136 0.06834,-0.02818 0.101295,-0.04721 a 0.76004875,0.76004875 0 0 0 0.03285,-0.02122 c 0.0011,-7.05e-4 0.0023,-0.0012 0.0034,-0.002 a 0.76004875,0.76004875 0 0 0 0.0034,-0.002 c 0.01099,-0.0072 0.02136,-0.01523 0.03188,-0.02291 a 0.76004875,0.76004875 0 0 0 0.05432,-0.04264 c 0.004,-0.0036 0.0076,-0.0075 0.01158,-0.0112 a 0.76004875,0.76004875 0 0 0 0.01665,-0.01412 c 0.005,-0.0048 0.0092,-0.0099 0.01399,-0.01484 a 0.76004875,0.76004875 0 0 0 0.0106,-0.01289 c 0.0061,-0.0066 0.01224,-0.01274 0.01808,-0.01946 a 0.76004875,0.76004875 0 0 0 0.0065,-0.0083 c 0.0067,-0.008 0.01318,-0.01661 0.01951,-0.0248 a 0.76004875,0.76004875 0 0 0 0.0041,-0.0046 c 0.0075,-0.0099 0.014,-0.01994 0.02094,-0.03013 a 0.76004875,0.76004875 0 0 0 0.02094,-0.03013 c 0.0013,-0.002 0.0019,-0.0043 0.0031,-0.0063 a 0.76004875,0.76004875 0 0 0 0.0031,-0.0063 c 0.006,-0.0103 0.01273,-0.02031 0.01827,-0.03085 a 0.76004875,0.76004875 0 0 0 0.01008,-0.02161 c 0.0026,-0.0053 0.0062,-0.01082 0.0086,-0.01627 a 0.76004875,0.76004875 0 0 0 0.01391,-0.03059 c 0.0011,-0.0027 0.0011,-0.0053 0.0021,-0.008 a 0.76004875,0.76004875 0 0 0 0.0046,-0.01165 c 0.0036,-0.0097 0.0073,-0.01882 0.01053,-0.02864 a 0.76004875,0.76004875 0 0 0 0.0014,-0.0053 c 0.0037,-0.0116 0.0078,-0.02389 0.01098,-0.03566 a 0.76004875,0.76004875 0 0 0 0.0083,-0.03637 c 4.26e-4,-0.0019 0.0011,-0.0035 0.0014,-0.0053 a 0.76004875,0.76004875 0 0 0 0.0052,-0.03006 c 7.02e-4,-0.004 0.0013,-0.0083 0.0019,-0.01236 a 0.76004875,0.76004875 0 0 0 0.0054,-0.04145 c 0.0027,-0.02791 0.0042,-0.05518 0.0037,-0.08335 -2e-5,-0.0015 -3.05e-4,-0.0028 -2.62e-4,-0.0044 a 0.76004875,0.76004875 0 0 0 -2.62e-4,-0.0044 c -2.91e-4,-0.0123 -4.48e-4,-0.02525 -0.0014,-0.03754 a 0.76004875,0.76004875 0 0 0 -0.0031,-0.03657 c -2.69e-4,-0.002 -9.81e-4,-0.004 -0.0012,-0.0061 -0.0018,-0.01354 -0.0052,-0.02716 -0.0077,-0.04067 a 0.76004875,0.76004875 0 0 0 -0.0042,-0.02687 c -0.0011,-0.0051 -0.0031,-0.01041 -0.0044,-0.01548 a 0.76004875,0.76004875 0 0 0 -0.0057,-0.02154 c -0.0018,-0.0063 -0.0045,-0.01252 -0.0064,-0.01887 a 0.76004875,0.76004875 0 0 0 -0.0042,-0.01112 c -0.0033,-0.01019 -0.0051,-0.02084 -0.0089,-0.03097 a 0.76004875,0.76004875 0 0 0 -0.0042,-0.01113 c -0.0039,-0.01002 -0.0079,-0.01907 -0.01224,-0.02902 a 0.76004875,0.76004875 0 0 0 -9.76e-4,-0.0017 0.76004875,0.76004875 0 0 0 -9.77e-4,-0.0017 0.76004875,0.76004875 0 0 0 -9.76e-4,-0.0017 c -7.87e-4,-0.0017 -0.0021,-0.0033 -0.0029,-0.0051 -0.01,-0.02169 -0.02048,-0.04348 -0.03275,-0.06454 -0.01615,-0.02788 -0.03447,-0.05618 -0.0539,-0.08164 a 0.76004875,0.76004875 0 0 0 -9.77e-4,-0.0017 c -0.01992,-0.0259 -0.04176,-0.05001 -0.06477,-0.07312 -0.02303,-0.02309 -0.04713,-0.04387 -0.07296,-0.06387 -0.02583,-0.02 -0.05278,-0.03802 -0.08116,-0.05463 -2.19e-4,-0.03806 -0.0036,-0.07671 -0.0095,-0.114061 a 0.76004875,0.76004875 0 0 0 -0.0062,-0.03025 c -2.58e-4,-0.0014 -4.4e-5,-0.003 -2.62e-4,-0.0044 -0.0062,-0.0301 -0.01486,-0.06039 -0.02462,-0.08953 l -9.77e-4,-0.0017 a 0.76004875,0.76004875 0 0 0 -0.01055,-0.02999 0.76004875,0.76004875 0 0 0 -0.0051,-0.01282 c -0.01213,-0.02982 -0.02515,-0.0586 -0.04109,-0.08679 -0.01939,-0.03356 -0.04263,-0.0655 -0.06607,-0.09491 -0.0016,-0.0021 -0.0023,-0.0048 -0.0039,-0.0068 -0.02191,-0.02695 -0.04518,-0.0513 -0.0701,-0.07455 -0.0072,-0.0067 -0.01476,-0.01244 -0.02213,-0.0188 a 0.76004875,0.76004875 0 0 0 -0.0092,-0.0082 c -0.0191,-0.01588 -0.03919,-0.03071 -0.05955,-0.04455 -0.0048,-0.0033 -0.0096,-0.0065 -0.01458,-0.0096 -0.03315,-0.02144 -0.06814,-0.03908 -0.103931,-0.05501 -0.0013,-6.15e-4 -0.0023,-0.0018 -0.0036,-0.0024 a 0.76004875,0.76004875 0 0 0 -0.0063,-0.0031 c -0.03364,-0.01438 -0.06761,-0.02817 -0.102884,-0.03758 -0.03528,-0.0094 -0.07156,-0.01463 -0.10789,-0.0189 a 0.76004875,0.76004875 0 0 0 -0.007,-4.53e-4 l -0.0027,-7.15e-4 a 0.76004875,0.76004875 0 0 0 -0.0017,9.77e-4 c -0.03898,-0.004 -0.0781,-0.0064 -0.117515,-0.0043 -0.0059,2.62e-4 -0.01161,5.67e-4 -0.01744,0.001 -0.0313,0.0024 -0.06259,0.0071 -0.09369,0.0135 -0.0029,6.04e-4 -0.0058,-9.7e-5 -0.0087,5.23e-4 a 0.76004875,0.76004875 0 0 0 -0.0077,0.0022 c -0.01217,0.0028 -0.02494,0.0067 -0.03702,0.0101 -0.02111,0.006 -0.04187,0.01253 -0.06265,0.02039 -0.0018,6.76e-4 -0.0042,4.98e-4 -0.0061,0.0012 a 0.76004875,0.76004875 0 0 0 -0.0085,0.0049 c -0.03366,0.01354 -0.06633,0.02916 -0.09863,0.04792 -0.01135,0.0066 -0.02295,0.01249 -0.03383,0.01953 -0.02007,0.01297 -0.03856,0.02736 -0.05699,0.04192 -0.0016,0.0012 -0.0035,0.0017 -0.0051,0.0029 a 0.76004875,0.76004875 0 0 0 -0.01835,0.0151 c -0.0036,0.0031 -0.0063,0.0071 -0.0099,0.01022 -0.02106,0.01874 -0.04169,0.03899 -0.0603,0.05962 -0.02569,0.02849 -0.04903,0.05833 -0.06986,0.08995 a 0.76004875,0.76004875 0 0 0 -0.0041,0.0046 c -0.0034,0.0053 -0.0054,0.01091 -0.0086,0.01627 a 0.76004875,0.76004875 0 0 0 -0.0017,9.77e-4 c -0.01246,0.02044 -0.02345,0.04098 -0.03388,0.06241 -0.01068,0.02193 -0.01978,0.04541 -0.02828,0.0682 -0.0085,0.02279 -0.01665,0.04615 -0.02295,0.06963 -0.0094,0.03522 -0.01724,0.0709 -0.02157,0.107174 -4.32e-4,0.0033 -7.35e-4,0.0064 -0.0012,0.0097 a 0.76004875,0.76004875 0 0 0 9.76e-4,0.0017 c -0.0034,0.03256 -0.0055,0.06449 -0.0047,0.09741 1.68e-4,0.0043 6.06e-4,0.0088 7.84e-4,0.01308 a 0.76004875,0.76004875 0 0 0 -1.91e-4,0.01139 c 0.0017,0.02878 0.0063,0.05728 0.01128,0.08595 4.49e-4,0.0026 0.0017,0.0051 0.0022,0.0077 a 0.76004875,0.76004875 0 0 0 0.002,0.01913 c 7.34e-4,0.0033 0.0025,0.0061 0.0032,0.0094 a 0.76004875,0.76004875 0 0 0 2.61e-4,0.0044 c 0.0074,0.0319 0.01588,0.06339 0.02755,0.0946 l -10.334796,5.966797 c -0.02119,-0.02576 -0.04415,-0.04878 -0.06815,-0.07116 -0.0072,-0.0067 -0.01476,-0.01244 -0.02213,-0.0188 a 0.76004875,0.76004875 0 0 0 -0.0092,-0.0082 c -0.0191,-0.01588 -0.03919,-0.03071 -0.05955,-0.04455 -0.0048,-0.0033 -0.0096,-0.0065 -0.01458,-0.0096 -0.03315,-0.02144 -0.06814,-0.03908 -0.103931,-0.05501 -9.67e-4,-4.3e-4 -0.001,-0.003 -0.002,-0.0034 a 0.76004875,0.76004875 0 0 0 -0.008,-0.0021 c -0.03364,-0.01438 -0.06929,-0.0272 -0.104576,-0.0366 -0.03528,-0.0094 -0.06987,-0.01561 -0.106197,-0.01988 a 0.76004875,0.76004875 0 0 0 -0.008,-0.0021 l -0.0017,9.77e-4 a 0.76004875,0.76004875 0 0 0 -0.0017,9.76e-4 c -0.03898,-0.004 -0.0781,-0.0064 -0.117515,-0.0043 -0.0059,2.61e-4 -0.01162,5.71e-4 -0.01744,10e-4 -0.0313,0.0024 -0.0626,0.0072 -0.09369,0.0135 -0.0029,6.04e-4 -0.0058,-9.7e-5 -0.0087,5.24e-4 a 0.76004875,0.76004875 0 0 0 -0.0077,0.0022 c -0.01217,0.0028 -0.02494,0.0067 -0.03702,0.0101 -0.02034,0.0057 -0.04092,0.0119 -0.06096,0.01941 -0.0026,9.62e-4 -0.0052,0.0013 -0.0077,0.0022 a 0.76004875,0.76004875 0 0 0 -0.0085,0.0049 c -0.03366,0.01354 -0.06633,0.02916 -0.09863,0.04792 -0.01135,0.0066 -0.02295,0.01249 -0.03383,0.01953 z" /><path
         id="path12"
         style="color:#000000;fill:#fcfcfc;stroke-linecap:round;stroke-linejoin:round;-inkscape-stroke:none"
         d="m -13.950885,32.566601 c 0.02007,0.01297 0.03856,0.02736 0.05699,0.04192 0.0016,0.0012 0.0035,0.0017 0.0051,0.0029 a 0.76004875,0.76004875 0 0 1 0.01327,0.01217 c 0.0053,0.0044 0.01149,0.0095 0.01665,0.01413 0.02106,0.01874 0.04,0.03802 0.05861,0.05864 0.02596,0.02878 0.05056,0.05895 0.07155,0.09092 a 0.76004875,0.76004875 0 0 1 0.0055,0.01 c 0.0023,0.0036 0.005,0.0073 0.0072,0.01093 0.01719,0.02808 0.03132,0.05679 0.04467,0.08668 0.0016,0.0035 0.004,0.0064 0.0055,0.01 0.01439,0.03357 0.02547,0.06838 0.03491,0.1036 0.0094,0.03522 0.01724,0.0709 0.02157,0.107174 4.32e-4,0.0033 7.35e-4,0.0064 0.0012,0.0097 a 0.76004875,0.76004875 0 0 1 -9.76e-4,0.0017 c 0.0034,0.03256 0.0055,0.06449 0.0047,0.09741 -1.68e-4,0.0043 -6.06e-4,0.0088 -7.84e-4,0.01308 a 0.76004875,0.76004875 0 0 1 1.91e-4,0.01139 c -0.0022,0.03756 -0.0077,0.07552 -0.01552,0.112823 -0.01612,0.07646 -0.04486,0.151864 -0.08603,0.223221 -0.0082,0.01413 -0.01697,0.02781 -0.02611,0.04131 a 0.76004875,0.76004875 0 0 1 -0.02682,0.03864 l -9.77e-4,0.0017 c -0.01983,0.02575 -0.04087,0.04846 -0.06379,0.07142 -0.02295,0.02295 -0.04822,0.04568 -0.07394,0.06557 -0.02572,0.01988 -0.05293,0.03811 -0.08116,0.05463 -1.88e-4,0.03255 -0.0014,0.06385 -0.0058,0.09591 -0.0043,0.03206 -0.01049,0.06394 -0.01883,0.09512 -0.0083,0.0312 -0.01867,0.06272 -0.03094,0.09265 -0.0061,0.01498 -0.01389,0.02968 -0.02103,0.04424 a 0.76004875,0.76004875 0 0 1 -0.02272,0.04326 c -0.01833,0.03191 -0.03844,0.06096 -0.06048,0.08912 -0.0016,0.002 -0.0023,0.0048 -0.0039,0.0068 a 0.76004875,0.76004875 0 0 1 -0.0151,0.01834 c -0.0031,0.0036 -0.0071,0.0063 -0.01022,0.0099 -0.01869,0.02116 -0.039,0.04162 -0.05962,0.0603 -0.03017,0.02732 -0.06089,0.0521 -0.09457,0.07395 -0.03286,0.02132 -0.06844,0.03911 -0.103931,0.05501 a 0.76004875,0.76004875 0 0 1 -0.002,0.0034 c -0.0025,0.0011 -0.0054,0.0011 -0.008,0.0021 -0.0336,0.01446 -0.06666,0.02639 -0.101908,0.03588 -0.03525,0.0095 -0.07254,0.01622 -0.108865,0.02059 -0.0037,4.92e-4 -0.0076,-2.5e-4 -0.01139,1.91e-4 -0.03897,0.0041 -0.07809,0.0063 -0.117514,0.0043 -0.0059,-2.61e-4 -0.01162,-5.71e-4 -0.01744,-10e-4 -0.02455,-0.0018 -0.04939,-0.0046 -0.07385,-0.0088 -0.0041,-7.37e-4 -0.008,-0.0017 -0.0121,-0.0025 a 0.76004875,0.76004875 0 0 1 -0.01477,-0.0018 c -0.0033,-7.34e-4 -0.0061,-0.0025 -0.0094,-0.0032 a 0.76004875,0.76004875 0 0 1 -0.0077,-0.0022 c -0.0319,-0.0076 -0.06338,-0.01567 -0.0946,-0.02755 -0.0018,-6.8e-4 -0.0032,-0.0022 -0.0051,-0.0029 a 0.76004875,0.76004875 0 0 1 -0.0017,-9.76e-4 c -0.03502,-0.01375 -0.07111,-0.02978 -0.104678,-0.04916 a 0.76004875,0.76004875 0 0 1 -0.03285,-0.02122 c -0.0011,-7.04e-4 -0.0023,-0.0012 -0.0034,-0.002 a 0.76004875,0.76004875 0 0 1 -0.0034,-0.002 c -0.01099,-0.0072 -0.02136,-0.01523 -0.03188,-0.02291 a 0.76004875,0.76004875 0 0 1 -0.05263,-0.04166 c -0.0045,-0.004 -0.0089,-0.0081 -0.01327,-0.01217 a 0.76004875,0.76004875 0 0 1 -0.01496,-0.01315 c -0.0052,-0.0051 -0.01072,-0.01065 -0.01568,-0.01582 a 0.76004875,0.76004875 0 0 1 -0.0106,-0.01289 c -0.0085,-0.0092 -0.01658,-0.01823 -0.02459,-0.02773 a 0.76004875,0.76004875 0 0 1 -0.02361,-0.02942 c -0.0075,-0.0099 -0.014,-0.01994 -0.02094,-0.03013 a 0.76004875,0.76004875 0 0 1 -0.02094,-0.03013 c -0.0013,-0.002 -0.0019,-0.0043 -0.0031,-0.0063 a 0.76004875,0.76004875 0 0 1 -0.0031,-0.0063 c -0.006,-0.0103 -0.01273,-0.02031 -0.01827,-0.03085 a 0.76004875,0.76004875 0 0 1 -0.01008,-0.02161 c -0.0027,-0.0056 -0.0061,-0.01063 -0.0087,-0.01627 a 0.76004875,0.76004875 0 0 1 -0.02061,-0.05024 c -0.0036,-0.0097 -0.0073,-0.01882 -0.01053,-0.02863 a 0.76004875,0.76004875 0 0 1 -0.0014,-0.0053 c -0.0037,-0.0116 -0.0078,-0.02389 -0.01099,-0.03566 a 0.76004875,0.76004875 0 0 1 -0.0083,-0.03637 c -4.26e-4,-0.0019 -0.0011,-0.0035 -0.0014,-0.0053 a 0.76004875,0.76004875 0 0 1 -0.0052,-0.03006 c -7.02e-4,-0.004 -0.0013,-0.0083 -0.0019,-0.01236 a 0.76004875,0.76004875 0 0 1 -0.006,-0.05987 l -7.15e-4,-0.0027 a 0.76004875,0.76004875 0 0 1 -3.84e-4,-0.02277 c -0.0015,-0.04075 -4.56e-4,-0.08047 0.0047,-0.121351 2.68e-4,-0.002 9.81e-4,-0.004 0.0012,-0.0061 a 0.76004875,0.76004875 0 0 1 0.0045,-0.03123 c 6.11e-4,-0.0035 8.4e-4,-0.0069 0.0015,-0.01041 a 0.76004875,0.76004875 0 0 1 0.0059,-0.0259 c 0.0012,-0.0052 0.0015,-0.01125 0.0027,-0.01646 a 0.76004875,0.76004875 0 0 1 0.0057,-0.02154 c 0.0018,-0.0063 0.0045,-0.01252 0.0064,-0.01887 a 0.76004875,0.76004875 0 0 1 0.01543,-0.03845 l -10.339869,-5.969726 c -0.02323,0.02808 -0.0483,0.0547 -0.07472,0.07864 -0.02848,0.0258 -0.05832,0.04894 -0.08995,0.06985 a 0.76004875,0.76004875 0 0 1 -0.0046,0.0041 c -0.0053,0.0034 -0.0109,0.0054 -0.01627,0.0086 a 0.76004875,0.76004875 0 0 1 -9.76e-4,0.0017 c -0.02765,0.01691 -0.05728,0.03149 -0.08669,0.04467 a 0.76004875,0.76004875 0 0 1 -9.77e-4,0.0017 c -0.003,0.0014 -0.0059,0.0026 -0.009,0.0038 -0.0336,0.01447 -0.06834,0.02542 -0.103599,0.03491 -0.03526,0.0095 -0.07085,0.0172 -0.107174,0.02157 -0.0037,4.92e-4 -0.0076,-2.51e-4 -0.01139,1.91e-4 -0.03897,0.0041 -0.07809,0.0063 -0.117514,0.0043 -0.0059,-2.62e-4 -0.01162,-5.71e-4 -0.01744,-10e-4 -0.0313,-0.0023 -0.06258,-0.0072 -0.09369,-0.0135 a 0.76004875,0.76004875 0 0 1 -0.01646,-0.0027 c -0.01216,-0.0028 -0.0249,-0.0068 -0.03702,-0.0101 -0.02115,-0.0059 -0.04185,-0.01259 -0.06265,-0.02039 a 0.76004875,0.76004875 0 0 1 -0.0061,-0.0012 c -0.0011,-4.31e-4 -0.0022,-0.0015 -0.0034,-0.002 a 0.76004875,0.76004875 0 0 1 -0.0034,-0.002 c -0.03435,-0.0136 -0.06834,-0.02818 -0.101295,-0.04721 a 0.76004875,0.76004875 0 0 1 -0.03285,-0.02122 c -0.0011,-7.05e-4 -0.0023,-0.0012 -0.0034,-0.002 a 0.76004875,0.76004875 0 0 1 -0.0034,-0.002 c -0.01099,-0.0072 -0.02136,-0.01523 -0.03188,-0.02291 a 0.76004875,0.76004875 0 0 1 -0.05432,-0.04264 c -0.004,-0.0036 -0.0076,-0.0075 -0.01158,-0.0112 a 0.76004875,0.76004875 0 0 1 -0.01665,-0.01412 c -0.005,-0.0048 -0.0092,-0.0099 -0.01399,-0.01484 a 0.76004875,0.76004875 0 0 1 -0.0106,-0.01289 c -0.0061,-0.0066 -0.01224,-0.01274 -0.01808,-0.01946 a 0.76004875,0.76004875 0 0 1 -0.0065,-0.0083 c -0.0067,-0.008 -0.01318,-0.01661 -0.01951,-0.0248 a 0.76004875,0.76004875 0 0 1 -0.0041,-0.0046 c -0.0075,-0.0099 -0.014,-0.01994 -0.02094,-0.03013 a 0.76004875,0.76004875 0 0 1 -0.02094,-0.03013 c -0.0013,-0.002 -0.0019,-0.0043 -0.0031,-0.0063 a 0.76004875,0.76004875 0 0 1 -0.0031,-0.0063 c -0.006,-0.0103 -0.01273,-0.02031 -0.01827,-0.03085 a 0.76004875,0.76004875 0 0 1 -0.01008,-0.02161 c -0.0026,-0.0053 -0.0062,-0.01082 -0.0086,-0.01627 a 0.76004875,0.76004875 0 0 1 -0.01391,-0.03059 c -0.0011,-0.0027 -0.0011,-0.0053 -0.0021,-0.008 a 0.76004875,0.76004875 0 0 1 -0.0046,-0.01165 c -0.0036,-0.0097 -0.0073,-0.01882 -0.01053,-0.02864 a 0.76004875,0.76004875 0 0 1 -0.0014,-0.0053 c -0.0037,-0.0116 -0.0078,-0.02389 -0.01098,-0.03566 a 0.76004875,0.76004875 0 0 1 -0.0083,-0.03637 c -4.26e-4,-0.0019 -0.0011,-0.0035 -0.0014,-0.0053 a 0.76004875,0.76004875 0 0 1 -0.0052,-0.03006 c -7.02e-4,-0.004 -0.0013,-0.0083 -0.0019,-0.01236 a 0.76004875,0.76004875 0 0 1 -0.0054,-0.04145 c -0.0027,-0.02791 -0.0042,-0.05518 -0.0037,-0.08335 2e-5,-0.0015 3.05e-4,-0.0028 2.62e-4,-0.0044 a 0.76004875,0.76004875 0 0 1 2.62e-4,-0.0044 c 2.91e-4,-0.0123 4.48e-4,-0.02525 0.0014,-0.03754 a 0.76004875,0.76004875 0 0 1 0.0031,-0.03657 c 2.69e-4,-0.002 9.81e-4,-0.004 0.0012,-0.0061 0.0018,-0.01354 0.0052,-0.02716 0.0077,-0.04067 a 0.76004875,0.76004875 0 0 1 0.0042,-0.02687 c 0.0011,-0.0051 0.0031,-0.01041 0.0044,-0.01548 a 0.76004875,0.76004875 0 0 1 0.0057,-0.02154 c 0.0018,-0.0063 0.0045,-0.01252 0.0064,-0.01887 a 0.76004875,0.76004875 0 0 1 0.0042,-0.01112 c 0.0033,-0.01019 0.0051,-0.02084 0.0089,-0.03097 a 0.76004875,0.76004875 0 0 1 0.0042,-0.01113 c 0.0039,-0.01002 0.0079,-0.01907 0.01224,-0.02902 a 0.76004875,0.76004875 0 0 1 9.76e-4,-0.0017 0.76004875,0.76004875 0 0 1 9.77e-4,-0.0017 0.76004875,0.76004875 0 0 1 9.76e-4,-0.0017 c 7.87e-4,-0.0017 0.0021,-0.0033 0.0029,-0.0051 0.01,-0.02169 0.02048,-0.04348 0.03275,-0.06454 0.01615,-0.02788 0.03447,-0.05618 0.0539,-0.08164 a 0.76004875,0.76004875 0 0 1 9.77e-4,-0.0017 c 0.01992,-0.0259 0.04176,-0.05001 0.06477,-0.07312 0.02303,-0.02309 0.04713,-0.04387 0.07296,-0.06387 0.02583,-0.02 0.05278,-0.03802 0.08116,-0.05463 2.19e-4,-0.03806 0.0036,-0.07671 0.0095,-0.114061 a 0.76004875,0.76004875 0 0 1 0.0062,-0.03025 c 2.58e-4,-0.0014 4.4e-5,-0.003 2.62e-4,-0.0044 0.0062,-0.0301 0.01486,-0.06039 0.02462,-0.08953 l 9.77e-4,-0.0017 a 0.76004875,0.76004875 0 0 1 0.01055,-0.02999 0.76004875,0.76004875 0 0 1 0.0051,-0.01282 c 0.01213,-0.02982 0.02515,-0.0586 0.04109,-0.08679 0.01939,-0.03356 0.04263,-0.0655 0.06607,-0.09491 0.0016,-0.0021 0.0023,-0.0048 0.0039,-0.0068 0.02191,-0.02695 0.04518,-0.0513 0.0701,-0.07455 0.0072,-0.0067 0.01476,-0.01244 0.02213,-0.0188 a 0.76004875,0.76004875 0 0 1 0.0092,-0.0082 c 0.0191,-0.01588 0.03919,-0.03071 0.05955,-0.04455 0.0048,-0.0033 0.0096,-0.0065 0.01458,-0.0096 0.03315,-0.02144 0.06814,-0.03908 0.103931,-0.05501 0.0013,-6.15e-4 0.0023,-0.0018 0.0036,-0.0024 a 0.76004875,0.76004875 0 0 1 0.0063,-0.0031 c 0.03364,-0.01438 0.06761,-0.02817 0.102884,-0.03758 0.03528,-0.0094 0.07156,-0.01463 0.10789,-0.0189 a 0.76004875,0.76004875 0 0 1 0.007,-4.53e-4 l 0.0027,-7.15e-4 a 0.76004875,0.76004875 0 0 1 0.0017,9.77e-4 c 0.03898,-0.004 0.0781,-0.0064 0.117515,-0.0043 0.0059,2.62e-4 0.01161,5.67e-4 0.01744,0.001 0.0313,0.0024 0.06259,0.0071 0.09369,0.0135 0.0029,6.04e-4 0.0058,-9.7e-5 0.0087,5.23e-4 a 0.76004875,0.76004875 0 0 1 0.0077,0.0022 c 0.01217,0.0028 0.02494,0.0067 0.03702,0.0101 0.02111,0.006 0.04187,0.01253 0.06265,0.02039 0.0018,6.76e-4 0.0042,4.98e-4 0.0061,0.0012 a 0.76004875,0.76004875 0 0 1 0.0085,0.0049 c 0.03366,0.01354 0.06633,0.02916 0.09863,0.04792 0.01135,0.0066 0.02295,0.01249 0.03383,0.01953 0.02007,0.01297 0.03856,0.02736 0.05699,0.04192 0.0016,0.0012 0.0035,0.0017 0.0051,0.0029 a 0.76004875,0.76004875 0 0 1 0.01835,0.0151 c 0.0036,0.0031 0.0063,0.0071 0.0099,0.01022 0.02106,0.01874 0.04169,0.03899 0.0603,0.05962 0.02569,0.02849 0.04903,0.05833 0.06986,0.08995 a 0.76004875,0.76004875 0 0 1 0.0041,0.0046 c 0.0034,0.0053 0.0054,0.01091 0.0086,0.01627 a 0.76004875,0.76004875 0 0 1 0.0017,9.77e-4 c 0.01246,0.02044 0.02345,0.04098 0.03388,0.06241 0.01068,0.02193 0.01978,0.04541 0.02828,0.0682 0.0085,0.02279 0.01665,0.04615 0.02295,0.06963 0.0094,0.03522 0.01724,0.0709 0.02157,0.107174 4.32e-4,0.0033 7.35e-4,0.0064 0.0012,0.0097 a 0.76004875,0.76004875 0 0 1 -9.76e-4,0.0017 c 0.0034,0.03256 0.0055,0.06449 0.0047,0.09741 -1.68e-4,0.0043 -6.06e-4,0.0088 -7.84e-4,0.01308 a 0.76004875,0.76004875 0 0 1 1.91e-4,0.01139 c -0.0017,0.02878 -0.0063,0.05728 -0.01128,0.08595 -4.49e-4,0.0026 -0.0017,0.0051 -0.0022,0.0077 a 0.76004875,0.76004875 0 0 1 -0.002,0.01913 c -7.34e-4,0.0033 -0.0025,0.0061 -0.0032,0.0094 a 0.76004875,0.76004875 0 0 1 -2.61e-4,0.0044 c -0.0074,0.0319 -0.01588,0.06339 -0.02755,0.0946 l 10.334796,5.966797 c 0.02119,-0.02576 0.04415,-0.04878 0.06815,-0.07116 0.0072,-0.0067 0.01476,-0.01244 0.02213,-0.0188 a 0.76004875,0.76004875 0 0 1 0.0092,-0.0082 c 0.0191,-0.01588 0.03919,-0.03071 0.05955,-0.04455 0.0048,-0.0033 0.0096,-0.0065 0.01458,-0.0096 0.03315,-0.02144 0.06814,-0.03908 0.103931,-0.05501 9.67e-4,-4.3e-4 0.001,-0.003 0.002,-0.0034 a 0.76004875,0.76004875 0 0 1 0.008,-0.0021 c 0.03364,-0.01438 0.06929,-0.0272 0.104576,-0.0366 0.03528,-0.0094 0.06987,-0.01561 0.106197,-0.01988 a 0.76004875,0.76004875 0 0 1 0.008,-0.0021 l 0.0017,9.77e-4 a 0.76004875,0.76004875 0 0 1 0.0017,9.76e-4 c 0.03898,-0.004 0.0781,-0.0064 0.117515,-0.0043 0.0059,2.61e-4 0.01162,5.71e-4 0.01744,10e-4 0.0313,0.0024 0.0626,0.0072 0.09369,0.0135 0.0029,6.04e-4 0.0058,-9.7e-5 0.0087,5.24e-4 a 0.76004875,0.76004875 0 0 1 0.0077,0.0022 c 0.01217,0.0028 0.02494,0.0067 0.03702,0.0101 0.02034,0.0057 0.04092,0.0119 0.06096,0.01941 0.0026,9.62e-4 0.0052,0.0013 0.0077,0.0022 a 0.76004875,0.76004875 0 0 1 0.0085,0.0049 c 0.03366,0.01354 0.06633,0.02916 0.09863,0.04792 0.01135,0.0066 0.02295,0.01249 0.03383,0.01953 z" /></g><rect
       style="fill:#ffffff;fill-opacity:1;stroke:none;stroke-width:1;stroke-linecap:round;stroke-linejoin:round;stroke-dasharray:none;stroke-opacity:1"
       id="rect14"
       width="12.815772"
       height="3.5553432"
       x="17.824871"
       y="1.3229184"
       ry="1.227771" /><rect
       style="fill:#ffffff;fill-opacity:1;stroke:none;stroke-width:1;stroke-linecap:round;stroke-linejoin:round;stroke-dasharray:none;stroke-opacity:1"
       id="rect15"
       width="8.0201931"
       height="3.0592489"
       x="20.22266"
       y="5.7877679" /><path
       style="fill:none;fill-opacity:1;stroke:#ffffff;stroke-width:1;stroke-linecap:round;stroke-linejoin:round;stroke-dasharray:none;stroke-opacity:1"
       d="M 41.144857,16.059613 31.030363,18.807481"
       id="path15"
       sodipodi:nodetypes="cc" /><path
       style="fill:none;fill-opacity:1;stroke:#ffffff;stroke-width:1;stroke-linecap:round;stroke-linejoin:round;stroke-dasharray:none;stroke-opacity:1"
       d="M 7.3206548,16.059613 17.435149,18.807481"
       id="path16"
       sodipodi:nodetypes="cc" /></g></svg>
