<?xml version="1.0" encoding="UTF-8" standalone="no"?>
<!-- Created with Inkscape (http://www.inkscape.org/) -->

<svg
   width="48"
   height="48"
   viewBox="0 0 12.7 12.7"
   version="1.1"
   id="svg1"
   sodipodi:docname="damage-type-crushing-solid.svg"
   inkscape:version="1.3 (0e150ed6c4, 2023-07-21)"
   xmlns:inkscape="http://www.inkscape.org/namespaces/inkscape"
   xmlns:sodipodi="http://sodipodi.sourceforge.net/DTD/sodipodi-0.dtd"
   xmlns="http://www.w3.org/2000/svg"
   xmlns:svg="http://www.w3.org/2000/svg">
  <sodipodi:namedview
     id="namedview1"
     pagecolor="#505050"
     bordercolor="#eeeeee"
     borderopacity="1"
     inkscape:showpageshadow="0"
     inkscape:pageopacity="0"
     inkscape:pagecheckerboard="0"
     inkscape:deskcolor="#505050"
     inkscape:document-units="mm"
     inkscape:zoom="11.313708"
     inkscape:cx="17.058951"
     inkscape:cy="28.0633"
     inkscape:window-width="1920"
     inkscape:window-height="1017"
     inkscape:window-x="1912"
     inkscape:window-y="-8"
     inkscape:window-maximized="1"
     inkscape:current-layer="layer1" />
  <defs
     id="defs1">
    <inkscape:path-effect
       effect="bend_path"
       id="path-effect1"
       is_visible="true"
       lpeversion="1"
       bendpath="m 12.33135,0.01603467 c 4.129664,1.10587353 8.296378,1.22991203 12.514184,0"
       prop_scale="1"
       scale_y_rel="false"
       vertical="false"
       hide_knot="false"
       bendpath-nodetypes="cc" />
    <inkscape:path-effect
       effect="bend_path"
       id="path-effect27"
       is_visible="true"
       lpeversion="1"
       bendpath="m 2.361613,5.3084615 c 3.433541,2.3163586 6.9749828,3.0007171 10.760066,0"
       prop_scale="1"
       scale_y_rel="false"
       vertical="false"
       hide_knot="false"
       bendpath-nodetypes="cc" />
    <inkscape:path-effect
       effect="bend_path"
       id="path-effect17"
       is_visible="false"
       lpeversion="1"
       bendpath="m 2.361613,5.3084615 c 3.433541,2.3163586 6.9749828,3.0007171 10.760066,0"
       prop_scale="1"
       scale_y_rel="false"
       vertical="false"
       hide_knot="false"
       bendpath-nodetypes="cc" />
  </defs>
  <g
     inkscape:label="Layer 1"
     inkscape:groupmode="layer"
     id="layer1">
    <path
       style="fill:none;fill-opacity:1;stroke:#ffffff;stroke-width:0.3;stroke-linecap:round;stroke-linejoin:round;stroke-dasharray:none;stroke-opacity:1"
       d="M 4.9080591,3.3157009 4.9802061,2.3850381"
       id="path32"
       sodipodi:nodetypes="cc"
       inkscape:label="speedline1" />
    <path
       style="fill:none;fill-opacity:1;stroke:#ffffff;stroke-width:0.3;stroke-linecap:round;stroke-linejoin:round;stroke-dasharray:none;stroke-opacity:1"
       d="M 1.0976352,4.7058654 1.2565035,1.2735762"
       id="path30"
       inkscape:label="speedline2" />
    <path
       style="fill:none;fill-opacity:1;stroke:#ffffff;stroke-width:0.3;stroke-linecap:round;stroke-linejoin:round;stroke-dasharray:none;stroke-opacity:1"
       d="M 2.8924928,3.6628656 3.0375912,1.9411453"
       id="path31"
       sodipodi:nodetypes="cc" />
    <path
       style="fill:#ffffff;fill-opacity:1;stroke-width:0.369719;stroke-linecap:round;stroke-linejoin:round"
       d="M 5.8005106,10.382197 5.8212886,9.9820316 6.4228126,10.34554 6.0875508,10.574396 7.7417864,11.228936 6.4887693,10.556215 6.8267707,10.32549 5.6518369,9.6154613 5.6269998,10.093797 4.5729644,9.4348347 Z"
       id="path1"
       sodipodi:nodetypes="ccccccccccc"
       inkscape:label="energyline1" />
    <path
       style="fill:#ffffff;fill-opacity:1;stroke-width:0.268454;stroke-linecap:round;stroke-linejoin:round"
       d="M 1.3919438,10.413341 1.3800597,10.044473 1.036014,10.379551 1.2277692,10.590508 0.28161805,11.193856 0.99828962,10.573749 0.80496744,10.361069 1.4769788,9.7065719 1.4911844,10.147497 2.0940471,9.5400721 Z"
       id="path3"
       sodipodi:nodetypes="ccccccccccc"
       inkscape:label="energyline2" />
    <path
       style="fill:#ffffff;fill-opacity:1;stroke-width:0.324449;stroke-linecap:round;stroke-linejoin:round"
       d="m 3.8287687,10.723476 -0.3300045,-0.160821 0.02726,0.592632 0.3307777,-0.140785 -0.2017836,1.478179 0.010967,-1.19738 -0.3334796,0.141934 -0.053248,-1.157564 0.394469,0.192236 -0.065405,-1.0481156 z"
       id="path4"
       sodipodi:nodetypes="ccccccccccc"
       inkscape:label="energyline3" />
    <path
       id="path2"
       style="color:#000000;display:inline;fill:#ffffff;fill-opacity:1;stroke-width:0.813144;stroke-linecap:round;stroke-linejoin:round;-inkscape-stroke:none"
       inkscape:label="mace"
       d="m 15.41929,-2.1914562 c -0.02687,0.00133 -0.05259,0.014188 -0.07165,0.035851 -0.268158,0.3071235 -0.545916,0.6096122 -0.832937,0.9070185 -0.01538,0.015796 -0.02613,0.035926 -0.03085,0.057876 -0.03539,0.1765334 0.06575,0.33076631 0.202478,0.42788113 0.136418,0.0968952 0.315141,0.15748597 0.500272,0.18541732 0.185155,0.0279354 0.374599,0.0228606 0.534087,-0.0282057 0.15983,-0.051175 0.304023,-0.16324752 0.326166,-0.34034097 0.0026,-0.0232415 -0.0016,-0.0466719 -0.01207,-0.0671108 -0.183747,-0.3698791 -0.357063,-0.7419189 -0.52005,-1.1155677 -0.01722,-0.040396 -0.05463,-0.065006 -0.09544,-0.062819 2e-6,1e-7 3e-6,2e-7 5e-6,3e-7 z m -0.250538,0.1393822 c -0.265373,-0.013802 -0.536166,0.015774 -0.803951,0.090855 0.0099,0.00929 0.01905,0.019334 0.02667,0.031177 0.0349,0.056057 0.05256,0.116232 0.05958,0.177823 0.171326,-0.045144 0.343797,-0.070185 0.514959,-0.07557 0.06816,-0.07447 0.135737,-0.1492338 0.202741,-0.2242852 z m 0.485686,0.075328 c 0.04099,0.091622 0.0826,0.1831405 0.124846,0.2745464 0.161335,0.056863 0.318137,0.1335384 0.467464,0.2282519 0.02494,-0.055674 0.05982,-0.1071068 0.109055,-0.1495659 3.42e-4,-3.079e-4 6.83e-4,-6.158e-4 0.001,-9.237e-4 0.0109,-0.00946 0.02255,-0.016929 0.0349,-0.023215 -0.231969,-0.1523446 -0.480288,-0.26199 -0.737319,-0.3290944 8e-6,2e-7 1.7e-5,4e-7 2.6e-5,5e-7 z m -0.262951,0.09562 c 0.134665,0.3081174 0.276316,0.6151574 0.425008,0.9208143 -0.01476,0.0563197 -0.05301,0.10298343 -0.157876,0.13650881 -0.115413,0.0368882 -0.279134,0.0452913 -0.438141,0.0212981 -0.158987,-0.023991 -0.311961,-0.0804262 -0.409393,-0.14957936 -0.08847,-0.062794 -0.110658,-0.11772111 -0.106256,-0.17844371 0.2353,-0.2468707 0.464249,-0.4971538 0.686658,-0.7505981 z m 1.081809,0.2859237 c -0.02789,-0.00318 -0.056,0.00598 -0.07804,0.02545 -0.130673,0.112183 -0.151211,0.2989508 -0.11261,0.4657775 0.03866,0.16713083 0.129677,0.33518827 0.247401,0.48401531 0.117643,0.14873336 0.260012,0.27649189 0.411703,0.34945591 0.151472,0.0728546 0.33334,0.0898751 0.462825,-0.0281763 0.02255,-0.020899 0.03576,-0.0504637 0.03664,-0.0817367 0.0116,-0.33205332 0.02351,-0.66409671 0.03574,-0.99612971 0.0022,-0.060729 -0.03981,-0.1122006 -0.09512,-0.1172131 -0.303312,-0.027555 -0.606259,-0.061422 -0.908539,-0.1014425 z m -2.202912,-0.3402794 c -0.300764,-0.053566 -0.600742,-0.1130319 -0.899615,-0.178283 -0.0546,-0.011871 -0.110342,0.024615 -0.12649,0.083206 -0.08805,0.3204312 -0.176394,0.6407788 -0.265032,0.961042 -0.0084,0.030208 -0.0045,0.062438 0.01104,0.0891098 0.08848,0.15149989 0.266995,0.18982873 0.433712,0.16596673 0.166966,-0.0238993 0.342014,-0.10269138 0.49932,-0.20898903 0.157397,-0.1063607 0.29465,-0.2391933 0.382093,-0.3868303 0.0873,-0.1473799 0.123898,-0.3327628 0.03282,-0.47927 -0.01574,-0.0247 -0.04017,-0.041241 -0.06784,-0.045952 -10e-7,-1e-7 -2e-6,-2e-7 -3e-6,-4e-7 z m 2.249486,0.5764836 c 0.247098,0.031832 0.494636,0.059584 0.742456,0.083173 -0.01233,0.2684216 -0.02446,0.53685213 -0.03638,0.80529137 -0.04604,0.0255174 -0.09815,0.0371454 -0.19084,-0.007435 -0.109724,-0.0527658 -0.236892,-0.16006573 -0.338939,-0.28829614 -0.102027,-0.12820408 -0.17812,-0.2768803 -0.206812,-0.3967526 -0.02436,-0.1017451 -0.0028,-0.1523422 0.03051,-0.195982 10e-7,5e-7 2e-6,10e-7 3e-6,1.5e-6 z m -2.363509,-0.3649668 c 0.01831,0.051557 0.02187,0.1064794 -0.03189,0.1957065 -0.06364,0.1056239 -0.182022,0.2231698 -0.318252,0.3146216 -0.136215,0.091442 -0.287819,0.156014 -0.408598,0.1732959 -0.101644,0.014544 -0.148846,-0.01264 -0.185308,-0.050461 0.06917,-0.2600468 0.138149,-0.5201446 0.206944,-0.780293 0.24502,0.052926 0.490778,0.1019896 0.737103,0.1471297 z m 7.699511,0.84223218 c -0.194605,0.0277904 -0.329605,0.24684311 -0.405225,0.52349918 -1.25197,0.14928321 -2.520093,0.18481491 -3.785483,0.11535518 0.03761,0.1106745 0.06643,0.22991948 0.08701,0.35465506 1.491478,0.0745688 2.986921,0.005106 4.456792,-0.22208091 0.08707,0.16711721 0.170149,0.40853324 0.214374,0.68060049 0.04431,0.27255296 0.04088,0.52381182 0.0054,0.71125662 -1.563893,0.2417877 -3.149187,0.3178136 -4.726625,0.2416433 -0.02949,0.1219166 -0.0667,0.2385755 -0.113409,0.3462891 1.372129,0.071261 2.751202,0.029087 4.118754,-0.1350822 0.15118,0.2495042 0.363985,0.4243999 0.587828,0.3923384 0.223845,-0.032065 0.377731,-0.2596889 0.451698,-0.5414271 0.613316,-0.1021762 1.223338,-0.2295864 1.828376,-0.3830151 l -2.61e-4,-9.954e-4 c 0.141513,-0.049174 0.224005,-0.21972916 0.250546,-0.41783252 0.02789,-0.20818491 0.0018,-0.45857635 -0.07218,-0.72094604 -0.07372,-0.26160303 -0.18266,-0.49138995 -0.307429,-0.65706689 -0.119278,-0.15839511 -0.263748,-0.26749311 -0.397559,-0.24646787 l -2.61e-4,-9.9535e-4 c -0.545895,0.13995442 -1.09767,0.25591108 -1.653635,0.34865438 -0.151825,-0.24408923 -0.3441,-0.41615632 -0.538705,-0.38836862 -3e-6,-4.57e-6 -5e-6,-9.14e-6 -7e-6,-1.371e-5 z m -8.941678,-0.10611821 c -0.184847,0.23128051 -0.332364,0.48887907 -0.435634,0.7622777 0.09735,-0.0352203 0.194254,-0.0710167 0.290692,-0.10738077 0.07839,-0.16903302 0.175954,-0.32980481 0.290442,-0.47950615 -0.05008,-0.0320017 -0.09439,-0.0742463 -0.127711,-0.13143424 -0.0081,-0.0139342 -0.01355,-0.0287443 -0.01779,-0.0439572 0,2.1e-7 1e-6,4.2e-7 1e-6,6.3e-7 z m 4.564923,0.70586348 c -0.0083,0.0131751 -0.01746,0.0255371 -0.02904,0.0361548 -0.04887,0.0446515 -0.104425,0.0716897 -0.161829,0.0870811 0.06413,0.17730099 0.109485,0.36003313 0.133513,0.54495926 0.08066,0.0637181 0.161972,0.12701379 0.243925,0.18987417 -0.01647,-0.29185982 -0.07998,-0.58195498 -0.186576,-0.85806926 10e-7,-3e-8 2e-6,-5e-8 4e-6,-8e-8 z M 13.54351,-0.54657293 c -0.02181,-0.004221 -0.04443,-0.001739 -0.06498,0.007135 -0.383124,0.15979691 -0.774307,0.31054705 -1.172887,0.45168652 -0.07557,0.02677919 -0.101012,0.1204355 -0.04791,0.1813584 0.275457,0.32344433 0.562375,0.64281695 0.860721,0.95725024 0.01651,0.017486 0.03813,0.029768 0.06193,0.03517 0.182592,0.039976 0.343337,-0.06597 0.447706,-0.20486943 0.104451,-0.13900593 0.174086,-0.32255452 0.213468,-0.51215156 0.03938,-0.18958301 0.04843,-0.38461733 0.01101,-0.55273406 -0.03742,-0.16817585 -0.137386,-0.32654871 -0.309093,-0.3628512 10e-6,2.14e-6 1.9e-5,4.28e-6 2.9e-5,6.42e-6 z m 3.202913,0.49648952 c -0.174382,-0.01705765 -0.315637,0.10288399 -0.40198,0.25192985 -0.08626,0.14890776 -0.138187,0.33851829 -0.15785,0.53108144 -0.01967,0.19263339 -0.007,0.38770122 0.05073,0.55173362 0.05766,0.1638704 0.177594,0.312181 0.36397,0.3290556 0.02456,0.00256 0.04928,-0.00225 0.07073,-0.013761 0.379759,-0.2099672 0.749836,-0.4284338 1.109571,-0.65483545 0.06766,-0.0427638 0.07075,-0.13857026 0.0074,-0.18639192 -0.337964,-0.25405591 -0.665217,-0.51547977 -0.981729,-0.78340294 -0.01732,-0.01450822 -0.0385,-0.02335832 -0.06082,-0.0254087 -1e-6,-1e-7 -2e-6,-2e-7 -3e-6,-3e-7 z m 5.813078,-0.11745304 c 0.52543,-0.0905213 1.047269,-0.20145456 1.564154,-0.33343031 l 2.62e-4,9.9937e-4 c 0.04443,-0.005968 0.10614,0.0303003 0.18245,0.13304891 0.08035,0.10819636 0.165601,0.28463603 0.221249,0.49106747 0.05591,0.20738823 0.06999,0.40044039 0.05098,0.53570553 C 24.560679,0.7873044 24.52,0.84799401 24.475079,0.86454976 l 2.61e-4,9.9944e-4 C 23.921872,1.0058431 23.363972,1.12394 22.802999,1.22047 c 0.0132,-0.21791 -0.0029,-0.45676554 -0.04732,-0.70564452 -0.04454,-0.24917291 -0.112646,-0.48097773 -0.196174,-0.68236205 -2e-6,4e-8 -4e-6,8e-8 -6e-6,1.2e-7 z M 13.50925,-0.30676623 c 0.05714,0.0196583 0.09799,0.0625989 0.12173,0.17284658 0.02601,0.12080267 0.02073,0.29122419 -0.01484,0.45491845 -0.03564,0.1640919 -0.101617,0.32222013 -0.178411,0.42296606 -0.06985,0.0916493 -0.128763,0.11321762 -0.18898,0.10775202 -0.244038,-0.25692607 -0.480381,-0.51718472 -0.709011,-0.78029328 0.328412,-0.11967386 0.651706,-0.2458425 0.969511,-0.37818983 z m 3.199281,0.49473598 c 0.262707,0.22180351 0.532734,0.43917728 0.810066,0.65163533 C 17.221893,1.0222088 16.918296,1.199415 16.608173,1.3709107 16.54906,1.357987 16.499341,1.3196772 16.460316,1.2112621 c -0.0429,-0.1192117 -0.05981,-0.28890906 -0.04433,-0.4561098 0.01545,-0.1667547 0.06229,-0.33079027 0.123448,-0.43810603 0.05585,-0.0980118 0.10872,-0.12757566 0.169093,-0.12907703 2e-6,1.7e-7 4e-6,3.4e-7 5e-6,5.1e-7 z m -4.368936,0.10993237 c -0.04515,0.2895992 -0.04029,0.58806176 0.02247,0.88328428 0.01092,-0.010304 0.02229,-0.020072 0.03578,-0.027688 4.26e-4,-2.461e-4 8.51e-4,-4.923e-4 0.0013,-7.384e-4 0.06057,-0.034483 0.124408,-0.050814 0.188541,-0.055573 -0.03743,-0.18711172 -0.04991,-0.37535325 -0.03933,-0.56146101 -0.07027,-0.0790103 -0.139849,-0.15828928 -0.208729,-0.23782397 z m 5.301712,0.81817218 c -0.08939,0.055122 -0.179408,0.1097585 -0.270031,0.1639008 -0.04574,0.1807165 -0.114101,0.3570202 -0.206145,0.5242487 0.06045,0.023936 0.116776,0.058475 0.164644,0.1101579 0.01014,0.010941 0.01844,0.022969 0.02544,0.035562 0.148351,-0.2621726 0.242386,-0.5447873 0.286093,-0.8338693 -1e-6,1e-7 -2e-6,2e-7 -2e-6,4e-7 z m -4.916379,0.059353 c -0.09719,-0.020835 -0.196925,-0.013939 -0.286961,0.037827 -0.02771,0.015413 -0.04743,0.041 -0.0546,0.070971 -0.07311,0.324365 -0.145911,0.6488106 -0.218402,0.9733363 -0.01326,0.059322 0.02707,0.120028 0.09199,0.1376857 0.354242,0.096081 0.710805,0.1851094 1.069391,0.2669276 0.03401,0.00798 0.06955,0.0028 0.09808,-0.014281 0.160891,-0.096646 0.19038,-0.2819584 0.157405,-0.4532224 C 13.548861,2.0234154 13.459478,1.8419416 13.345813,1.6775061 13.232064,1.5129493 13.093377,1.3647831 12.941288,1.2675454 12.874638,1.2249329 12.800509,1.1916376 12.724925,1.1754367 Z m 4.252323,0.6593734 c -0.06685,-0.00224 -0.135666,0.00743 -0.201251,0.025069 -0.174586,0.046953 -0.351176,0.1464713 -0.509486,0.2690445 -0.158179,0.1224756 -0.298924,0.268439 -0.382165,0.4217157 -0.08341,0.1535806 -0.110538,0.3389286 0.01397,0.479594 0.02198,0.024743 0.05415,0.04037 0.08886,0.043152 0.367686,0.030236 0.736019,0.052827 1.104681,0.067661 0.06754,0.00267 0.124486,-0.043116 0.129617,-0.1036789 0.02756,-0.3309735 0.05479,-0.6619647 0.08171,-0.9929732 0.0029,-0.030824 -0.0077,-0.06151 -0.0292,-0.085012 -0.07836,-0.08489 -0.185336,-0.1208247 -0.296743,-0.124571 0,-3e-7 -1e-6,-6e-7 -1e-6,-9e-7 z m -2.148434,-0.096183 c -0.202466,-0.032119 -0.410868,-0.035415 -0.587557,0.00564 -0.176428,0.041 -0.342187,0.1443985 -0.373487,0.3211255 -0.0043,0.022465 -0.0012,0.045803 0.009,0.066984 0.191979,0.3872657 0.394563,0.7726853 0.607854,1.1557076 0.0403,0.072066 0.147331,0.088621 0.207558,0.032094 0.319215,-0.3006775 0.629153,-0.6068127 0.929476,-0.9179574 0.01678,-0.017568 0.0271,-0.039633 0.02959,-0.06313 C 15.671446,2.1623737 15.54201,2.0170873 15.385814,1.9246011 15.229367,1.8319767 15.031292,1.7707483 14.828815,1.7386271 Z m -2.11158,-0.326805 c 0.02691,0.00719 0.05739,0.020698 0.09259,0.04325 0.109788,0.070324 0.2346,0.1988178 0.332811,0.3419979 0.09824,0.1432243 0.171954,0.3041472 0.19501,0.4289981 0.01962,0.1062132 -0.0071,0.1546915 -0.04727,0.1935616 -0.287288,-0.066459 -0.57326,-0.1375774 -0.85776,-0.2132729 0.05613,-0.2630394 0.112476,-0.5260274 0.169027,-0.7889637 0.03492,-0.011539 0.07076,-0.017545 0.115593,-0.00557 -10e-7,-7e-7 -3e-6,-1.3e-6 -4e-6,-2e-6 z m 4.228332,0.6534535 c 0.04654,0.00154 0.07905,0.017301 0.108958,0.038508 -0.02449,0.2681202 -0.04918,0.5362269 -0.07409,0.8043196 -0.295473,-0.013361 -0.590725,-0.031741 -0.885587,-0.055078 -0.02629,-0.049117 -0.03732,-0.1038449 0.01329,-0.1987708 0.05975,-0.1120757 0.177538,-0.242287 0.314653,-0.3492266 0.137038,-0.1068797 0.295646,-0.1917802 0.42175,-0.2258031 0.04024,-0.01086 0.07309,-0.014871 0.101023,-0.01395 0,0 -1e-6,0 -1e-6,0 z m -2.152774,-0.101354 c 0.176735,0.028036 0.350576,0.085429 0.465015,0.1533445 0.10469,0.06213 0.134179,0.1168963 0.13506,0.1755429 -0.248273,0.2539636 -0.502993,0.5044993 -0.763971,0.7513587 -0.174962,-0.3149696 -0.342652,-0.6315733 -0.503126,-0.9495021 0.01789,-0.05862 0.06317,-0.1017264 0.179872,-0.1289736 0.127614,-0.029793 0.310398,-0.029809 0.48715,-0.00177 z m 0.956899,0.9380905 c -0.198696,0.055569 -0.403749,0.086543 -0.610403,0.093421 -0.07648,0.075232 -0.153532,0.1501457 -0.231148,0.2247356 0.32731,0.016602 0.655872,-0.020692 0.96815,-0.1142643 -0.01379,-0.00939 -0.02706,-0.019849 -0.0381,-0.032216 -0.04708,-0.053302 -0.07409,-0.1117595 -0.0885,-0.1716755 0,-2e-7 -1e-6,-3e-7 -2e-6,-5e-7 z m -2.14473,-0.3309827 c -0.03168,0.052872 -0.07518,0.1004034 -0.135985,0.1370422 -0.01445,0.00867 -0.03015,0.014431 -0.04651,0.019136 0.269053,0.1831537 0.570467,0.3183496 0.887602,0.4010167 C 14.258486,3.0336439 14.207545,2.9389346 14.157251,2.8440947 13.962664,2.7752388 13.777156,2.6837416 13.604964,2.5710195 Z"
       inkscape:path-effect="#path-effect1"
       inkscape:original-d="m 15.111222,-2.7832926 a 0.11388812,0.11388812 0 0 0 -0.07235,0.046509 l -0.720369,1.035079 a 0.11388812,0.11388812 0 0 0 -0.02067,0.062528 c -0.002,0.1795573 0.132525,0.3125676 0.289388,0.3839559 0.156862,0.071389 0.349678,0.1015338 0.54312,0.100769 0.19344,-7.643e-4 0.386994,-0.032461 0.544152,-0.1038696 0.15716,-0.071409 0.293639,-0.2002643 0.294556,-0.3782715 a 0.11388812,0.11388812 0 0 0 -0.02119,-0.065112 l -0.721403,-1.0340454 a 0.11388812,0.11388812 0 0 0 -0.115239,-0.047542 z m -0.24908,0.1772501 c -0.291048,0.029856 -0.578089,0.1078709 -0.84801,0.2340943 0.01253,0.00716 0.02448,0.015205 0.03514,0.025321 0.04918,0.04811 0.08055,0.1037478 0.100769,0.1627808 0.172319,-0.077056 0.351659,-0.1329228 0.534334,-0.1674317 z m 0.541569,0 0.17725,0.2542481 c 0.182732,0.034449 0.362469,0.090931 0.534851,0.1679484 0.02001,-0.058094 0.0514,-0.1131328 0.09974,-0.1607137 l 0.001,-0.00103 c 0.0107,-0.010591 0.02246,-0.019287 0.03514,-0.026872 -0.270062,-0.1261948 -0.556831,-0.2038298 -0.84801,-0.2335775 z m -0.270268,0.1333252 0.592212,0.8505941 c -0.0078,0.057836 -0.04144,0.1086735 -0.145727,0.1560628 -0.114418,0.051982 -0.28305,0.08357 -0.450619,0.084233 -0.167569,6.622e-4 -0.335333,-0.02984 -0.448035,-0.081132 -0.102639,-0.046714 -0.135865,-0.096491 -0.142627,-0.1570964 z m 1.212846,0.1436605 a 0.11388812,0.11388812 0 0 0 -0.08165,0.03359 c -0.128378,0.1255546 -0.126589,0.3135088 -0.06615,0.4749064 0.06043,0.1614003 0.175318,0.319027 0.312643,0.4552694 0.13732,0.1362467 0.296234,0.2509704 0.457853,0.3116088 0.161622,0.0606352 0.348904,0.065278 0.475423,-0.059945 a 0.11388812,0.11388812 0 0 0 0.03307,-0.083716 l -0.02274,-0.9963217 a 0.11388812,0.11388812 0 0 0 -0.111105,-0.1111043 z m -2.427242,0.00103 -0.995805,0.023254 a 0.11388812,0.11388812 0 0 0 -0.111104,0.1111043 l -0.02325,0.9963217 a 0.11388812,0.11388812 0 0 0 0.03359,0.083716 c 0.126515,0.12522612 0.313285,0.12057935 0.474907,0.059945 0.161622,-0.060636 0.321045,-0.1753658 0.45837,-0.3116088 0.137323,-0.1362432 0.251688,-0.2938717 0.312125,-0.4552694 0.06044,-0.1613977 0.06172,-0.3503871 -0.06666,-0.47594 a 0.11388812,0.11388812 0 0 0 -0.08217,-0.031523 z m 2.503723,0.2289266 0.806669,0.019637 0.0186,0.8056355 c -0.04613,0.028546 -0.09917,0.04364 -0.198954,0.0062 -0.117663,-0.044143 -0.259832,-0.1408781 -0.378789,-0.2588989 -0.118958,-0.1180203 -0.215477,-0.2586919 -0.258899,-0.3746541 -0.03698,-0.098744 -0.01978,-0.151033 0.01137,-0.1979208 z m -2.578137,0.00103 c 0.03069,0.04683 0.0461,0.099647 0.0093,0.1979208 -0.04342,0.1159607 -0.140975,0.2555994 -0.259933,0.3736206 -0.118957,0.1180206 -0.258541,0.2147552 -0.376204,0.2588989 -0.09936,0.037277 -0.153366,0.021969 -0.199471,-0.0062 l 0.01809,-0.8066691 z m 8.301302,0.5901449 c -0.209136,-0.00146 -0.383456,0.1985032 -0.497644,0.4640544 l -3.931543,-0.027905 c 0.04421,0.10878392 0.0791,0.22660017 0.10542,0.35036621 l 4.563546,0.0320394 c 0.06089,0.18012887 0.102912,0.43088278 0.101802,0.70796713 -0.0011,0.27600625 -0.04502,0.52531393 -0.10697,0.70434977 L 17.83147,0.6909139 c -0.02338,0.12303544 -0.05404,0.24117703 -0.09353,0.350883 l 3.902088,0.027389 c 0.112055,0.2671337 0.284891,0.4687926 0.494026,0.4702555 0.209137,0.00146 0.38294,-0.1979865 0.497128,-0.4635376 l 1.759066,0.012402 v -0.00103 c 0.140315,-0.011903 0.257026,-0.15468228 0.332279,-0.3384806 0.0789,-0.19271929 0.121899,-0.44139911 0.12299,-0.71365153 0.0011,-0.27225261 -0.03995,-0.52242285 -0.117306,-0.71623535 -0.07377,-0.18484413 -0.188966,-0.32875002 -0.329178,-0.34261472 v -0.00103 l -1.759066,-0.012402 c -0.112055,-0.267137 -0.284891,-0.4693095 -0.494027,-0.4707723 z m -9.401493,0.40566 c -0.126052,0.26965412 -0.203692,0.55623736 -0.233578,0.84697672 l 0.254765,-0.17673339 c 0.03458,-0.18307544 0.09063,-0.36270359 0.167948,-0.53536784 -0.05776,-0.0191136 -0.112448,-0.0493579 -0.160196,-0.0966349 -0.0116,-0.01153 -0.02082,-0.024541 -0.02894,-0.038241 z m 4.778003,0.00103 c -0.0078,0.013614 -0.01658,0.026467 -0.02791,0.037724 -0.04783,0.047339 -0.103291,0.0776391 -0.16123,0.096635 0.07735,0.17288482 0.133948,0.35257905 0.168465,0.5358846 l 0.253731,0.17725017 c -0.02958,-0.29088918 -0.107113,-0.57764301 -0.23306,-0.84749347 z m -4.044715,0.28215335 a 0.11388812,0.11388812 0 0 0 -0.06304,0.0211873 l -1.034562,0.72036946 a 0.11388812,0.11388812 0 0 0 0.001,0.18758545 l 1.033529,0.721403 a 0.11388812,0.11388812 0 0 0 0.06511,0.0206706 c 0.178007,-9.1662e-4 0.30738,-0.13739617 0.378789,-0.29455567 0.07141,-0.15715928 0.102588,-0.3507119 0.103352,-0.54415283 7.65e-4,-0.1934414 -0.02886,-0.38625752 -0.100252,-0.5431193 C 13.790266,-0.6865557 13.657257,-0.8210775 13.4777,-0.81908196 Z m 3.309876,0.001034 c -0.179557,-0.001996 -0.311016,0.13149293 -0.382406,0.28835449 -0.07139,0.15686134 -0.102567,0.35071233 -0.101802,0.54415283 7.64e-4,0.19344163 0.03349,0.38596008 0.104903,0.5431193 0.07141,0.15715972 0.199227,0.29260847 0.377238,0.29352214 a 0.11388812,0.11388812 0 0 0 0.06615,-0.019637 l 1.034045,-0.721403 a 0.11388812,0.11388812 0 0 0 0,-0.18655192 L 16.851689,-0.7978941 a 0.11388812,0.11388812 0 0 0 -0.06408,-0.0201538 z m 5.961393,0.13125813 1.636076,0.0113688 v 0.001034 c 0.04547,0.005528 0.09712,0.0565054 0.144694,0.17569987 0.0503,0.12602618 0.08561,0.31783897 0.08475,0.53226725 -8.59e-4,0.21442859 -0.03757,0.40540142 -0.08888,0.53071696 -0.04853,0.11852231 -0.100726,0.16686469 -0.146245,0.17156576 v 0.001034 l -1.635559,-0.0113688 c 0.04919,-0.21239339 0.07598,-0.45121278 0.077,-0.70434977 0.001,-0.25393539 -0.02404,-0.49423919 -0.07183,-0.70796713 z m -9.252148,0.10903728 c 0.06061,0.006762 0.110381,0.0399867 0.157096,0.14262695 0.05129,0.1127028 0.08128,0.27994945 0.08061,0.4475179 -6.63e-4,0.16756908 -0.03173,0.3362047 -0.08372,0.45061849 -0.04738,0.104286 -0.09822,0.13793663 -0.156062,0.14572754 L 12.644189,0.01653646 Z m 3.273185,0 0.852144,0.59427897 -0.850077,0.59221191 C 16.714263,0.60094334 16.663429,0.56729214 16.61604,0.4630108 16.56406,0.34859487 16.53144,0.18099475 16.53077,0.01342584 c -6.63e-4,-0.16756837 0.02984,-0.33481597 0.08113,-0.4475179 0.04674,-0.10270485 0.09747,-0.13694218 0.15813,-0.14366048 z M 12.510347,0.2862774 c 0.02968,0.29147129 0.107776,0.57871756 0.234095,0.8490438 0.0076,-0.012681 0.01576,-0.024957 0.02636,-0.035657 l 10e-4,-0.00103 c 0.04758,-0.048338 0.10262,-0.079722 0.160714,-0.0997356 -0.0771,-0.17254825 -0.132991,-0.35193395 -0.167432,-0.53485108 z m 5.245158,5.1677e-4 -0.254248,0.17725016 c -0.03447,0.18292844 -0.0903,0.36281258 -0.167431,0.53536784 0.05864,0.0201206 0.113863,0.0513056 0.161747,0.10025233 0.01014,0.01036 0.01859,0.021915 0.02584,0.034106 0.126064,-0.26967399 0.204207,-0.55626797 0.234094,-0.84697673 z M 13.076721,1.0423036 c -0.09429,0.00254 -0.184657,0.033208 -0.255281,0.10542 a 0.11388812,0.11388812 0 0 0 -0.03359,0.082165 l 0.02429,0.9968384 a 0.11388812,0.11388812 0 0 0 0.111104,0.1111043 l 0.995805,0.023254 a 0.11388812,0.11388812 0 0 0 0.08423,-0.03359 c 0.125222,-0.126506 0.120063,-0.3132732 0.05943,-0.4748952 -0.06063,-0.1616219 -0.17485,-0.3210457 -0.311093,-0.45837 C 13.615373,1.256906 13.457744,1.1425423 13.296346,1.0821045 13.225734,1.055663 13.150061,1.0403356 13.076721,1.0423136 Z m 4.081405,0 c -0.06331,0.00242 -0.127577,0.017127 -0.188102,0.039791 -0.161397,0.060437 -0.31851,0.1748013 -0.454753,0.3121256 -0.136242,0.137326 -0.250973,0.2967473 -0.311609,0.45837 -0.06064,0.1616224 -0.06527,0.3483881 0.05994,0.4749064 a 0.11388812,0.11388812 0 0 0 0.08372,0.03359 l 0.996321,-0.023254 a 0.11388812,0.11388812 0 0 0 0.111105,-0.1111043 l 0.02274,-0.9958049 a 0.11388812,0.11388812 0 0 0 -0.03204,-0.083199 c -0.07844,-0.080266 -0.181805,-0.1094425 -0.287321,-0.10542 z m -2.02675,0.1441773 c -0.193441,-7.647e-4 -0.387291,0.030413 -0.544153,0.1018026 -0.156861,0.07139 -0.29035,0.203365 -0.288354,0.3829223 a 0.11388812,0.11388812 0 0 0 0.01964,0.064079 l 0.721403,1.0335286 a 0.11388812,0.11388812 0 0 0 0.186552,0 l 0.721403,-1.0335286 a 0.11388812,0.11388812 0 0 0 0.02015,-0.066146 C 15.967102,1.4911407 15.831651,1.3628055 15.674495,1.291394 15.517332,1.2199892 15.324818,1.1872556 15.131376,1.1864909 Z m -2.009696,0.087333 c 0.02617,7.22e-4 0.05702,0.0068 0.09405,0.020671 0.11596,0.043423 0.256116,0.1404584 0.374137,0.2594157 0.118021,0.1189572 0.214756,0.2606091 0.258899,0.3782715 0.03744,0.099789 0.02234,0.1528244 -0.0062,0.1989543 L 13.037447,2.1125234 13.017297,1.306371 c 0.0293,-0.019469 0.06077,-0.03376 0.104387,-0.032556 z m 4.021976,5.167e-4 c 0.04365,-0.00173 0.07512,0.011826 0.104387,0.031006 l -0.0186,0.8071859 -0.805635,0.018603 c -0.02817,-0.046103 -0.04348,-0.09959 -0.0062,-0.1989543 0.04414,-0.1176633 0.139844,-0.2582808 0.257865,-0.377238 0.118021,-0.1189578 0.258693,-0.2159925 0.374654,-0.2594156 0.03685,-0.013801 0.06734,-0.020148 0.09353,-0.021187 z M 15.130343,1.414384 c 0.167567,6.626e-4 0.335171,0.032763 0.449585,0.084749 0.104285,0.047384 0.137933,0.098226 0.145727,0.1560628 L 15.133443,2.5057902 14.538647,1.6531291 c 0.0067,-0.060658 0.04096,-0.1113874 0.143661,-0.1581299 0.112702,-0.051292 0.280466,-0.081277 0.448035,-0.080615 z m 0.987019,0.8020182 c -0.173001,0.077469 -0.352955,0.1333803 -0.536401,0.1679484 l -0.17725,0.254248 c 0.290871,-0.029904 0.577686,-0.1073874 0.847493,-0.2335774 -0.01323,-0.00786 -0.02612,-0.016818 -0.03721,-0.027905 -0.04736,-0.047849 -0.07752,-0.1028319 -0.09663,-0.1607137 z m -1.967321,5.167e-4 c -0.019,0.057939 -0.04931,0.1128857 -0.09663,0.1607137 -0.01125,0.011325 -0.02411,0.020063 -0.03772,0.027905 0.270021,0.1260251 0.556933,0.2040351 0.84801,0.2335775 L 14.685925,2.3848674 C 14.50262,2.350351 14.322928,2.29427 14.150041,2.2169189 Z"
       transform="rotate(-30,20.590169,24.435709)" />
  </g>
</svg>
