<?xml version="1.0" encoding="UTF-8" standalone="no"?>
<!-- Created with Inkscape (http://www.inkscape.org/) -->

<svg
   width="48"
   height="48"
   viewBox="0 0 12.7 12.7"
   version="1.1"
   id="svg1"
   xml:space="preserve"
   inkscape:version="1.3 (0e150ed6c4, 2023-07-21)"
   sodipodi:docname="damage-roll-solid.svg"
   xmlns:inkscape="http://www.inkscape.org/namespaces/inkscape"
   xmlns:sodipodi="http://sodipodi.sourceforge.net/DTD/sodipodi-0.dtd"
   xmlns="http://www.w3.org/2000/svg"
   xmlns:svg="http://www.w3.org/2000/svg"><sodipodi:namedview
     id="namedview1"
     pagecolor="#505050"
     bordercolor="#eeeeee"
     borderopacity="1"
     inkscape:showpageshadow="0"
     inkscape:pageopacity="0"
     inkscape:pagecheckerboard="0"
     inkscape:deskcolor="#505050"
     inkscape:document-units="mm"
     inkscape:zoom="8"
     inkscape:cx="8.5625"
     inkscape:cy="33.8125"
     inkscape:window-width="1920"
     inkscape:window-height="1017"
     inkscape:window-x="1912"
     inkscape:window-y="-8"
     inkscape:window-maximized="1"
     inkscape:current-layer="layer1" /><defs
     id="defs1" /><g
     inkscape:label="Layer 1"
     inkscape:groupmode="layer"
     id="layer1"><path
       id="path1"
       style="fill:#ffffff;stroke-width:0.0228548"
       inkscape:label="die"
       d="m 3.1263838,0.66115618 c -0.538698,0 -1.0078052,0.29187201 -1.261552,0.72530802 L 8.2710629,7.7926954 A 0.73301266,0.73301266 0 0 1 8.7099614,7.6312033 0.73301266,0.73301266 0 0 1 9.4431472,8.364389 0.73301266,0.73301266 0 0 1 9.2900954,8.8122907 l 1.8867016,1.8867013 c 0.433665,-0.25369 0.72587,-0.7226837 0.72587,-1.2615523 V 2.1235888 c 0,-0.8079077 -0.654526,-1.46243262 -1.462432,-1.46243262 z M 4.8566571,2.4634538 A 0.73301266,0.73301266 0 0 1 5.5898428,3.1966395 0.73301266,0.73301266 0 0 1 4.8566571,3.9298252 0.73301266,0.73301266 0 0 1 4.1234713,3.1966395 0.73301266,0.73301266 0 0 1 4.8566571,2.4634538 Z m 3.8533043,0 A 0.73301266,0.73301266 0 0 1 9.4431472,3.1966395 0.73301266,0.73301266 0 0 1 8.7099614,3.9298252 0.73301266,0.73301266 0 0 1 7.9767758,3.1966395 0.73301266,0.73301266 0 0 1 8.7099614,2.4634538 Z m 0,2.5838748 A 0.73301266,0.73301266 0 0 1 9.4431472,5.7805143 0.73301266,0.73301266 0 0 1 8.7099614,6.5137 0.73301266,0.73301266 0 0 1 7.9767758,5.7805143 0.73301266,0.73301266 0 0 1 8.7099614,5.0473286 Z" /><path
       style="fill:#ffffff;fill-opacity:1;stroke:none;stroke-width:0.366075;stroke-linecap:round;stroke-linejoin:round"
       d="M 0.16381429,0.59066162 V 1.1384318 L 4.3893962,5.7970622 C 4.3787114,5.9309175 4.3010674,6.0603808 4.2235148,6.1903198 4.5464968,6.2911195 4.7815094,6.7952395 3.716569,6.7758138 4.3495948,7.0785351 3.8594174,8.0932822 3.1119548,7.6801514 2.8831016,7.5401848 2.7230215,7.3716694 2.8380697,7.0941406 L 2.578654,7.7835042 C 1.7330671,8.0000567 1.0333952,8.3624824 0.32194417,8.7131632 2.9571538,8.8506006 4.4993613,9.1288007 5.6156779,12.497945 5.6965395,11.755871 5.7281112,10.989523 5.602242,10.144084 5.9253005,10.205877 6.2117937,10.210278 6.2270101,9.7932007 5.9118041,9.9784578 5.710013,9.7956163 5.5500488,9.4805583 5.138631,8.5382827 6.2041407,8.4253956 6.5256999,8.9606934 6.6298656,8.805661 6.6386729,8.5404222 6.8419596,8.4997396 l 2.8246338,3.1140214 0.7343226,0.734322 h 1.876888 V 12.074198 L 11.155908,10.952303 7.6646484,7.6610311 c 0.015163,-0.09559 0.027145,-0.1957387 0.050643,-0.278536 L 5.6890584,5.3562622 C 5.617185,5.3434023 5.5532893,5.2942005 5.5262777,5.1929647 L 5.3727987,5.0394857 C 5.1759426,5.0795819 4.950381,4.993302 4.7201253,4.8854899 Z"
       id="path9" /></g></svg>
