<?xml version="1.0" encoding="UTF-8" standalone="no"?>
<!-- Created with Inkscape (http://www.inkscape.org/) -->

<svg
   width="48"
   height="48"
   viewBox="0 0 12.7 12.7"
   version="1.1"
   id="svg1"
   xml:space="preserve"
   inkscape:version="1.3 (0e150ed6c4, 2023-07-21)"
   sodipodi:docname="damage-roll-solid.svg"
   xmlns:inkscape="http://www.inkscape.org/namespaces/inkscape"
   xmlns:sodipodi="http://sodipodi.sourceforge.net/DTD/sodipodi-0.dtd"
   xmlns="http://www.w3.org/2000/svg"
   xmlns:svg="http://www.w3.org/2000/svg"><sodipodi:namedview
     id="namedview1"
     pagecolor="#505050"
     bordercolor="#eeeeee"
     borderopacity="1"
     inkscape:showpageshadow="0"
     inkscape:pageopacity="0"
     inkscape:pagecheckerboard="0"
     inkscape:deskcolor="#505050"
     inkscape:document-units="mm"
     inkscape:zoom="8"
     inkscape:cx="-3.3125"
     inkscape:cy="40.5625"
     inkscape:window-width="2560"
     inkscape:window-height="1377"
     inkscape:window-x="-8"
     inkscape:window-y="-8"
     inkscape:window-maximized="1"
     inkscape:current-layer="layer1" /><defs
     id="defs1" /><g
     inkscape:label="Layer 1"
     inkscape:groupmode="layer"
     id="layer1"><rect
       style="display:none;fill:none;stroke:#000000;stroke-width:2.11667;stroke-dasharray:none;stroke-opacity:1"
       id="rect1"
       width="12.7"
       height="12.7"
       x="9.5367433e-08"
       y="9.5367433e-08"
       inkscape:label="border spacer"
       sodipodi:insensitive="true" /><path
       id="path1"
       style="fill:#ffffff;stroke-width:0.0137842"
       inkscape:label="die"
       d="m 4.1637061,3.2487866 c -0.2506292,0 -0.4755905,0.1060314 -0.6359109,0.2739224 C 3.3600226,3.6829744 3.254413,3.9075719 3.254413,4.1580796 v 4.4108549 c 0,0.4872643 0.3950158,0.882279 0.882279,0.882279 h 4.4108549 c 0.2510797,0 0.4766188,-0.1060438 0.6369914,-0.2744629 C 9.3516805,9.0165499 9.4568399,8.7918903 9.4568399,8.5419204 V 4.1310655 c 0,-0.4872635 -0.3950164,-0.8822789 -0.8822789,-0.8822789 z M 8.122886,3.6993809 A 0.8835936,0.8835936 0 0 1 9.0062456,4.5827405 0.8835936,0.8835936 0 0 1 8.122886,5.4666404 0.8835936,0.8835936 0 0 1 7.2389861,4.5827405 0.8835936,0.8835936 0 0 1 8.122886,3.6993809 Z M 6.3556265,5.4666404 A 0.8835936,0.8835936 0 0 1 7.2389861,6.35 0.8835936,0.8835936 0 0 1 6.3556265,7.2333596 0.8835936,0.8835936 0 0 1 5.4722669,6.35 0.8835936,0.8835936 0 0 1 6.3556265,5.4666404 Z M 4.588367,7.2333596 A 0.8835936,0.8835936 0 0 1 5.4722669,8.1172595 0.8835936,0.8835936 0 0 1 4.588367,9.0006191 0.8835936,0.8835936 0 0 1 3.7050074,8.1172595 0.8835936,0.8835936 0 0 1 4.588367,7.2333596 Z" /><text
       xml:space="preserve"
       style="font-style:normal;font-weight:normal;font-size:7.56878px;line-height:1.25;font-family:sans-serif;letter-spacing:0px;word-spacing:0px;fill:#ffffff;fill-opacity:1;stroke:none;stroke-width:0.18922"
       x="-14.606531"
       y="7.2507863"
       id="text3"
       transform="scale(-0.81049849,1.2338086)"><tspan
         sodipodi:role="line"
         id="tspan3"
         style="fill:#ffffff;stroke-width:0.18922"
         x="-14.606531"
         y="7.2507863">{</tspan></text><text
       xml:space="preserve"
       style="font-style:normal;font-weight:normal;font-size:7.56878px;line-height:1.25;font-family:sans-serif;letter-spacing:0px;word-spacing:0px;fill:#ffffff;fill-opacity:1;stroke:none;stroke-width:0.18922"
       x="1.0628377"
       y="7.2507863"
       id="text6"
       transform="scale(0.81049849,1.2338086)"><tspan
         sodipodi:role="line"
         id="tspan6"
         style="fill:#ffffff;stroke-width:0.18922"
         x="1.0628377"
         y="7.2507863">{</tspan></text></g></svg>
