<?xml version="1.0" encoding="UTF-8" standalone="no"?>
<!-- Created with Inkscape (http://www.inkscape.org/) -->

<svg
   width="48"
   height="48"
   viewBox="0 0 48 48"
   version="1.1"
   id="svg1"
   sodipodi:docname="damage-type-freezing-solid.svg"
   inkscape:version="1.3 (0e150ed6c4, 2023-07-21)"
   xmlns:inkscape="http://www.inkscape.org/namespaces/inkscape"
   xmlns:sodipodi="http://sodipodi.sourceforge.net/DTD/sodipodi-0.dtd"
   xmlns="http://www.w3.org/2000/svg"
   xmlns:svg="http://www.w3.org/2000/svg">
  <sodipodi:namedview
     id="namedview1"
     pagecolor="#505050"
     bordercolor="#eeeeee"
     borderopacity="1"
     inkscape:showpageshadow="0"
     inkscape:pageopacity="0"
     inkscape:pagecheckerboard="0"
     inkscape:deskcolor="#505050"
     inkscape:document-units="px"
     inkscape:zoom="12.094472"
     inkscape:cx="17.363304"
     inkscape:cy="27.243851"
     inkscape:window-width="1920"
     inkscape:window-height="1017"
     inkscape:window-x="1912"
     inkscape:window-y="-8"
     inkscape:window-maximized="1"
     inkscape:current-layer="layer1" />
  <defs
     id="defs1" />
  <g
     inkscape:label="Layer 1"
     inkscape:groupmode="layer"
     id="layer1">
    <path
       id="path1"
       style="color:#000000;fill:#fcfcfc;stroke-linejoin:round;-inkscape-stroke:none"
       d="M 23 0.93359375 L 23 8.2480469 L 16.763672 2.0117188 L 15.349609 3.4257812 L 23 11.076172 L 23 19.316406 L 20.443359 20.791016 L 13.308594 16.671875 L 10.507812 6.2207031 L 8.5761719 6.7382812 L 10.859375 15.257812 L 4.5234375 11.601562 L 3.5234375 13.332031 L 9.859375 16.990234 L 1.3398438 19.273438 L 1.8574219 21.205078 L 12.308594 18.404297 L 19.445312 22.525391 L 19.445312 25.474609 L 12.308594 29.595703 L 1.8574219 26.794922 L 1.3398438 28.726562 L 9.859375 31.009766 L 3.5234375 34.667969 L 4.5234375 36.398438 L 10.859375 32.742188 L 8.5761719 41.261719 L 10.507812 41.779297 L 13.308594 31.328125 L 20.443359 27.208984 L 23 28.683594 L 23 36.923828 L 15.349609 44.574219 L 16.763672 45.988281 L 23 39.751953 L 23 47.066406 L 25 47.066406 L 25 39.751953 L 31.236328 45.988281 L 32.650391 44.574219 L 25 36.923828 L 25 28.683594 L 27.556641 27.208984 L 34.691406 31.328125 L 37.492188 41.779297 L 39.423828 41.261719 L 37.140625 32.742188 L 43.476562 36.398438 L 44.476562 34.667969 L 38.140625 31.009766 L 46.660156 28.726562 L 46.142578 26.794922 L 35.691406 29.595703 L 28.556641 25.476562 L 28.556641 22.523438 L 35.691406 18.404297 L 46.142578 21.205078 L 46.660156 19.273438 L 38.140625 16.990234 L 44.476562 13.332031 L 43.476562 11.601562 L 37.140625 15.257812 L 39.423828 6.7382812 L 37.492188 6.2207031 L 34.691406 16.671875 L 27.556641 20.791016 L 25 19.316406 L 25 11.076172 L 32.650391 3.4257812 L 31.236328 2.0117188 L 25 8.2480469 L 25 0.93359375 L 23 0.93359375 z M 24 21.048828 L 26.556641 22.523438 L 26.556641 25.476562 L 24 26.951172 L 21.445312 25.476562 L 21.445312 22.523438 L 24 21.048828 z M 28.410156 21.425781 A 1.0001 1.0001 0 0 1 28.4375 21.476562 A 1.0001 1.0001 0 0 0 28.410156 21.425781 z M 28.513672 21.658203 A 1.0001 1.0001 0 0 1 28.53125 21.730469 A 1.0001 1.0001 0 0 0 28.513672 21.658203 z M 28.541016 21.773438 A 1.0001 1.0001 0 0 1 28.550781 21.847656 A 1.0001 1.0001 0 0 0 28.541016 21.773438 z M 28.550781 26.152344 A 1.0001 1.0001 0 0 1 28.541016 26.226562 A 1.0001 1.0001 0 0 0 28.550781 26.152344 z M 28.53125 26.269531 A 1.0001 1.0001 0 0 1 28.513672 26.341797 A 1.0001 1.0001 0 0 0 28.53125 26.269531 z M 28.4375 26.523438 A 1.0001 1.0001 0 0 1 28.410156 26.574219 A 1.0001 1.0001 0 0 0 28.4375 26.523438 z "
       inkscape:label="snowflake" />
  </g>
</svg>
