<?xml version="1.0" encoding="UTF-8" standalone="no"?>
<svg
   aria-hidden="true"
   focusable="false"
   data-prefix="fas"
   data-icon="dice-three"
   class="svg-inline--fa fa-dice-three fa-w-14"
   role="img"
   viewBox="0 0 48 48"
   width="48"
   height="48"
   version="1.1"
   id="svg1"
   sodipodi:docname="details-visible.svg"
   inkscape:version="1.3.2 (091e20e, 2023-11-25, custom)"
   xml:space="preserve"
   xmlns:inkscape="http://www.inkscape.org/namespaces/inkscape"
   xmlns:sodipodi="http://sodipodi.sourceforge.net/DTD/sodipodi-0.dtd"
   xmlns="http://www.w3.org/2000/svg"
   xmlns:svg="http://www.w3.org/2000/svg"><defs
     id="defs1"><inkscape:path-effect
       effect="bool_op"
       operand-path=""
       id="path-effect4"
       is_visible="true"
       lpeversion="1.2"
       operation="union"
       swap-operands="false"
       filltype-this="from-curve"
       filter=""
       filltype-operand="from-curve" /><filter
       id="selectable_hidder_filter"
       width="1"
       height="1"
       x="0"
       y="0"
       style="color-interpolation-filters:sRGB"
       inkscape:label="LPE boolean visibility"><feComposite
         id="boolops_hidder_primitive"
         result="composite1"
         operator="arithmetic"
         in2="SourceGraphic"
         in="BackgroundImage"
         k1="0"
         k2="0"
         k3="0"
         k4="0" /></filter><inkscape:path-effect
       effect="bool_op"
       operand-path=""
       id="path-effect3"
       is_visible="true"
       lpeversion="1"
       operation="diff"
       swap-operands="false"
       filltype-this="from-curve"
       filter=""
       filltype-operand="from-curve" /></defs><sodipodi:namedview
     id="namedview1"
     pagecolor="#505050"
     bordercolor="#ffffff"
     borderopacity="1"
     inkscape:showpageshadow="0"
     inkscape:pageopacity="0"
     inkscape:pagecheckerboard="1"
     inkscape:deskcolor="#d1d1d1"
     inkscape:zoom="16"
     inkscape:cx="17.15625"
     inkscape:cy="26.71875"
     inkscape:window-width="2560"
     inkscape:window-height="1369"
     inkscape:window-x="-8"
     inkscape:window-y="-8"
     inkscape:window-maximized="1"
     inkscape:current-layer="g5" /><rect
     style="display:none;fill:none;stroke:#000000;stroke-width:8;stroke-dasharray:none;stroke-opacity:1"
     id="rect1-4"
     width="48"
     height="48"
     x="0"
     y="0"
     inkscape:label="border spacer"
     sodipodi:insensitive="true" /><g
     id="g2"><circle
       style="fill:#ffffff;stroke:none;stroke-width:2.39273;stroke-linecap:round;stroke-linejoin:round;stroke-dashoffset:10.5"
       id="path1"
       cx="9.1696177"
       cy="30.048138"
       r="3.2152367" /><rect
       style="fill:#ffffff;stroke:none;stroke-width:1.87163;stroke-linecap:round;stroke-linejoin:round;stroke-dashoffset:10.5"
       id="rect1"
       width="24.151434"
       height="6.3714848"
       x="17.920549"
       y="26.862394"
       ry="3.1857424" /></g><g
     id="g5"
     transform="translate(0,10)"><circle
       style="fill:#ffffff;stroke:none;stroke-width:2.39273;stroke-linecap:round;stroke-linejoin:round;stroke-dashoffset:10.5"
       id="circle5"
       cx="9.1696177"
       cy="30.048138"
       r="3.2152367" /><rect
       style="fill:#ffffff;stroke:none;stroke-width:1.87163;stroke-linecap:round;stroke-linejoin:round;stroke-dashoffset:10.5"
       id="rect5"
       width="24.151434"
       height="6.3714848"
       x="17.920549"
       y="26.862394"
       ry="3.1857424" /></g><g
     id="g4"
     inkscape:label="eye"
     transform="translate(-1.4943357e-8,-0.3125)"><path
       id="circle3"
       style="fill:#ffffff;stroke-width:4.29665;stroke-linecap:round;stroke-linejoin:round;stroke-dashoffset:10.5"
       inkscape:label="eyeball"
       d="m 24.000002,4.8222656 c -8.213732,0 -12.915992,3.5435761 -15.8125003,7.1250004 -1.30767,1.616886 -1.3016811,1.614198 -0.017578,3.013672 3.1248963,3.405653 7.5635603,7.341796 15.8300783,7.341796 8.266518,0 12.705172,-3.936143 15.830078,-7.341796 1.284093,-1.399474 1.290093,-1.396786 -0.01758,-3.013672 C 36.915993,8.3658417 32.213732,4.8222656 24,4.8222656 Z m 0,1.6679688 A 7.0724718,7.0724718 0 0 1 31.072268,13.5625 7.0724718,7.0724718 0 0 1 24.000002,20.634766 7.0724718,7.0724718 0 0 1 16.927736,13.5625 7.0724718,7.0724718 0 0 1 24.000002,6.4902344 Z" /><path
       id="circle4"
       style="fill:#ffffff;stroke:none;stroke-width:1.64967;stroke-linecap:round;stroke-linejoin:round;stroke-dashoffset:10.5"
       inkscape:label="iris"
       d="M 24 8.8710938 A 4.691247 4.691247 0 0 0 23.242188 8.9394531 A 2.628747 2.628747 0 0 1 24.128906 10.90625 A 2.628747 2.628747 0 0 1 21.5 13.535156 A 2.628747 2.628747 0 0 1 19.4375 12.525391 A 4.691247 4.691247 0 0 0 19.308594 13.5625 A 4.691247 4.691247 0 0 0 24 18.253906 A 4.691247 4.691247 0 0 0 28.691406 13.5625 A 4.691247 4.691247 0 0 0 24 8.8710938 z " /></g></svg>
