<?xml version="1.0" encoding="UTF-8" standalone="no"?>
<svg
   aria-hidden="true"
   focusable="false"
   data-prefix="fas"
   data-icon="dice-three"
   class="svg-inline--fa fa-dice-three fa-w-14"
   role="img"
   viewBox="0 0 48 48"
   width="48"
   height="48"
   version="1.1"
   id="svg1"
   sodipodi:docname="dice-three-solid.svg"
   inkscape:version="1.3 (0e150ed6c4, 2023-07-21)"
   xmlns:inkscape="http://www.inkscape.org/namespaces/inkscape"
   xmlns:sodipodi="http://sodipodi.sourceforge.net/DTD/sodipodi-0.dtd"
   xmlns="http://www.w3.org/2000/svg"
   xmlns:svg="http://www.w3.org/2000/svg">
  <defs
     id="defs1" />
  <sodipodi:namedview
     id="namedview1"
     pagecolor="#505050"
     bordercolor="#ffffff"
     borderopacity="1"
     inkscape:showpageshadow="0"
     inkscape:pageopacity="0"
     inkscape:pagecheckerboard="1"
     inkscape:deskcolor="#d1d1d1"
     inkscape:zoom="9.9326406"
     inkscape:cx="24.464793"
     inkscape:cy="29.347684"
     inkscape:window-width="1920"
     inkscape:window-height="1137"
     inkscape:window-x="-8"
     inkscape:window-y="-8"
     inkscape:window-maximized="1"
     inkscape:current-layer="svg1" />
  <path
     fill="#ffffff"
     d="M 41.142857,0 H 6.8571429 C 3.0696429,0 0,3.069643 0,6.857143 V 41.142857 C 0,44.930357 3.0696429,48 6.8571429,48 H 41.142857 C 44.930357,48 48,44.930357 48,41.142857 V 6.857143 C 48,3.069643 44.930357,0 41.142857,0 Z M 13.714286,17.142857 c -1.893215,0 -3.428572,-1.535357 -3.428572,-3.428571 0,-1.893215 1.535357,-3.428572 3.428572,-3.428572 1.893214,0 3.428571,1.535357 3.428571,3.428572 0,1.893214 -1.535357,3.428571 -3.428571,3.428571 z M 24,27.428571 c -1.893214,0 -3.428571,-1.535357 -3.428571,-3.428571 0,-1.893214 1.535357,-3.428571 3.428571,-3.428571 1.893214,0 3.428571,1.535357 3.428571,3.428571 0,1.893214 -1.535357,3.428571 -3.428571,3.428571 z m 10.285714,10.285715 c -1.893214,0 -3.428571,-1.535357 -3.428571,-3.428572 0,-1.893214 1.535357,-3.428571 3.428571,-3.428571 1.893215,0 3.428572,1.535357 3.428572,3.428571 0,1.893215 -1.535357,3.428572 -3.428572,3.428572 z"
     id="path1"
     style="stroke-width:0.107143"
     inkscape:label="die" />
</svg>
