<?xml version="1.0" encoding="UTF-8" standalone="no"?>
<svg
   aria-hidden="true"
   focusable="false"
   data-prefix="fas"
   data-icon="dice-three"
   class="svg-inline--fa fa-dice-three fa-w-14"
   role="img"
   viewBox="0 0 48 48"
   width="48"
   height="48"
   version="1.1"
   id="svg1"
   sodipodi:docname="dice-check-solid.svg"
   inkscape:version="1.3 (0e150ed6c4, 2023-07-21)"
   xml:space="preserve"
   xmlns:inkscape="http://www.inkscape.org/namespaces/inkscape"
   xmlns:sodipodi="http://sodipodi.sourceforge.net/DTD/sodipodi-0.dtd"
   xmlns="http://www.w3.org/2000/svg"
   xmlns:svg="http://www.w3.org/2000/svg"><defs
     id="defs1"><inkscape:path-effect
       effect="bool_op"
       operand-path=""
       id="path-effect4"
       is_visible="true"
       lpeversion="1.2"
       operation="union"
       swap-operands="false"
       filltype-this="from-curve"
       filter=""
       filltype-operand="from-curve" /><filter
       id="selectable_hidder_filter"
       width="1"
       height="1"
       x="0"
       y="0"
       style="color-interpolation-filters:sRGB"
       inkscape:label="LPE boolean visibility"><feComposite
         id="boolops_hidder_primitive"
         result="composite1"
         operator="arithmetic"
         in2="SourceGraphic"
         in="BackgroundImage"
         k1="0"
         k2="0"
         k3="0"
         k4="0" /></filter><inkscape:path-effect
       effect="bool_op"
       operand-path=""
       id="path-effect3"
       is_visible="true"
       lpeversion="1"
       operation="diff"
       swap-operands="false"
       filltype-this="from-curve"
       filter=""
       filltype-operand="from-curve" /></defs><sodipodi:namedview
     id="namedview1"
     pagecolor="#505050"
     bordercolor="#ffffff"
     borderopacity="1"
     inkscape:showpageshadow="0"
     inkscape:pageopacity="0"
     inkscape:pagecheckerboard="1"
     inkscape:deskcolor="#d1d1d1"
     inkscape:zoom="6.3999997"
     inkscape:cx="15.312501"
     inkscape:cy="15.859376"
     inkscape:window-width="1920"
     inkscape:window-height="1137"
     inkscape:window-x="-8"
     inkscape:window-y="-8"
     inkscape:window-maximized="1"
     inkscape:current-layer="svg1" /><path
     id="path1"
     style="display:inline;fill:#ffffff;stroke-width:0.106666"
     inkscape:label="die"
     d="M 8.761875,0 C 3.9544048,0 0,3.9544051 0,8.761875 v 30.47625 C 0,44.045597 3.9544041,48 8.761875,48 h 30.47625 C 44.045598,48 48,44.045597 48,39.238125 V 8.761875 C 48,3.9544049 44.045597,0 39.238125,0 Z m 26.677083,11.803958 c 0.641635,-0.0177 1.27302,0.186515 1.785,0.582917 1.218526,0.94339 1.441563,2.695887 0.498125,3.914375 L 23.153125,35.117917 c -0.004,0.0039 -0.0081,0.008 -0.01208,0.01188 -0.0686,0.08872 -0.14248,0.173299 -0.22125,0.253124 -0.05608,0.04855 -0.113982,0.09482 -0.17375,0.13875 -0.06559,0.05754 -0.133889,0.111979 -0.204584,0.163125 -0.122491,0.08358 -0.251423,0.157125 -0.385624,0.22021 -0.0703,0.03764 -0.142154,0.07227 -0.215417,0.103749 -0.169002,0.06251 -0.343797,0.10867 -0.521667,0.1375 -0.04568,0.0117 -0.09149,0.02209 -0.137708,0.03146 -0.226275,0.02685 -0.455006,0.02586 -0.681042,-0.0029 -0.05959,-0.01163 -0.1188,-0.02513 -0.1775,-0.04062 -0.164118,-0.02924 -0.325384,-0.07323 -0.481667,-0.13125 -0.07585,-0.03247 -0.150243,-0.06823 -0.222916,-0.107291 -0.13119,-0.06332 -0.257161,-0.136797 -0.376875,-0.219791 -0.03457,-0.01919 -0.06878,-0.03915 -0.1025,-0.05979 -0.03562,-0.03407 -0.07019,-0.06909 -0.103959,-0.105 -0.05514,-0.04076 -0.108839,-0.08342 -0.160833,-0.128126 L 10.511042,26.92 c -1.0897294,-1.089661 -1.0897294,-2.856382 0,-3.946042 0.523282,-0.523204 1.232938,-0.817116 1.972916,-0.817083 0.739979,-3.3e-5 1.449633,0.29388 1.972917,0.817083 l 6.222917,6.222917 12.63,-16.311874 c 0.453007,-0.585128 1.119888,-0.966357 1.853958,-1.059792 0.09176,-0.01167 0.183546,-0.01872 0.275208,-0.02125 z" /></svg>
