<?xml version="1.0" encoding="UTF-8" standalone="no"?>
<svg
   aria-hidden="true"
   focusable="false"
   data-prefix="fas"
   data-icon="dice-three"
   class="svg-inline--fa fa-dice-three fa-w-14"
   role="img"
   viewBox="0 0 48 48"
   width="48"
   height="48"
   version="1.1"
   id="svg1"
   sodipodi:docname="dice-check-line.svg"
   inkscape:version="1.3 (0e150ed6c4, 2023-07-21)"
   xml:space="preserve"
   xmlns:inkscape="http://www.inkscape.org/namespaces/inkscape"
   xmlns:sodipodi="http://sodipodi.sourceforge.net/DTD/sodipodi-0.dtd"
   xmlns="http://www.w3.org/2000/svg"
   xmlns:svg="http://www.w3.org/2000/svg"><defs
     id="defs1" /><sodipodi:namedview
     id="namedview1"
     pagecolor="#505050"
     bordercolor="#ffffff"
     borderopacity="1"
     inkscape:showpageshadow="0"
     inkscape:pageopacity="0"
     inkscape:pagecheckerboard="1"
     inkscape:deskcolor="#d1d1d1"
     inkscape:zoom="12.799999"
     inkscape:cx="19.609376"
     inkscape:cy="24.101564"
     inkscape:window-width="1920"
     inkscape:window-height="1137"
     inkscape:window-x="-8"
     inkscape:window-y="-8"
     inkscape:window-maximized="1"
     inkscape:current-layer="svg1" /><path
     id="path1"
     style="fill:#ffffff;stroke-width:0.106666"
     inkscape:label="check"
     d="m 35.163724,11.825137 c -0.734071,0.09344 -1.400959,0.474647 -1.853967,1.059774 L 20.679854,29.196955 14.45691,22.974011 c -0.523284,-0.523203 -1.232971,-0.817116 -1.972951,-0.817083 -0.73998,-3.3e-5 -1.449668,0.293879 -1.972952,0.817083 -1.08973,1.089661 -1.08973,2.856423 0,3.946085 l 8.462746,8.462744 c 0.05199,0.04471 0.105619,0.08749 0.160765,0.128249 0.03376,0.03591 0.06847,0.07092 0.104088,0.104996 0.03372,0.02065 0.06788,0.04057 0.102452,0.05976 0.119716,0.083 0.245744,0.156487 0.376934,0.219803 0.07267,0.03906 0.147043,0.07488 0.22289,0.107358 0.156283,0.05802 0.317449,0.10191 0.481567,0.131155 0.0587,0.01549 0.11789,0.02906 0.177477,0.04069 0.226036,0.02877 0.454747,0.02975 0.681022,0.0029 0.04622,-0.0094 0.09219,-0.01991 0.137877,-0.03161 0.17787,-0.02883 0.352529,-0.07482 0.52153,-0.137331 0.07326,-0.03148 0.145143,-0.06609 0.215443,-0.103725 0.134201,-0.06309 0.263161,-0.136767 0.385652,-0.220348 0.07069,-0.05115 0.13895,-0.105581 0.204544,-0.163125 0.05977,-0.04393 0.117763,-0.09023 0.173843,-0.138784 0.07877,-0.07982 0.152656,-0.164327 0.221255,-0.253044 0.004,-0.0039 0.008,-0.0079 0.01199,-0.01181 L 37.722149,16.301287 c 0.943439,-1.21849 0.72043,-2.971086 -0.498097,-3.914477 -0.585121,-0.453031 -1.326243,-0.655072 -2.060328,-0.561676 z"
     sodipodi:nodetypes="ccccccccccccccccccccccccccc" /><path
     id="path1-7"
     style="fill:none;stroke:#ffffff;stroke-width:5.33332;stroke-linecap:round;stroke-linejoin:miter;stroke-dasharray:none;stroke-opacity:1;paint-order:normal"
     d="m 8.7619005,2.6666609 c -3.3666608,0 -6.0952396,2.7285787 -6.0952396,6.0952389 V 39.2381 c 0,3.366659 2.7285788,6.095239 6.0952396,6.095239 H 39.238099 c 3.36666,0 6.095239,-2.72858 6.095239,-6.095239 V 8.7618998 c 0,-3.3666602 -2.728579,-6.0952389 -6.095239,-6.0952389 z"
     inkscape:label="die" /></svg>
