<?xml version="1.0" encoding="UTF-8" standalone="no"?>
<svg
   aria-hidden="true"
   focusable="false"
   data-prefix="fas"
   data-icon="dice-three"
   class="svg-inline--fa fa-dice-three fa-w-14"
   role="img"
   viewBox="0 0 48 48"
   width="48"
   height="48"
   version="1.1"
   id="svg1"
   sodipodi:docname="dice-times-solid.svg"
   inkscape:version="1.3 (0e150ed6c4, 2023-07-21)"
   xmlns:inkscape="http://www.inkscape.org/namespaces/inkscape"
   xmlns:sodipodi="http://sodipodi.sourceforge.net/DTD/sodipodi-0.dtd"
   xmlns="http://www.w3.org/2000/svg"
   xmlns:svg="http://www.w3.org/2000/svg">
  <defs
     id="defs1" />
  <sodipodi:namedview
     id="namedview1"
     pagecolor="#505050"
     bordercolor="#ffffff"
     borderopacity="1"
     inkscape:showpageshadow="0"
     inkscape:pageopacity="0"
     inkscape:pagecheckerboard="1"
     inkscape:deskcolor="#d1d1d1"
     inkscape:zoom="9.0509668"
     inkscape:cx="20.32932"
     inkscape:cy="29.002427"
     inkscape:window-width="1920"
     inkscape:window-height="1137"
     inkscape:window-x="-8"
     inkscape:window-y="-8"
     inkscape:window-maximized="1"
     inkscape:current-layer="svg1" />
  <path
     id="path1"
     style="color:#000000;display:inline;fill:#ffffff;stroke-width:0.106667;stroke-linecap:round;-inkscape-stroke:none"
     inkscape:label="die"
     d="M 8.761875,0 C 3.9543952,0 0,3.9543955 0,8.761875 v 30.47625 C 0,44.045605 3.9543945,48 8.761875,48 h 30.47625 C 44.045606,48 48,44.045605 48,39.238125 V 8.761875 C 48,3.9543953 44.045605,0 39.238125,0 Z m 6.771458,12.866667 a 2.6666667,2.6666667 0 0 1 1.885625,0.781042 L 24,20.22875 30.581042,13.647709 a 2.6666667,2.6666667 0 0 1 1.195417,-0.690209 2.6666667,2.6666667 0 0 1 2.575832,0.690209 2.6666667,2.6666667 0 0 1 0,3.771249 L 27.77125,24 l 6.581041,6.581042 a 2.6666667,2.6666667 0 0 1 0,3.771249 2.6666667,2.6666667 0 0 1 -3.771249,0 L 24,27.77125 17.418958,34.352291 a 2.6666667,2.6666667 0 0 1 -3.771249,0 2.6666667,2.6666667 0 0 1 0,-3.771249 L 20.22875,24 13.647709,17.418958 a 2.6666667,2.6666667 0 0 1 -0.690209,-1.195417 2.6666667,2.6666667 0 0 1 0.690209,-2.575832 2.6666667,2.6666667 0 0 1 1.885624,-0.781042 z" />
</svg>
