<?xml version="1.0" encoding="UTF-8" standalone="no"?>
<!-- Created with Inkscape (http://www.inkscape.org/) -->

<svg
   width="48"
   height="48"
   viewBox="0 0 48 48"
   version="1.1"
   id="svg1"
   xml:space="preserve"
   inkscape:version="1.3.2 (091e20e, 2023-11-25, custom)"
   sodipodi:docname="dumbbell-curved-solid.svg"
   xmlns:inkscape="http://www.inkscape.org/namespaces/inkscape"
   xmlns:sodipodi="http://sodipodi.sourceforge.net/DTD/sodipodi-0.dtd"
   xmlns="http://www.w3.org/2000/svg"
   xmlns:svg="http://www.w3.org/2000/svg"><sodipodi:namedview
     id="namedview1"
     pagecolor="#505050"
     bordercolor="#eeeeee"
     borderopacity="1"
     inkscape:showpageshadow="0"
     inkscape:pageopacity="0"
     inkscape:pagecheckerboard="0"
     inkscape:deskcolor="#505050"
     inkscape:document-units="px"
     inkscape:zoom="16.000001"
     inkscape:cx="16.406249"
     inkscape:cy="26.843749"
     inkscape:window-width="2560"
     inkscape:window-height="1369"
     inkscape:window-x="-8"
     inkscape:window-y="-8"
     inkscape:window-maximized="1"
     inkscape:current-layer="layer1" /><defs
     id="defs1"><inkscape:path-effect
       effect="bend_path"
       id="path-effect9"
       is_visible="true"
       lpeversion="1"
       bendpath="M 3.9511719,24 C 24.59318,15.956481 22.560477,15.733077 44.048828,24"
       prop_scale="1"
       scale_y_rel="false"
       vertical="false"
       hide_knot="false"
       bendpath-nodetypes="cc" /></defs><g
     inkscape:label="Layer 1"
     inkscape:groupmode="layer"
     id="layer1"><rect
       style="display:none;fill:none;stroke:#000000;stroke-width:8;stroke-dasharray:none;stroke-opacity:1"
       id="rect1"
       width="48"
       height="48"
       x="0"
       y="0"
       inkscape:label="border spacer"
       sodipodi:insensitive="true" /><path
       id="rect2"
       style="fill:#ffffff;stroke-width:2.11183;stroke-linecap:round;stroke-dashoffset:7.2"
       d="M 10.755455,11.365815 C 9.3448873,11.873254 8.6390649,13.273793 9.1046066,14.496682 L 14.057391,27.5067 c 0.46644,1.225247 1.829644,1.826838 3.008854,1.402679 0.767905,-0.276214 1.286531,-0.921381 1.44946,-1.679989 0.0823,-0.401435 0.06126,-0.846594 -0.08214,-1.282895 L 14.081855,12.706027 c -0.144121,-0.438502 -0.423771,-0.794149 -0.791603,-1.047208 -0.667101,-0.481584 -1.622781,-0.621093 -2.534797,-0.293004 z m 26.182613,-0.03078 c -1.14403,-0.39942 -2.339562,-0.06739 -2.962691,0.737238 0,0 0,1e-6 0,1e-6 -0.148627,0.187947 -0.26468,0.402859 -0.341159,0.641726 l -4.246764,13.263813 c -0.07636,0.238482 -0.115471,0.478844 -0.120924,0.712457 0,0 0,10e-7 0,10e-7 -0.01758,0.997197 0.567676,1.911574 1.524911,2.24595 1.182311,0.412998 2.537545,-0.201801 2.992957,-1.431085 l 4.836019,-13.053764 c 0.454599,-1.227089 -0.266372,-2.621971 -1.682349,-3.116337 z M 6.1889618,16.128174 C 5.2345973,16.505147 4.7649752,17.527037 5.1206774,18.42233 l 3.51431,8.845426 c 0.3558844,0.895752 1.4026576,1.312965 2.3320636,0.945128 0.92676,-0.366791 1.384837,-1.37738 1.035811,-2.275056 L 8.5543032,17.068339 C 8.2049379,16.169792 7.1459212,15.750176 6.1889618,16.128174 Z m 35.3691332,-0.06677 c -0.96361,-0.372089 -2.020687,0.05614 -2.36239,0.957583 l -3.373101,8.898512 c -0.341399,0.900639 0.123713,1.906613 1.049491,2.264958 0.928186,0.359278 1.968892,-0.06541 2.319187,-0.963888 l 3.457512,-8.86821 c 0.349967,-0.897635 -0.129491,-1.917793 -1.090699,-2.288955 z M 3.3482043,22.740384 4.3583056,25.335878 C 4.9386295,25.110147 5.5172466,24.882502 6.0945931,24.65416 L 5.0698074,22.063852 c -0.5742765,0.227267 -1.1479989,0.453183 -1.7216031,0.676532 z m 13.1980707,-4.972736 0.832549,2.664989 c 2.120713,-0.658741 4.232058,-1.158623 6.31197,-1.156499 2.204588,-0.02797 4.449589,0.498976 6.705948,1.183145 l 0.816186,-2.669069 c -2.381286,-0.733997 -4.903798,-1.299619 -7.53848,-1.299184 -2.491357,0.02895 -4.874771,0.568875 -7.128173,1.276618 z m 26.177984,4.225245 -1.011053,2.595841 c 0.577884,0.225009 1.156787,0.449748 1.737095,0.673086 l 1.000919,-2.599134 c -0.575238,-0.221659 -1.150762,-0.4453 -1.726961,-0.669793 z"
       inkscape:label="dumbbell"
       inkscape:path-effect="#path-effect9"
       inkscape:original-d="m 14.216797,14.675781 c -1.30987,0 -2.365235,1.053412 -2.365235,2.363281 v 13.921876 c 0,1.309869 1.055365,2.363281 2.365235,2.363281 1.30987,0 2.363281,-1.053412 2.363281,-2.363281 V 17.039062 c 0,-1.309869 -1.053411,-2.363281 -2.363281,-2.363281 z m 19.566406,0 c -1.30987,0 -2.363281,1.053412 -2.363281,2.363281 v 13.921876 c 0,1.309869 1.053411,2.363281 2.363281,2.363281 1.30987,0 2.365235,-1.053412 2.365235,-2.363281 V 17.039062 c 0,-1.309869 -1.055365,-2.363281 -2.365235,-2.363281 z M 8.7851562,17.503906 c -0.9636201,0 -1.7402343,0.774661 -1.7402343,1.738282 v 9.515624 c 0,0.963621 0.7766142,1.738282 1.7402343,1.738282 0.9636202,0 1.7382818,-0.774661 1.7382818,-1.738282 v -9.515624 c 0,-0.963621 -0.7746616,-1.738282 -1.7382818,-1.738282 z m 30.4296878,0 c -0.96362,0 -1.738282,0.774661 -1.738282,1.738282 v 9.515624 c 0,0.963621 0.774662,1.738282 1.738282,1.738282 0.96362,0 1.740234,-0.774661 1.740234,-1.738282 v -9.515624 c 0,-0.963621 -0.776614,-1.738282 -1.740234,-1.738282 z M 3.9511719,22.607422 v 2.785156 H 5.71875 v -2.785156 z m 13.3320311,0 v 2.785156 h 13.433594 v -2.785156 z m 24.998047,0 v 2.785156 h 1.767578 v -2.785156 z"
       transform="matrix(1.1642215,0,0,1.1642215,-3.8141186,0.51782592)" /></g></svg>
