<?xml version="1.0" encoding="UTF-8" standalone="no"?>
<!-- Created with Inkscape (http://www.inkscape.org/) -->

<svg
   width="48"
   height="48"
   viewBox="0 0 48 48"
   version="1.1"
   id="svg1"
   xml:space="preserve"
   inkscape:version="1.3.2 (091e20e, 2023-11-25, custom)"
   sodipodi:docname="exhausted-solid.svg"
   xmlns:inkscape="http://www.inkscape.org/namespaces/inkscape"
   xmlns:sodipodi="http://sodipodi.sourceforge.net/DTD/sodipodi-0.dtd"
   xmlns="http://www.w3.org/2000/svg"
   xmlns:svg="http://www.w3.org/2000/svg"><sodipodi:namedview
     id="namedview1"
     pagecolor="#505050"
     bordercolor="#eeeeee"
     borderopacity="1"
     inkscape:showpageshadow="0"
     inkscape:pageopacity="0"
     inkscape:pagecheckerboard="0"
     inkscape:deskcolor="#505050"
     inkscape:document-units="px"
     inkscape:zoom="4"
     inkscape:cx="-54.5"
     inkscape:cy="91.125"
     inkscape:window-width="2560"
     inkscape:window-height="1369"
     inkscape:window-x="-8"
     inkscape:window-y="-8"
     inkscape:window-maximized="1"
     inkscape:current-layer="layer1"
     showgrid="false"><inkscape:grid
       id="grid8"
       units="px"
       originx="0"
       originy="0"
       spacingx="1"
       spacingy="1"
       empcolor="#0099e5"
       empopacity="0.30196078"
       color="#0099e5"
       opacity="0.14901961"
       empspacing="5"
       dotted="false"
       gridanglex="30"
       gridanglez="30"
       visible="false" /></sodipodi:namedview><defs
     id="defs1" /><g
     inkscape:label="Layer 1"
     inkscape:groupmode="layer"
     id="layer1"><rect
       style="display:none;fill:none;stroke:#000000;stroke-width:8;stroke-dasharray:none;stroke-opacity:1"
       id="rect1"
       width="48"
       height="48"
       x="0"
       y="0"
       inkscape:label="border spacer"
       sodipodi:insensitive="true" /><g
       id="g10"
       transform="matrix(1.3035114,0,0,1.3035114,-9.9878432,-9.591376)"
       style="stroke-width:0.767159"><path
         id="path1"
         style="fill:#ffffff;stroke-width:1.53432;stroke-linecap:round;stroke-linejoin:round;stroke-dasharray:1.53432, 3.06863"
         d="m 35.538666,22.198689 a 2.4969709,2.4969709 0 0 1 -2.496971,2.49697 2.4969709,2.4969709 0 0 1 -2.496971,-2.49697 2.4969709,2.4969709 0 0 1 2.496971,-2.496971 2.4969709,2.4969709 0 0 1 2.496971,2.496971 z" /><path
         style="color:#000000;fill:#ffffff;stroke-width:0.767159;stroke-linecap:round;stroke-linejoin:round;-inkscape-stroke:none"
         d="m 28.074219,20.207031 a 2,2 0 0 0 -1.494141,0.337891 l -6.59375,4.65625 a 2,2 0 0 0 -0.478516,2.787109 2,2 0 0 0 2.78711,0.480469 l 6.59375,-4.65625 a 2,2 0 0 0 0.478515,-2.787109 2,2 0 0 0 -1.292968,-0.81836 z"
         id="path2" /><path
         style="color:#000000;fill:#ffffff;stroke-width:0.767159;stroke-linecap:round;stroke-linejoin:round;-inkscape-stroke:none"
         d="m 28.740234,21.339844 a 1,1 0 0 0 -1,1 v 7.6875 a 1,1 0 0 0 1,1 1,1 0 0 0 1,-1 v -7.6875 a 1,1 0 0 0 -1,-1 z"
         id="path3" /><path
         style="color:#000000;fill:#ffffff;stroke-width:0.767159;stroke-linecap:round;stroke-linejoin:round;-inkscape-stroke:none"
         d="m 20.785156,26.507812 a 1,1 0 0 0 -0.191406,1.400391 l 3.740234,4.927734 0.08789,4.830079 a 1,1 0 0 0 1.017578,0.980468 1,1 0 0 0 0.982422,-1.017578 l -0.09375,-5.15625 A 1.0001,1.0001 0 0 0 26.125,31.886719 l -3.9375,-5.1875 a 1,1 0 0 0 -1.402344,-0.191407 z"
         id="path4" /><path
         id="path5"
         style="color:#000000;fill:#ffffff;stroke-width:0.767159;stroke-linecap:round;stroke-linejoin:round;-inkscape-stroke:none"
         d="m 19.734375,29.083984 v 3.646485 l -2.9375,4.083984 a 1,1 0 0 0 0.228516,1.394531 1,1 0 0 0 1.396484,-0.226562 l 3.125,-4.34375 a 1.0001,1.0001 0 0 0 0.1875,-0.583984 v -1.763672 z" /></g><g
       id="g11"
       inkscape:label="g11"
       transform="translate(1.1783415)"><path
         id="rect5"
         style="color:#000000;fill:#ffffff;stroke-width:1;stroke-linecap:round;stroke-linejoin:round;-inkscape-stroke:none"
         d="m 14.688207,3.8504434 c -0.271715,3.09e-5 -0.491977,0.2491343 -0.492004,0.5564282 v 7.6856654 c 2.7e-5,0.307294 0.220289,0.556398 0.492004,0.556429 h 15.467376 c 0.271716,-3e-5 0.491978,-0.249134 0.492005,-0.556429 V 9.975502 h 0.307523 c 0.271715,-3.16e-5 0.491976,-0.2491349 0.492003,-0.5564286 V 7.0803366 C 31.447087,6.7730431 31.226826,6.52394 30.955111,6.5239084 H 30.647588 V 4.4068716 c -2.7e-5,-0.3072944 -0.22029,-0.5563979 -0.492005,-0.5564282 z m 0.492006,1.1128565 H 29.66358 V 11.536109 H 15.180213 Z"
         inkscape:label="battery"
         sodipodi:nodetypes="cccccccccccccccccccc" /><path
         d="m 17.325267,6.5773456 c -0.138962,-3.949e-4 -0.251702,0.1271052 -0.251354,0.284263 v 2.7761911 c -3.48e-4,0.1571582 0.112391,0.2846594 0.251354,0.2842645 h 1.149035 c 0.138962,3.941e-4 0.2517,-0.1271071 0.251352,-0.2842645 V 6.8616086 c 3.48e-4,-0.1571571 -0.112391,-0.2846568 -0.251352,-0.284263 z"
         style="color:#000000;fill:#ffffff;stroke-width:1;stroke-linecap:round;stroke-linejoin:round;-inkscape-stroke:none"
         id="path1-3" /></g></g></svg>
