<?xml version="1.0" encoding="UTF-8" standalone="no"?>
<!-- Created with Inkscape (http://www.inkscape.org/) -->

<svg
   width="48"
   height="48"
   viewBox="0 0 48 48"
   version="1.1"
   id="svg1"
   xml:space="preserve"
   inkscape:version="1.3.2 (091e20e, 2023-11-25, custom)"
   sodipodi:docname="experience-points-solid.svg"
   xmlns:inkscape="http://www.inkscape.org/namespaces/inkscape"
   xmlns:sodipodi="http://sodipodi.sourceforge.net/DTD/sodipodi-0.dtd"
   xmlns="http://www.w3.org/2000/svg"
   xmlns:svg="http://www.w3.org/2000/svg"><sodipodi:namedview
     id="namedview1"
     pagecolor="#505050"
     bordercolor="#eeeeee"
     borderopacity="1"
     inkscape:showpageshadow="0"
     inkscape:pageopacity="0"
     inkscape:pagecheckerboard="0"
     inkscape:deskcolor="#505050"
     inkscape:document-units="px"
     inkscape:zoom="11.313708"
     inkscape:cx="12.551146"
     inkscape:cy="22.671612"
     inkscape:window-width="2560"
     inkscape:window-height="1369"
     inkscape:window-x="-8"
     inkscape:window-y="-8"
     inkscape:window-maximized="1"
     inkscape:current-layer="layer1" /><defs
     id="defs1"><inkscape:path-effect
       effect="powerclip"
       id="path-effect7"
       is_visible="true"
       lpeversion="1"
       inverse="true"
       flatten="false"
       hide_clip="false"
       message="Use fill-rule evenodd on &lt;b&gt;fill and stroke&lt;/b&gt; dialog if no flatten result after convert clip to paths." /><inkscape:path-effect
       effect="powerclip"
       id="path-effect5"
       is_visible="true"
       lpeversion="1"
       inverse="true"
       flatten="false"
       hide_clip="false"
       message="Use fill-rule evenodd on &lt;b&gt;fill and stroke&lt;/b&gt; dialog if no flatten result after convert clip to paths." /><inkscape:path-effect
       effect="powerclip"
       id="path-effect2"
       is_visible="true"
       lpeversion="1"
       inverse="true"
       flatten="false"
       hide_clip="false"
       message="Use fill-rule evenodd on &lt;b&gt;fill and stroke&lt;/b&gt; dialog if no flatten result after convert clip to paths." /><inkscape:path-effect
       effect="powerclip"
       id="path-effect19"
       is_visible="true"
       lpeversion="1"
       inverse="true"
       flatten="false"
       hide_clip="false"
       message="Use fill-rule evenodd on &lt;b&gt;fill and stroke&lt;/b&gt; dialog if no flatten result after convert clip to paths." /><clipPath
       clipPathUnits="userSpaceOnUse"
       id="clipPath19"><path
         style="color:#000000;display:block;fill:#808080;-inkscape-stroke:none"
         d="m 30.435363,5.7221535 c -1.093451,0.035117 -1.762593,0.376236 -2.165832,0.9419134 -0.403239,0.5656774 -0.840751,1.2707798 -0.923368,2.1210938 -0.04903,6.9253703 -0.01872,13.8561763 -0.01958,20.7832023 l 1.550321,-1.3125 C 29.600298,27.516918 30.435996,26.87624 31.457031,26.375 l 0.208985,-0.103516 0.113281,-0.201172 c 0.386293,-0.68153 1.013604,-1.232303 1.435815,-1.691406 l 0.197265,-0.216797 c -0.06112,-4.87868 0.07462,-9.761904 -0.10937,-14.6386715 C 33.253216,8.4996641 33.219928,7.9859693 33.07058,7.5410156 32.718437,6.491671 31.528814,5.6870365 30.435363,5.7221535 Z"
         id="path19"
         sodipodi:nodetypes="csccccccccccc" /></clipPath><clipPath
       clipPathUnits="userSpaceOnUse"
       id="clipPath5"><path
         style="color:#000000;display:block;fill:#808080;stroke-width:1.20527;stroke-linejoin:round;-inkscape-stroke:none"
         d="m 30.977339,7.8052638 c 0,4.7068902 -3.81569,8.5225792 -8.522579,8.5225792 -4.706891,0 -8.522579,-3.815689 -8.522579,-8.5225792 0,-11.1440561 17.045158,-11.144058 17.045158,0 z"
         id="path5"
         clip-path="none"
         sodipodi:nodetypes="ssss" /></clipPath></defs><g
     inkscape:label="Layer 1"
     inkscape:groupmode="layer"
     id="layer1"><rect
       style="display:none;fill:none;stroke:#000000;stroke-width:8;stroke-dasharray:none;stroke-opacity:1"
       id="rect1"
       width="48"
       height="48"
       x="0"
       y="0"
       inkscape:label="border spacer"
       sodipodi:insensitive="true" /><g
       id="g1"
       inkscape:label="light bulb"
       transform="matrix(1.0992431,0,0,1.0992431,-2.3818344,-3.3006477)"
       style="stroke-width:0.909717"><path
         id="path1"
         style="fill:#ffffff;stroke-width:0.909717"
         d="M 24,5.8125 A 10.6875,10.6875 0 0 0 13.3125,16.5 a 10.6875,10.6875 0 0 0 0.09375,1.3125 l -0.01367,-0.0039 c 0.0084,0.0722 0.01991,0.141672 0.0293,0.21289 0.693076,5.256258 4.175406,7.857508 5.013672,11.800782 l 2.341797,-0.515625 a 0.75,0.75 0 0 1 -0.0332,-0.08203 l -2.5625,-13.082031 a 0.75,0.75 0 0 1 0.591797,-0.880859 0.75,0.75 0 0 1 0.880859,0.591797 l 2.5625,13.082031 a 0.75,0.75 0 0 1 0.0078,0.05273 l 3.707032,-0.814453 2.414062,-12.320312 a 0.75,0.75 0 0 1 0.587891,-0.591797 0.75,0.75 0 0 1 0.292968,0 0.75,0.75 0 0 1 0.591797,0.880859 L 27.53125,27.822266 30.556641,27.15625 c 1.364309,-2.680197 3.495017,-5.142065 4.021484,-9.134766 0.0094,-0.07122 0.02095,-0.140686 0.0293,-0.21289 l -0.01367,0.0039 A 10.6875,10.6875 0 0 0 34.6875,16.5 10.6875,10.6875 0 0 0 24,5.8125 Z m 2.042969,7.119141 a 0.50005,0.50005 0 0 1 0.503906,0.265625 L 27.943359,15.875 a 0.5,0.5 0 0 1 -0.210937,0.673828 0.5,0.5 0 0 1 -0.673828,-0.210937 l -0.783203,-1.5 -0.681641,2.814453 a 0.50005,0.50005 0 0 1 -0.929688,0.115234 l -1.455078,-2.783203 -0.710937,2.9375 a 0.50005,0.50005 0 0 1 -0.857422,0.21875 l -1.355469,-1.498047 a 0.5,0.5 0 0 1 0.03516,-0.707031 0.5,0.5 0 0 1 0.707032,0.03516 l 0.720703,0.796875 0.802734,-3.3125 a 0.50005,0.50005 0 0 1 0.929688,-0.113281 l 1.455078,2.783203 0.681641,-2.814453 a 0.50005,0.50005 0 0 1 0.425781,-0.378906 z" /><path
         style="fill:none;stroke:#ffffff;stroke-width:2.27429;stroke-linecap:round;stroke-dasharray:none;stroke-opacity:1"
         d="m 18.3125,33.310393 11.375,-2.5"
         id="path3" /><path
         style="fill:none;stroke:#ffffff;stroke-width:2.27429;stroke-linecap:round;stroke-dasharray:none;stroke-opacity:1"
         d="m 18.3125,38.091643 11.375,-2.5"
         id="path4" /><path
         id="path8"
         style="fill:#ffffff;stroke-width:4.54858;stroke-linecap:round"
         d="m 28.853516,39.273283 -9.13086,2.007812 C 20.56429,42.86314 22.208022,43.853882 24,43.85922 c 2.577845,-1.8e-5 4.707467,-2.012232 4.853516,-4.585937 z"
         sodipodi:nodetypes="cccc" /></g></g></svg>
