<?xml version="1.0" encoding="UTF-8" standalone="no"?>
<!-- Created with Inkscape (http://www.inkscape.org/) -->

<svg
   width="10"
   height="10"
   viewBox="0 0 2.6458332 2.6458333"
   version="1.1"
   id="svg1"
   inkscape:version="1.3.2 (091e20e, 2023-11-25, custom)"
   sodipodi:docname="floppy-dark.svg"
   xml:space="preserve"
   xmlns:inkscape="http://www.inkscape.org/namespaces/inkscape"
   xmlns:sodipodi="http://sodipodi.sourceforge.net/DTD/sodipodi-0.dtd"
   xmlns="http://www.w3.org/2000/svg"
   xmlns:svg="http://www.w3.org/2000/svg"><sodipodi:namedview
     id="namedview1"
     pagecolor="#ffffff"
     bordercolor="#000000"
     borderopacity="0.25"
     inkscape:showpageshadow="2"
     inkscape:pageopacity="0.0"
     inkscape:pagecheckerboard="true"
     inkscape:deskcolor="#d1d1d1"
     inkscape:document-units="mm"
     inkscape:zoom="22.627417"
     inkscape:cx="7.6897862"
     inkscape:cy="9.9657862"
     inkscape:window-width="2560"
     inkscape:window-height="1369"
     inkscape:window-x="-8"
     inkscape:window-y="-8"
     inkscape:window-maximized="1"
     inkscape:current-layer="layer1"
     showguides="false"
     showgrid="false"><inkscape:grid
       id="grid130"
       units="mm"
       originx="-739.82251"
       originy="-384.03156"
       spacingx="0.99999998"
       spacingy="1"
       empcolor="#0099e5"
       empopacity="0.30196078"
       color="#0099e5"
       opacity="0.14901961"
       empspacing="5"
       dotted="false"
       gridanglex="30"
       gridanglez="30"
       visible="false" /></sodipodi:namedview><defs
     id="defs1" /><g
     inkscape:label="Layer 1"
     inkscape:groupmode="layer"
     id="layer1"
     transform="translate(-739.82252,-384.03155)"><path
       id="path70"
       style="color:#000000;fill:#232323;fill-opacity:1;stroke-width:1;stroke-linejoin:round;-inkscape-stroke:none"
       d="m 739.88277,384.0316 c -0.0334,-8e-5 -0.0604,0.0254 -0.0602,0.057 v 2.53179 c -8e-5,0.0316 0.0269,0.0571 0.0602,0.057 h 2.52533 c 0.0334,9e-5 0.0604,-0.0254 0.0602,-0.057 v -2.24286 c 7e-5,-0.0151 -0.006,-0.0295 -0.0173,-0.0403 l -0.30975,-0.28928 c -0.0111,-0.0105 -0.0261,-0.0162 -0.0419,-0.0164 z m 0.54911,0.15165 h 1.43649 v 0.8166 h -1.43649 z m 0.7697,0.10143 v 0.63423 h 0.49025 v -0.63423 z m -0.78378,1.25274 h 1.45564 c 0.0334,-7e-5 0.0603,0.0257 0.0602,0.0573 v 0.81525 c 7e-5,0.0316 -0.0269,0.0571 -0.0602,0.057 h -1.45564 c -0.0334,8e-5 -0.0604,-0.0255 -0.0603,-0.057 v -0.81525 c -8e-5,-0.0316 0.0269,-0.0575 0.0603,-0.0573 z"
       sodipodi:nodetypes="cccccccccccccccccccccccccccccc"
       inkscape:export-filename="floppy-14x15-light.svg"
       inkscape:export-xdpi="96"
       inkscape:export-ydpi="96" /></g></svg>
