<?xml version="1.0" encoding="UTF-8" standalone="no"?>
<!-- Created with Inkscape (http://www.inkscape.org/) -->

<svg
   width="48"
   height="48"
   viewBox="0 0 12.7 12.7"
   version="1.1"
   id="svg1"
   xml:space="preserve"
   inkscape:version="1.3 (0e150ed6c4, 2023-07-21)"
   sodipodi:docname="halberd-solid.svg"
   xmlns:inkscape="http://www.inkscape.org/namespaces/inkscape"
   xmlns:sodipodi="http://sodipodi.sourceforge.net/DTD/sodipodi-0.dtd"
   xmlns="http://www.w3.org/2000/svg"
   xmlns:svg="http://www.w3.org/2000/svg"><sodipodi:namedview
     id="namedview1"
     pagecolor="#505050"
     bordercolor="#eeeeee"
     borderopacity="1"
     inkscape:showpageshadow="0"
     inkscape:pageopacity="0"
     inkscape:pagecheckerboard="0"
     inkscape:deskcolor="#505050"
     inkscape:document-units="mm"
     inkscape:zoom="8"
     inkscape:cx="14.4375"
     inkscape:cy="29.8125"
     inkscape:window-width="1920"
     inkscape:window-height="1017"
     inkscape:window-x="1912"
     inkscape:window-y="-8"
     inkscape:window-maximized="1"
     inkscape:current-layer="layer1" /><defs
     id="defs1" /><g
     inkscape:label="Layer 1"
     inkscape:groupmode="layer"
     id="layer1"><path
       id="path2"
       style="fill:#ffffff;fill-opacity:1;stroke:none;stroke-width:0.0759308;stroke-linecap:round;stroke-linejoin:round"
       d="M 5.0541487,1.4969111 C 5.4204921,1.9035675 5.6058693,2.1705236 5.2754522,2.8283957 5.3961505,2.7314167 5.5132045,2.6237258 5.6187435,2.481268 5.6570645,2.537712 5.6984285,2.580229 5.7618321,2.521289 5.6884281,2.502231 5.6856411,2.445944 5.7083801,2.3762818 c 0.077859,-0.1985427 0.2507339,-0.058881 0.2193856,0.066792 0.038016,-0.00746 0.078183,-0.045122 0.1139652,-0.021273 l -0.042463,0.871002 V 12.854317 H 6.3148305 V 3.4142665 L 6.2854433,2.4194458 c 0.03667,-0.026629 0.075269,-0.06243 0.099578,-0.030345 0.016804,-0.3562448 0.5616953,-0.105707 0.7796198,-0.0647 C 7.1134601,2.2560775 7.0184044,2.0712786 6.4686422,1.8388061 6.4655406,1.8007772 6.4951992,1.7596674 6.4227781,1.7282414 6.453284,1.8789705 6.2435996,1.8035633 6.3633973,1.7120225 6.3092698,1.6996762 6.283249,1.6428415 6.2606808,1.5805309 L 6.193452,-0.69424137 6.0785276,1.6657217 c -0.021201,0.018065 -0.051619,0.025712 -0.082051,0.033396 0.032588,0.062154 -0.00692,0.1705509 -0.1602662,0.011509 0.048445,0.1372437 -0.1722687,0.2140813 -0.2213042,0.04386 -0.013037,-0.054093 -0.011797,-0.102081 0.045781,-0.1259112 L 5.5215216,1.6915312 C 5.3657393,1.5992731 5.2099288,1.5498242 5.0541487,1.4969111 Z"
       sodipodi:nodetypes="cccccccccccccccccccccccccc"
       inkscape:label="halberd" /></g></svg>
