<?xml version="1.0" encoding="UTF-8" standalone="no"?>
<!-- Created with Inkscape (http://www.inkscape.org/) -->

<svg
   width="48"
   height="48"
   viewBox="0 0 48 48"
   version="1.1"
   id="svg1"
   xml:space="preserve"
   inkscape:version="1.3.2 (091e20e, 2023-11-25, custom)"
   sodipodi:docname="heart-limit-solid.svg"
   xmlns:inkscape="http://www.inkscape.org/namespaces/inkscape"
   xmlns:sodipodi="http://sodipodi.sourceforge.net/DTD/sodipodi-0.dtd"
   xmlns="http://www.w3.org/2000/svg"
   xmlns:svg="http://www.w3.org/2000/svg"><sodipodi:namedview
     id="namedview1"
     pagecolor="#505050"
     bordercolor="#eeeeee"
     borderopacity="1"
     inkscape:showpageshadow="0"
     inkscape:pageopacity="0"
     inkscape:pagecheckerboard="0"
     inkscape:deskcolor="#505050"
     inkscape:document-units="px"
     inkscape:zoom="22.627417"
     inkscape:cx="25.367456"
     inkscape:cy="24.859223"
     inkscape:window-width="2560"
     inkscape:window-height="1369"
     inkscape:window-x="-8"
     inkscape:window-y="-8"
     inkscape:window-maximized="1"
     inkscape:current-layer="layer1" /><defs
     id="defs1" /><g
     inkscape:label="Layer 1"
     inkscape:groupmode="layer"
     id="layer1"><rect
       style="display:none;fill:none;stroke:#000000;stroke-width:8;stroke-dasharray:none;stroke-opacity:1"
       id="rect1"
       width="48"
       height="48"
       x="0.36878461"
       y="-0.65124035"
       inkscape:label="border spacer"
       sodipodi:insensitive="true" /><path
       id="path1"
       style="display:inline;fill:#ffffff;stroke-width:3.06745"
       d="m 18.023868,17.106514 c -2.117176,-0.0077 -4.409901,0.384008 -6.116917,3.337047 -2.1915831,3.79132 0.707071,8.817506 2.785863,11.490942 2.744963,3.530158 6.090032,6.38952 9.304187,8.405519 0.0023,0.0014 0.0037,0.0045 0.006,0.006 9.03e-4,-5.68e-4 -9.03e-4,-0.0054 0,-0.006 3.214156,-2.015999 6.559224,-4.875361 9.304186,-8.405519 2.07879,-2.673436 4.977444,-7.699622 2.785864,-11.490942 -1.707015,-2.953039 -3.999741,-3.344718 -6.11692,-3.337047 -2.890267,0.01069 -5.489639,2.924053 -5.97912,3.792097 -0.493178,-0.868992 -3.085731,-3.781412 -5.973134,-3.792097 z"
       sodipodi:nodetypes="scscccssccss" /><path
       style="fill:none;fill-opacity:1;fill-rule:nonzero;stroke:#ffffff;stroke-width:3.18198;stroke-linecap:round;stroke-linejoin:round;stroke-dasharray:3.18198, 6.36396;stroke-dashoffset:0;stroke-opacity:1"
       d="M 6.6187846,11.529216 H 31.017222"
       id="path15" /><path
       style="fill:#ffffff;fill-opacity:1;fill-rule:nonzero;stroke:#ffffff;stroke-width:3;stroke-linecap:round;stroke-linejoin:round;stroke-dasharray:none;stroke-dashoffset:0;stroke-opacity:1"
       d="m 41.431285,16.747966 v -10.4375 l -6.8125,5.21875 z"
       id="path16"
       sodipodi:nodetypes="cccc" /></g></svg>
