<?xml version="1.0" encoding="UTF-8" standalone="no"?>
<!-- Created with Inkscape (http://www.inkscape.org/) -->

<svg
   width="48"
   height="48"
   viewBox="0 0 48 48"
   version="1.1"
   id="svg1"
   xml:space="preserve"
   inkscape:version="1.3.2 (091e20e, 2023-11-25, custom)"
   sodipodi:docname="jealous-solid.svg"
   xmlns:inkscape="http://www.inkscape.org/namespaces/inkscape"
   xmlns:sodipodi="http://sodipodi.sourceforge.net/DTD/sodipodi-0.dtd"
   xmlns="http://www.w3.org/2000/svg"
   xmlns:svg="http://www.w3.org/2000/svg"><sodipodi:namedview
     id="namedview1"
     pagecolor="#505050"
     bordercolor="#eeeeee"
     borderopacity="1"
     inkscape:showpageshadow="0"
     inkscape:pageopacity="0"
     inkscape:pagecheckerboard="0"
     inkscape:deskcolor="#505050"
     inkscape:document-units="px"
     inkscape:zoom="1"
     inkscape:cx="-226"
     inkscape:cy="-37.5"
     inkscape:window-width="2560"
     inkscape:window-height="1369"
     inkscape:window-x="-8"
     inkscape:window-y="-8"
     inkscape:window-maximized="1"
     inkscape:current-layer="layer1" /><defs
     id="defs1" /><g
     inkscape:label="Layer 1"
     inkscape:groupmode="layer"
     id="layer1"><rect
       style="display:none;fill:none;stroke:#000000;stroke-width:8;stroke-dasharray:none;stroke-opacity:1"
       id="rect1"
       width="48"
       height="48"
       x="0"
       y="0"
       inkscape:label="border spacer"
       sodipodi:insensitive="true" /><path
       id="ellipse18"
       style="fill:#ffffff;stroke:#ffffff;stroke-width:0.75;stroke-linecap:round;stroke-linejoin:round;stroke-dashoffset:0.6"
       d="m 19.647488,17.836028 a 3.2140359,4.6000902 26.18867 0 0 0.543901,5.705402 3.2140359,4.6000902 26.18867 0 0 4.958152,-2.356056 3.2140359,4.6000902 26.18867 0 0 -0.5439,-5.705402 3.2140359,4.6000902 26.18867 0 0 -4.958153,2.356056 z" /><path
       id="path34"
       style="color:#000000;fill:#ffffff;stroke-linecap:round;stroke-linejoin:round;stroke-dashoffset:0.6;-inkscape-stroke:none"
       d="M 21.665434 -2.2702626 C 20.371405 -1.4831851 19.219287 -0.3545079 18.269122 1.0147557 C 16.368794 3.753283 15.22616 7.4743085 15.22616 11.569742 C 15.22616 15.665174 16.370172 19.386678 18.2705 22.125206 C 20.170829 24.863733 22.877715 26.642748 25.914201 26.642748 C 28.950688 26.642748 31.658026 24.862633 33.558355 22.124106 C 34.129162 21.301526 34.630095 20.390541 35.053747 19.40719 L 33.641264 18.879648 C 33.261827 19.750349 32.820501 20.554918 32.323884 21.270584 C 30.627397 23.715358 28.36531 25.1403 25.913242 25.1403 C 23.461175 25.1403 21.200641 23.713886 19.504154 21.269112 C 17.807669 18.824339 16.726765 15.384769 16.726764 11.570753 C 16.726765 7.7567353 17.806332 4.3157376 19.502817 1.8709643 C 21.199304 -0.573809 23.463108 -1.9997679 25.915174 -1.999768 C 28.367242 -1.9997682 30.627776 -0.5733541 32.324262 1.8714192 C 34.020747 4.3161925 35.101652 7.7557607 35.101652 11.569779 C 35.101653 11.900336 35.091199 12.227268 35.075264 12.551808 L 36.555167 12.98371 C 36.585523 12.51811 36.602257 12.047502 36.602257 11.57079 C 36.602257 7.4753561 35.458244 3.7538532 33.557916 1.0153259 C 31.657587 -1.7232014 28.950702 -3.5022167 25.914215 -3.5022164 C 24.395972 -3.5022163 22.959463 -3.0573401 21.665434 -2.2702626 z "
       transform="matrix(0.85414638,0.52003265,-0.48023115,0.87714197,0,0)" /><path
       style="fill:none;fill-opacity:1;stroke:#ffffff;stroke-width:2;stroke-linecap:round;stroke-linejoin:round;stroke-dasharray:2, 4;stroke-dashoffset:0"
       d="m 31.71875,20.75 13.820083,1.517925"
       id="path37"
       sodipodi:nodetypes="cc" /><path
       style="fill:#ffffff;fill-opacity:1;stroke:none;stroke-width:0.999997;stroke-linecap:round;stroke-linejoin:round;stroke-dasharray:none;stroke-dashoffset:0"
       d="m 24.096283,31.705945 c -5.000518,-8.104274 -8.592773,-7.020548 -11.901051,0.487526 3.380671,-2.76865 7.181633,-2.779651 9.818414,1.854987 0.805712,-0.802428 1.48071,-1.540393 2.082637,-2.342513 z"
       id="path38"
       sodipodi:nodetypes="cccc" /><g
       id="g46"
       transform="matrix(1.4706999,0.39407283,-0.39407283,1.4706999,-6.3097818,-28.482215)"
       style="stroke-width:0.656779"><path
         style="fill:#ffffff;fill-opacity:1;stroke:none;stroke-width:1.31356;stroke-linecap:round;stroke-linejoin:round;stroke-dasharray:1.31356, 2.62712;stroke-dashoffset:0"
         d="m 35.915201,37.808115 -2.25391,-2.298097 3.204082,-3.579728 1.370019,-3.557631 2.519068,-1.834058 c 0.460379,0.479002 0.126395,0.908356 -0.04419,1.347922 l -1.325826,1.237437 -1.082757,4.574097 c -0.136784,1.114939 0.335754,1.698673 1.347922,1.811961 l 2.010835,-0.309359 c 0.176003,0.0785 0.354979,0.152542 0.287263,0.596622 l -1.149049,1.06066 z"
         id="path44"
         sodipodi:nodetypes="ccccccccccccc" /><path
         style="fill:#ffffff;fill-opacity:1;stroke:none;stroke-width:1.31356;stroke-linecap:round;stroke-linejoin:round;stroke-dasharray:1.31356, 2.62712;stroke-dashoffset:0"
         d="m 39.981062,29.897358 1.690427,-0.795495 c 0.0887,0.282236 -0.06587,0.653674 -0.287262,1.049612 l -1.502602,1.06066 z"
         id="path45"
         sodipodi:nodetypes="ccccc" /><path
         style="fill:#ffffff;fill-opacity:1;stroke:none;stroke-width:1.31356;stroke-linecap:round;stroke-linejoin:round;stroke-dasharray:1.31356, 2.62712;stroke-dashoffset:0"
         d="m 39.859528,31.665125 1.381068,0.430893 c -0.157328,0.263896 -0.428214,0.262823 -0.673961,0.320408 l -0.939127,-0.198874 z"
         id="path46"
         sodipodi:nodetypes="ccccc" /></g></g></svg>
