<?xml version="1.0" encoding="UTF-8" standalone="no"?>
<svg
   aria-hidden="true"
   focusable="false"
   data-prefix="fas"
   data-icon="dice-three"
   class="svg-inline--fa fa-dice-three fa-w-14"
   role="img"
   viewBox="0 0 48 48"
   width="48"
   height="48"
   version="1.1"
   id="svg1"
   sodipodi:docname="list-hierarchical-solid.svg"
   inkscape:version="1.3.2 (091e20e, 2023-11-25, custom)"
   xml:space="preserve"
   xmlns:inkscape="http://www.inkscape.org/namespaces/inkscape"
   xmlns:sodipodi="http://sodipodi.sourceforge.net/DTD/sodipodi-0.dtd"
   xmlns="http://www.w3.org/2000/svg"
   xmlns:svg="http://www.w3.org/2000/svg"><defs
     id="defs1"><inkscape:path-effect
       effect="bool_op"
       operand-path=""
       id="path-effect4"
       is_visible="true"
       lpeversion="1.2"
       operation="union"
       swap-operands="false"
       filltype-this="from-curve"
       filter=""
       filltype-operand="from-curve" /><filter
       id="selectable_hidder_filter"
       width="1"
       height="1"
       x="0"
       y="0"
       style="color-interpolation-filters:sRGB"
       inkscape:label="LPE boolean visibility"><feComposite
         id="boolops_hidder_primitive"
         result="composite1"
         operator="arithmetic"
         in2="SourceGraphic"
         in="BackgroundImage"
         k1="0"
         k2="0"
         k3="0"
         k4="0" /></filter><inkscape:path-effect
       effect="bool_op"
       operand-path=""
       id="path-effect3"
       is_visible="true"
       lpeversion="1"
       operation="diff"
       swap-operands="false"
       filltype-this="from-curve"
       filter=""
       filltype-operand="from-curve" /></defs><sodipodi:namedview
     id="namedview1"
     pagecolor="#505050"
     bordercolor="#ffffff"
     borderopacity="1"
     inkscape:showpageshadow="0"
     inkscape:pageopacity="0"
     inkscape:pagecheckerboard="1"
     inkscape:deskcolor="#d1d1d1"
     inkscape:zoom="16.000001"
     inkscape:cx="11.968749"
     inkscape:cy="27.343749"
     inkscape:window-width="2560"
     inkscape:window-height="1369"
     inkscape:window-x="-8"
     inkscape:window-y="-8"
     inkscape:window-maximized="1"
     inkscape:current-layer="svg1" /><rect
     style="display:none;fill:none;stroke:#000000;stroke-width:8;stroke-dasharray:none;stroke-opacity:1"
     id="rect1-4"
     width="48"
     height="48"
     x="0"
     y="0"
     inkscape:label="border spacer"
     sodipodi:insensitive="true" /><path
     id="path3"
     style="display:inline;fill:#ffffff;stroke-width:0.0138647"
     inkscape:label="die"
     d="m 16.721491,35.285144 c -0.624887,0 -1.138871,0.513983 -1.138871,1.138871 v 3.96142 c 0,0.624888 0.513984,1.138871 1.138871,1.138871 h 3.961421 c 0.624887,0 1.138872,-0.513983 1.138872,-1.138871 v -3.96142 c 0,-0.624888 -0.513985,-1.138871 -1.138872,-1.138871 z"
     sodipodi:nodetypes="sssssssss" /><path
     id="path6"
     style="display:inline;fill:#ffffff;stroke-width:0.0138647"
     inkscape:label="die"
     d="m 28.057837,35.285144 c -0.624888,0 -1.138871,0.513983 -1.138871,1.138871 v 3.96142 c 0,0.624888 0.513983,1.138871 1.138871,1.138871 h 12.338017 c 0.624887,0 1.138872,-0.513983 1.138872,-1.138871 v -3.96142 c 0,-0.624888 -0.513985,-1.138871 -1.138872,-1.138871 z"
     sodipodi:nodetypes="sssssssss" /><path
     id="path7"
     style="display:inline;fill:#ffffff;stroke-width:0.0138647"
     inkscape:label="die"
     d="m 7.6305082,6.4795586 c -0.624887,0 -1.138871,0.5139836 -1.138871,1.138871 V 11.57985 c 0,0.624888 0.513984,1.138871 1.138871,1.138871 H 11.59193 c 0.624887,0 1.138871,-0.513983 1.138871,-1.138871 V 7.6184296 c 0,-0.6248874 -0.513984,-1.138871 -1.138871,-1.138871 z" /><path
     id="path8"
     style="display:inline;fill:#ffffff;stroke-width:0.0138647"
     inkscape:label="die"
     d="m 19.240679,6.4795586 c -0.624887,0 -1.138871,0.5139836 -1.138871,1.138871 V 11.57985 c 0,0.624888 0.513984,1.138871 1.138871,1.138871 h 21.155175 c 0.624887,0 1.138872,-0.513983 1.138872,-1.138871 V 7.6184296 c 0,-0.6248874 -0.513985,-1.138871 -1.138872,-1.138871 z"
     sodipodi:nodetypes="sssssssss" /><path
     id="path9"
     style="display:inline;fill:#ffffff;stroke-width:0.0138647"
     inkscape:label="die"
     d="m 16.721491,16.08142 c -0.624887,0 -1.138871,0.513984 -1.138871,1.138871 v 3.961421 c 0,0.624888 0.513984,1.138871 1.138871,1.138871 h 3.961421 c 0.624887,0 1.138872,-0.513983 1.138872,-1.138871 v -3.961421 c 0,-0.624887 -0.513985,-1.138871 -1.138872,-1.138871 z"
     sodipodi:nodetypes="sssssssss" /><path
     id="path10"
     style="display:inline;fill:#ffffff;stroke-width:0.0138647"
     inkscape:label="die"
     d="m 28.057837,16.08142 c -0.624888,0 -1.138871,0.513984 -1.138871,1.138871 v 3.961421 c 0,0.624888 0.513983,1.138871 1.138871,1.138871 h 12.338017 c 0.624887,0 1.138872,-0.513983 1.138872,-1.138871 v -3.961421 c 0,-0.624887 -0.513985,-1.138871 -1.138872,-1.138871 z"
     sodipodi:nodetypes="sssssssss" /><path
     id="path11"
     style="display:inline;fill:#ffffff;stroke-width:0.0138647"
     inkscape:label="die"
     d="m 16.721491,25.683282 c -0.624887,0 -1.138871,0.513983 -1.138871,1.138871 v 3.961421 c 0,0.624887 0.513984,1.138871 1.138871,1.138871 h 3.961421 c 0.624887,0 1.138872,-0.513984 1.138872,-1.138871 v -3.961421 c 0,-0.624888 -0.513985,-1.138871 -1.138872,-1.138871 z"
     sodipodi:nodetypes="sssssssss" /><path
     id="path12"
     style="display:inline;fill:#ffffff;stroke-width:0.0138647"
     inkscape:label="die"
     d="m 28.057837,25.683282 c -0.624888,0 -1.138871,0.513983 -1.138871,1.138871 v 3.961421 c 0,0.624887 0.513983,1.138871 1.138871,1.138871 h 12.338017 c 0.624887,0 1.138872,-0.513984 1.138872,-1.138871 v -3.961421 c 0,-0.624888 -0.513985,-1.138871 -1.138872,-1.138871 z"
     sodipodi:nodetypes="sssssssss" /></svg>
