<?xml version="1.0" encoding="UTF-8" standalone="no"?>
<svg
   aria-hidden="true"
   focusable="false"
   data-prefix="fas"
   data-icon="dice-three"
   class="svg-inline--fa fa-dice-three fa-w-14"
   role="img"
   viewBox="0 0 48 48"
   width="48"
   height="48"
   version="1.1"
   id="svg1"
   sodipodi:docname="list-flat-solid.svg"
   inkscape:version="1.3.2 (091e20e, 2023-11-25, custom)"
   xml:space="preserve"
   xmlns:inkscape="http://www.inkscape.org/namespaces/inkscape"
   xmlns:sodipodi="http://sodipodi.sourceforge.net/DTD/sodipodi-0.dtd"
   xmlns="http://www.w3.org/2000/svg"
   xmlns:svg="http://www.w3.org/2000/svg"><defs
     id="defs1"><inkscape:path-effect
       effect="bool_op"
       operand-path=""
       id="path-effect4"
       is_visible="true"
       lpeversion="1.2"
       operation="union"
       swap-operands="false"
       filltype-this="from-curve"
       filter=""
       filltype-operand="from-curve" /><filter
       id="selectable_hidder_filter"
       width="1"
       height="1"
       x="0"
       y="0"
       style="color-interpolation-filters:sRGB"
       inkscape:label="LPE boolean visibility"><feComposite
         id="boolops_hidder_primitive"
         result="composite1"
         operator="arithmetic"
         in2="SourceGraphic"
         in="BackgroundImage"
         k1="0"
         k2="0"
         k3="0"
         k4="0" /></filter><inkscape:path-effect
       effect="bool_op"
       operand-path=""
       id="path-effect3"
       is_visible="true"
       lpeversion="1"
       operation="diff"
       swap-operands="false"
       filltype-this="from-curve"
       filter=""
       filltype-operand="from-curve" /></defs><sodipodi:namedview
     id="namedview1"
     pagecolor="#505050"
     bordercolor="#ffffff"
     borderopacity="1"
     inkscape:showpageshadow="0"
     inkscape:pageopacity="0"
     inkscape:pagecheckerboard="1"
     inkscape:deskcolor="#d1d1d1"
     inkscape:zoom="16"
     inkscape:cx="15.03125"
     inkscape:cy="25.90625"
     inkscape:window-width="2560"
     inkscape:window-height="1369"
     inkscape:window-x="-8"
     inkscape:window-y="-8"
     inkscape:window-maximized="1"
     inkscape:current-layer="svg1" /><rect
     style="display:none;fill:none;stroke:#000000;stroke-width:8;stroke-dasharray:none;stroke-opacity:1"
     id="rect1-4"
     width="48"
     height="48"
     x="0"
     y="0"
     inkscape:label="border spacer"
     sodipodi:insensitive="true" /><g
     id="g6"
     transform="matrix(0.90310708,0,0,0.90310708,2.3267073,2.3256174)"><path
       id="path3"
       style="display:inline;fill:#ffffff;stroke-width:0.015823"
       inkscape:label="die"
       d="m 5.3166068,36.878793 c -0.7131466,0 -1.299726,0.586579 -1.299726,1.299726 v 4.520935 c 0,0.713147 0.5865794,1.299726 1.299726,1.299726 h 4.5209356 c 0.7131466,0 1.2997266,-0.586579 1.2997266,-1.299726 v -4.520935 c 0,-0.713147 -0.58658,-1.299726 -1.2997266,-1.299726 z" /><path
       id="path6"
       style="display:inline;fill:#ffffff;stroke-width:0.015823"
       inkscape:label="die"
       d="m 18.566607,36.878793 c -0.713147,0 -1.299726,0.586579 -1.299726,1.299726 v 4.520935 c 0,0.713147 0.586579,1.299726 1.299726,1.299726 h 24.143148 c 0.713147,0 1.299727,-0.586579 1.299727,-1.299726 v -4.520935 c 0,-0.713147 -0.58658,-1.299726 -1.299727,-1.299726 z"
       sodipodi:nodetypes="sssssssss" /></g><g
     id="g8"
     transform="matrix(0.90310708,0,0,0.90310708,2.3267073,-27.363222)"><path
       id="path7"
       style="display:inline;fill:#ffffff;stroke-width:0.015823"
       inkscape:label="die"
       d="m 5.3166068,36.878793 c -0.7131466,0 -1.299726,0.586579 -1.299726,1.299726 v 4.520935 c 0,0.713147 0.5865794,1.299726 1.299726,1.299726 h 4.5209356 c 0.7131466,0 1.2997266,-0.586579 1.2997266,-1.299726 v -4.520935 c 0,-0.713147 -0.58658,-1.299726 -1.2997266,-1.299726 z" /><path
       id="path8"
       style="display:inline;fill:#ffffff;stroke-width:0.015823"
       inkscape:label="die"
       d="m 18.566607,36.878793 c -0.713147,0 -1.299726,0.586579 -1.299726,1.299726 v 4.520935 c 0,0.713147 0.586579,1.299726 1.299726,1.299726 h 24.143148 c 0.713147,0 1.299727,-0.586579 1.299727,-1.299726 v -4.520935 c 0,-0.713147 -0.58658,-1.299726 -1.299727,-1.299726 z"
       sodipodi:nodetypes="sssssssss" /></g><g
     id="g10"
     transform="matrix(0.90310708,0,0,0.90310708,2.3267073,-17.466942)"><path
       id="path9"
       style="display:inline;fill:#ffffff;stroke-width:0.015823"
       inkscape:label="die"
       d="m 5.3166068,36.878793 c -0.7131466,0 -1.299726,0.586579 -1.299726,1.299726 v 4.520935 c 0,0.713147 0.5865794,1.299726 1.299726,1.299726 h 4.5209356 c 0.7131466,0 1.2997266,-0.586579 1.2997266,-1.299726 v -4.520935 c 0,-0.713147 -0.58658,-1.299726 -1.2997266,-1.299726 z" /><path
       id="path10"
       style="display:inline;fill:#ffffff;stroke-width:0.015823"
       inkscape:label="die"
       d="m 18.566607,36.878793 c -0.713147,0 -1.299726,0.586579 -1.299726,1.299726 v 4.520935 c 0,0.713147 0.586579,1.299726 1.299726,1.299726 h 24.143148 c 0.713147,0 1.299727,-0.586579 1.299727,-1.299726 v -4.520935 c 0,-0.713147 -0.58658,-1.299726 -1.299727,-1.299726 z"
       sodipodi:nodetypes="sssssssss" /></g><g
     id="g12"
     transform="matrix(0.90310708,0,0,0.90310708,2.3267073,-7.5706625)"><path
       id="path11"
       style="display:inline;fill:#ffffff;stroke-width:0.015823"
       inkscape:label="die"
       d="m 5.3166068,36.878793 c -0.7131466,0 -1.299726,0.586579 -1.299726,1.299726 v 4.520935 c 0,0.713147 0.5865794,1.299726 1.299726,1.299726 h 4.5209356 c 0.7131466,0 1.2997266,-0.586579 1.2997266,-1.299726 v -4.520935 c 0,-0.713147 -0.58658,-1.299726 -1.2997266,-1.299726 z" /><path
       id="path12"
       style="display:inline;fill:#ffffff;stroke-width:0.015823"
       inkscape:label="die"
       d="m 18.566607,36.878793 c -0.713147,0 -1.299726,0.586579 -1.299726,1.299726 v 4.520935 c 0,0.713147 0.586579,1.299726 1.299726,1.299726 h 24.143148 c 0.713147,0 1.299727,-0.586579 1.299727,-1.299726 v -4.520935 c 0,-0.713147 -0.58658,-1.299726 -1.299727,-1.299726 z"
       sodipodi:nodetypes="sssssssss" /></g></svg>
