<?xml version="1.0" encoding="UTF-8" standalone="no"?>
<!-- Created with Inkscape (http://www.inkscape.org/) -->

<svg
   width="48"
   height="48"
   viewBox="0 0 48 48"
   version="1.1"
   id="svg1"
   xml:space="preserve"
   inkscape:version="1.3 (0e150ed6c4, 2023-07-21)"
   sodipodi:docname="locked-expertises-solid.svg"
   xmlns:inkscape="http://www.inkscape.org/namespaces/inkscape"
   xmlns:sodipodi="http://sodipodi.sourceforge.net/DTD/sodipodi-0.dtd"
   xmlns="http://www.w3.org/2000/svg"
   xmlns:svg="http://www.w3.org/2000/svg"><sodipodi:namedview
     id="namedview1"
     pagecolor="#505050"
     bordercolor="#eeeeee"
     borderopacity="1"
     inkscape:showpageshadow="0"
     inkscape:pageopacity="0"
     inkscape:pagecheckerboard="0"
     inkscape:deskcolor="#505050"
     inkscape:document-units="px"
     inkscape:zoom="11.2"
     inkscape:cx="22.098214"
     inkscape:cy="24.866071"
     inkscape:window-width="1920"
     inkscape:window-height="1017"
     inkscape:window-x="-8"
     inkscape:window-y="-8"
     inkscape:window-maximized="1"
     inkscape:current-layer="layer1" /><defs
     id="defs1" /><g
     inkscape:label="Layer 1"
     inkscape:groupmode="layer"
     id="layer1"><rect
       style="display:none;fill:none;stroke:#000000;stroke-width:8;stroke-dasharray:none;stroke-opacity:1"
       id="rect1"
       width="48"
       height="48"
       x="0"
       y="0"
       inkscape:label="border spacer"
       sodipodi:insensitive="true" /><g
       id="g4"
       transform="matrix(0.48567923,0,0,0.48567923,12.531994,13.69872)"
       style="stroke-width:2.05897"
       inkscape:label="padlock"><path
         id="rect2"
         style="fill:#ffffff;fill-opacity:1;stroke:none;stroke-width:12.3539;stroke-linecap:round;stroke-linejoin:round"
         d="m 13.384766,20.582031 c -2.868073,0 -5.1777348,2.309662 -5.1777348,5.177735 v 10.478515 c 0,2.868073 2.3096618,5.177735 5.1777348,5.177735 h 20.455078 c 2.868073,0 5.177734,-2.309662 5.177734,-5.177735 V 25.759766 c 0,-2.868073 -2.309661,-5.177735 -5.177734,-5.177735 z m 10.226562,3.914063 a 3.6070035,3.6070035 0 0 1 3.607422,3.605468 3.6070035,3.6070035 0 0 1 -1.724609,3.072266 v 4.445313 c 0,1.042925 -0.839888,1.882812 -1.882813,1.882812 -1.042925,0 -1.882812,-0.839887 -1.882812,-1.882812 v -4.445313 a 3.6070035,3.6070035 0 0 1 -1.722657,-3.072266 3.6070035,3.6070035 0 0 1 3.605469,-3.605468 z" /><path
         id="path2"
         style="color:#000000;fill:#ffffff;stroke-width:2.05897;stroke-linecap:round;stroke-linejoin:round;-inkscape-stroke:none"
         d="m 23.613281,1.0040795 c -7.034602,0 -12.791015,5.7564133 -12.791015,12.7910165 v 8.396493 h 5 v -8.396493 c 0,-4.3324112 3.458607,-7.7910162 7.791015,-7.7910162 4.332411,0 7.789063,3.458605 7.789063,7.7910162 v 8.396493 h 5 v -8.396493 c 0,-7.0346032 -5.75446,-12.7910165 -12.789063,-12.7910165 z"
         sodipodi:nodetypes="ssccsssccss" /></g><path
       style="display:none;fill:none;stroke:#ffffff;stroke-width:5;stroke-linecap:round;stroke-linejoin:round;stroke-opacity:1"
       d="m 58.285715,2.678572 c 10.348341,-0.00331 17.518117,8.718511 17.392857,17.392856"
       id="path8"
       sodipodi:nodetypes="cc"
       inkscape:label="quarter circle" /><g
       id="g11"
       inkscape:label="semi circle"><path
         style="fill:none;stroke:#ffffff;stroke-width:2.5;stroke-linecap:round;stroke-linejoin:round;stroke-opacity:1;stroke-dasharray:none"
         d="m 36.298845,11.700818 c 7.31972,7.315044 6.222261,18.552098 10e-7,24.597214"
         id="path4"
         sodipodi:nodetypes="cc" /><path
         style="fill:none;stroke:#ffffff;stroke-width:2.5;stroke-linecap:round;stroke-linejoin:round;stroke-opacity:1;stroke-dasharray:none"
         d="m 11.702781,36.299181 c -7.3197151,-7.315048 -6.2222605,-18.552097 0,-24.597213"
         id="path9"
         sodipodi:nodetypes="cc" /><path
         style="fill:none;stroke:#ffffff;stroke-width:2.5;stroke-linecap:round;stroke-linejoin:round;stroke-opacity:1;stroke-dasharray:none"
         d="m 11.701393,11.697428 c 7.315049,-7.3197165 18.552098,-6.2222615 24.597214,-1e-6"
         id="path10"
         sodipodi:nodetypes="cc" /></g></g></svg>
