<?xml version="1.0" encoding="UTF-8" standalone="no"?>
<!-- Created with Inkscape (http://www.inkscape.org/) -->

<svg
   width="48"
   height="48"
   viewBox="0 0 48 48"
   version="1.1"
   id="svg1"
   xml:space="preserve"
   inkscape:version="1.3.2 (091e20e, 2023-11-25, custom)"
   sodipodi:docname="lung-solid.svg"
   xmlns:inkscape="http://www.inkscape.org/namespaces/inkscape"
   xmlns:sodipodi="http://sodipodi.sourceforge.net/DTD/sodipodi-0.dtd"
   xmlns="http://www.w3.org/2000/svg"
   xmlns:svg="http://www.w3.org/2000/svg"><sodipodi:namedview
     id="namedview1"
     pagecolor="#505050"
     bordercolor="#eeeeee"
     borderopacity="1"
     inkscape:showpageshadow="0"
     inkscape:pageopacity="0"
     inkscape:pagecheckerboard="0"
     inkscape:deskcolor="#505050"
     inkscape:document-units="px"
     inkscape:zoom="18.431918"
     inkscape:cx="18.771785"
     inkscape:cy="28.347566"
     inkscape:window-width="2560"
     inkscape:window-height="1369"
     inkscape:window-x="-8"
     inkscape:window-y="-8"
     inkscape:window-maximized="1"
     inkscape:current-layer="layer1" /><defs
     id="defs1" /><g
     inkscape:label="Layer 1"
     inkscape:groupmode="layer"
     id="layer1"><rect
       style="display:none;fill:none;stroke:#000000;stroke-width:8;stroke-dasharray:none;stroke-opacity:1"
       id="rect1"
       width="48"
       height="48"
       x="0.36878461"
       y="-0.65124035"
       inkscape:label="border spacer"
       sodipodi:insensitive="true" /><g
       id="g7"><path
         id="path3"
         style="color:#000000;fill:#ffffff;stroke-width:0.998533;stroke-linecap:round;-inkscape-stroke:none"
         d="m 23.998963,11.125263 c -0.732606,0 -1.3265,0.525828 -1.3265,1.174468 v 4.507476 l -4.978521,4.409761 c -0.517897,0.458638 -0.517897,1.202133 0,1.660771 0.518007,0.45854 1.357746,0.45854 1.875753,0 l 4.429268,-3.923458 4.43134,3.923458 c 0.518008,0.45854 1.357746,0.45854 1.875754,0 0.517897,-0.458638 0.517897,-1.202133 0,-1.660771 l -4.980594,-4.409761 v -4.507476 c 0,-0.64864 -0.593894,-1.174468 -1.3265,-1.174468 z"
         sodipodi:nodetypes="sscccccccccss" /><path
         style="display:inline;fill:#ffffff;stroke-width:0.939571"
         d="m 29.59972,12.589017 c -2.493946,1.835029 -0.862282,21.767236 0.293617,21.874471 3.312837,0.180415 6.632452,3.972418 8.485532,1.673618 l 0.08809,-7.311065 C 37.752372,18.050921 34.963721,12.238747 29.59972,12.589017 Z"
         id="path1"
         sodipodi:nodetypes="ccccc" /><path
         style="display:inline;fill:#ffffff;stroke-width:0.939571"
         d="m 18.400272,12.589017 c 2.493946,1.835029 0.862281,21.767236 -0.293618,21.874471 -3.312838,0.180415 -6.632452,3.972418 -8.4855325,1.673618 l -0.08808,-7.311065 C 10.247625,18.050921 13.036276,12.238747 18.400277,12.589017 Z"
         id="path5"
         sodipodi:nodetypes="ccccc" /></g></g></svg>
