<?xml version="1.0" encoding="UTF-8" standalone="no"?>
<!-- Created with Inkscape (http://www.inkscape.org/) -->

<svg
   width="48"
   height="48"
   viewBox="0 0 48 48"
   version="1.1"
   id="svg1"
   xml:space="preserve"
   inkscape:version="1.3 (0e150ed6c4, 2023-07-21)"
   sodipodi:docname="obstacle-patch-up-solid.svg"
   xmlns:inkscape="http://www.inkscape.org/namespaces/inkscape"
   xmlns:sodipodi="http://sodipodi.sourceforge.net/DTD/sodipodi-0.dtd"
   xmlns="http://www.w3.org/2000/svg"
   xmlns:svg="http://www.w3.org/2000/svg"><sodipodi:namedview
     id="namedview1"
     pagecolor="#505050"
     bordercolor="#eeeeee"
     borderopacity="1"
     inkscape:showpageshadow="0"
     inkscape:pageopacity="0"
     inkscape:pagecheckerboard="0"
     inkscape:deskcolor="#505050"
     inkscape:document-units="px"
     inkscape:zoom="11.313709"
     inkscape:cx="17.766058"
     inkscape:cy="23.378718"
     inkscape:window-width="1920"
     inkscape:window-height="1017"
     inkscape:window-x="-8"
     inkscape:window-y="-8"
     inkscape:window-maximized="1"
     inkscape:current-layer="layer1" /><defs
     id="defs1" /><g
     inkscape:label="Layer 1"
     inkscape:groupmode="layer"
     id="layer1"><rect
       style="display:none;fill:none;stroke:#000000;stroke-width:8;stroke-dasharray:none;stroke-opacity:1"
       id="rect1"
       width="48"
       height="48"
       x="0"
       y="0"
       inkscape:label="border spacer"
       sodipodi:insensitive="true" /><path
       style="fill:#ffffff;stroke:#ffffff;stroke-width:0.93016;stroke-linecap:round;stroke-linejoin:round;stroke-dasharray:none;stroke-opacity:1"
       d="M 4.3527565,43.684222 17.122358,16.661452 28.785261,43.684222 Z"
       id="path1"
       sodipodi:nodetypes="cccc" /><path
       id="path2"
       style="fill:#ffffff;stroke:#ffffff;stroke-width:0.961893;stroke-linecap:round;stroke-linejoin:round;stroke-dasharray:none;stroke-opacity:1"
       d="m 30.122764,25.193903 -3.753637,4.779405 5.078118,12.617329 a 2.885967,2.885967 0 0 1 0.20102,1.078373 h 11.730584 z" /><g
       id="path3"
       transform="matrix(0.96189283,0,0,0.96189283,0.86393753,1.1127662)" /><path
       id="rect5"
       style="fill:#ffffff;stroke:#ffffff;stroke-linecap:round;stroke-linejoin:round"
       d="M 13.503906 4.4199219 C 12.193106 4.4199219 11.136719 5.4743554 11.136719 6.7851562 L 11.136719 11.068359 C 11.136719 12.379161 12.193106 13.435547 13.503906 13.435547 L 19.515625 13.435547 L 19.515625 4.4199219 L 13.503906 4.4199219 z M 22.398438 4.4199219 L 22.398438 13.435547 L 31.958984 13.435547 L 31.958984 4.4199219 L 22.398438 4.4199219 z M 34.841797 4.4199219 L 34.841797 13.435547 L 40.855469 13.435547 C 42.166269 13.435547 43.222656 12.379161 43.222656 11.068359 L 43.222656 6.7851562 C 43.222656 5.4743554 42.166269 4.4199219 40.855469 4.4199219 L 34.841797 4.4199219 z M 24.974609 4.9609375 A 1.7677668 1.7677668 0 0 1 26.742188 6.7304688 A 1.7677668 1.7677668 0 0 1 24.974609 8.4980469 A 1.7677668 1.7677668 0 0 1 23.207031 6.7304688 A 1.7677668 1.7677668 0 0 1 24.974609 4.9609375 z M 29.384766 4.9609375 A 1.7677668 1.7677668 0 0 1 31.152344 6.7304688 A 1.7677668 1.7677668 0 0 1 29.384766 8.4980469 A 1.7677668 1.7677668 0 0 1 27.617188 6.7304688 A 1.7677668 1.7677668 0 0 1 29.384766 4.9609375 z M 24.974609 9.3574219 A 1.7677668 1.7677668 0 0 1 26.742188 11.125 A 1.7677668 1.7677668 0 0 1 24.974609 12.894531 A 1.7677668 1.7677668 0 0 1 23.207031 11.125 A 1.7677668 1.7677668 0 0 1 24.974609 9.3574219 z M 29.384766 9.3574219 A 1.7677668 1.7677668 0 0 1 31.152344 11.125 A 1.7677668 1.7677668 0 0 1 29.384766 12.894531 A 1.7677668 1.7677668 0 0 1 27.617188 11.125 A 1.7677668 1.7677668 0 0 1 29.384766 9.3574219 z " /></g></svg>
