<?xml version="1.0" encoding="UTF-8" standalone="no"?>
<!-- Created with Inkscape (http://www.inkscape.org/) -->

<svg
   width="24"
   height="24"
   viewBox="0 0 6.3499998 6.35"
   version="1.1"
   id="svg1"
   xml:space="preserve"
   sodipodi:docname="obstacle-24-light.svg"
   inkscape:version="1.3.2 (091e20e, 2023-11-25, custom)"
   xmlns:inkscape="http://www.inkscape.org/namespaces/inkscape"
   xmlns:sodipodi="http://sodipodi.sourceforge.net/DTD/sodipodi-0.dtd"
   xmlns="http://www.w3.org/2000/svg"
   xmlns:svg="http://www.w3.org/2000/svg"><sodipodi:namedview
     id="namedview1"
     pagecolor="#ffffff"
     bordercolor="#000000"
     borderopacity="0.25"
     inkscape:showpageshadow="2"
     inkscape:pageopacity="0.0"
     inkscape:pagecheckerboard="0"
     inkscape:deskcolor="#d1d1d1"
     inkscape:zoom="39.055303"
     inkscape:cx="11.803775"
     inkscape:cy="10.485132"
     inkscape:window-width="2560"
     inkscape:window-height="1369"
     inkscape:window-x="-8"
     inkscape:window-y="-8"
     inkscape:window-maximized="1"
     inkscape:current-layer="svg1" /><defs
     id="defs1" /><g
     id="layer1"
     transform="matrix(0.87993125,0,0,0.87993125,-177.96429,24.880506)"
     style="stroke-width:1.13645"><g
       id="g464-3"
       transform="translate(-492.9748,-485.80321)"
       style="stroke-width:1.13645"><path
         id="rect280-4-5"
         style="fill:#cfcaba;fill-opacity:1;stroke-width:0.301159;stroke-linecap:round"
         d="m 696.97916,458.27849 v 1.1374 h -1.45572 v 1.85156 h 1.45572 v 2.32906 h -0.33073 v 0.39687 h 1.32292 v -0.39687 h -0.33073 v -2.32906 h 2.38073 v 2.32906 h -0.33073 v 0.39687 h 1.32292 v -0.39687 h -0.33073 v -2.32906 h 1.45573 v -1.85156 h -1.45573 v -1.1374 h -0.66146 v 1.1374 h -2.38073 v -1.1374 z" /><path
         id="path313-3-6"
         style="fill:#232323;fill-opacity:1;stroke:none;stroke-width:0.300686;stroke-linecap:round;stroke-dasharray:none;stroke-opacity:1"
         d="m 697.24323,459.54818 -1.5875,1.5875 h 0.82476 l 1.5875,-1.5875 z m 1.96629,0 -1.5875,1.5875 h 0.82475 l 1.5875,-1.5875 z m 1.96577,0 -1.5875,1.5875 h 0.82475 l 1.5875,-1.5875 z" /></g></g></svg>
