<?xml version="1.0" encoding="UTF-8" standalone="no"?>
<!-- Created with Inkscape (http://www.inkscape.org/) -->

<svg
   width="48"
   height="48"
   viewBox="0 0 48 48"
   version="1.1"
   id="svg1"
   xml:space="preserve"
   inkscape:version="1.3 (0e150ed6c4, 2023-07-21)"
   sodipodi:docname="opposed-by-solid.svg"
   xmlns:inkscape="http://www.inkscape.org/namespaces/inkscape"
   xmlns:sodipodi="http://sodipodi.sourceforge.net/DTD/sodipodi-0.dtd"
   xmlns="http://www.w3.org/2000/svg"
   xmlns:svg="http://www.w3.org/2000/svg"><sodipodi:namedview
     id="namedview1"
     pagecolor="#505050"
     bordercolor="#eeeeee"
     borderopacity="1"
     inkscape:showpageshadow="0"
     inkscape:pageopacity="0"
     inkscape:pagecheckerboard="0"
     inkscape:deskcolor="#505050"
     inkscape:document-units="px"
     inkscape:zoom="0.70710679"
     inkscape:cx="-236.17366"
     inkscape:cy="67.175144"
     inkscape:window-width="1920"
     inkscape:window-height="1017"
     inkscape:window-x="-8"
     inkscape:window-y="-8"
     inkscape:window-maximized="1"
     inkscape:current-layer="layer1" /><defs
     id="defs1" /><g
     inkscape:label="Layer 1"
     inkscape:groupmode="layer"
     id="layer1"><rect
       style="display:none;fill:none;stroke:#000000;stroke-width:8;stroke-dasharray:none;stroke-opacity:1"
       id="rect1"
       width="48"
       height="48"
       x="-4.6343995e-08"
       y="-4.7277833e-08"
       inkscape:label="border spacer"
       sodipodi:insensitive="true" /><path
       style="display:inline;fill:#ffffff;stroke:#ffffff;stroke-width:0.961893;stroke-linecap:round;stroke-linejoin:round;stroke-dasharray:none;stroke-opacity:1"
       d="M 4.3686218,43.668355 17.121639,14.732771 28.769396,43.668355 Z"
       id="path1"
       sodipodi:nodetypes="cccc" /><path
       id="path2"
       style="display:inline;fill:#ffffff;stroke:#ffffff;stroke-width:0.961893;stroke-linecap:round;stroke-linejoin:round;stroke-dasharray:none;stroke-opacity:1"
       d="m 30.122764,25.193903 -3.753637,4.779405 5.078118,12.617329 a 2.885967,2.885967 0 0 1 0.20102,1.078373 h 11.730584 z" /><g
       id="g2"
       inkscape:label="person"
       transform="matrix(0.74671856,0,0,0.74671856,9.2239363,-0.57422707)"
       style="display:inline"><path
         id="path2-0"
         style="fill:#ffffff;stroke-width:3;stroke-linecap:round;stroke-linejoin:round"
         d="M 18.02769 20.681644 C 17.21314 21.158784 16.438027 21.790546 15.707643 22.554422 L 21.616308 37.23846 L 25.37494 32.454508 C 26.019249 31.635004 27.01635 31.163077 28.058557 31.185937 C 29.10312 31.20862 30.082276 31.727459 30.689861 32.577441 L 36.742384 41.012786 C 36.739502 40.211742 36.73807 38.435452 36.734537 38.347479 C 36.402498 30.083425 33.20573 23.15066 29.039411 20.699954 C 27.57473 21.811605 25.372297 22.792627 23.53355 22.800289 C 21.701494 22.792589 19.489572 21.785904 18.02769 20.681644 z " /><circle
         style="fill:#ffffff;stroke-width:3;stroke-linecap:round;stroke-linejoin:round"
         id="path1-2"
         cx="23.503046"
         cy="14.323995"
         r="7.2496953" /></g></g></svg>
