<?xml version="1.0" encoding="UTF-8" standalone="no"?>
<!-- Created with Inkscape (http://www.inkscape.org/) -->

<svg
   width="48"
   height="48"
   viewBox="0 0 48 48"
   version="1.1"
   id="svg1"
   xml:space="preserve"
   inkscape:version="1.3.2 (091e20e, 2023-11-25, custom)"
   sodipodi:docname="prone-solid.svg"
   xmlns:inkscape="http://www.inkscape.org/namespaces/inkscape"
   xmlns:sodipodi="http://sodipodi.sourceforge.net/DTD/sodipodi-0.dtd"
   xmlns="http://www.w3.org/2000/svg"
   xmlns:svg="http://www.w3.org/2000/svg"><sodipodi:namedview
     id="namedview1"
     pagecolor="#505050"
     bordercolor="#eeeeee"
     borderopacity="1"
     inkscape:showpageshadow="0"
     inkscape:pageopacity="0"
     inkscape:pagecheckerboard="0"
     inkscape:deskcolor="#505050"
     inkscape:document-units="px"
     inkscape:zoom="11.313709"
     inkscape:cx="9.8994949"
     inkscape:cy="38.22796"
     inkscape:window-width="2560"
     inkscape:window-height="1369"
     inkscape:window-x="-8"
     inkscape:window-y="-8"
     inkscape:window-maximized="1"
     inkscape:current-layer="layer1" /><defs
     id="defs1" /><g
     inkscape:label="Layer 1"
     inkscape:groupmode="layer"
     id="layer1"><rect
       style="display:none;fill:none;stroke:#000000;stroke-width:8;stroke-dasharray:none;stroke-opacity:1"
       id="rect1"
       width="48"
       height="48"
       x="0"
       y="0"
       inkscape:label="border spacer"
       sodipodi:insensitive="true" /><path
       style="fill:#ffffff;fill-opacity:1;stroke:none;stroke-width:1;stroke-linecap:round;stroke-linejoin:round;stroke-dasharray:none;stroke-dashoffset:0.6"
       d="m 41.664085,31.34191 2.749417,-0.348382 c 0.543054,-0.365194 0.517952,-0.727937 0.147204,-1.089192 l -4.029319,-1.704753 2.995258,-2.81755 -5.167078,-2.142741 -1.857432,1.868516 C 31.922946,22.627423 27.279728,20.442725 22.31042,19.763918 l -0.08715,-3.216204 -5.109346,-2.1188 0.125114,4.348353 -1.493475,4.733211 c 9.298403,-3.963981 21.487489,3.901219 25.91852,7.831432 z"
       id="path32"
       sodipodi:nodetypes="ccccccccccccc" /><path
       id="path33"
       style="fill:#ffffff;fill-opacity:1;stroke:none;stroke-width:1;stroke-linecap:round;stroke-linejoin:round;stroke-dasharray:none;stroke-dashoffset:0.6"
       d="M 4.661082,32.541341 C 2.5944416,31.158893 1.0261663,29.444231 2.9660255,25.381025 l 1.4913757,0.497939 C 9.759864,20.372774 15.707897,19.129035 17.766536,19.054252 l -0.723874,3.647408 c -2.722544,1.214939 -5.967637,2.30196 -6.630766,6.215355 -0.445626,2.62982 -2.5775299,4.743928 -5.750814,3.624326 z m 0.6558663,-1.387826 a 1.40625,1.40625 0 0 0 1.8376642,-0.760308 1.40625,1.40625 0 0 0 -0.7603082,-1.837664 1.40625,1.40625 0 0 0 -1.8376642,0.760308 1.40625,1.40625 0 0 0 0.7603082,1.837664 z" /><path
       id="path26"
       style="color:#000000;fill:#ffffff;stroke-linecap:round;stroke-linejoin:round;stroke-dashoffset:0.6;-inkscape-stroke:none"
       d="m 22.102312,39.819434 c -3.685327,-1.544999 -6.252068,-3.492543 -7.962414,-5.777911 -1.954682,-2.611848 -2.759984,-5.631171 -2.929432,-8.854152 a 0.750075,0.750075 0 0 1 0.209836,-0.562106 c 3.384268,-3.505615 9.46442,-3.78665 15.444677,-2.353091 5.980255,1.433556 11.956841,4.618325 15.311642,8.664874 a 0.750075,0.750075 0 0 1 -0.09123,1.051087 c -2.105962,1.78778 -3.600681,4.370659 -6.130266,6.334103 -2.529584,1.963442 -6.109692,3.154797 -12.075245,2.166677 a 0.750075,0.750075 0 0 1 -0.128359,-0.03209 c -0.572868,-0.20409 -1.122736,-0.416678 -1.649215,-0.637396 z m 0.541502,-1.407765 c 0.495867,0.208338 1.015223,0.409323 1.559317,0.604349 3.330924,0.542286 5.728717,0.387251 7.595401,-0.18467 L 29.113983,34.52111 22.229695,32.848209 a 0.50005,0.50005 0 0 1 -0.05598,0.03811 L 17.68962,35.55163 c 1.307383,1.052028 2.934442,2.011246 4.95419,2.860046 z m -5.750727,-3.549813 4.360571,-2.591785 a 0.5,0.5 0 0 1 0.0049,-0.103675 L 19.41261,27.654174 a 0.5,0.5 0 0 1 -0.09518,-0.132505 l -5.982154,-2.512465 c -0.197627,0.149856 -0.385193,0.309304 -0.5635,0.476761 0.201353,2.862504 0.904101,5.433328 2.569093,7.658093 0.445202,0.594879 0.960652,1.167322 1.552175,1.71779 z m 15.867754,3.622165 c 0.861307,-0.364877 1.603023,-0.824624 2.275231,-1.346381 1.67034,-1.296513 2.963065,-3.022903 4.4863,-4.654051 l -5.965438,-1.507532 -3.481695,3.195175 z m -10.565948,-6.673618 7.093658,1.72378 3.596917,-3.299631 -0.617735,-4.516694 C 30.421128,24.880973 28.468643,24.199948 26.51362,23.731301 25.675531,23.5304 24.843088,23.37347 24.021982,23.254129 l -3.649184,4.108917 z m -2.482786,-5.209767 3.101694,-3.492309 c -3.260381,-0.314057 -6.248917,0.06688 -8.445621,1.250857 z m 14.154977,3.423577 6.463693,1.631691 c 0.07293,-0.07114 0.141622,-0.144572 0.215986,-0.214906 -1.784881,-1.974424 -4.330286,-3.779521 -7.199888,-5.210083 z" /></g></svg>
