<?xml version="1.0" encoding="UTF-8" standalone="no"?>
<!-- Created with Inkscape (http://www.inkscape.org/) -->

<svg
   width="48"
   height="48"
   viewBox="0 0 12.7 12.7"
   version="1.1"
   id="svg1"
   sodipodi:docname="quality-solid.svg"
   inkscape:version="1.3.2 (091e20e, 2023-11-25, custom)"
   xml:space="preserve"
   xmlns:inkscape="http://www.inkscape.org/namespaces/inkscape"
   xmlns:sodipodi="http://sodipodi.sourceforge.net/DTD/sodipodi-0.dtd"
   xmlns="http://www.w3.org/2000/svg"
   xmlns:svg="http://www.w3.org/2000/svg"><sodipodi:namedview
     id="namedview1"
     pagecolor="#505050"
     bordercolor="#eeeeee"
     borderopacity="1"
     inkscape:showpageshadow="0"
     inkscape:pageopacity="0"
     inkscape:pagecheckerboard="0"
     inkscape:deskcolor="#505050"
     inkscape:document-units="mm"
     inkscape:zoom="8"
     inkscape:cx="8.125"
     inkscape:cy="17.0625"
     inkscape:window-width="2560"
     inkscape:window-height="1369"
     inkscape:window-x="-8"
     inkscape:window-y="-8"
     inkscape:window-maximized="1"
     inkscape:current-layer="layer1" /><defs
     id="defs1" /><g
     inkscape:label="Layer 1"
     inkscape:groupmode="layer"
     id="layer1"><rect
       style="display:none;fill:none;stroke:#000000;stroke-width:2.11667;stroke-dasharray:none;stroke-opacity:1"
       id="rect1"
       width="12.7"
       height="12.7"
       x="8e-08"
       y="9.5367433e-08"
       inkscape:label="border spacer"
       sodipodi:insensitive="true" /><path
       id="path4"
       style="color:#000000;fill:#ffffff;stroke-width:0.999993;stroke-linecap:round;stroke-linejoin:round;stroke-dashoffset:0.6;-inkscape-stroke:none"
       d="m 4.0479127,2.2601701 c -0.00902,0.0017 -0.017955,0.00394 -0.02675,0.00679 -0.016675,3.923e-4 -0.033268,0.0027 -0.049524,0.00679 -0.00578,0.00324 -0.011452,0.00662 -0.016989,0.010363 -0.011829,0.00617 -0.023192,0.013352 -0.033979,0.021517 -0.018505,0.012613 -0.035403,0.027885 -0.050245,0.045416 -0.00561,0.00462 -0.011039,0.00957 -0.016266,0.01474 L 2.2513464,4.6724717 c -0.00404,0.00854 -0.00766,0.017322 -0.010845,0.026297 -0.01109,0.019667 -0.019836,0.040821 -0.026027,0.062947 -0.00352,0.013569 -0.00605,0.027423 -0.00759,0.04143 -0.00269,0.011001 -0.00474,0.02218 -0.00614,0.033467 0.00145,0.012914 0.00374,0.025695 0.00686,0.038246 0.00153,0.013191 0.00396,0.026243 0.00723,0.039041 0.00721,0.024469 0.017555,0.047682 0.030726,0.068922 0.00306,0.00763 0.00644,0.015049 0.010123,0.022311 1.2996996,1.7738488 2.5722947,3.5726821 3.8765357,5.3420613 0.065044,0.0829 0.1451023,0.09253 0.2177929,0.09263 0.068127,10e-5 0.1513367,-0.0077 0.2181547,-0.09263 1.2942635,-1.7787385 2.585741,-3.5611184 3.8779843,-5.3420623 0.03374,-0.047267 0.05219,-0.1055946 0.05242,-0.1657317 2.46e-4,-9.271e-4 4.87e-4,-0.00185 7e-4,-0.00277 -1.16e-4,-9.27e-4 -2.37e-4,-0.00185 -3.62e-4,-0.00277 -2.96e-4,-0.034029 -0.0064,-0.06768 -0.01808,-0.0992 -4.77e-4,-9.271e-4 -9.61e-4,-0.00185 -0.0015,-0.00277 -0.0079,-0.021139 -0.01825,-0.041092 -0.03072,-0.059362 L 8.8462226,2.3658134 c -9.531e-4,-9.27e-4 -0.00193,-0.00185 -0.0029,-0.00277 -0.022343,-0.031439 -0.05074,-0.057018 -0.08314,-0.074896 l -7.205e-4,-3.977e-4 c -0.00995,-0.0054 -0.020209,-0.010071 -0.030726,-0.013946 -0.015913,-0.00394 -0.032141,-0.00602 -0.048438,-0.00641 -0.00926,-0.00301 -0.018676,-0.0054 -0.028197,-0.00718 H 8.5252304 Z m 0.3390702,0.54062 H 5.6163836 L 4.7553332,4.0413875 Z m 1.8468122,0 H 6.4665896 L 7.69346,4.5668685 H 5.0065633 Z m 0.8502061,0 H 8.3148478 L 7.946136,4.0417861 Z m -3.1232057,0.3007871 0.433417,1.4597145 -0.00361,0.00555 H 2.9421396 Z m 4.7787938,0 1.0186578,1.4652913 H 8.3108715 l -0.00471,-0.00679 z M 2.9551522,5.1062935 h 1.6010043 l 1.1101117,3.7365337 z m 2.1161165,0 H 7.6298392 L 6.3501923,9.4137247 Z m 3.072598,0 h 0.045185 1.5561815 L 7.0337555,8.8436244 Z"
       sodipodi:nodetypes="ccccccccccccccccccccccccccccscccccccccccccccccccccccccccccccccccccccccc"
       inkscape:label="diamond" /></g></svg>
