<?xml version="1.0" encoding="UTF-8" standalone="no"?>
<!-- Created with Inkscape (http://www.inkscape.org/) -->

<svg
   width="48"
   height="48"
   viewBox="0 0 48 48"
   version="1.1"
   id="svg1"
   xml:space="preserve"
   inkscape:version="1.3 (0e150ed6c4, 2023-07-21)"
   sodipodi:docname="related-attribute.svg"
   xmlns:inkscape="http://www.inkscape.org/namespaces/inkscape"
   xmlns:sodipodi="http://sodipodi.sourceforge.net/DTD/sodipodi-0.dtd"
   xmlns="http://www.w3.org/2000/svg"
   xmlns:svg="http://www.w3.org/2000/svg"><sodipodi:namedview
     id="namedview1"
     pagecolor="#505050"
     bordercolor="#eeeeee"
     borderopacity="1"
     inkscape:showpageshadow="0"
     inkscape:pageopacity="0"
     inkscape:pagecheckerboard="0"
     inkscape:deskcolor="#505050"
     inkscape:document-units="px"
     inkscape:zoom="4.2760417"
     inkscape:cx="19.527406"
     inkscape:cy="41.276492"
     inkscape:window-width="1920"
     inkscape:window-height="1017"
     inkscape:window-x="1912"
     inkscape:window-y="-8"
     inkscape:window-maximized="1"
     inkscape:current-layer="layer1" /><defs
     id="defs1" /><g
     inkscape:label="Layer 1"
     inkscape:groupmode="layer"
     id="layer1"><path
       id="path1"
       style="display:inline;fill:#ffffff;fill-opacity:1;stroke:none;stroke-width:2.00333;stroke-linecap:round;stroke-linejoin:round;stroke-dasharray:none"
       inkscape:label="Strongarm"
       d="M 32.666408,1.0356371 C 31.347836,0.99245292 30.188185,1.2558513 26.689235,2.7013718 22.690436,4.353395 15.858791,7.4334087 12.292377,12.496824 c -0.01655,0.02501 -0.02604,0.03507 -0.04233,0.05926 l 25.902492,25.900375 8.244012,-7.217477 c -3.413366,-2.963955 -6.59406,-6.467451 -11.571249,-5.78245 -1.10429,-4.179097 -2.820562,-8.276312 -12.187166,-9.808151 4.37197,-2.216534 7.029413,-5.8673127 9.249379,-9.884347 0.765291,1.8898934 1.354978,3.8242615 2.903923,5.505179 3.231492,0.732465 5.304279,-0.575417 6.597325,-3.2637392 C 41.226185,6.7783253 40.638872,5.6772717 39.678581,4.69517 38.275097,3.2597768 36.076032,2.0695329 33.248464,1.0716149 33.046304,1.0554706 32.854776,1.0418024 32.666409,1.035633 Z M 21.478258,17.915224 c 1.980574,4.66972 5.556348,7.618043 10.220881,9.384837 l -0.105828,0.126994 c -4.566203,-0.0076 -9.605749,-4.167729 -10.115053,-9.511831 z" /><g
       id="g1"
       transform="matrix(0.49497637,0.49497637,-0.49497637,0.49497637,-16.235142,-22.329429)"
       style="fill:#ffffff"><path
         id="rect5"
         style="color:#000000;fill:#ffffff;stroke-linecap:round;stroke-linejoin:round;-inkscape-stroke:none"
         d="m 92.234375,7.9179688 c -5.567354,0 -10.128906,4.5595982 -10.128906,10.1269532 0,1.277086 0.242558,2.500588 0.679687,3.628906 h 1.365235 c 1.475505,0 2.661008,-0.749367 3.240234,-1.921875 -0.181384,-0.532145 -0.285156,-1.104454 -0.285156,-1.707031 0,-2.883845 2.24506,-5.126953 5.128906,-5.126953 h 14.716795 c 2.88384,0 5.12696,2.243108 5.12695,5.126953 0,2.883845 -2.24311,5.128906 -5.12695,5.128906 H 94.572266 c -0.981547,1.976477 -2.508354,3.641673 -4.38086,4.791016 0.660581,0.136918 1.343595,0.208984 2.042969,0.208984 h 14.716795 c 5.56736,0 10.12696,-4.561553 10.12695,-10.128906 0,-5.567355 -4.55959,-10.1269532 -10.12695,-10.1269532 z" /><path
         id="path11"
         style="color:#000000;fill:#ffffff;stroke-linecap:round;stroke-linejoin:round;-inkscape-stroke:none"
         d="m 84.148431,28.173828 c 5.56736,0 10.12891,-4.559599 10.12891,-10.126954 0,-1.277086 -0.24256,-2.500588 -0.67969,-3.628906 h -1.36523 c -1.47551,0 -2.66101,0.749367 -3.24024,1.921875 0.18139,0.532145 0.28516,1.104454 0.28516,1.707031 0,2.883845 -2.24506,5.126953 -5.12891,5.126953 H 69.43164 c -2.88384,0 -5.12696,-2.243108 -5.12695,-5.126953 0,-2.883845 2.24311,-5.128906 5.12695,-5.128906 h 12.378901 c 0.98155,-1.976477 2.50836,-3.6416726 4.38086,-4.7910156 -0.66058,-0.136918 -1.34359,-0.208984 -2.04297,-0.208984 H 69.43164 c -5.56736,0 -10.12696,4.5615526 -10.12695,10.1289056 0,5.567355 4.55959,10.126954 10.12695,10.126954 z" /></g></g></svg>
