<?xml version="1.0" encoding="UTF-8" standalone="no"?>
<!-- Created with Inkscape (http://www.inkscape.org/) -->

<svg
   width="48"
   height="48"
   viewBox="0 0 48 48"
   version="1.1"
   id="svg1"
   xml:space="preserve"
   inkscape:version="1.3 (0e150ed6c4, 2023-07-21)"
   sodipodi:docname="related-attribute-solid.svg"
   xmlns:inkscape="http://www.inkscape.org/namespaces/inkscape"
   xmlns:sodipodi="http://sodipodi.sourceforge.net/DTD/sodipodi-0.dtd"
   xmlns="http://www.w3.org/2000/svg"
   xmlns:svg="http://www.w3.org/2000/svg"><sodipodi:namedview
     id="namedview1"
     pagecolor="#505050"
     bordercolor="#eeeeee"
     borderopacity="1"
     inkscape:showpageshadow="0"
     inkscape:pageopacity="0"
     inkscape:pagecheckerboard="0"
     inkscape:deskcolor="#505050"
     inkscape:document-units="px"
     inkscape:zoom="8.5520834"
     inkscape:cx="13.797807"
     inkscape:cy="26.718636"
     inkscape:window-width="1920"
     inkscape:window-height="1017"
     inkscape:window-x="1912"
     inkscape:window-y="-8"
     inkscape:window-maximized="1"
     inkscape:current-layer="layer1" /><defs
     id="defs1"><inkscape:path-effect
       effect="bend_path"
       id="path-effect4"
       is_visible="true"
       lpeversion="1"
       bendpath="m 21.960086,12.411273 c 2.377219,5.713884 6.538044,8.432744 14.575579,5.28537 l 13.49739,-5.28537"
       prop_scale="1"
       scale_y_rel="false"
       vertical="false"
       hide_knot="false"
       bendpath-nodetypes="csc" /><inkscape:path-effect
       effect="bend_path"
       id="path-effect3"
       is_visible="true"
       lpeversion="1"
       bendpath="M 32.922782,27.623094 45.910146,12.42212"
       prop_scale="1"
       scale_y_rel="false"
       vertical="false"
       hide_knot="false"
       bendpath-nodetypes="cc" /><inkscape:path-effect
       effect="skeletal"
       id="path-effect2"
       is_visible="true"
       lpeversion="1"
       pattern="M 0,0 H 1"
       copytype="single_stretched"
       prop_scale="1"
       scale_y_rel="false"
       spacing="0"
       normal_offset="0"
       tang_offset="0"
       prop_units="false"
       vertical_pattern="false"
       hide_knot="false"
       fuse_tolerance="0" /><inkscape:path-effect
       effect="skeletal"
       id="path-effect1"
       is_visible="true"
       lpeversion="1"
       pattern="M 0,0 H 1"
       copytype="single_stretched"
       prop_scale="1"
       scale_y_rel="false"
       spacing="0"
       normal_offset="0"
       tang_offset="0"
       prop_units="false"
       vertical_pattern="false"
       hide_knot="false"
       fuse_tolerance="0" /></defs><g
     inkscape:label="Layer 1"
     inkscape:groupmode="layer"
     id="layer1"><path
       id="path1"
       style="display:inline;fill:#ffffff;fill-opacity:1;stroke:none;stroke-width:1.79387;stroke-linecap:round;stroke-linejoin:round;stroke-dasharray:none"
       d="M 13.815934,17.126623 C 12.018416,17.106423 9.8720013,17.744482 7.4497823,18.902979 6.34398,19.845229 5.815681,20.510818 4.3297508,24.088805 2.8438201,27.66679 0.46860888,33.94217 1.416478,39.406402 c 0.3301184,1.619787 -0.039931,1.918467 2.1652631,2.277379 l 0.028002,-0.028 c 6.2137262,3.878053 14.5840509,4.196215 17.6032989,3.475046 l 6.852256,-1.334311 c 1.51374,0.346566 2.953962,1.14633 4.176362,3.240887 h 1.482073 L 34.876441,29.68024 c -4.037982,0.284561 -8.269753,0.07965 -10.98748,3.66483 -3.345333,-1.946906 -7.026381,-3.45424 -13.9270527,1.506574 1.3647777,-4.171708 0.7349447,-8.166519 -0.402921,-12.11566 1.6812077,0.712076 3.2804827,1.563158 5.3255647,1.646721 2.509897,-1.582334 2.992663,-3.722601 2.109203,-6.243523 -0.879949,-0.67406 -1.947937,-0.998748 -3.177821,-1.012559 z m 9.260177,19.364733 0.01403,0.147146 c -2.896028,2.88643 -8.721227,3.443194 -12.427485,0.381897 4.210831,1.702715 8.341286,1.30574 12.413471,-0.529049 z"
       sodipodi:nodetypes="cccccccccccccccccccccc"
       inkscape:label="Strongarm" /><path
       id="path2"
       style="color:#000000;display:none;fill:#ffffff;stroke:none;stroke-width:5.30595;stroke-linecap:round;stroke-linejoin:round;-inkscape-stroke:none"
       d="m 34.447014,10.526547 c -0.109715,0.06299 -0.208648,0.142835 -0.290616,0.234539 -0.09153,0.101417 -0.160058,0.217829 -0.203556,0.339733 -0.04613,0.173659 -0.03521,0.378357 0.03824,0.568395 l 10e-7,3e-6 c 0.395586,1.033946 0.791172,2.067892 1.186758,3.101838 -2.666854,0.859494 -5.21527,1.586202 -6.792602,0.656489 -1.201782,-0.339503 -2.163313,-1.726838 -3.024468,-3.373001 -0.246994,-0.472148 -0.988641,-0.753314 -1.532325,-0.531106 0,0 -2e-6,1e-6 -2e-6,1e-6 l -3.840893,1.570123 c -0.546487,0.223399 -0.8206,1.104264 -0.446695,1.874105 1.222638,2.517306 3.281433,4.906224 6.316263,6.377736 4.226465,1.548027 8.386774,0.859203 11.628294,-0.542863 l 1.187736,3.104416 c 10e-7,1e-6 10e-7,3e-6 2e-6,4e-6 0.06894,0.183031 0.229758,0.305269 0.437241,0.364836 0.430575,0.205456 1.067048,0.135836 1.40226,-0.251781 3.089066,-3.546688 6.178131,-7.093375 9.267197,-10.640063 10e-7,-1e-6 2e-6,-1e-6 3e-6,-3e-6 0.469146,-0.535335 0.126044,-1.41152 -0.581873,-1.485932 -4.676024,-0.506011 -9.352048,-1.012023 -14.028072,-1.518034 -0.242463,-0.02781 -0.503826,0.02662 -0.722894,0.150565 z"
       inkscape:label="arrow"
       inkscape:path-effect="#path-effect4"
       inkscape:original-d="m 38.104566,4.9732325 c -0.108864,0.018651 -0.214338,0.056923 -0.309832,0.1124257 -0.282738,0.1623887 -0.46739,0.4828189 -0.466126,0.8088683 v 4e-6 l 10e-7,3.3094961 -14.22784,-6e-7 c -0.594747,0 -1.140642,0.5431075 -1.140683,1.137854 0,0 0,2e-6 0,2e-6 v 4.156754 c 0,0.595367 0.545273,1.140639 1.14064,1.14064 l 14.227838,-1e-6 v 3.312242 c 0,1e-6 0,3e-6 0,4e-6 -0.0024,0.655781 0.848271,1.137378 1.409349,0.797897 l 10.882729,-6.528481 c 1e-6,-10e-7 2e-6,-10e-7 3e-6,-2e-6 0.549881,-0.327417 0.54988,-1.268384 -3e-6,-1.595798 L 38.737951,5.0966188 C 38.550353,4.9823143 38.321352,4.9377034 38.104566,4.9732325 Z"
       transform="matrix(0.73676455,-0.73676455,0.73676455,0.73676455,-2.4645577,29.169702)" /><g
       inkscape:label="Layer 1"
       id="layer1-6"
       transform="matrix(-0.57987805,0,0,0.57987805,47.593078,0.4069178)"><path
         id="rect5"
         style="color:#000000;fill:#ffffff;stroke-linecap:round;stroke-linejoin:round;-inkscape-stroke:none"
         d="m 34.020339,19.697284 c -3.936714,-3.936714 -10.386341,-3.938095 -14.323055,-0.0014 -0.903037,0.903036 -1.596669,1.939697 -2.085413,3.046635 l 0.965367,0.965367 c 1.043339,1.04334 2.411499,1.351735 3.650162,0.932221 0.248025,-0.504541 0.579331,-0.982603 1.005417,-1.408689 2.039187,-2.039186 5.212801,-2.037806 7.251988,0.0014 L 40.89115,33.639163 c 2.039183,2.039183 2.039192,5.211425 -2e-6,7.250605 -2.039186,2.039186 -5.212802,2.040566 -7.251985,0.0014 l -8.753207,-8.753207 c -2.091639,0.703522 -4.348726,0.801377 -6.485496,0.290024 0.370286,0.563917 0.802291,1.097839 1.296824,1.592371 l 10.406345,10.406346 c 3.936718,3.936718 10.386347,3.935337 14.323053,-0.0014 3.936715,-3.936715 3.93672,-10.384954 2e-6,-14.321672 z"
         inkscape:label="chain-link-1" /><path
         id="path11"
         style="color:#000000;fill:#ffffff;stroke-linecap:round;stroke-linejoin:round;-inkscape-stroke:none"
         d="m 13.979658,28.302713 c 3.936718,3.936718 10.386344,3.938098 14.323058,0.0014 0.903037,-0.903037 1.596667,-1.939699 2.085411,-3.046638 l -0.965363,-0.965363 c -1.043343,-1.043343 -2.411501,-1.351736 -3.650167,-0.932225 -0.248021,0.504545 -0.579328,0.982605 -1.005414,1.408692 -2.039187,2.039186 -5.212801,2.037806 -7.251991,-0.0014 L 7.1088497,14.360836 C 5.0696669,12.321653 5.0696584,9.1494112 7.1088518,7.1102319 9.1480382,5.0710455 12.321654,5.069666 14.360837,7.1088488 l 8.753205,8.7532042 c 2.091641,-0.703519 4.34873,-0.801373 6.485496,-0.290024 -0.370285,-0.563916 -0.802288,-1.097835 -1.296824,-1.592372 L 17.896371,3.5733149 C 13.959653,-0.36340315 7.5100239,-0.36202217 3.5733179,3.574698 c -3.93671443,3.9367144 -3.9367208,10.384955 -2.8e-6,14.321673 z"
         inkscape:label="chain-link-2" /></g></g></svg>
