<?xml version="1.0" encoding="UTF-8" standalone="no"?>
<!-- Created with Inkscape (http://www.inkscape.org/) -->

<svg
   width="48"
   height="48"
   viewBox="0 0 48 48"
   version="1.1"
   id="svg1"
   xml:space="preserve"
   inkscape:version="1.3.2 (091e20e, 2023-11-25, custom)"
   sodipodi:docname="rooted-solid.svg"
   xmlns:inkscape="http://www.inkscape.org/namespaces/inkscape"
   xmlns:sodipodi="http://sodipodi.sourceforge.net/DTD/sodipodi-0.dtd"
   xmlns="http://www.w3.org/2000/svg"
   xmlns:svg="http://www.w3.org/2000/svg"><sodipodi:namedview
     id="namedview1"
     pagecolor="#505050"
     bordercolor="#eeeeee"
     borderopacity="1"
     inkscape:showpageshadow="0"
     inkscape:pageopacity="0"
     inkscape:pagecheckerboard="0"
     inkscape:deskcolor="#505050"
     inkscape:document-units="px"
     inkscape:zoom="2.8284271"
     inkscape:cx="-18.384776"
     inkscape:cy="63.10928"
     inkscape:window-width="2560"
     inkscape:window-height="1369"
     inkscape:window-x="-8"
     inkscape:window-y="-8"
     inkscape:window-maximized="1"
     inkscape:current-layer="layer1" /><defs
     id="defs1" /><g
     inkscape:label="Layer 1"
     inkscape:groupmode="layer"
     id="layer1"><rect
       style="display:none;fill:none;stroke:#000000;stroke-width:8;stroke-dasharray:none;stroke-opacity:1"
       id="rect1"
       width="48"
       height="48"
       x="0"
       y="0"
       inkscape:label="border spacer"
       sodipodi:insensitive="true" /><ellipse
       style="fill:#ffffff;stroke-width:0.999996;stroke-linejoin:round;stroke-dashoffset:0.6"
       id="path2"
       cx="24.078377"
       cy="6.9923282"
       rx="3.4645338"
       ry="3.444819" /><path
       style="fill:#ffffff;stroke-width:2;stroke-linejoin:round;stroke-dashoffset:0.6"
       d="m 19.194515,12.435753 h 9.76772 l -3.255906,9.847756 h -3.255907 z"
       id="path1"
       sodipodi:nodetypes="ccccc" /><path
       style="fill:#ffffff;stroke-width:1"
       d="m 18.637871,31.524779 c -2.6475,0.508482 -3.63955,0.832199 -4.978547,2.531664 -0.542028,0.687946 -1.267933,1.147245 -2.507583,1.716038 -1.018435,0.467292 -1.7533624,1.387798 -2.0086455,1.90298 l -0.2040387,0.411767 0.1160603,-0.571196 c 0.1283185,-0.631525 0.6790848,-1.768575 1.8784889,-2.471098 0.982759,-0.575629 1.248728,-0.764325 1.472316,-1.04456 0.09548,-0.119666 0.0787,-0.117609 -0.346309,0.04243 -1.013474,0.38166 -2.2696763,0.607204 -4.756414,0.853989 -1.7574331,0.174408 -2.1757069,0.490531 -2.5005848,1.129238 L 4.554804,36.51323 4.617844,35.995882 c 0.1044503,-0.857187 0.9766248,-1.616722 2.5111905,-1.880354 3.9244295,-0.674202 4.6719355,-0.927173 6.3102535,-2.50907 1.295395,-1.250786 2.597692,-1.500944 4.767263,-2.071097 1.299041,-0.341381 1.373768,-0.372341 1.684648,-0.697959 0.579668,-0.607151 1.807492,-2.017848 2.314269,-3.304703 0.184894,-0.4695 0.192139,-1.555821 0.229946,-1.556555 h 3.541022 c 0,0 -0.01046,1.374728 0.250977,1.96546 0.586883,1.326098 1.583571,2.609384 2.775164,3.131557 l 3.641919,1.595942 c 2.309946,1.012251 2.61644,1.872206 6.432915,2.560589 2.987781,0.538911 4.13337,0.925977 5.242775,1.771408 0.261556,0.19932 0.619954,0.432485 0.796442,0.518146 0.176489,0.08566 0.283863,0.155746 0.23861,0.155746 -0.108435,0 -0.645859,-0.261799 -1.368331,-0.666575 -1.116065,-0.625294 -2.193075,-0.87783 -4.884411,-1.145292 -0.941483,-0.09356 -2.020166,-0.218286 -2.397077,-0.277162 -0.857381,-0.133929 -0.836854,-0.134704 -0.836854,0.03158 0,0.460682 0.593079,1.118339 1.726805,1.914826 1.820035,1.278649 2.213058,1.869698 2.267031,3.409288 0.0236,0.673132 0.01526,0.753344 -0.0452,0.439216 -0.350556,-1.81907 -0.7196,-2.292599 -2.655466,-3.407308 -0.507599,-0.292286 -1.039912,-0.619634 -1.182916,-0.727442 l -0.260007,-0.196013 -0.05746,0.255692 c -0.07618,0.338975 0.06598,0.855438 0.456728,1.659381 0.461349,0.949179 0.516945,2.665171 0.505095,3.191395 l -0.01046,0.466666 -0.06262,-0.494117 c -0.06298,-0.496987 -0.321898,-1.82356 -1.107676,-3.170896 -0.320321,-0.549238 -0.690639,-1.840339 -0.699981,-2.569785 -0.678967,-1.10078 -2.478438,-1.829193 -3.618861,-2.337557 -2.019561,-0.885407 -4.230652,-0.897872 -4.604008,0.40917 l -1.209915,4.235663 c -0.791573,2.771133 -0.01867,4.271264 1.814231,6.348233 l 1.161214,1.315839 -0.68107,-0.380903 c -3.042483,-1.701571 -3.987417,-3.541544 -4.034836,-7.372613 -0.012,-0.963487 -0.04089,-1.548796 -0.05483,-1.921875 -0.01394,-0.37308 -0.651615,0.523866 -1.079568,0.741483 l -2.773028,1.410105 c 0,0 -0.907566,0.657337 -0.866887,0.973842 0.128342,0.998565 -0.383222,1.735304 -0.985051,2.620056 -0.611841,0.89946 -0.838024,1.365266 -0.906417,1.866665 l -0.0674,0.494117 0.02926,-0.631372 c 0.01933,-0.416988 0.08375,-0.752546 0.189752,-0.988234 0.836967,-1.861143 0.972778,-2.31027 0.888191,-2.937252 -0.106688,-0.790852 -0.07678,-0.788371 -0.923531,-0.07659 -1.25939,1.058657 -1.90679,1.796621 -2.210503,2.519721 l -0.126828,0.301961 0.04027,-0.334919 c 0.08746,-0.727405 0.602947,-1.540454 1.953399,-3.080892 1.267016,-1.445266 5.225031,-3.213875 5.232405,-4.278385 -0.139352,-2.063104 -1.818596,-2.00984 -3.270556,-1.75993 z"
       id="path7"
       sodipodi:nodetypes="cssscsssssscsssssascasssssssssssscsscssccsscsssscsccscssscscssscsssc" /><g
       id="path8"
       transform="translate(0,2.5661911e-5)"
       style="stroke-width:0.999998"><path
         style="color:#000000;fill:#ffffff;stroke-width:0.999998;stroke-linecap:round;stroke-linejoin:round;stroke-dashoffset:0.6;-inkscape-stroke:none"
         d="M 43.791928,26.118756 H 4.2080719"
         id="path11" /><path
         id="path12"
         style="color:#000000;fill:#ffffff;stroke-width:0.999998;stroke-linecap:round;stroke-linejoin:round;stroke-dashoffset:0.6;-inkscape-stroke:none"
         d="m 4.2089844,25.619141 c -0.2761425,0 -0.5000003,0.223858 -0.5,0.5 -3e-7,0.276142 0.2238575,0.5 0.5,0.5 H 19.798828 c 0.253962,-0.323245 0.483138,-0.662848 0.666016,-1 z m 23.4746096,0 c 0.0098,0.02447 0.01666,0.05388 0.02734,0.07617 0.151662,0.316359 0.341704,0.625834 0.554688,0.923829 h 15.525391 c 0.276142,0 0.5,-0.223858 0.5,-0.5 0,-0.276142 -0.223858,-0.5 -0.5,-0.5 z"
         sodipodi:nodetypes="csccccccccscc" /></g></g></svg>
