<?xml version="1.0" encoding="UTF-8" standalone="no"?>
<!-- Created with Inkscape (http://www.inkscape.org/) -->

<svg
   width="48"
   height="48"
   viewBox="0 0 48 48"
   version="1.1"
   id="svg1"
   xml:space="preserve"
   inkscape:version="1.3 (0e150ed6c4, 2023-07-21)"
   sodipodi:docname="self-patch-up-solid.svg"
   xmlns:inkscape="http://www.inkscape.org/namespaces/inkscape"
   xmlns:sodipodi="http://sodipodi.sourceforge.net/DTD/sodipodi-0.dtd"
   xmlns="http://www.w3.org/2000/svg"
   xmlns:svg="http://www.w3.org/2000/svg"><sodipodi:namedview
     id="namedview1"
     pagecolor="#505050"
     bordercolor="#eeeeee"
     borderopacity="1"
     inkscape:showpageshadow="0"
     inkscape:pageopacity="0"
     inkscape:pagecheckerboard="0"
     inkscape:deskcolor="#505050"
     inkscape:document-units="px"
     inkscape:zoom="0.70710678"
     inkscape:cx="-237.58788"
     inkscape:cy="47.376154"
     inkscape:window-width="1920"
     inkscape:window-height="1017"
     inkscape:window-x="-8"
     inkscape:window-y="-8"
     inkscape:window-maximized="1"
     inkscape:current-layer="layer1" /><defs
     id="defs1"><inkscape:path-effect
       effect="fillet_chamfer"
       id="path-effect3"
       is_visible="true"
       lpeversion="1"
       nodesatellites_param="F,0,0,1,0,0,0,1 @ F,0,0,1,0,0,0,1 @ F,0,0,1,0,0,0,1 @ F,0,0,1,0,0,0,1 @ F,0,0,1,0,0,0,1 @ F,0,0,1,0,0,0,1 @ F,0,0,1,0,0.28515625,0,1 @ F,0,0,1,0,0.3196886,0,1 @ F,0,0,1,0,0,0,1 @ F,0,0,1,0,0,0,1 @ F,0,0,1,0,0,0,1"
       radius="0"
       unit="px"
       method="auto"
       mode="F"
       chamfer_steps="1"
       flexible="false"
       use_knot_distance="true"
       apply_no_radius="true"
       apply_with_radius="true"
       only_selected="false"
       hide_knots="false" /><inkscape:path-effect
       effect="bend_path"
       id="path-effect2"
       is_visible="true"
       lpeversion="1"
       bendpath="M 17.143255,11.750373 23.61722,10.291965"
       prop_scale="1"
       scale_y_rel="false"
       vertical="false"
       hide_knot="false"
       bendpath-nodetypes="cc" /></defs><g
     inkscape:label="Layer 1"
     inkscape:groupmode="layer"
     id="layer1"><rect
       style="display:none;fill:none;stroke:#000000;stroke-width:8;stroke-dasharray:none;stroke-opacity:1"
       id="rect1"
       width="48"
       height="48"
       x="0"
       y="0"
       inkscape:label="border spacer"
       sodipodi:insensitive="true" /><g
       id="g3"
       inkscape:transform-center-x="-1.1432177"
       inkscape:transform-center-y="0.18663813"
       transform="rotate(-30,24.08839,26.067952)"
       style="stroke-width:1;stroke-dasharray:none"><path
         id="path1"
         style="color:#000000;fill:#ffffff;stroke-linecap:round;stroke-linejoin:round;stroke:#ffffff;stroke-opacity:1;stroke-width:0.5;stroke-dasharray:none"
         inkscape:label="circle"
         d="m 24,8.9609375 c -0.04785,0 -0.09482,0.00352 -0.142578,0.00391 l 0.724609,2.6289065 c 7.837394,0.304626 14.072266,6.725038 14.072266,14.638672 0,8.108763 -6.545534,14.654297 -14.654297,14.654297 -8.108763,0 -14.6542969,-6.545534 -14.6542969,-14.654297 0,-0.0033 6.6e-6,-0.0066 1.94e-5,-0.0099 6.093e-4,-0.157463 -0.1198782,-0.285007 -0.2773657,-0.285007 H 7.0560167 c -0.1765591,0 -0.3274986,0.131983 -0.3274986,0.294922 0,9.523297 7.7481879,17.271484 17.2714839,17.271484 9.523297,0 17.271484,-7.748187 17.271484,-17.271484 C 41.271484,16.709124 33.523297,8.9609375 24,8.9609375 Z"
         inkscape:path-effect="#path-effect3"
         inkscape:original-d="m 24,8.9609375 c -0.04785,0 -0.09482,0.00352 -0.142578,0.00391 l 0.724609,2.6289065 c 7.837394,0.304626 14.072266,6.725038 14.072266,14.638672 0,8.108763 -6.545534,14.654297 -14.654297,14.654297 -8.108763,0 -14.6542969,-6.545534 -14.6542969,-14.654297 0,-0.09887 0.00588,-0.196523 0.00781,-0.294922 h -2.617185 c -0.00167,0.09859 -0.00781,0.195939 -0.00781,0.294922 0,9.523297 7.7481879,17.271484 17.2714839,17.271484 9.523297,0 17.271484,-7.748187 17.271484,-17.271484 C 41.271484,16.709124 33.523297,8.9609375 24,8.9609375 Z" /><path
         style="fill:#ffffff;fill-opacity:1;fill-rule:nonzero;stroke:#ffffff;stroke-width:1;stroke-linecap:round;stroke-linejoin:round;stroke-dasharray:none;stroke-dashoffset:0;stroke-opacity:1"
         d="M 24.508923,14.758341 22.507672,5.8746632 17.034332,11.774911 Z"
         id="path16"
         sodipodi:nodetypes="cccc"
         inkscape:label="arrow"
         inkscape:path-effect="#path-effect2"
         inkscape:original-d="M 23.61722,14.845116 V 5.7388136 l -5.943635,4.5531514 z"
         transform="translate(0.18009812,0.03181091)" /></g><path
       id="rect2"
       style="fill:#ffffff;stroke-width:3.1276;stroke-linecap:round;stroke-linejoin:round;stroke-dasharray:3.1276, 6.25521"
       d="m 23.226563,19.625686 c -0.882402,0 -1.591797,0.709396 -1.591797,1.591797 v 2.648438 h -2.648438 c -0.882401,0 -1.59375,0.711347 -1.59375,1.59375 v 1.546875 c 0,0.882401 0.711349,1.591797 1.59375,1.591797 h 2.648438 v 2.648437 c 0,0.882402 0.709395,1.591797 1.591797,1.591797 h 1.546874 c 0.882405,0 1.59375,-0.709395 1.59375,-1.591797 v -2.648437 h 2.648438 c 0.882402,0 1.591797,-0.709396 1.591797,-1.591797 v -1.546875 c 0,-0.882403 -0.709395,-1.59375 -1.591797,-1.59375 h -2.648438 v -2.648438 c 0,-0.882401 -0.711345,-1.591797 -1.59375,-1.591797 z"
       inkscape:label="cross" /></g></svg>
