<?xml version="1.0" encoding="UTF-8" standalone="no"?>
<!-- Created with Inkscape (http://www.inkscape.org/) -->

<svg
   width="48"
   height="48"
   viewBox="0 0 48 48"
   version="1.1"
   id="svg1"
   sodipodi:docname="ico-skill-solid.svg"
   inkscape:version="1.3 (0e150ed6c4, 2023-07-21)"
   xmlns:inkscape="http://www.inkscape.org/namespaces/inkscape"
   xmlns:sodipodi="http://sodipodi.sourceforge.net/DTD/sodipodi-0.dtd"
   xmlns="http://www.w3.org/2000/svg"
   xmlns:svg="http://www.w3.org/2000/svg">
  <sodipodi:namedview
     id="namedview1"
     pagecolor="#505050"
     bordercolor="#eeeeee"
     borderopacity="1"
     inkscape:showpageshadow="0"
     inkscape:pageopacity="0"
     inkscape:pagecheckerboard="0"
     inkscape:deskcolor="#505050"
     inkscape:document-units="px"
     inkscape:zoom="0.7"
     inkscape:cx="12.857143"
     inkscape:cy="32.142857"
     inkscape:window-width="1920"
     inkscape:window-height="1017"
     inkscape:window-x="-8"
     inkscape:window-y="-8"
     inkscape:window-maximized="1"
     inkscape:current-layer="layer1" />
  <defs
     id="defs1" />
  <g
     inkscape:label="Layer 1"
     inkscape:groupmode="layer"
     id="layer1">
    <rect
       style="display:none;fill:none;stroke:#000000;stroke-width:8;stroke-dasharray:none;stroke-opacity:1"
       id="rect1"
       width="48"
       height="48"
       x="0"
       y="0"
       inkscape:label="border spacer"
       sodipodi:insensitive="true" />
    <g
       id="g4"
       inkscape:label="hammer"
       transform="rotate(-15,46.417264,231.86295)">
      <path
         id="rect2"
         style="fill:#ffffff;stroke-width:8"
         d="m 68.461026,24.473991 h 2.149742 1.322919 v 17.280622 c 0,0.732897 -0.590022,1.322919 -1.322919,1.322919 h -2.149742 c -0.732897,0 -1.322919,-0.590022 -1.322919,-1.322919 V 24.473991 Z"
         sodipodi:nodetypes="cccsssscc" />
      <path
         style="fill:#ffffff;fill-opacity:1;stroke:#ffffff;stroke-width:0.86317;stroke-linecap:round;stroke-linejoin:round;stroke-dasharray:none;stroke-opacity:1"
         d="m 59.900234,22.388418 v -2.997499 c 2.489526,-0.476378 6.352832,-1.284666 6.946948,-2.89829 h 9.182446 v 5.895789 z"
         id="path2"
         sodipodi:nodetypes="cccccc" />
    </g>
    <g
       id="g5"
       inkscape:label="tongs"
       transform="matrix(0.89637823,0,0,0.89637823,-59.740891,-5.7936268)">
      <path
         id="path3"
         style="color:#000000;fill:#ffffff;stroke-linecap:round;stroke-linejoin:round;-inkscape-stroke:none"
         d="m 105.73633,11.398438 c -0.80707,0.0633 -1.49638,0.606881 -1.7461,1.376953 -0.34084,1.050634 0.23454,2.17865 1.28516,2.519531 2.91308,0.946291 3.6049,2.840661 3.32617,4.294922 -0.27873,1.45426 -1.47807,2.882066 -4.91406,2.527344 -0.7353,-0.07601 -1.45258,0.259719 -1.86523,0.873046 l -0.62891,0.933594 c 0.30364,-0.130825 0.63656,-0.203125 0.98437,-0.203125 1.30285,0 2.39578,1.020379 2.51758,2.294922 4.15172,-0.123225 7.2308,-2.514512 7.83594,-5.671875 0.67513,-3.522464 -1.59755,-7.417067 -6.01953,-8.853516 -0.24992,-0.08124 -0.51341,-0.112437 -0.77539,-0.0918 z M 99.646484,26.222656 89.144531,41.830078 c -0.616291,0.916375 -0.373222,2.158826 0.542969,2.775391 0.916375,0.616291 2.158826,0.373222 2.775391,-0.542969 L 102.79883,28.703125 c -0.19923,0.05152 -0.4072,0.07813 -0.6211,0.07813 -1.38258,0 -2.531246,-1.146699 -2.531246,-2.529297 0,-0.0098 -1.15e-4,-0.01951 0,-0.0293 z"
         sodipodi:nodetypes="cccscccscscccccccssc" />
      <path
         id="path4"
         style="color:#000000;fill:#ffffff;stroke-linecap:round;stroke-linejoin:round;-inkscape-stroke:none"
         d="m 98.679688,11.398438 c -0.261984,-0.02064 -0.525468,0.01055 -0.775391,0.0918 -4.421986,1.436449 -6.694657,5.331052 -6.019531,8.853516 0.602073,3.141319 3.653706,5.524392 7.773437,5.669922 0.12293,-1.273638 1.217357,-2.292969 2.519527,-2.292969 0.38207,0 0.74545,0.08801 1.07227,0.244141 l -0.65625,-0.97461 c -0.41265,-0.613327 -1.12993,-0.949059 -1.86523,-0.873046 -3.435996,0.354722 -4.635339,-1.073084 -4.914067,-2.527344 -0.278728,-1.454261 0.413093,-3.348631 3.326172,-4.294922 1.050615,-0.340883 1.625995,-1.468898 1.285155,-2.519531 -0.24971,-0.770069 -0.939025,-1.313654 -1.746092,-1.376953 z M 104.70312,26.125 c 0.002,0.04208 0.004,0.0844 0.004,0.126953 0,1.382598 -1.1467,2.529297 -2.5293,2.529297 -0.18882,0 -0.37301,-0.02204 -0.55078,-0.0625 l 10.32617,15.34375 c 0.61657,0.916197 1.85902,1.159266 2.7754,0.542969 0.91619,-0.616568 1.15925,-1.859018 0.54296,-2.775391 z"
         sodipodi:nodetypes="ccscscccsccccssccccc" />
    </g>
  </g>
</svg>
