<?xml version="1.0" encoding="UTF-8" standalone="no"?>
<!-- Created with Inkscape (http://www.inkscape.org/) -->

<svg
   width="48"
   height="48"
   viewBox="0 0 48 48"
   version="1.1"
   id="svg1"
   xml:space="preserve"
   inkscape:version="1.3.2 (091e20e, 2023-11-25, custom)"
   sodipodi:docname="stunned-solid.svg"
   xmlns:inkscape="http://www.inkscape.org/namespaces/inkscape"
   xmlns:sodipodi="http://sodipodi.sourceforge.net/DTD/sodipodi-0.dtd"
   xmlns="http://www.w3.org/2000/svg"
   xmlns:svg="http://www.w3.org/2000/svg"><sodipodi:namedview
     id="namedview1"
     pagecolor="#505050"
     bordercolor="#eeeeee"
     borderopacity="1"
     inkscape:showpageshadow="0"
     inkscape:pageopacity="0"
     inkscape:pagecheckerboard="0"
     inkscape:deskcolor="#505050"
     inkscape:document-units="px"
     inkscape:zoom="0.70710678"
     inkscape:cx="-299.81327"
     inkscape:cy="86.974134"
     inkscape:window-width="2560"
     inkscape:window-height="1369"
     inkscape:window-x="-8"
     inkscape:window-y="-8"
     inkscape:window-maximized="1"
     inkscape:current-layer="layer1" /><defs
     id="defs1" /><g
     inkscape:label="Layer 1"
     inkscape:groupmode="layer"
     id="layer1"><rect
       style="display:none;fill:none;stroke:#000000;stroke-width:8;stroke-dasharray:none;stroke-opacity:1"
       id="rect1"
       width="48"
       height="48"
       x="0"
       y="0"
       inkscape:label="border spacer"
       sodipodi:insensitive="true" /><g
       id="g9"
       transform="matrix(0.99745345,-0.04952568,0.0713205,0.69264183,-0.67971033,2.0881538)"
       style="stroke-width:1.20003"><path
         sodipodi:type="star"
         style="fill:#ffffff;stroke:none;stroke-width:0.952107;stroke-linecap:round;stroke-linejoin:round;stroke-dashoffset:0.6"
         id="path1"
         inkscape:flatsided="false"
         sodipodi:sides="5"
         sodipodi:cx="30.052038"
         sodipodi:cy="10.650796"
         sodipodi:r1="3.3500235"
         sodipodi:r2="1.6750118"
         sodipodi:arg1="0.93521062"
         sodipodi:arg2="1.5635292"
         inkscape:rounded="0"
         inkscape:randomized="0"
         d="m 32.040776,13.346641 -1.976565,-1.020878 -1.96152,1.049497 0.36012,-2.195294 -1.604273,-1.5412035 2.199131,-0.335889 0.970024,-2.0020126 0.999019,1.9877031 2.203781,0.3038916 -1.581705,1.5643574 z"
         inkscape:transform-center-x="-0.0050628531"
         inkscape:transform-center-y="-0.28433592"
         transform="matrix(1.2602924,0.01597934,-0.01597934,1.2602924,-2.0680895,-5.9331694)" /><path
         id="path5"
         style="color:#000000;fill:#ffffff;stroke-width:1.20003;stroke-linecap:round;stroke-linejoin:round;stroke-dashoffset:0.6;-inkscape-stroke:none"
         d="m 22.388356,2.9290032 c -3.231566,0 -6.156915,0.420595 -8.327953,1.1249999 -1.08552,0.3522026 -1.983693,0.7710342 -2.65372,1.2850109 -0.670027,0.5139767 -1.149617,1.17442 -1.149617,1.9521337 0,0.2443752 0.05212,0.4760179 0.137856,0.6966625 l 0.964989,0.4751095 0.347101,-0.6769691 C 11.571526,7.6006739 11.517461,7.4345125 11.517461,7.2911477 c 0,-0.2528602 0.163191,-0.5736699 0.657274,-0.952681 0.494086,-0.3790111 1.278603,-0.7624503 2.274618,-1.0856125 1.99203,-0.6463245 4.817941,-1.0634572 7.939003,-1.0634572 2.921726,0 5.575286,0.3683745 7.537746,0.9452952 L 32.025937,4.9796047 32.193334,4.6325041 C 31.750481,4.4208213 31.256289,4.2292022 30.716309,4.0540031 28.545271,3.3495982 25.619923,2.9290032 22.388356,2.9290032 Z" /><path
         sodipodi:type="star"
         style="fill:#ffffff;stroke:none;stroke-width:0.952107;stroke-linecap:round;stroke-linejoin:round;stroke-dashoffset:0.6"
         id="path6"
         inkscape:flatsided="false"
         sodipodi:sides="5"
         sodipodi:cx="30.052038"
         sodipodi:cy="10.650796"
         sodipodi:r1="3.3500235"
         sodipodi:r2="1.6750118"
         sodipodi:arg1="0.93521062"
         sodipodi:arg2="1.5635292"
         inkscape:rounded="0"
         inkscape:randomized="0"
         d="m 32.040776,13.346641 -1.976565,-1.020878 -1.96152,1.049497 0.36012,-2.195294 -1.604273,-1.5412035 2.199131,-0.335889 0.970024,-2.0020126 0.999019,1.9877031 2.203781,0.3038916 -1.581705,1.5643574 z"
         inkscape:transform-center-x="0.0050627075"
         inkscape:transform-center-y="0.28433493"
         transform="matrix(-1.2602924,-0.01597937,0.01597937,-1.2602924,49.642233,25.84516)" /><path
         id="path7"
         style="color:#000000;fill:#ffffff;stroke-width:1.20003;stroke-linecap:round;stroke-linejoin:round;stroke-dashoffset:0.6;-inkscape-stroke:none"
         d="m 24.56436,17.830392 c 3.231565,0 6.156914,-0.420595 8.327953,-1.124999 1.085519,-0.352204 1.983692,-0.771035 2.653719,-1.285011 0.670027,-0.513978 1.149617,-1.174421 1.149617,-1.952135 0,-0.244374 -0.05212,-0.476018 -0.137855,-0.696662 l -0.964989,-0.475109 -0.347101,0.676968 c 0.135486,0.185277 0.189551,0.351439 0.189551,0.494803 0,0.252861 -0.163192,0.57367 -0.657275,0.952682 -0.494085,0.37901 -1.278602,0.76245 -2.274617,1.085612 -1.99203,0.646325 -4.817941,1.063457 -7.939003,1.063457 -2.921726,0 -5.575286,-0.368374 -7.537746,-0.945295 l -2.099835,0.155088 -0.167397,0.3471 c 0.442853,0.211682 0.937045,0.403301 1.477024,0.578502 2.171038,0.704404 5.096387,1.124999 8.327954,1.124999 z" /></g><g
       id="g13"
       transform="matrix(0.92489886,0,0,0.92488578,1.8024276,2.3165159)"
       style="stroke-width:1.08121"><ellipse
         style="fill:none;stroke:#ffffff;stroke-width:1.0812;stroke-linejoin:round;stroke-dashoffset:0.6"
         id="path2"
         cx="24.000002"
         cy="30.839912"
         rx="15.81201"
         ry="15.722704" /><path
         id="path11"
         style="color:#000000;fill:#ffffff;fill-rule:evenodd;stroke-width:1.08121;-inkscape-stroke:none"
         d="m 16.494141,20.308594 c -0.669238,0.0065 -1.344362,0.108823 -2.001953,0.314453 l -0.240235,0.07617 0.386719,1.232422 0.238281,-0.07422 c 2.843419,-0.889144 6.09308,0.614612 6.974609,3.490234 0.746826,2.43621 -0.55555,5.216527 -3.035156,5.949219 -2.062653,0.609485 -4.412011,-0.496712 -5.007812,-2.582031 -0.484276,-1.69498 0.439248,-3.620661 2.162109,-4.085938 1.359044,-0.367022 2.899345,0.376776 3.246094,1.744141 0.262482,1.035082 -0.318433,2.205295 -1.359375,2.443359 -0.742065,0.169715 -1.579305,-0.254967 -1.722656,-0.980468 -0.06664,-0.337273 0.100376,-0.646125 0.339843,-0.84961 -0.03273,0.04119 -0.05649,0.05832 -0.08789,0.136719 -0.15089,0.377748 3.79e-4,0.744533 0.224609,0.955078 0.180927,0.169688 0.410212,0.268315 0.652344,0.283203 0.433119,0.02689 0.79855,-0.199418 1.009766,-0.484375 0.200024,-0.269821 0.292491,-0.597542 0.267578,-0.927734 -0.03913,-0.518554 -0.340066,-0.937945 -0.716797,-1.181641 -0.369224,-0.23883 -0.816316,-0.335305 -1.25586,-0.269531 -1.253549,0.187556 -1.92594,1.460209 -1.703125,2.587891 0.299091,1.513611 1.87916,2.310897 3.28125,1.990234 1.808382,-0.413582 2.754286,-2.323593 2.324219,-4.019531 -0.537725,-2.120459 -2.817391,-3.221438 -4.837891,-2.675782 -2.465136,0.665735 -3.741825,3.330358 -3.068359,5.6875 0.805506,2.819287 3.895698,4.272115 6.621094,3.466797 1.450528,-0.428612 2.526038,-1.426761 3.365396,-2.896031 0.839358,-1.46927 1.01395,-3.120711 0.538901,-4.670375 -0.827093,-2.698049 -3.276469,-4.40985 -5.929688,-4.634766 -0.221101,-0.01874 -0.442936,-0.02756 -0.666015,-0.02539 z"
         sodipodi:nodetypes="sccccssssssscccccscccssssscssss" /><path
         id="path10"
         style="color:#000000;fill:#ffffff;fill-rule:evenodd;stroke-width:1.08121;-inkscape-stroke:none"
         d="m 30.369141,20.310547 c -0.519526,-0.0022 -1.043676,0.06773 -1.554688,0.21875 -1.440915,0.425772 -2.507709,1.416502 -3.356232,2.890903 -0.848523,1.474401 -1.023114,3.125839 -0.548065,4.675503 1.102791,3.5974 5.090502,5.442394 8.597656,4.345703 l 0.240235,-0.07422 -0.386719,-1.234376 -0.238281,0.07422 c -2.84342,0.889144 -6.093078,-0.614612 -6.974609,-3.490234 -0.746824,-2.43621 0.55555,-5.216527 3.035156,-5.949219 2.062653,-0.609485 4.412012,0.496713 5.007812,2.582031 0.484277,1.69498 -0.43925,3.620661 -2.162109,4.085938 -1.359045,0.367023 -2.899346,-0.376776 -3.246094,-1.744141 -0.262483,-1.035082 0.318433,-2.205296 1.359375,-2.443359 0.742065,-0.169716 1.579304,0.254966 1.722656,0.980469 0.06664,0.337272 -0.100376,0.646124 -0.339843,0.849609 0.03274,-0.0412 0.05649,-0.05832 0.08789,-0.136719 0.150888,-0.377747 -3.77e-4,-0.744533 -0.224609,-0.955078 -0.180926,-0.169688 -0.410211,-0.266362 -0.652344,-0.28125 -0.433118,-0.02689 -0.798548,0.197466 -1.009766,0.482422 -0.200023,0.269821 -0.292491,0.597542 -0.267578,0.927734 0.03913,0.518555 0.340066,0.937945 0.716797,1.181641 0.369224,0.23883 0.816316,0.337258 1.25586,0.271484 1.253549,-0.187555 1.925938,-1.462162 1.703125,-2.589843 -0.299092,-1.513611 -1.87916,-2.310897 -3.28125,-1.990235 -1.808381,0.413582 -2.754286,2.323594 -2.324219,4.019531 0.537725,2.120459 2.817391,3.223391 4.837891,2.677735 2.465136,-0.665734 3.741825,-3.33231 3.068359,-5.689453 -0.60413,-2.114465 -2.49246,-3.459301 -4.548828,-3.660156 -0.171364,-0.01674 -0.344403,-0.02465 -0.517578,-0.02539 z"
         sodipodi:nodetypes="scccccccssssssscccccscccssssss" /></g></g></svg>
