<?xml version="1.0" encoding="UTF-8" standalone="no"?>
<!-- Created with Inkscape (http://www.inkscape.org/) -->

<svg
   width="48"
   height="48"
   viewBox="0 0 12.7 12.7"
   version="1.1"
   id="svg1"
   xml:space="preserve"
   inkscape:version="1.3.2 (091e20e, 2023-11-25, custom)"
   sodipodi:docname="tags-solid.svg"
   xmlns:inkscape="http://www.inkscape.org/namespaces/inkscape"
   xmlns:sodipodi="http://sodipodi.sourceforge.net/DTD/sodipodi-0.dtd"
   xmlns="http://www.w3.org/2000/svg"
   xmlns:svg="http://www.w3.org/2000/svg"><sodipodi:namedview
     id="namedview1"
     pagecolor="#505050"
     bordercolor="#eeeeee"
     borderopacity="1"
     inkscape:showpageshadow="0"
     inkscape:pageopacity="0"
     inkscape:pagecheckerboard="0"
     inkscape:deskcolor="#505050"
     inkscape:document-units="mm"
     inkscape:zoom="0.5345052"
     inkscape:cx="-648.2631"
     inkscape:cy="-34.61145"
     inkscape:window-width="2560"
     inkscape:window-height="1369"
     inkscape:window-x="-8"
     inkscape:window-y="-8"
     inkscape:window-maximized="1"
     inkscape:current-layer="layer1" /><defs
     id="defs1" /><g
     inkscape:label="Layer 1"
     inkscape:groupmode="layer"
     id="layer1"><rect
       style="display:none;fill:none;stroke:#000000;stroke-width:2.11667;stroke-dasharray:none;stroke-opacity:1"
       id="rect1"
       width="12.7"
       height="12.7"
       x="9.5367433e-08"
       y="9.5367433e-08"
       inkscape:label="border spacer"
       sodipodi:insensitive="true" /><path
       id="path3"
       style="color:#000000;fill:#ffffff;stroke-width:0.966842;stroke-linecap:round;stroke-linejoin:round;-inkscape-stroke:none"
       d="M 3.7015828,2.0158976 C 3.657881,2.0275468 3.6206613,2.056206 3.59823,2.0954793 l -2.4520467,4.247286 c -0.047583,0.081398 -0.01946,0.1859864 0.062528,0.2325439 l 7.1055094,4.1020748 c 0.043228,0.02487 0.095227,0.02941 0.1421102,0.0124 L 11.468034,9.5963135 c 0.07694,-0.02816 0.122656,-0.1073977 0.10852,-0.1881022 l -0.558622,-3.155363 c -0.0087,-0.04905 -0.03857,-0.091775 -0.08165,-0.1167887 L 3.8307739,2.0339844 C 3.7918582,2.0109314 3.7453331,2.0044178 3.7015828,2.0158976 Z M 4.1449666,3.907255 c 0.054834,0.00148 0.1102068,0.016017 0.1612305,0.045475 L 8.4463399,6.3259701 C 8.6096162,6.4202376 8.6651478,6.6272651 8.5708801,6.7905412 8.4766126,6.9538173 8.2695852,7.0098657 8.106309,6.9155982 L 3.9656494,4.5423584 C 3.8023733,4.4480909 3.7468417,4.2405466 3.8411092,4.0772705 3.9059181,3.9650181 4.0243316,3.9039966 4.1449666,3.907255 Z M 3.2395955,5.4746012 c 0.054834,0.00148 0.1102067,0.016017 0.1612305,0.045475 L 5.5526322,6.749114 C 5.7159085,6.8433817 5.77144,7.0509256 5.6771724,7.2142019 5.5829047,7.3774782 5.3753608,7.4330098 5.2120845,7.3387421 L 3.0607951,6.1097046 C 2.8975188,6.015437 2.8419873,5.807893 2.9362549,5.6446167 3.0010639,5.5323642 3.1189603,5.4713427 3.2395955,5.4746012 Z m 6.7525594,2.5367961 c 0.073937,0.00978 0.1452271,0.034007 0.2098061,0.071313 0.271606,0.1570437 0.364591,0.5044622 0.20774,0.77618 C 10.252834,9.1306848 9.9053734,9.2239115 9.6335205,9.0671468 9.3619144,8.9101029 9.2689302,8.5626844 9.4257812,8.2909668 9.5406474,8.0917979 9.7641949,7.9814519 9.9921549,8.0113973 Z"
       sodipodi:nodetypes="ccccccccccccsccsccsssccsccsscccccc" /></g></svg>
