<?xml version="1.0" encoding="UTF-8" standalone="no"?>
<!-- Created with Inkscape (http://www.inkscape.org/) -->

<svg
   width="48"
   height="48"
   viewBox="0 0 12.7 12.7"
   version="1.1"
   id="svg1"
   xml:space="preserve"
   inkscape:version="1.3 (0e150ed6c4, 2023-07-21)"
   sodipodi:docname="tags-solid.svg"
   xmlns:inkscape="http://www.inkscape.org/namespaces/inkscape"
   xmlns:sodipodi="http://sodipodi.sourceforge.net/DTD/sodipodi-0.dtd"
   xmlns="http://www.w3.org/2000/svg"
   xmlns:svg="http://www.w3.org/2000/svg"><sodipodi:namedview
     id="namedview1"
     pagecolor="#505050"
     bordercolor="#eeeeee"
     borderopacity="1"
     inkscape:showpageshadow="0"
     inkscape:pageopacity="0"
     inkscape:pagecheckerboard="0"
     inkscape:deskcolor="#505050"
     inkscape:document-units="mm"
     inkscape:zoom="12.094472"
     inkscape:cx="17.611352"
     inkscape:cy="28.814817"
     inkscape:window-width="1920"
     inkscape:window-height="1017"
     inkscape:window-x="-8"
     inkscape:window-y="-8"
     inkscape:window-maximized="1"
     inkscape:current-layer="layer1" /><defs
     id="defs1" /><g
     inkscape:label="Layer 1"
     inkscape:groupmode="layer"
     id="layer1"><rect
       style="display:none;fill:none;stroke:#000000;stroke-width:2.11667;stroke-dasharray:none;stroke-opacity:1"
       id="rect1"
       width="12.7"
       height="12.7"
       x="9.5367433e-08"
       y="9.5367433e-08"
       inkscape:label="border spacer"
       sodipodi:insensitive="true" /><path
       id="path3"
       style="color:#000000;fill:#ffffff;stroke-width:0.966842;stroke-linecap:round;stroke-linejoin:round;-inkscape-stroke:none"
       d="M 3.8310256,2.0337378 A 0.16921526,0.16921526 0 0 0 3.5983327,2.0957094 L 1.146286,6.3427789 a 0.16921526,0.16921526 0 0 0 0.062678,0.2325038 l 7.1054498,4.1023343 a 0.16921526,0.16921526 0 0 0 0.1416659,0.01198 L 11.468269,9.5961075 a 0.16921526,0.16921526 0 0 0 0.10852,-0.187963 L 11.01768,6.2527697 a 0.16921526,0.16921526 0 0 0 -0.0812,-0.1166983 z m 6.3711364,6.049098 A 0.56836158,0.56836158 0 0 1 10.409778,8.859082 0.56836158,0.56836158 0 0 1 9.6337205,9.067404 0.56836158,0.56836158 0 0 1 9.4256567,8.2908995 0.56836158,0.56836158 0 0 1 10.202162,8.0828358 Z" /></g></svg>
