<?xml version="1.0" encoding="UTF-8" standalone="no"?>
<!-- Created with Inkscape (http://www.inkscape.org/) -->

<svg
   width="48"
   height="48"
   viewBox="0 0 12.7 12.7"
   version="1.1"
   id="svg1"
   xml:space="preserve"
   inkscape:version="1.3 (0e150ed6c4, 2023-07-21)"
   sodipodi:docname="tags-solid.svg"
   xmlns:inkscape="http://www.inkscape.org/namespaces/inkscape"
   xmlns:sodipodi="http://sodipodi.sourceforge.net/DTD/sodipodi-0.dtd"
   xmlns="http://www.w3.org/2000/svg"
   xmlns:svg="http://www.w3.org/2000/svg"><sodipodi:namedview
     id="namedview1"
     pagecolor="#505050"
     bordercolor="#eeeeee"
     borderopacity="1"
     inkscape:showpageshadow="0"
     inkscape:pageopacity="0"
     inkscape:pagecheckerboard="0"
     inkscape:deskcolor="#505050"
     inkscape:document-units="mm"
     inkscape:zoom="12.094472"
     inkscape:cx="14.593444"
     inkscape:cy="26.582392"
     inkscape:window-width="1920"
     inkscape:window-height="1017"
     inkscape:window-x="1912"
     inkscape:window-y="-8"
     inkscape:window-maximized="1"
     inkscape:current-layer="layer1" /><defs
     id="defs1" /><g
     inkscape:label="Layer 1"
     inkscape:groupmode="layer"
     id="layer1"><g
       id="g6"
       transform="matrix(0.96430153,0,0,0.96430153,-0.14746287,0.67616691)"><path
         id="path3"
         style="color:#000000;fill:#ffffff;stroke-width:1.11846;stroke-linecap:round;stroke-linejoin:round;-inkscape-stroke:none"
         d="m 0.8010669,2.8506276 a 0.19575077,0.19575077 0 0 0 -0.19709203,0.196514 v 5.673474 A 0.19575077,0.19575077 0 0 0 0.8010669,8.9171295 h 9.4916251 a 0.19575077,0.19575077 0 0 0 0.148541,-0.069936 l 2.385333,-2.837893 a 0.19575077,0.19575077 0 0 0 0,-0.2508443 L 10.441233,2.9205635 a 0.19575077,0.19575077 0 0 0 -0.148541,-0.069936 z m 1.3091299,1.17446 h 6.2959608 c 0.1683331,0 0.3040187,0.1356856 0.3040187,0.3040187 v 3.1095446 c 0,0.168333 -0.1356856,0.3040186 -0.3040187,0.3040186 H 2.1101968 c -0.1683331,0 -0.3040188,-0.1356856 -0.3040188,-0.3040186 V 4.3291063 c 0,-0.1683331 0.1356857,-0.3040187 0.3040188,-0.3040187 z M 10.68283,5.2255568 A 0.65748928,0.65748928 0 0 1 11.339996,5.8833006 0.65748928,0.65748928 0 0 1 10.68283,6.5410444 0.65748928,0.65748928 0 0 1 10.025086,5.8833006 0.65748928,0.65748928 0 0 1 10.68283,5.2255568 Z" /><path
         style="fill:none;stroke:#ffffff;stroke-width:0.503309;stroke-linecap:round;stroke-linejoin:round;stroke-dasharray:none;stroke-opacity:1"
         d="M 2.4133721,4.7775264 H 7.9767425"
         id="path4" /><path
         style="fill:none;stroke:#ffffff;stroke-width:0.503309;stroke-linecap:round;stroke-linejoin:round;stroke-dasharray:none;stroke-opacity:1"
         d="M 2.4133721,5.8838786 H 7.9767425"
         id="path5" /><path
         style="fill:none;stroke:#ffffff;stroke-width:0.503309;stroke-linecap:round;stroke-linejoin:round;stroke-dasharray:none;stroke-opacity:1"
         d="M 2.4133721,6.9902306 H 7.9767425"
         id="path6" /></g></g></svg>
