<?xml version="1.0" encoding="UTF-8" standalone="no"?>
<!-- Created with Inkscape (http://www.inkscape.org/) -->

<svg
   width="48"
   height="48"
   viewBox="0 0 48 48"
   version="1.1"
   id="svg1"
   xml:space="preserve"
   inkscape:version="1.3.2 (091e20e, 2023-11-25, custom)"
   sodipodi:docname="terrified-solid.svg"
   xmlns:inkscape="http://www.inkscape.org/namespaces/inkscape"
   xmlns:sodipodi="http://sodipodi.sourceforge.net/DTD/sodipodi-0.dtd"
   xmlns="http://www.w3.org/2000/svg"
   xmlns:svg="http://www.w3.org/2000/svg"><sodipodi:namedview
     id="namedview1"
     pagecolor="#505050"
     bordercolor="#eeeeee"
     borderopacity="1"
     inkscape:showpageshadow="0"
     inkscape:pageopacity="0"
     inkscape:pagecheckerboard="0"
     inkscape:deskcolor="#505050"
     inkscape:document-units="px"
     inkscape:zoom="5.6568543"
     inkscape:cx="1.9445436"
     inkscape:cy="32.08497"
     inkscape:window-width="2560"
     inkscape:window-height="1369"
     inkscape:window-x="-8"
     inkscape:window-y="-8"
     inkscape:window-maximized="1"
     inkscape:current-layer="layer1" /><defs
     id="defs1" /><g
     inkscape:label="Layer 1"
     inkscape:groupmode="layer"
     id="layer1"><rect
       style="display:none;fill:none;stroke:#000000;stroke-width:8;stroke-dasharray:none;stroke-opacity:1"
       id="rect1"
       width="48"
       height="48"
       x="0"
       y="0"
       inkscape:label="border spacer"
       sodipodi:insensitive="true" /><path
       id="path21"
       style="color:#000000;fill:#ffffff;stroke-linecap:round;stroke-linejoin:round;stroke-dashoffset:0.6;-inkscape-stroke:none"
       d="M 24 4.7480469 C 13.938934 4.7480469 5.765625 12.918735 5.765625 22.978516 C 5.765625 24.440289 5.943665 25.859932 6.2695312 27.222656 C 6.5178392 26.802546 6.9080927 26.446936 7.4921875 26.175781 C 7.5182794 26.169815 7.5443105 26.165779 7.5703125 26.160156 C 7.3724028 25.130136 7.265625 24.066788 7.265625 22.978516 C 7.265625 13.72951 14.749474 6.2480469 24 6.2480469 C 33.250526 6.2480469 40.734375 13.72951 40.734375 22.978516 C 40.734375 24.066787 40.627598 25.130135 40.429688 26.160156 C 40.45569 26.165779 40.481721 26.169815 40.507812 26.175781 C 41.091908 26.446936 41.482161 26.802545 41.730469 27.222656 C 42.056336 25.859931 42.234375 24.440289 42.234375 22.978516 C 42.234375 12.918735 34.061066 4.7480469 24 4.7480469 z M 18.136719 38.654297 L 18.136719 40.238281 C 19.97801 40.864497 21.948427 41.208984 24 41.208984 C 26.051573 41.208984 28.021989 40.864497 29.863281 40.238281 L 29.863281 38.654297 C 28.038997 39.335474 26.063586 39.708984 24 39.708984 C 21.936414 39.708984 19.961002 39.335473 18.136719 38.654297 z " /><path
       id="path18"
       style="fill:#ffffff;stroke-width:0.75;stroke-linecap:round;stroke-linejoin:round;stroke-dashoffset:0.6"
       d="m 24.000004,19.450633 a 3.7032655,3.7027275 0 0 0 -3.703265,3.702728 v 3.610619 a 3.7032655,3.7027275 0 0 0 3.703265,3.702728 3.7032655,3.7027275 0 0 0 3.703266,-3.702728 v -3.610619 a 3.7032655,3.7027275 0 0 0 -3.703266,-3.702728 z" /><ellipse
       style="fill:#ffffff;fill-opacity:1;stroke:none;stroke-width:0.75;stroke-linecap:round;stroke-linejoin:round;stroke-dasharray:none;stroke-dashoffset:0.6"
       id="path17"
       cx="19.744329"
       cy="29.343569"
       rx="4.0124416"
       ry="5.5753255"
       transform="matrix(0.86605686,-0.49994551,0.50005449,0.86599394,0,0)" /><ellipse
       style="fill:#ffffff;fill-opacity:1;stroke:none;stroke-width:0.75;stroke-linecap:round;stroke-linejoin:round;stroke-dasharray:none;stroke-dashoffset:0.6"
       id="ellipse18"
       cx="-21.823389"
       cy="5.3461723"
       rx="4.0124416"
       ry="5.5753255"
       transform="matrix(-0.86605686,-0.49994551,-0.50005449,0.86599394,0,0)" /><path
       style="fill:#ffffff;fill-opacity:1;stroke:none;stroke-width:0.75;stroke-linecap:round;stroke-linejoin:round;stroke-dasharray:none;stroke-dashoffset:0.6"
       d="m 31.636286,42.944275 v -6.334864 c 0.364072,-2.248167 2.991309,-8.651064 7.556168,-7.607178 2.589692,1.202214 -0.104473,4.675328 -0.156332,7.815593 -1.974883,1.474132 -1.536955,3.913247 -1.663894,6.126449 z"
       id="path19"
       sodipodi:nodetypes="cccccc" /><path
       style="fill:#ffffff;fill-opacity:1;stroke:none;stroke-width:0.75;stroke-linecap:round;stroke-linejoin:round;stroke-dasharray:none;stroke-dashoffset:0.6"
       d="M 16.363725,42.944275 V 36.609411 C 15.99965,34.361244 13.372414,27.958347 8.8075547,29.002233 6.21786,30.204447 8.9120273,33.677561 8.9638863,36.817826 10.938769,38.291958 10.500841,40.731073 10.62778,42.944275 Z"
       id="path20"
       sodipodi:nodetypes="cccccc" /><path
       style="fill:none;fill-opacity:1;stroke:#ffffff;stroke-width:1;stroke-linecap:round;stroke-linejoin:round;stroke-dasharray:none;stroke-dashoffset:0.6"
       d="m 29.530997,21.523222 c 2.118238,2.512791 4.304514,3.428845 6.610798,1.52869"
       id="path22"
       sodipodi:nodetypes="cc" /><path
       style="fill:none;fill-opacity:1;stroke:#ffffff;stroke-width:1;stroke-linecap:round;stroke-linejoin:round;stroke-dasharray:none;stroke-dashoffset:0.6"
       d="m 18.344012,21.523222 c -2.118239,2.512791 -4.304515,3.428845 -6.610799,1.52869"
       id="path23"
       sodipodi:nodetypes="cc" /></g></svg>
