<?xml version="1.0" encoding="UTF-8" standalone="no"?>
<!-- Created with Inkscape (http://www.inkscape.org/) -->

<svg
   width="48"
   height="48"
   viewBox="0 0 48 48"
   version="1.1"
   id="svg1"
   xml:space="preserve"
   inkscape:version="1.3 (0e150ed6c4, 2023-07-21)"
   sodipodi:docname="time-to-heal-solid.svg"
   xmlns:inkscape="http://www.inkscape.org/namespaces/inkscape"
   xmlns:sodipodi="http://sodipodi.sourceforge.net/DTD/sodipodi-0.dtd"
   xmlns="http://www.w3.org/2000/svg"
   xmlns:svg="http://www.w3.org/2000/svg"><sodipodi:namedview
     id="namedview1"
     pagecolor="#505050"
     bordercolor="#eeeeee"
     borderopacity="1"
     inkscape:showpageshadow="0"
     inkscape:pageopacity="0"
     inkscape:pagecheckerboard="0"
     inkscape:deskcolor="#505050"
     inkscape:document-units="px"
     inkscape:zoom="0.7"
     inkscape:cx="-250"
     inkscape:cy="26.428571"
     inkscape:window-width="1920"
     inkscape:window-height="1017"
     inkscape:window-x="-8"
     inkscape:window-y="-8"
     inkscape:window-maximized="1"
     inkscape:current-layer="layer1" /><defs
     id="defs1" /><g
     inkscape:label="Layer 1"
     inkscape:groupmode="layer"
     id="layer1"><rect
       style="display:none;fill:none;stroke:#000000;stroke-width:8;stroke-dasharray:none;stroke-opacity:1"
       id="rect1"
       width="48"
       height="48"
       x="0"
       y="0"
       inkscape:label="border spacer"
       sodipodi:insensitive="true" /><circle
       style="fill:none;stroke:#ffffff;stroke-width:3.28668;stroke-linecap:round;stroke-linejoin:round;stroke-opacity:1"
       id="path10"
       cx="28.90299"
       cy="28.726212"
       r="13.556854" /><path
       style="fill:none;stroke:#ffffff;stroke-width:3.28668;stroke-linecap:round;stroke-linejoin:round;stroke-opacity:1"
       d="M 28.321982,29.016714 V 19.333247"
       id="path11" /><path
       style="fill:none;stroke:#ffffff;stroke-width:3.28668;stroke-linecap:round;stroke-linejoin:round;stroke-opacity:1"
       d="m 28.321982,29.016714 6.288328,1.822212"
       id="path12"
       sodipodi:nodetypes="cc" /><path
       id="rect2"
       style="fill:#ffffff;stroke-width:3.1276;stroke-linecap:round;stroke-linejoin:round;stroke-dasharray:3.1276, 6.25521"
       d="m 10.140824,4.3388713 c -0.8824024,0 -1.5917973,0.709396 -1.5917973,1.591797 v 2.6484381 h -2.648438 c -0.882401,0 -1.59375,0.711347 -1.59375,1.5937496 v 1.546875 c 0,0.882401 0.711349,1.591797 1.59375,1.591797 h 2.648438 v 2.648437 c 0,0.882402 0.7093949,1.591797 1.5917973,1.591797 h 1.546874 c 0.882405,0 1.59375,-0.709395 1.59375,-1.591797 v -2.648437 h 2.648438 c 0.882402,0 1.591797,-0.709396 1.591797,-1.591797 v -1.546875 c 0,-0.8824026 -0.709395,-1.5937496 -1.591797,-1.5937496 H 13.281448 V 5.9306683 c 0,-0.882401 -0.711345,-1.591797 -1.59375,-1.591797 z" /></g></svg>
