<?xml version="1.0" encoding="UTF-8" standalone="no"?>
<!-- Created with Inkscape (http://www.inkscape.org/) -->

<svg
   width="48"
   height="48"
   viewBox="0 0 48 48"
   version="1.1"
   id="svg1"
   xml:space="preserve"
   inkscape:version="1.3 (0e150ed6c4, 2023-07-21)"
   sodipodi:docname="unlocked-b-solid.svg"
   xmlns:inkscape="http://www.inkscape.org/namespaces/inkscape"
   xmlns:sodipodi="http://sodipodi.sourceforge.net/DTD/sodipodi-0.dtd"
   xmlns="http://www.w3.org/2000/svg"
   xmlns:svg="http://www.w3.org/2000/svg"><sodipodi:namedview
     id="namedview1"
     pagecolor="#505050"
     bordercolor="#eeeeee"
     borderopacity="1"
     inkscape:showpageshadow="0"
     inkscape:pageopacity="0"
     inkscape:pagecheckerboard="0"
     inkscape:deskcolor="#505050"
     inkscape:document-units="px"
     inkscape:zoom="7.9195959"
     inkscape:cx="13.700194"
     inkscape:cy="20.392455"
     inkscape:window-width="1920"
     inkscape:window-height="1017"
     inkscape:window-x="-8"
     inkscape:window-y="-8"
     inkscape:window-maximized="1"
     inkscape:current-layer="layer1" /><defs
     id="defs1" /><g
     inkscape:label="Layer 1"
     inkscape:groupmode="layer"
     id="layer1"><rect
       style="display:none;fill:none;stroke:#000000;stroke-width:8;stroke-dasharray:none;stroke-opacity:1"
       id="rect1"
       width="48"
       height="48"
       x="0"
       y="0"
       inkscape:label="border spacer"
       sodipodi:insensitive="true" /><g
       id="g4"
       transform="matrix(0.86863541,0,0,0.86863541,-4.2704219,3.1526986)"
       style="stroke-width:1.15123"><path
         id="rect2"
         style="fill:#ffffff;fill-opacity:1;stroke:none;stroke-width:6.90739;stroke-linecap:round;stroke-linejoin:round"
         d="m 14.269587,23.402509 c -2.728666,0 -4.9260628,2.197397 -4.9260628,4.926063 v 9.96919 c 0,2.728666 2.1973968,4.926063 4.9260628,4.926063 h 19.460827 c 2.728666,0 4.926062,-2.197397 4.926062,-4.926063 v -9.96919 c 0,-2.728666 -2.197396,-4.926063 -4.926062,-4.926063 z m 9.729484,3.723814 a 3.4316794,3.4316794 0 0 1 3.432078,3.430218 3.4316794,3.4316794 0 0 1 -1.640782,2.922934 v 4.229242 c 0,0.992232 -0.799064,1.791295 -1.791296,1.791295 -0.992232,0 -1.791295,-0.799063 -1.791295,-1.791295 v -4.229242 a 3.4316794,3.4316794 0 0 1 -1.638925,-2.922934 3.4316794,3.4316794 0 0 1 3.43022,-3.430218 z" /><path
         id="path4"
         style="color:#000000;fill:#ffffff;stroke-width:1.15123;stroke-linecap:round;stroke-linejoin:round;-inkscape-stroke:none"
         d="m 43.580078,4.7753906 c -6.692667,0 -12.167969,5.4772524 -12.167969,12.1699214 v 7.988282 h 4.75586 v -7.988282 c 0,-4.121823 3.290288,-7.4121089 7.412109,-7.4121089 4.121823,0 7.410156,3.2902859 7.410156,7.4121089 V 18.125 h 1.556641 V 22.5 h -1.556641 v 2.433594 h 4.757813 v -7.988282 c 0,-6.692669 -5.475301,-12.1699214 -12.167969,-12.1699214 z" /></g></g></svg>
