<?xml version="1.0" encoding="UTF-8" standalone="no"?>
<!-- Created with Inkscape (http://www.inkscape.org/) -->

<svg
   width="48"
   height="48"
   viewBox="0 0 48 48"
   version="1.1"
   id="svg1"
   xml:space="preserve"
   inkscape:version="1.3 (0e150ed6c4, 2023-07-21)"
   sodipodi:docname="wall-corner-solid.svg"
   xmlns:inkscape="http://www.inkscape.org/namespaces/inkscape"
   xmlns:sodipodi="http://sodipodi.sourceforge.net/DTD/sodipodi-0.dtd"
   xmlns="http://www.w3.org/2000/svg"
   xmlns:svg="http://www.w3.org/2000/svg"><sodipodi:namedview
     id="namedview1"
     pagecolor="#505050"
     bordercolor="#eeeeee"
     borderopacity="1"
     inkscape:showpageshadow="0"
     inkscape:pageopacity="0"
     inkscape:pagecheckerboard="0"
     inkscape:deskcolor="#505050"
     inkscape:document-units="px"
     inkscape:zoom="5.6568543"
     inkscape:cx="6.098796"
     inkscape:cy="36.150834"
     inkscape:window-width="1920"
     inkscape:window-height="1017"
     inkscape:window-x="1912"
     inkscape:window-y="-8"
     inkscape:window-maximized="1"
     inkscape:current-layer="layer1" /><defs
     id="defs1" /><g
     inkscape:label="Layer 1"
     inkscape:groupmode="layer"
     id="layer1"><path
       id="path43"
       style="fill:#f2f2f2;stroke-width:2.64813;stroke-linecap:round;stroke-linejoin:round"
       d="M 2.625 17.291016 L 2.625 25.869141 L 2.9023438 25.869141 C 3.647304 25.869141 4.2480469 25.270353 4.2480469 24.525391 L 4.2480469 21.580078 L 9.9257812 18.634766 C 11.361881 17.889804 11.914882 17.291016 11.169922 17.291016 L 2.625 17.291016 z M 15.443359 17.291016 C 14.698398 17.291016 12.945865 17.889803 11.509766 18.634766 L 5.8320312 21.580078 L 5.8320312 24.525391 C 5.8320312 25.270353 6.43082 25.869141 7.1757812 25.869141 L 20.390625 25.869141 C 21.135586 25.869141 21.734375 25.270353 21.734375 24.525391 L 21.734375 21.580078 L 27.412109 18.634766 C 28.848198 17.889803 29.403162 17.291016 28.658203 17.291016 L 15.443359 17.291016 z M 32.927734 17.291016 C 32.182765 17.291016 30.430249 17.889804 28.994141 18.634766 L 23.316406 21.580078 L 23.316406 24.525391 C 23.316406 25.270353 23.915198 25.869141 24.660156 25.869141 L 35.960938 25.869141 L 46.472656 19.96875 L 46.472656 18 C 46.472656 17.402659 46.171811 17.291016 45.732422 17.291016 L 32.927734 17.291016 z M 45.853516 22.130859 C 45.728146 22.137959 45.589692 22.183999 45.445312 22.271484 L 36.808594 27.503906 L 33.466797 27.503906 C 32.721838 27.503906 32.123047 28.102696 32.123047 28.847656 L 32.123047 34.695312 C 32.123047 35.440276 32.721838 36.039062 33.466797 36.039062 L 36.808594 36.039062 L 45.445312 30.806641 C 46.022832 30.456714 46.494141 29.582852 46.494141 28.837891 L 46.494141 22.990234 C 46.494141 22.431514 46.229625 22.109672 45.853516 22.130859 z M 2.625 27.503906 L 2.625 36.039062 L 11.625 36.039062 C 12.369961 36.039062 12.970703 35.440276 12.970703 34.695312 L 12.970703 28.847656 C 12.970703 28.102695 12.369961 27.503906 11.625 27.503906 L 2.625 27.503906 z M 15.941406 27.503906 C 15.196445 27.503906 14.595703 28.102695 14.595703 28.847656 L 14.595703 34.695312 C 14.595703 35.440276 15.196445 36.039062 15.941406 36.039062 L 29.154297 36.039062 C 29.899256 36.039062 30.498047 35.440276 30.498047 34.695312 L 30.498047 28.847656 C 30.498047 28.102695 29.899256 27.503906 29.154297 27.503906 L 15.941406 27.503906 z M 46.472656 31.927734 L 42.773438 34.126953 C 42.192988 34.472008 41.726563 35.348789 41.726562 36.09375 L 41.726562 41.941406 C 41.726562 42.686369 42.192988 43.007164 42.773438 42.662109 L 46.472656 40.462891 L 46.472656 31.927734 z M 39.820312 35.988281 C 39.694943 35.995081 39.557229 36.038731 39.412109 36.125 L 36.808594 37.673828 L 24.662109 37.673828 C 23.917149 37.673828 23.316406 38.272618 23.316406 39.017578 L 23.316406 44.865234 C 23.316406 45.610196 23.917149 46.208984 24.662109 46.208984 L 36.808594 46.208984 L 39.412109 44.660156 C 39.992559 44.315097 40.458984 43.440276 40.458984 42.695312 L 40.458984 36.847656 C 40.458984 36.288936 40.196412 35.968032 39.820312 35.988281 z M 2.625 37.673828 L 2.625 46.208984 L 2.9023438 46.208984 C 3.647305 46.208984 4.2480469 45.610197 4.2480469 44.865234 L 4.2480469 39.017578 C 4.2480469 38.272617 3.647305 37.673828 2.9023438 37.673828 L 2.625 37.673828 z M 7.1757812 37.673828 C 6.43082 37.673828 5.8320313 38.272617 5.8320312 39.017578 L 5.8320312 44.865234 C 5.8320312 45.610197 6.43082 46.208984 7.1757812 46.208984 L 20.390625 46.208984 C 21.135586 46.208984 21.734375 45.610197 21.734375 44.865234 L 21.734375 39.017578 C 21.734375 38.272617 21.135586 37.673828 20.390625 37.673828 L 7.1757812 37.673828 z " /></g></svg>
