<?xml version="1.0" encoding="UTF-8" standalone="no"?>
<!-- Created with Inkscape (http://www.inkscape.org/) -->

<svg
   width="48"
   height="48"
   viewBox="0 0 48 48"
   version="1.1"
   id="svg1"
   xml:space="preserve"
   inkscape:version="1.3 (0e150ed6c4, 2023-07-21)"
   sodipodi:docname="wall-solid.svg"
   xmlns:inkscape="http://www.inkscape.org/namespaces/inkscape"
   xmlns:sodipodi="http://sodipodi.sourceforge.net/DTD/sodipodi-0.dtd"
   xmlns="http://www.w3.org/2000/svg"
   xmlns:svg="http://www.w3.org/2000/svg"><sodipodi:namedview
     id="namedview1"
     pagecolor="#505050"
     bordercolor="#eeeeee"
     borderopacity="1"
     inkscape:showpageshadow="0"
     inkscape:pageopacity="0"
     inkscape:pagecheckerboard="0"
     inkscape:deskcolor="#505050"
     inkscape:document-units="px"
     inkscape:zoom="5.6568543"
     inkscape:cx="20.064155"
     inkscape:cy="33.67596"
     inkscape:window-width="1920"
     inkscape:window-height="1017"
     inkscape:window-x="1912"
     inkscape:window-y="-8"
     inkscape:window-maximized="1"
     inkscape:current-layer="layer1" /><defs
     id="defs1" /><g
     inkscape:label="Layer 1"
     inkscape:groupmode="layer"
     id="layer1"><path
       id="rect33"
       style="fill:#ffffff;stroke-width:3;stroke-linecap:round;stroke-linejoin:round"
       d="m 0.97265625,27.627617 v 8.535156 H 4.3144531 c 0.7449633,0 1.34375,-0.598786 1.34375,-1.34375 v -5.847656 c 0,-0.744963 -0.5987867,-1.34375 -1.34375,-1.34375 z m 7.65624995,0 c -0.7449631,0 -1.34375,0.598787 -1.34375,1.34375 v 5.847656 c 0,0.744964 0.5987869,1.34375 1.34375,1.34375 H 21.841797 c 0.744963,0 1.345703,-0.598786 1.345703,-1.34375 v -5.847656 c 0,-0.744963 -0.60074,-1.34375 -1.345703,-1.34375 z m 17.5292968,0 c -0.744963,0 -1.345703,0.598787 -1.345703,1.34375 v 5.847656 c 0,0.744964 0.60074,1.34375 1.345703,1.34375 h 13.212891 c 0.744963,0 1.34375,-0.598786 1.34375,-1.34375 v -5.847656 c 0,-0.744963 -0.598787,-1.34375 -1.34375,-1.34375 z m 17.527344,0 c -0.744963,0 -1.34375,0.598787 -1.34375,1.34375 v 5.847656 c 0,0.744964 0.598787,1.34375 1.34375,1.34375 h 3.341797 v -8.535156 z" /><path
       id="rect9"
       style="fill:#ffffff;stroke-width:3;stroke-linecap:round;stroke-linejoin:round"
       d="m 0.97265625,37.797539 v 8.535156 H 13.119141 c 0.744963,0 1.345703,-0.598787 1.345703,-1.34375 v -5.847656 c 0,-0.744963 -0.60074,-1.34375 -1.345703,-1.34375 z m 16.41992175,0 c -0.744963,0 -1.34375,0.598787 -1.34375,1.34375 v 5.847656 c 0,0.744963 0.598787,1.34375 1.34375,1.34375 h 13.214844 c 0.744963,0 1.34375,-0.598787 1.34375,-1.34375 v -5.847656 c 0,-0.744963 -0.598787,-1.34375 -1.34375,-1.34375 z m 17.488281,0 c -0.744963,0 -1.345703,0.598787 -1.345703,1.34375 v 5.847656 c 0,0.744963 0.60074,1.34375 1.345703,1.34375 h 12.146485 v -8.535156 z" /><path
       id="rect23"
       style="fill:#ffffff;stroke-width:3;stroke-linecap:round;stroke-linejoin:round"
       d="m 8.1738281,17.414727 c -0.7449623,0 -2.4994452,0.598787 -3.9355469,1.34375 l -3.26562495,1.693359 v 5.541015 H 13.119141 c 0.744962,0 1.345703,-0.598786 1.345703,-1.34375 v -2.945312 l 5.677734,-2.945312 c 1.436102,-0.744963 1.989103,-1.34375 1.244141,-1.34375 z" /><path
       id="rect24"
       style="fill:#ffffff;stroke-width:3;stroke-linecap:round;stroke-linejoin:round"
       d="m 25.660156,17.414727 c -0.744963,0 -2.497491,0.598787 -3.933594,1.34375 l -5.677734,2.945312 v 2.945312 c 0,0.744964 0.598787,1.34375 1.34375,1.34375 h 13.214844 c 0.744963,0 1.34375,-0.598786 1.34375,-1.34375 v -2.945312 l 5.677734,-2.945312 c 1.436103,-0.744963 1.991057,-1.34375 1.246094,-1.34375 z" /><path
       id="rect25"
       style="fill:#ffffff;stroke-width:3;stroke-linecap:round;stroke-linejoin:round"
       d="m 43.148438,17.414727 c -0.744964,0 -2.499447,0.598787 -3.935547,1.34375 l -5.677735,2.945312 v 2.945312 c 0,0.744964 0.600741,1.34375 1.345703,1.34375 h 12.146485 v -8.578124 z" /><path
       id="rect26"
       style="fill:#ffffff;stroke-width:3;stroke-linecap:round;stroke-linejoin:round"
       d="m 0.97265625,17.414727 v 2.216797 L 2.6542969,18.758477 c 1.4361015,-0.744963 1.9910563,-1.34375 1.2460937,-1.34375 z" /></g></svg>
