<svg
   aria-hidden="true"
   focusable="false"
   data-prefix="fas"
   data-icon="hand-holding"
   class="svg-inline--fa fa-hand-holding fa-w-18"
   role="img"
   viewBox="0 0 576 512"
   version="1.1"
   id="svg4"
   xmlns="http://www.w3.org/2000/svg"
   xmlns:svg="http://www.w3.org/2000/svg">
  <defs
     id="defs8" />
  <path
     fill="#ffffff"
     d="m 565.3,225.55787 c -11.8,10.7 -30.2,10 -42.6,0 l -92.4,-73.9 c -11.3,-9.1 -25.4,-14 -40,-14 H 272 c -8.8,0 -16,7.2 -16,16 0,8.8 7.2,16 16,16 h 78.3 c 15.9,0 30.7,10.9 33.3,26.6 3.3,20 -12.1,37.4 -31.6,37.4 H 192 c -27,0 -53.1,-9.3 -74.1,-26.3 l -46.5,-37.7 H 16 c -8.8,0 -16,-7.2 -16,-16 V 57.657867 c 0,-8.8 7.2,-16 16,-16 h 356.8 c 14.5,0 28.6,4.9 40,14 L 564,176.65787 c 15.2,12.1 16.4,35.3 1.3,48.9 z"
     id="path2" />
  <rect
     style="fill:#ffffff;stroke-width:30;stroke-linecap:round;stroke-linejoin:round"
     id="rect847"
     width="186.57024"
     height="186.57024"
     x="260.62863"
     y="-470.34213"
     ry="36.317108"
     transform="scale(1,-1)" />
</svg>
