<?xml version="1.0" encoding="UTF-8" standalone="no"?>
<svg
   viewBox="0 0 512 512"
   width="512"
   height="512"
   version="1.1"
   id="svg6"
   sodipodi:docname="take-item.svg"
   inkscape:version="1.1.1 (3bf5ae0d25, 2021-09-20)"
   xmlns:inkscape="http://www.inkscape.org/namespaces/inkscape"
   xmlns:sodipodi="http://sodipodi.sourceforge.net/DTD/sodipodi-0.dtd"
   xmlns="http://www.w3.org/2000/svg"
   xmlns:svg="http://www.w3.org/2000/svg">
  <defs
     id="defs10">
    <inkscape:path-effect
       effect="fill_between_many"
       method="originald"
       linkedpaths="#path114,0,1"
       id="path-effect1322" />
    <inkscape:path-effect
       effect="fill_between_many"
       method="originald"
       linkedpaths="#rect2378,0,1"
       id="path-effect2478" />
    <inkscape:path-effect
       effect="fill_between_many"
       method="originald"
       linkedpaths="#rect2664,0,1|"
       id="path-effect2782" />
  </defs>
  <sodipodi:namedview
     id="namedview8"
     pagecolor="#ffffff"
     bordercolor="#666666"
     borderopacity="1.0"
     inkscape:pageshadow="2"
     inkscape:pageopacity="0.0"
     inkscape:pagecheckerboard="true"
     showgrid="false"
     inkscape:zoom="0.99298786"
     inkscape:cx="114.3015"
     inkscape:cy="345.92568"
     inkscape:window-width="2560"
     inkscape:window-height="1377"
     inkscape:window-x="-8"
     inkscape:window-y="-8"
     inkscape:window-maximized="1"
     inkscape:current-layer="svg6" />
  <path
     fill="#ffffff"
     d="m 356.57809,314.09988 1.22795,70.86443 c 0.23918,13.80273 11.57866,25.16309 25.39543,25.14784 17.59929,-0.0298 24.09568,-13.34905 27.08912,-32.8309 0,0 12.72841,-101.04889 11.30061,-115.43232 -0.8189,-8.24951 -13.03364,-42.24745 -12.17005,-50.51048 l 5.40257,-51.69277 27.59168,-55.41155 c 3.27524,-6.577574 8.61255,-13.38715 -3e-5,-19.645707 L 359.29635,34.10425 c -6.04454,-4.225575 -10.71217,-3.048589 -14.61673,1.497984 L 131.9429,256.25691 c -8.90195,8.90197 -14.55009,20.56661 -15.96215,33.15214 L 66.849552,442.60171 c -6.177281,15.69618 2.990638,33.66194 20.248091,37.33395 13.517287,2.92376 27.049057,-5.58932 32.032427,-18.49104 l 55.68091,-153.38373 c 11.8095,-27.6961 67.24944,-57.54465 106.59907,-61.14384 45.51905,-1.40698 64.22802,26.06869 75.16804,67.18283 z"
     id="path53"
     style="fill:#000000;stroke-width:0.868226"
     sodipodi:nodetypes="csccsscsccccccccccc" />
  <path
     inkscape:original-d="M 0,0"
     inkscape:path-effect="#path-effect1322"
     d="M 0,0"
     id="path1324"
     style="fill:#ffffff" />
  <path
     inkscape:original-d="M 150.43202,-237.57655"
     inkscape:path-effect="#path-effect2782"
     d="M 204.21043,365.81702 H 307.46495 V 469.07153 H 204.21043 Z"
     id="path2784"
     style="stroke-width:1.51042" />
  <rect
     style="fill:#000000;fill-opacity:0;stroke:none;stroke-width:45.3125;stroke-linecap:round;stroke-linejoin:round"
     id="rect2664"
     width="103.25452"
     height="103.25452"
     x="204.21043"
     y="365.81702" />
</svg>
