<?xml version="1.0" encoding="UTF-8" standalone="no"?>
<svg
   viewBox="0 0 512 512"
   width="512"
   height="512"
   version="1.1"
   id="svg6"
   sodipodi:docname="take-item-bag.svg"
   inkscape:version="1.1.1 (3bf5ae0d25, 2021-09-20)"
   xmlns:inkscape="http://www.inkscape.org/namespaces/inkscape"
   xmlns:sodipodi="http://sodipodi.sourceforge.net/DTD/sodipodi-0.dtd"
   xmlns="http://www.w3.org/2000/svg"
   xmlns:svg="http://www.w3.org/2000/svg">
  <defs
     id="defs10" />
  <sodipodi:namedview
     id="namedview8"
     pagecolor="#ffffff"
     bordercolor="#666666"
     borderopacity="1.0"
     inkscape:pageshadow="2"
     inkscape:pageopacity="0.0"
     inkscape:pagecheckerboard="0"
     showgrid="false"
     inkscape:zoom="1.4042969"
     inkscape:cx="230.72045"
     inkscape:cy="248.879"
     inkscape:window-width="2560"
     inkscape:window-height="1377"
     inkscape:window-x="-8"
     inkscape:window-y="-8"
     inkscape:window-maximized="1"
     inkscape:current-layer="svg6" />
  <g
     class=""
     transform="matrix(0.59077167,0,0,0.59077167,68.114314,211.36819)"
     id="g4">
    <path
       d="m 363.783,23.545 c -9.782,0.057 -16.583,3.047 -20.744,10.22 -17.51,30.18 -38.432,61.645 -48.552,97.245 2.836,0.83 5.635,1.787 8.373,2.853 7.353,2.863 14.38,6.482 20.542,10.858 27.534,-25.542 58.165,-45.21 87.45,-65.462 11.356,-7.854 12.273,-13.584 10.183,-20.83 -2.09,-7.246 -9.868,-16.365 -20.525,-23.176 -10.658,-6.81 -23.87,-11.33 -34.73,-11.68 -0.68,-0.022 -1.345,-0.03 -1.997,-0.027 z m -68.998,0.746 c -10.02,-0.182 -17.792,6.393 -23.924,20.24 -8.94,20.194 -10.212,53.436 -1.446,83.185 0.156,-0.008 0.31,-0.023 0.467,-0.03 1.99,-0.087 3.99,-0.072 6,0.03 9.436,-34.822 27.966,-64.72 44.013,-91.528 -10.31,-8.496 -18.874,-11.782 -25.108,-11.896 z M 197.5,82.5 187,97.97 c 14.82,10.04 29.056,19.725 39.813,31.374 3.916,4.24 7.37,8.722 10.31,13.607 3.77,-4.73 8.51,-8.378 13.69,-10.792 0.407,-0.188 0.82,-0.355 1.228,-0.53 -3.423,-5.44 -7.304,-10.418 -11.51,-14.972 C 227.765,102.83 212.29,92.52 197.5,82.5 Z m 223.77,12.27 c -29.255,20.228 -58.575,39.152 -84.348,62.78 0.438,0.576 0.848,1.168 1.258,1.76 20.68,-6.75 49.486,-15.333 73.916,-19.41 11.484,-1.916 15.66,-6.552 17.574,-13.228 1.914,-6.676 0.447,-16.71 -5.316,-26.983 -0.924,-1.647 -1.96,-3.29 -3.083,-4.92 z m -223.938,47.87 c -14.95,0.2 -29.732,4.3 -43.957,12.766 l 9.563,16.03 c 21.657,-12.89 42.626,-14.133 65.232,-4.563 0.52,-5.592 1.765,-10.66 3.728,-15.21 0.35,-0.806 0.73,-1.586 1.123,-2.354 -11.87,-4.52 -23.83,-6.827 -35.688,-6.67 z m 75.8,3.934 c -5.578,-0.083 -10.597,0.742 -14.427,2.526 -4.377,2.038 -7.466,4.914 -9.648,9.97 -0.884,2.047 -1.572,4.54 -1.985,7.494 0.456,-0.007 0.91,-0.03 1.365,-0.033 16.053,-0.084 32.587,2.77 49.313,9.19 7.714,2.96 15.062,7.453 22.047,13.184 3.217,-2.445 4.99,-4.72 5.773,-6.535 1.21,-2.798 1.095,-5.184 -0.634,-8.82 -3.46,-7.275 -15.207,-16.955 -28.856,-22.27 -6.824,-2.658 -13.98,-4.224 -20.523,-4.614 -0.818,-0.05 -1.627,-0.08 -2.424,-0.092 z m -24.757,38.457 c -22.982,0.075 -44.722,7.386 -65,19.782 -32.445,19.835 -60.565,53.124 -80.344,90.032 -19.777,36.908 -31.133,77.41 -31.186,110.53 -0.053,33.06 10.26,57.27 32.812,67.782 0.043,0.02 0.082,0.043 0.125,0.063 h 0.032 c 24.872,11.51 65.616,19.337 108.407,20.092 42.79,0.756 87.79,-5.457 121.874,-20.187 21.96,-9.49 34.545,-28.452 40.5,-54.156 5.954,-25.705 4.518,-57.657 -2.375,-89.314 -6.894,-31.657 -19.2,-63.06 -34.095,-87.875 -14.894,-24.814 -32.614,-42.664 -48.063,-48.593 -14.664,-5.627 -28.898,-8.2 -42.687,-8.156 z"
       fill="#ffffff"
       fill-opacity="1"
       id="path2" />
  </g>
  <path
     fill="currentColor"
     d="m 102.31307,380.37556 c 11.24498,2.43227 22.50201,-4.64973 26.64766,-15.38262 L 171.46992,254.6613 240.1303,191.84659 c 7.83028,-3.36143 13.2592,-2.62237 15.33614,-2.51765 17.94692,0.90485 61.92543,18.88577 71.02639,53.08847 l 1.02153,58.95185 c 0.19897,11.48244 9.63224,20.93308 21.12636,20.92039 14.64078,-0.0248 20.0451,-11.10502 22.53533,-27.3119 0,0 10.58872,-84.06219 9.40094,-96.02771 -0.68124,-6.86273 -10.84264,-35.14549 -10.12422,-42.01947 l 4.49438,-43.00302 22.95341,-46.096665 c 2.72466,-5.471862 7.16475,-11.136715 -2e-5,-16.343194 L 328.75414,9.4901042 C 323.72571,5.9748644 319.84273,6.953995 316.59454,10.736272 L 139.61967,194.29806 c -7.4055,7.40552 -12.10416,17.10929 -13.27885,27.57914 L 85.468755,349.31759 c -5.138857,13.05759 2.487896,28.00324 16.844315,31.05797 z"
     id="path53"
     style="fill:#ffffff;stroke-width:0.722274"
     sodipodi:nodetypes="ccccscsccsscsccccccc" />
</svg>
